<svg height="512.00104pt" viewBox="0 0 512.00104 512.00104" width="512.00104pt" xmlns="http://www.w3.org/2000/svg"><path d="m512 256c0 141.386719-114.613281 256-256 256-141.382812 0-256-114.613281-256-256 0-141.382812 114.617188-256 256-256 141.386719 0 256 114.617188 256 256zm0 0" fill="#ddd"/><path d="m406.417969 256c0-141.382812-67.34375-256-150.417969-256s-150.417969 114.617188-150.417969 256c0 141.386719 67.34375 256 150.417969 256s150.417969-114.613281 150.417969-256zm0 0" fill="#ffdb56"/><path d="m512 256c0-83.074219-114.613281-150.417969-256-150.417969-141.382812 0-256 67.34375-256 150.417969s114.617188 150.417969 256 150.417969c141.386719 0 256-67.34375 256-150.417969zm0 0" fill="#ffdb56"/><path d="m512 256c0-6.296875-.667969-12.503906-1.949219-18.597656-15.589843 74.300781-123.382812 131.820312-254.050781 131.820312-130.664062 0-238.457031-57.523437-254.050781-131.820312-1.28125 6.09375-1.949219 12.300781-1.949219 18.597656 0 83.074219 114.613281 150.417969 256 150.417969s256-67.34375 256-150.417969zm0 0" fill="#ffc41f"/><path d="m126.300781 126.300781c-13.164062 38.035157-20.71875 82.363281-20.71875 129.699219s7.554688 91.660156 20.71875 129.699219c38.035157 13.160156 82.363281 20.71875 129.699219 20.71875s91.660156-7.558594 129.699219-20.71875c13.160156-38.039063 20.71875-82.363281 20.71875-129.699219s-7.558594-91.664062-20.71875-129.699219c-38.039063-13.164062-82.363281-20.71875-129.699219-20.71875s-91.664062 7.554688-129.699219 20.71875zm0 0" fill="#ffc41f"/><path d="m385.699219 385.699219c4.535156-13.101563 8.382812-26.960938 11.507812-41.421875-40.476562 15.761718-89.011719 24.945312-141.207031 24.945312s-100.726562-9.183594-141.207031-24.945312c3.125 14.460937 6.972656 28.320312 11.507812 41.421875 38.035157 13.164062 82.363281 20.71875 129.699219 20.71875s91.664062-7.554688 129.699219-20.71875zm0 0" fill="#ffb600"/><path d="m256 0c-6.296875 0-12.503906.667969-18.597656 1.949219 74.300781 15.59375 131.820312 123.382812 131.820312 254.050781 0 130.664062-57.523437 238.457031-131.820312 254.050781 6.09375 1.28125 12.300781 1.949219 18.597656 1.949219 83.074219 0 150.417969-114.613281 150.417969-256 0-141.382812-67.34375-256-150.417969-256zm0 0" fill="#ffc41f"/><path d="m385.699219 126.300781c-13.101563-4.535156-26.960938-8.382812-41.421875-11.507812 15.761718 40.480469 24.945312 89.011719 24.945312 141.207031s-9.183594 100.730469-24.945312 141.207031c14.460937-3.125 28.320312-6.972656 41.421875-11.503906 13.164062-38.039063 20.71875-82.367187 20.71875-129.703125s-7.554688-91.664062-20.71875-129.699219zm0 0" fill="#ffb600"/><g fill="#c90e0e"><path d="m191.867188 218.246094h-36.375c-4.28125 0-7.75 3.472656-7.75 7.75 0 4.28125 3.46875 7.75 7.75 7.75h28.625v23.804687h-28.625c-4.28125 0-7.75 3.46875-7.75 7.75 0 4.277344 3.46875 7.746094 7.75 7.746094h28.625v23.804687h-28.625c-4.28125 0-7.75 3.472657-7.75 7.75 0 4.28125 3.46875 7.75 7.75 7.75h36.375c4.277343 0 7.746093-3.46875 7.746093-7.75v-78.605468c0-4.277344-3.46875-7.75-7.746093-7.75zm0 0"/><path d="m332.675781 218.246094h-39.300781c-4.28125 0-7.746094 3.472656-7.746094 7.75v78.605468c0 4.28125 3.464844 7.75 7.746094 7.75h39.300781c4.28125 0 7.75-3.46875 7.75-7.75v-78.605468c0-4.277344-3.46875-7.75-7.75-7.75zm-31.550781 47.054687v-31.554687h23.804688v63.105468h-23.804688zm0 0"/><path d="m263.449219 233.746094c4.28125 0 7.75-3.46875 7.75-7.75 0-4.277344-3.46875-7.75-7.75-7.75h-39.300781c-4.28125 0-7.75 3.472656-7.75 7.75v78.605468c0 4.28125 3.46875 7.75 7.75 7.75h39.300781c4.28125 0 7.75-3.46875 7.75-7.75v-39.300781c0-4.28125-3.46875-7.75-7.75-7.75h-31.550781v-23.804687zm-31.550781 39.300781h23.800781v23.804687h-23.800781zm0 0"/><path d="m353.707031 165.957031c-11.769531 0-21.339843 9.574219-21.339843 21.339844s9.574218 21.339844 21.339843 21.339844 21.335938-9.574219 21.335938-21.339844-9.570313-21.339844-21.335938-21.339844zm0 27.179688c-3.222656 0-5.84375-2.621094-5.84375-5.839844 0-3.222656 2.621094-5.839844 5.84375-5.839844 3.21875 0 5.839844 2.617188 5.839844 5.839844 0 3.21875-2.621094 5.839844-5.839844 5.839844zm0 0"/></g></svg>