<svg xmlns="http://www.w3.org/2000/svg" viewBox="0 0 117.89 39.91"><defs><style>.cls-1{fill:#010101;}.cls-2{fill:#fff;}</style></defs><title>app-store</title><g id="Layer_2" data-name="Layer 2"><g id="ICON"><path id="background" class="cls-1" d="M4.79,0H113.1a4.8,4.8,0,0,1,4.79,4.79V35.12a4.8,4.8,0,0,1-4.79,4.79H4.79A4.8,4.8,0,0,1,0,35.12V4.79A4.8,4.8,0,0,1,4.79,0Z"/><g id="icon-2" data-name="icon"><path id="Fill-2" class="cls-2" d="M25.8,19a5.17,5.17,0,0,1,2.45-4.31,5.31,5.31,0,0,0-4.15-2.24c-1.74-.18-3.43,1-4.31,1s-2.28-1-3.75-1a5.48,5.48,0,0,0-4.63,2.83c-2,3.47-.52,8.58,1.41,11.39,1,1.37,2.08,2.92,3.56,2.86s2-.92,3.71-.92,2.23.92,3.73.89,2.51-1.38,3.44-2.77a11.48,11.48,0,0,0,1.58-3.21,5,5,0,0,1-3-4.57"/><path id="Fill-3" class="cls-2" d="M23,10.65A5.13,5.13,0,0,0,24.13,7,5.16,5.16,0,0,0,20.8,8.75a4.86,4.86,0,0,0-1.19,3.49A4.28,4.28,0,0,0,23,10.65"/></g><path id="Fill-4" class="cls-2" d="M46.65,29.42h-2L43.54,26H39.71l-1.05,3.46H36.71L40.5,17.63h2.34l3.81,11.79ZM43.21,24.5l-1-3.07c-.1-.32-.3-1.05-.59-2.22h0c-.12.5-.3,1.25-.56,2.22L40,24.5Z"/><path id="Fill-5" class="cls-2" d="M56.4,25.07a4.77,4.77,0,0,1-1.18,3.42,3.46,3.46,0,0,1-2.62,1.12,2.64,2.64,0,0,1-2.43-1.2v4.46H48.28V23.71c0-.91,0-1.83-.07-2.79h1.66l.1,1.35h0a3.15,3.15,0,0,1,2.87-1.53,3.18,3.18,0,0,1,2.51,1.19,4.67,4.67,0,0,1,1,3.14Zm-1.93.06a3.44,3.44,0,0,0-.56-2,1.91,1.91,0,0,0-1.64-.84,2,2,0,0,0-1.27.47,2.15,2.15,0,0,0-.74,1.21,2.35,2.35,0,0,0-.09.57v1.42a2.26,2.26,0,0,0,.57,1.57,1.89,1.89,0,0,0,1.47.64,1.91,1.91,0,0,0,1.66-.83,3.58,3.58,0,0,0,.6-2.17Z"/><path id="Fill-6" class="cls-2" d="M66.17,25.07A4.77,4.77,0,0,1,65,28.49a3.47,3.47,0,0,1-2.62,1.12,2.64,2.64,0,0,1-2.43-1.2v4.46H58.05V23.71c0-.91,0-1.83-.07-2.79h1.66l.1,1.35h0a3.35,3.35,0,0,1,5.37-.34,4.62,4.62,0,0,1,1,3.14Zm-1.93.06a3.44,3.44,0,0,0-.56-2A1.91,1.91,0,0,0,62,22.25a2,2,0,0,0-1.27.47A2.2,2.2,0,0,0,60,23.93a2.35,2.35,0,0,0-.09.57v1.42a2.26,2.26,0,0,0,.57,1.57,1.89,1.89,0,0,0,1.47.64,1.93,1.93,0,0,0,1.66-.83,3.51,3.51,0,0,0,.6-2.17Z"/><path id="Fill-7" class="cls-2" d="M77.1,26.12a3.17,3.17,0,0,1-1,2.45,4.69,4.69,0,0,1-3.21,1,5.57,5.57,0,0,1-3-.74l.44-1.57A5.27,5.27,0,0,0,73,28a2.56,2.56,0,0,0,1.66-.48,1.56,1.56,0,0,0,.6-1.28,1.68,1.68,0,0,0-.49-1.21,4.7,4.7,0,0,0-1.63-.91C71,23.37,70,22.24,70,20.77a3,3,0,0,1,1.09-2.38,4.32,4.32,0,0,1,2.9-.93,5.74,5.74,0,0,1,2.67.56l-.48,1.53A4.8,4.8,0,0,0,73.92,19a2.36,2.36,0,0,0-1.57.49,1.42,1.42,0,0,0-.47,1.07,1.44,1.44,0,0,0,.54,1.15,6.32,6.32,0,0,0,1.72.91,5.62,5.62,0,0,1,2.23,1.43,3,3,0,0,1,.73,2.06"/><path id="Fill-8" class="cls-2" d="M83.36,22.34H81.28v4.13c0,1,.36,1.57,1.1,1.57a3.23,3.23,0,0,0,.83-.09l.06,1.44a4.5,4.5,0,0,1-1.47.21,2.3,2.3,0,0,1-1.75-.69,3.35,3.35,0,0,1-.63-2.29V22.33H78.19V20.92h1.23V19.36l1.86-.56v2.12h2.08v1.42"/><path id="Fill-9" class="cls-2" d="M92.73,25.1a4.69,4.69,0,0,1-1.12,3.22,4,4,0,0,1-3.11,1.29,3.82,3.82,0,0,1-3-1.24,4.48,4.48,0,0,1-1.11-3.12A4.65,4.65,0,0,1,85.55,22a4,4,0,0,1,3.08-1.26,3.89,3.89,0,0,1,3,1.25,4.41,4.41,0,0,1,1.09,3.1Zm-2,0a3.76,3.76,0,0,0-.5-2,2,2,0,0,0-3.43,0,3.86,3.86,0,0,0-.5,2,3.74,3.74,0,0,0,.5,2,1.93,1.93,0,0,0,3.41,0A3.83,3.83,0,0,0,90.77,25.14Z"/><path id="Fill-10" class="cls-2" d="M98.87,22.58a3.61,3.61,0,0,0-.59,0,1.77,1.77,0,0,0-1.54.75A2.8,2.8,0,0,0,96.26,25v4.46H94.37V23.59c0-1,0-1.87-.05-2.67H96L96,22.55h.06A2.88,2.88,0,0,1,97,21.2a2.33,2.33,0,0,1,1.37-.46,3.3,3.3,0,0,1,.47,0v1.8"/><path id="Fill-11" class="cls-2" d="M107.32,24.77a5,5,0,0,1-.07.85h-5.67a2.45,2.45,0,0,0,.82,1.92,2.79,2.79,0,0,0,1.85.59,6.4,6.4,0,0,0,2.29-.39l.3,1.3a7,7,0,0,1-2.85.53,4.13,4.13,0,0,1-3.1-1.16,4.32,4.32,0,0,1-1.13-3.12,4.92,4.92,0,0,1,1-3.21,3.63,3.63,0,0,1,3-1.36,3.15,3.15,0,0,1,2.78,1.36,4.66,4.66,0,0,1,.76,2.69Zm-1.81-.49a2.53,2.53,0,0,0-.36-1.45,1.64,1.64,0,0,0-1.5-.79,1.78,1.78,0,0,0-1.5.76,2.8,2.8,0,0,0-.56,1.47Z"/><g id="Available-on-the"><path id="Fill-12" class="cls-2" d="M42.3,13.42h-1l-.54-1.7H38.89l-.52,1.7h-1l1.86-5.8h1.15ZM40.6,11l-.49-1.52-.29-1.09h0c-.06.25-.14.61-.28,1.09L39.05,11Z"/><path id="Fill-13" class="cls-2" d="M47,9.23l-1.58,4.19h-.9L43,9.23h1l.71,2.22q.18.54.3,1.05h0c.08-.3.18-.66.31-1.05L46,9.23h1"/><path id="Fill-14" class="cls-2" d="M50.33,13.42l-.07-.48h0a1.46,1.46,0,0,1-1.23.57,1.2,1.2,0,0,1-1.27-1.23c0-1,.89-1.56,2.44-1.56v-.08c0-.55-.3-.82-.87-.82a1.91,1.91,0,0,0-1.09.31L48,9.52a2.7,2.7,0,0,1,1.44-.36c1.09,0,1.65.58,1.65,1.73v1.55a5.31,5.31,0,0,0,.06,1Zm-.13-2.09c-1,0-1.55.25-1.55.85a.59.59,0,0,0,.64.65A.88.88,0,0,0,50.2,12Z"/><path id="Fill-15" class="cls-2" d="M53.17,8.55A.56.56,0,1,1,53.76,8a.54.54,0,0,1-.59.56Zm-.44.68h.92v4.18h-.92Z"/><path id="Fill-16" class="cls-2" d="M55.3,7.32h.93v6.09H55.3Z"/><path id="Fill-17" class="cls-2" d="M60.17,13.42l-.07-.48h0a1.45,1.45,0,0,1-1.22.57,1.21,1.21,0,0,1-1.28-1.23c0-1,.89-1.56,2.44-1.56v-.08c0-.55-.29-.82-.87-.82a1.93,1.93,0,0,0-1.09.31l-.19-.62a2.66,2.66,0,0,1,1.43-.36Q61,9.15,61,10.89v1.54a6.57,6.57,0,0,0,0,1ZM60,11.33c-1,0-1.54.25-1.54.85a.58.58,0,0,0,.63.65A.88.88,0,0,0,60,12Z"/><path id="Fill-18" class="cls-2" d="M64.71,13.51a1.39,1.39,0,0,1-1.31-.74h0l-.06.65h-.79c0-.34,0-.71,0-1.13v-5h.93V9.85h0a1.44,1.44,0,0,1,1.33-.7c1,0,1.71.87,1.71,2.12A2,2,0,0,1,64.71,13.51Zm-.19-3.63a1.07,1.07,0,0,0-1,1.11v.73a1,1,0,0,0,1,1c.69,0,1.11-.57,1.11-1.47S65.18,9.88,64.52,9.88Z"/><path id="Fill-19" class="cls-2" d="M67.93,7.32h.93v6.09h-.93Z"/><path id="Fill-20" class="cls-2" d="M73.91,11.55H71.12a1.21,1.21,0,0,0,1.32,1.24,3.39,3.39,0,0,0,1.13-.2l.14.64a3.33,3.33,0,0,1-1.4.26,1.94,1.94,0,0,1-2.08-2.11,2,2,0,0,1,2-2.24,1.76,1.76,0,0,1,1.74,2,1.71,1.71,0,0,1,0,.42Zm-.85-.66c0-.65-.32-1.1-.92-1.1a1.1,1.1,0,0,0-1,1.1Z"/><path id="Fill-21" class="cls-2" d="M79.54,13.51a2,2,0,0,1-2-2.14,2,2,0,0,1,2.09-2.22,2,2,0,0,1,2,2.14A2,2,0,0,1,79.54,13.51Zm0-3.68c-.68,0-1.11.63-1.11,1.5s.44,1.49,1.1,1.49,1.09-.67,1.09-1.51-.43-1.48-1.08-1.48Z"/><path id="Fill-22" class="cls-2" d="M86.61,13.42h-.93V11c0-.74-.29-1.11-.85-1.11a1,1,0,0,0-.92,1v2.48H83v-3c0-.37,0-.76,0-1.2h.82l0,.65h0a1.5,1.5,0,0,1,1.32-.73c.88,0,1.46.67,1.46,1.76v2.51"/><path id="Fill-23" class="cls-2" d="M92.68,9.94h-1v2q0,.78.54.78a2.39,2.39,0,0,0,.42,0l0,.7a2,2,0,0,1-.72.1c-.73,0-1.16-.4-1.16-1.46V9.94h-.61v-.7h.61V8.48l.91-.28v1h1v.71"/><path id="Fill-24" class="cls-2" d="M97.6,13.42h-.93V11c0-.75-.29-1.13-.84-1.13a.91.91,0,0,0-.93,1v2.52H94V7.32h.93V9.83h0a1.39,1.39,0,0,1,1.25-.68c.88,0,1.43.68,1.43,1.78v2.49"/><path id="Fill-25" class="cls-2" d="M102.34,11.55H99.55a1.21,1.21,0,0,0,1.32,1.24,3.39,3.39,0,0,0,1.13-.2l.14.64a3.33,3.33,0,0,1-1.4.26,1.94,1.94,0,0,1-2.08-2.11,2,2,0,0,1,2-2.24,1.76,1.76,0,0,1,1.74,2A1.71,1.71,0,0,1,102.34,11.55Zm-.85-.66c0-.65-.32-1.1-.92-1.1a1.1,1.1,0,0,0-1,1.1Z"/></g></g></g></svg>