<svg id="call-24px_3_" data-name="call-24px (3)" xmlns="http://www.w3.org/2000/svg" width="24" height="24" viewBox="0 0 24 24">
  <path id="Path_5463" data-name="Path 5463" d="M0,0H24V24H0Z" fill="none"/>
  <g id="Group_2963" data-name="Group 2963" transform="translate(-1247 -965.487)">
    <g id="right-arrow" transform="translate(1250 970)">
      <g id="Group_2812" data-name="Group 2812" transform="translate(0 0)">
        <g id="Path_5476" data-name="Path 5476" transform="translate(0 -41.346)">
          <path d="M 10.51542472839355 57.07070159912109 C 10.05067443847656 57.07070159912109 9.614904403686523 56.8908805847168 9.288373947143555 56.56437301635742 L 8.69896411895752 55.97671127319336 C 8.371084213256836 55.64883041381836 8.190954208374023 55.21430969238281 8.190954208374023 54.75238037109375 C 8.190954208374023 54.29268264770508 8.371014595031738 53.85931015014648 8.69797420501709 53.53211212158203 L 11.2485237121582 50.99040985107422 L 0.9724342823028564 50.99040985107422 C 0.02268430404365063 50.99040985107422 -0.7499957084655762 50.20020294189453 -0.7499957084655762 49.22891235351563 L -0.7499957084655762 48.39433288574219 C -0.7499957084655762 47.43062210083008 0.006584303453564644 46.67571258544922 0.9724342823028564 46.67571258544922 L 11.21277618408203 46.67571258544922 L 8.697454452514648 44.15485000610352 C 8.375763893127441 43.83344268798828 8.190804481506348 43.38318252563477 8.190804481506348 42.92033004760742 C 8.190804481506348 42.45597076416016 8.371014595031738 42.02017211914063 8.698244094848633 41.69321060180664 L 9.288154602050781 41.1031494140625 C 9.615564346313477 40.7760124206543 10.05125427246094 40.59600067138672 10.51527404785156 40.59600067138672 C 10.97946453094482 40.59600067138672 11.41518402099609 40.77608108520508 11.74218463897705 41.10308074951172 L 18.24263381958008 47.60367202758789 C 18.57070350646973 47.93124008178711 18.75103378295898 48.36874008178711 18.7499942779541 48.83517074584961 C 18.75127410888672 49.29673004150391 18.57121467590332 49.73389053344727 18.24297523498535 50.06240081787109 L 11.74233436584473 56.56304168701172 C 11.41496467590332 56.89041137695313 10.97924423217773 57.07070159912109 10.51542472839355 57.07070159912109 Z" stroke="none"/>
          <path d="M 10.51527404785156 41.34600067138672 C 10.25127410888672 41.34600067138672 10.00411415100098 41.44800186157227 9.818553924560547 41.6334114074707 L 9.228363990783691 42.22375106811523 C 9.042943954467773 42.40901947021484 8.940804481506348 42.6564826965332 8.940804481506348 42.92032241821289 C 8.940804481506348 43.18404006958008 9.042943954467773 43.43984222412109 9.228363990783691 43.62510299682617 L 13.0206241607666 47.42571258544922 L 0.9724349975585938 47.42571258544922 C 0.4292144775390625 47.42571258544922 3.814697265625e-06 47.85097122192383 3.814697265625e-06 48.39433288574219 L 3.814697265625e-06 49.22891235351563 C 3.814697265625e-06 49.77227020263672 0.4292144775390625 50.24040985107422 0.9724349975585938 50.24040985107422 L 13.06364440917969 50.24040985107422 L 9.228504180908203 54.06224060058594 C 9.043094635009766 54.2477912902832 8.940954208374023 54.48852157592773 8.940954208374023 54.75238037109375 C 8.940954208374023 55.01594161987305 9.043094635009766 55.26018142700195 9.228504180908203 55.44559097290039 L 9.818694114685059 56.03403091430664 C 10.00425434112549 56.21958160400391 10.25142478942871 56.32070159912109 10.51542472839355 56.32070159912109 C 10.77913475036621 56.32070159912109 11.02644443511963 56.21826934814453 11.21200370788574 56.03271102905273 L 17.71243476867676 49.53227996826172 C 17.89843368530273 49.34613037109375 18.00072479248047 49.09764099121094 17.9999942779541 48.83349990844727 C 18.00058364868164 48.5684814453125 17.89843368530273 48.31985092163086 17.71229362487793 48.13399124145508 L 11.21185493469238 41.6334114074707 C 11.02629470825195 41.44784927368164 10.77898406982422 41.34600067138672 10.51527404785156 41.34600067138672 M 10.51527404785156 39.84600067138672 C 11.17979431152344 39.84600067138672 11.80386447906494 40.10409927368164 12.27251434326172 40.57275009155273 L 18.77296447753906 47.07334136962891 C 19.24299430847168 47.54265975952148 19.50147438049316 48.16924285888672 19.4999942779541 48.83684158325195 C 19.49991035461426 49.50036239624023 19.2420825958252 50.12357330322266 18.77352523803711 50.59251022338867 L 12.27266407012939 57.0933723449707 C 11.80363464355469 57.56240081787109 11.17957496643066 57.82070159912109 10.51542472839355 57.82070159912109 C 9.850354194641113 57.82070159912109 9.22624397277832 57.56287002563477 8.758064270019531 57.09472274780273 L 8.169424057006836 56.50782012939453 C 7.699104309082031 56.03750991821289 7.440954208374023 55.41464233398438 7.440954208374023 54.75238037109375 C 7.440954208374023 54.09246063232422 7.69896411895752 53.47082138061523 8.167444229125977 53.00197982788086 L 9.433408737182617 51.74040985107422 L 0.9724349975585938 51.74040985107422 C -0.3908653259277344 51.74040985107422 -1.499996185302734 50.61376190185547 -1.499996185302734 49.22891235351563 L -1.499996185302734 48.39433288574219 C -1.499996185302734 47.72954940795898 -1.242595672607422 47.10746002197266 -0.7751960754394531 46.64266204833984 C -0.3102951049804688 46.18033218383789 0.31036376953125 45.92571258544922 0.9724349975585938 45.92571258544922 L 9.404927253723145 45.92571258544922 L 8.166534423828125 44.68458938598633 C 7.705914497375488 44.22437286376953 7.440804481506348 43.58073043823242 7.440804481506348 42.92032241821289 C 7.440804481506348 42.25551986694336 7.699104309082031 41.63130950927734 8.168134689331055 41.16266250610352 L 8.757763862609863 40.57287979125977 C 9.22707462310791 40.10395050048828 9.851044654846191 39.84600067138672 10.51527404785156 39.84600067138672 Z" stroke="none" fill="#000"/>
        </g>
      </g>
    </g>
    <g id="right-arrow-2" data-name="right-arrow" transform="translate(1250 970)">
      <g id="Group_2812-2" data-name="Group 2812" transform="translate(0 0)">
        <path id="Path_5476-2" data-name="Path 5476" d="M17.712,48.134l-6.5-6.5a.988.988,0,0,0-1.393,0l-.59.59a.978.978,0,0,0-.288.7,1,1,0,0,0,.288.7l3.792,3.8H.972A.961.961,0,0,0,0,48.394v.835A1,1,0,0,0,.972,50.24H13.064L9.229,54.062a.976.976,0,0,0,0,1.383l.59.588a.988.988,0,0,0,1.393,0l6.5-6.5a.994.994,0,0,0,0-1.4Z" transform="translate(0 -41.346)" fill="#ffe100"/>
      </g>
    </g>
  </g>
</svg>
