<svg xmlns="http://www.w3.org/2000/svg" viewBox="0 0 50 50"><defs><style>.cls-1{fill:#727272;}.cls-2{fill:#fff;}</style></defs><title>avatar-circle</title><g id="Layer_2" data-name="Layer 2"><g id="ICON"><circle class="cls-1" cx="25" cy="25" r="25"/><path class="cls-2" d="M33.21,32l-4.36-2.17a1.2,1.2,0,0,1-.66-1.08V27.22l.33-.44a10.41,10.41,0,0,0,1.34-2.64,1.8,1.8,0,0,0,1.06-1.64V20.67a1.8,1.8,0,0,0-.45-1.19V17.05a4.12,4.12,0,0,0-1-3A5.71,5.71,0,0,0,25,12.47a5.71,5.71,0,0,0-4.51,1.61,4.12,4.12,0,0,0-1,3v2.43a1.8,1.8,0,0,0-.45,1.19v1.82a1.82,1.82,0,0,0,.68,1.42,9.56,9.56,0,0,0,1.6,3.3v1.5a1.21,1.21,0,0,1-.63,1.06L16.66,32a4.1,4.1,0,0,0-2.14,3.61v1.93h21V35.69A4.09,4.09,0,0,0,33.21,32Z"/></g></g></svg>