<svg xmlns="http://www.w3.org/2000/svg" viewBox="0 0 45.07 41.41"><defs><style>.cls-1{fill:#727272;}</style></defs><title>bathroom</title><g id="Layer_2" data-name="Layer 2"><g id="ICON"><path class="cls-1" d="M45.07,21.1a3.7,3.7,0,0,0-3.7-3.7H6.21v-12A2.51,2.51,0,0,1,8.72,2.87h.66a2.53,2.53,0,0,1,1.79.74l-.12.12a4.8,4.8,0,0,0,0,6.78l.64.64a1.44,1.44,0,0,0,2,0L20,4.88a1.44,1.44,0,0,0,0-2l-.63-.63a4.79,4.79,0,0,0-6.1-.57A5.37,5.37,0,0,0,9.38,0H8.72A5.39,5.39,0,0,0,3.34,5.38v12a3.7,3.7,0,0,0-1,7.13v4.73a8.65,8.65,0,0,0,6.89,8.46L8,39a1.42,1.42,0,0,0,0,2,1.44,1.44,0,0,0,2,0l3.08-3.08H31.92L35,41a1.38,1.38,0,0,0,1,.42A1.4,1.4,0,0,0,37,41a1.44,1.44,0,0,0,0-2l-1.23-1.23a8.65,8.65,0,0,0,6.89-8.46V24.55a3.72,3.72,0,0,0,2.37-3.45ZM16,3.68a1.87,1.87,0,0,1,.93.24L12.76,8.05a1.93,1.93,0,0,1,.32-2.3l1.51-1.5A1.9,1.9,0,0,1,16,3.68ZM3.7,20.27H41.37a.83.83,0,0,1,.83.83.84.84,0,0,1-.83.84H3.7a.84.84,0,0,1-.83-.84.83.83,0,0,1,.83-.83Zm36.14,9a5.78,5.78,0,0,1-5.78,5.78H11a5.78,5.78,0,0,1-5.78-5.78V24.85H39.84Z"/><path class="cls-1" d="M18.15,14.48a.7.7,0,0,0,1-1l-.7-.7a.69.69,0,0,0-1,0,.68.68,0,0,0,0,1Z"/><path class="cls-1" d="M20.26,13.78l.7.7a.66.66,0,0,0,.49.2.69.69,0,0,0,.49-1.18l-.7-.7a.69.69,0,0,0-1,0,.68.68,0,0,0,0,1Z"/><path class="cls-1" d="M17.74,10.7,17,10a.71.71,0,0,0-1,0,.69.69,0,0,0,0,1l.7.7a.7.7,0,0,0,1-1Z"/><path class="cls-1" d="M19.84,10a.69.69,0,0,0-1,0,.68.68,0,0,0,0,1l.7.7a.66.66,0,0,0,.49.2.69.69,0,0,0,.49-1.18Z"/><path class="cls-1" d="M18.81,7.16a.69.69,0,0,0,0,1l.7.7a.71.71,0,0,0,1,0,.69.69,0,0,0,0-1l-.71-.7a.68.68,0,0,0-1,0Z"/><path class="cls-1" d="M22.22,10.84a.68.68,0,0,0,.49.21.67.67,0,0,0,.49-.21.69.69,0,0,0,0-1l-.7-.7a.69.69,0,1,0-1,1Z"/></g></g></svg>