<svg xmlns="http://www.w3.org/2000/svg" viewBox="0 0 47.92 51.06"><defs><style>.cls-1{fill:#4485ed;}</style></defs><title>brush</title><g id="Layer_2" data-name="Layer 2"><g id="ICON"><path class="cls-1" d="M44.63.94l-12,23.16.21.06a9.45,9.45,0,0,1,1.42.6,7.73,7.73,0,0,1,1.45,1l12-23.21A1.74,1.74,0,1,0,44.63.94Z"/><path class="cls-1" d="M5.16,43.89a26.87,26.87,0,0,0,6.93,4.44,36.32,36.32,0,0,0,8.74,2.72h.22c4.79-.16,8.53-1.76,11.11-4.75,3.38-3.94,4.61-9.86,4.37-15a6.23,6.23,0,0,0-1.61-4,2.5,2.5,0,0,0-.23-.23,5.55,5.55,0,0,0-1.18-.82,7,7,0,0,0-1.16-.49,4.37,4.37,0,0,0-.49-.12,4,4,0,0,0-.69-.06,7.35,7.35,0,0,0-4.52,2.14,38.57,38.57,0,0,1-4,3.28,17.62,17.62,0,0,1-5.1,2.08,44.26,44.26,0,0,1-7.12,1.35A57.84,57.84,0,0,1,4,34.87c-.86,0-1.71,0-2.57-.07H1.18a1.19,1.19,0,0,0-.94.47,1.2,1.2,0,0,0-.18,1.1,18.09,18.09,0,0,0,5.1,7.53ZM3.5,37.23h.38a62.07,62.07,0,0,0,6.9-.39c5.76-.65,10.46-2.06,14-4.18a.66.66,0,0,1,.33-.09.68.68,0,0,1,.31.08A60.09,60.09,0,0,0,33,36.29a.65.65,0,0,1,.42.69,14.46,14.46,0,0,1-3.09,7.8c-2.09,2.42-5.17,3.73-9.17,3.9H21c-.41-.07-1.4-.26-2.74-.63.38-.17.78-.37,1.18-.59s.71-.42,1.07-.65c1.1-.71,2.16-1.52,3-2.18a.21.21,0,0,0-.22-.36,29,29,0,0,1-6.19,1.61c-.65.1-1.28.19-1.86.26s-1.29.15-1.8.2l-.4-.18A28.75,28.75,0,0,1,9.8,44.42c.43,0,.89-.11,1.35-.2s.85-.19,1.27-.31a32.34,32.34,0,0,0,3.2-1.06.15.15,0,0,0-.07-.28,51,51,0,0,1-5.2.13l-1.57,0-1.47-.05-.59-.51L6,41.44c.35,0,.71-.09,1.08-.16l1.05-.23a31.77,31.77,0,0,0,3.6-1.18.14.14,0,0,0-.06-.27c-1.37.13-3.24.15-4.89.13l-1.17,0-1.14,0a15.45,15.45,0,0,1-1.27-2,.32.32,0,0,1,.28-.47Z"/><path class="cls-1" d="M44.53,43.2a2.8,2.8,0,1,1-2.79-2.8,2.79,2.79,0,0,1,2.79,2.8Z"/><path class="cls-1" d="M37.12,49.61A1.42,1.42,0,1,1,35.7,48.2a1.42,1.42,0,0,1,1.42,1.41Z"/><path class="cls-1" d="M44.78,49.28a1.42,1.42,0,1,1-1.41-1.41,1.42,1.42,0,0,1,1.41,1.41Z"/></g></g></svg>