<svg xmlns="http://www.w3.org/2000/svg" viewBox="0 0 55.28 48.49"><defs><style>.cls-1{fill:#fff;}</style></defs><title>bubble</title><g id="Layer_2" data-name="Layer 2"><g id="ICON"><path class="cls-1" d="M50.77,0H4.51A4.51,4.51,0,0,0,0,4.51V31.56a4.51,4.51,0,0,0,4.51,4.51H7.15V47.2a1.29,1.29,0,0,0,.79,1.19,1.43,1.43,0,0,0,.49.1,1.27,1.27,0,0,0,.91-.38l12-12H50.77a4.51,4.51,0,0,0,4.51-4.51v-27A4.51,4.51,0,0,0,50.77,0Zm1.94,31.56a1.94,1.94,0,0,1-1.94,1.94H20.85a1.32,1.32,0,0,0-.87.33h0l-.05,0L9.72,44.1V34.78s0-.08,0-.11A1.28,1.28,0,0,0,8.43,33.5H4.51a1.94,1.94,0,0,1-1.94-1.94v-27A1.94,1.94,0,0,1,4.51,2.57H50.77a1.94,1.94,0,0,1,1.94,1.94V31.56Z"/><path class="cls-1" d="M11.29,12h7.5a1.29,1.29,0,0,0,0-2.57h-7.5a1.29,1.29,0,0,0,0,2.57Z"/><path class="cls-1" d="M11.29,19.32H32.15a1.29,1.29,0,0,0,0-2.57H11.29a1.29,1.29,0,0,0,0,2.57Z"/><path class="cls-1" d="M44,9.39H26.29a1.29,1.29,0,0,0,0,2.57H44a1.29,1.29,0,1,0,0-2.57Z"/><path class="cls-1" d="M44,16.75H39.34a1.29,1.29,0,1,0,0,2.57H44a1.29,1.29,0,1,0,0-2.57Z"/><path class="cls-1" d="M22.93,24.11H11.29a1.29,1.29,0,0,0,0,2.57H22.93a1.29,1.29,0,1,0,0-2.57Z"/><path class="cls-1" d="M44,24.11H29.77a1.29,1.29,0,1,0,0,2.57H44a1.29,1.29,0,1,0,0-2.57Z"/></g></g></svg>