<svg xmlns="http://www.w3.org/2000/svg" viewBox="0 0 32.65 52.07"><defs><style>.cls-1{fill:#4485ed;}</style></defs><title>budget</title><g id="Layer_2" data-name="Layer 2"><g id="ICON"><path class="cls-1" d="M31.36,29c-.58-.46-6.68-7.23-8.33-8.18V3.22A3.21,3.21,0,0,0,19.81,0H3.22A3.22,3.22,0,0,0,0,3.22V34A3.22,3.22,0,0,0,3.22,37.2h7.23l-.3-2.53-.26-.22H6.71a3.53,3.53,0,0,0,0-1.38,3.28,3.28,0,0,0-2.62-2.64,3.14,3.14,0,0,0-1.4,0V6.53a3.94,3.94,0,0,0,.6,0A3.27,3.27,0,0,0,6.6,3.32a3.68,3.68,0,0,0,0-.58h9.9a3.68,3.68,0,0,0-.05.58,3.25,3.25,0,0,0,3.26,3.26,3.94,3.94,0,0,0,.6,0V36.61a12.13,12.13,0,0,1-2.38-3.42s-.62-6.9-4.12-6.9h-.27s-2.65.23-.46,7.79l1,8.41a19.07,19.07,0,0,0,4.11,7.72v.93a.92.92,0,0,0,.91.92h9.84a.91.91,0,0,0,.9-.81C30.12,48,31.48,35.82,32.28,34a3.73,3.73,0,0,0,.27-.92A4.19,4.19,0,0,0,31.36,29Z"/><path class="cls-1" d="M13.83,8.53a2,2,0,1,1-2-1.95,2,2,0,0,1,2,1.95Z"/><path class="cls-1" d="M4.45,18.82A7.08,7.08,0,0,0,10,25.72a3.86,3.86,0,0,1,.31-.51,4.07,4.07,0,0,1,2.93-1.84,5.47,5.47,0,0,1,3.14.61,7.07,7.07,0,1,0-11.9-5.16Zm2.83-.62c.43,0,.44,0,.5-.43a4,4,0,0,1,.28-.95.27.27,0,0,1,.36-.18c.26.08.52.15.78.24s.28.16.17.39a2.88,2.88,0,0,0-.29,1.5,1,1,0,0,0,.08.39.57.57,0,0,0,1,.14,2.17,2.17,0,0,0,.36-.65c.17-.4.33-.81.53-1.18a2.12,2.12,0,0,1,3.23-.68A2.27,2.27,0,0,1,15.05,18a.33.33,0,0,0,.37.29c.21,0,.42,0,.63,0s.29.09.29.28,0,.44,0,.66-.12.29-.31.29h-.46c-.34,0-.35,0-.4.34a4.46,4.46,0,0,1-.34,1.2c-.15.3-.23.33-.54.25l-.69-.2c-.26-.09-.29-.16-.17-.41a3.82,3.82,0,0,0,.41-1.33,1.55,1.55,0,0,0-.12-.87.68.68,0,0,0-1.19-.16,1.92,1.92,0,0,0-.29.5,11.91,11.91,0,0,1-.6,1.36A1.93,1.93,0,0,1,9.8,21.26a2,2,0,0,1-1.88-1.48c-.13-.36-.13-.36-.51-.37H7c-.28,0-.34-.06-.34-.34V18.8c0-.59,0-.59.6-.6Z"/></g></g></svg>