<svg xmlns="http://www.w3.org/2000/svg" viewBox="0 0 44.79 49.41"><defs><style>.cls-1{fill:#4485ed;}</style></defs><title>business</title><g id="Layer_2" data-name="Layer 2"><g id="ICON"><path class="cls-1" d="M15.83,5.32A5.32,5.32,0,1,1,10.51,0a5.32,5.32,0,0,1,5.32,5.32Z"/><path class="cls-1" d="M33.4,5.32A5.32,5.32,0,1,1,28.09,0,5.32,5.32,0,0,1,33.4,5.32Z"/><path class="cls-1" d="M31.44,46.6a2.82,2.82,0,1,0,5.63,0V42.75H31.43Z"/><path class="cls-1" d="M1.55,28.88V46.59a2.82,2.82,0,1,0,5.63,0V29.84a3.85,3.85,0,0,0,2.45-2.77l.93-4.34c1.48,1.73,3.92,2.72,8.29,3.32l.28,0a2.06,2.06,0,0,0,1.93-1.37c3.42-.18,5.53-.88,6.91-2.33l1,4.71a3.72,3.72,0,0,0,2,2.55h1.34A3.41,3.41,0,0,1,34,27.75a53,53,0,0,0-2.5-8.59c-.57-1.05.22-1.41.64-.32a78.24,78.24,0,0,1,2.66,9.26,2.72,2.72,0,0,0-1.9,2.15h-4V42h15.9V30.24h-4a2.72,2.72,0,0,0-1.91-2.15,2.3,2.3,0,0,0,0-.52c-.27-1.35-3.5-14-3.5-14a3.76,3.76,0,0,0-3.78-3.21h0a7.35,7.35,0,0,0-1.21.11,4.35,4.35,0,0,0-1.1.39,4.87,4.87,0,0,0-2.81,3.67,2.1,2.1,0,0,0-.06.24c-.36,2.53-.72,4.12-1.49,4.83s-2.59,1-5.81,1a2.05,2.05,0,0,0-1.75,1c-1.94-.39-3.09-.9-3.7-1.59-.78-.91-1.07-2.6-1.45-5.27a2,2,0,0,0,0-.24,4.88,4.88,0,0,0-2.82-3.67,4.41,4.41,0,0,0-1.1-.4A8.84,8.84,0,0,0,7,10.33H7c-1.85.06-4,1.09-4.47,3.22L.08,25a3.94,3.94,0,0,0,1.47,3.85ZM36.84,30a1.72,1.72,0,0,0,.39,0,2,2,0,0,0,1.12-.63,1.37,1.37,0,0,1,1,.89H34.28a1.34,1.34,0,0,1,1-.88,2.09,2.09,0,0,0,1.52.66Z"/></g></g></svg>