<svg xmlns="http://www.w3.org/2000/svg" viewBox="0 0 52.07 52.07"><defs><style>.cls-1{fill:#4485ed;}</style></defs><title>calendar-time</title><g id="Layer_2" data-name="Layer 2"><g id="ICON"><path class="cls-1" d="M6.51,8.14V1.63a1.63,1.63,0,1,1,3.25,0V8.14a1.63,1.63,0,0,1-3.25,0ZM34.17,9.76A1.63,1.63,0,0,0,35.8,8.14V1.63a1.63,1.63,0,1,0-3.26,0V8.14a1.63,1.63,0,0,0,1.63,1.62Zm17.9,29.29a13,13,0,1,1-13-13,13,13,0,0,1,13,13Zm-3.26,0a9.76,9.76,0,1,0-9.76,9.76,9.77,9.77,0,0,0,9.76-9.76ZM13,19.53H6.51V26H13ZM6.51,35.8H13V29.29H6.51ZM16.27,26h6.51v-6.5H16.27Zm0,9.77h6.51V29.29H16.27Zm-13,2.93V16.27h35.8v6.51H42.3V10.09a3.54,3.54,0,0,0-3.52-3.58H37.42V8.14a3.26,3.26,0,0,1-6.51,0V6.51H11.39V8.14a3.26,3.26,0,0,1-6.51,0V6.51H3.53A3.55,3.55,0,0,0,0,10.09V38.73A3.55,3.55,0,0,0,3.53,42.3H22.78V39.05H3.53a.31.31,0,0,1-.28-.32ZM32.54,26v-6.5H26V26Zm11.39,13H39.05V34.17a1.63,1.63,0,1,0-3.25,0v6.51a1.61,1.61,0,0,0,1.62,1.62h6.51a1.63,1.63,0,1,0,0-3.25Z"/></g></g></svg>