<svg xmlns="http://www.w3.org/2000/svg" viewBox="0 0 45.56 37.02"><defs><style>.cls-1{fill:#fff;}</style></defs><title>camera</title><g id="Layer_2" data-name="Layer 2"><g id="ICON"><path class="cls-1" d="M13.53,21.36a9.26,9.26,0,1,0,9.25-9.26,9.25,9.25,0,0,0-9.25,9.26ZM42.72,5.7h-10C32,2.85,31.33,0,28.48,0H17.09c-2.85,0-3.56,2.85-4.28,5.7h-10A2.85,2.85,0,0,0,0,8.54V34.17A2.86,2.86,0,0,0,2.85,37H42.72a2.85,2.85,0,0,0,2.84-2.85V8.54A2.85,2.85,0,0,0,42.72,5.7ZM22.78,34A12.64,12.64,0,1,1,35.42,21.36,12.63,12.63,0,0,1,22.78,34ZM42.72,14.24H37V11.39h5.7Z"/></g></g></svg>