<svg xmlns="http://www.w3.org/2000/svg" viewBox="0 0 50.61 45.76"><defs><style>.cls-1{fill:#4485ed;}</style></defs><title>capsule</title><g id="Layer_2" data-name="Layer 2"><g id="ICON"><path class="cls-1" d="M41.18,26.91H25.27l-2.34,2.33h4.46V43.43H16.53a7.1,7.1,0,0,1-6.86-5.34H9.41a10.58,10.58,0,0,1-2.17-.22,9.43,9.43,0,0,0,9.29,7.88H41.18a9.43,9.43,0,1,0,0-18.85ZM39,43.31H31.23a1,1,0,1,1,0-2H39a1,1,0,0,1,0,2Zm4,0h-.39a1,1,0,1,1,0-2H43a1,1,0,1,1,0,2ZM33.51,2.75a9.45,9.45,0,0,0-13.33,0L2.75,20.18A9.43,9.43,0,0,0,16.08,33.51L33.51,16.08a9.45,9.45,0,0,0,0-13.33ZM14.43,31.86a7.09,7.09,0,0,1-10,0,7.11,7.11,0,0,1,0-10l7.68-7.68,10,10Zm15.83-16-5.52,5.52a1,1,0,0,1-1.41,0,1,1,0,0,1,0-1.41l5.52-5.52a1,1,0,0,1,1.41,1.41Zm2.82-2.81-.28.27a1,1,0,0,1-1.41,0,1,1,0,0,1,0-1.41l.27-.27a1,1,0,0,1,1.42,0,1,1,0,0,1,0,1.41Z"/></g></g></svg>