<?xml version="1.0" encoding="utf-8"?>
<!-- Generator: Adobe Illustrator 23.0.0, SVG Export Plug-In . SVG Version: 6.00 Build 0)  -->
<svg version="1.1" id="Layer_1" xmlns="http://www.w3.org/2000/svg" xmlns:xlink="http://www.w3.org/1999/xlink" x="0px" y="0px"
	 viewBox="0 0 512 512" style="enable-background:new 0 0 512 512;" xml:space="preserve">
<style type="text/css">
	.st0{fill:none;}
	.st1{fill:#2C76EC;}
</style>
<g>
	<path class="st0" d="M0,0h512v512H0V0z"/>
	<path class="st1" d="M352.6,235.9L330,213.3L225.9,317.4l-45.2-45.2l-22.6,22.6l67.8,67.8C225.9,362.7,352.6,235.9,352.6,235.9z
		 M405.3,64H384V21.3h-42.7V64H170.7V21.3H128V64h-21.3C83,64,64.2,83.2,64.2,106.7L64,405.3c0,23.5,19,42.7,42.7,42.7h298.7
		c23.5,0,42.7-19.2,42.7-42.7V106.7C448,83.2,428.8,64,405.3,64z M405.3,405.3H106.7V170.7h298.7V405.3z"/>
</g>
</svg>
