<svg id="speedhome-24px_1_" data-name="speedhome-24px (1)" xmlns="http://www.w3.org/2000/svg" width="24" height="24" viewBox="0 0 24 24">
  <path id="Path_5434" data-name="Path 5434" d="M0,0H24V24H0Z" fill="none"/>
  <path id="Path_5520" data-name="Path 5520" d="M324.488-102.976a.562.562,0,0,1-.309-.087.561.561,0,0,1-.26-.467l-.085-6.821a.561.561,0,0,1,.33-.518l2.977-1.345a.565.565,0,0,1,.533.038.561.561,0,0,1,.259.466l.059,4.734a.561.561,0,0,1-.554.568.561.561,0,0,1-.568-.554l-.048-3.878-1.861.841.069,5.6,7.052-3.207-.1-7.69-4.82-3.1-4.43,6.1.107,8.691a.56.56,0,0,1-.3.505.565.565,0,0,1-.589-.045l-5.618-4.09a.56.56,0,0,1-.231-.446L316-116a.561.561,0,0,1,.131-.366l4.847-5.805a.561.561,0,0,1,.689-.139l3.117,1.608-.015-1.152a.562.562,0,0,1,.291-.5l2.044-1.125a.562.562,0,0,1,.532-.006l.941.493a.565.565,0,0,1,.3.49l.03,2.429a.561.561,0,0,1-.555.567.56.56,0,0,1-.4-.159.56.56,0,0,1-.169-.395l-.026-2.095-.378-.2-1.485.817.021,1.749a.56.56,0,0,1-.267.484.562.562,0,0,1-.553.021l-3.546-1.83-4.426,5.3.1,7.828,4.484,3.264-.1-7.757a.564.564,0,0,1,.107-.337l4.85-6.677a.562.562,0,0,1,.758-.143l5.52,3.55a.565.565,0,0,1,.258.465l.1,8.357a.561.561,0,0,1-.329.517l-8.168,3.715a.547.547,0,0,1-.225.05" transform="translate(-312.714 125.166)"/>
</svg>
