<svg xmlns="http://www.w3.org/2000/svg" viewBox="0 0 81.79 71.24"><defs><style>.cls-1{fill:#ffe100;}.cls-2{fill:#4485ed;}.cls-3{fill:#fff;}</style></defs><title>colored-no-deposit</title><g id="Layer_2" data-name="Layer 2"><g id="ICON"><path class="cls-1" d="M49.05,18.48,17.16,50.37V18.47h31.9Z"/><path class="cls-1" d="M65.33,18.47H56.49L22.2,52.77H80.47V18.47Z"/><path class="cls-2" d="M56.49,18.47,37.13,37.82l-14.93,15L17,57.91a29,29,0,0,0,42-5.14h6.3a34.3,34.3,0,1,1,0-34.3H59c-.35-.49-.72-1-1.12-1.43Zm-7.44,0,5.14-5.16A29,29,0,0,0,13.32,54.19l3.84-3.82Z"/><path class="cls-3" d="M37.13,37.82,51,23.94A11.88,11.88,0,1,1,37.13,37.82Z"/><path d="M55,12.3A30.34,30.34,0,0,0,12.31,55l.92,1.11L56.14,13.23ZM18.47,47.17V19.79H45.85Zm30-30H15.83V49.81l-2.4,2.4A27.71,27.71,0,0,1,52.21,13.43Z"/><path d="M81.79,17.15H66.06a35.62,35.62,0,1,0,0,36.94H81.79ZM35.62,68.6A33,33,0,1,1,62.94,17.15H59.67c-.24-.32-.48-.64-.74-.95L58,15.1,15.09,58l1.11.92a30.33,30.33,0,0,0,43.48-4.84h3.26A33.13,33.13,0,0,1,35.62,68.6Zm7.94-35.33a4,4,0,0,0,3.93,3.67h2.64a1.32,1.32,0,0,1,0,2.64H47.49a1.33,1.33,0,0,1-1.32-1.32H43.53a4,4,0,0,0,4,4v1.32h2.64V42.21a4,4,0,1,0,0-7.91H47.49a1.32,1.32,0,1,1,0-2.64h2.64A1.32,1.32,0,0,1,51.45,33h2.64a4,4,0,0,0-4-4V27.7h-1l2.3-2.3A10.55,10.55,0,1,1,38.59,38.24ZM22.75,54.09h33.5A27.68,27.68,0,0,1,19,57.8Zm56.4-2.64H25.38L36.49,40.34a13.19,13.19,0,1,0,17-17L57,19.79H79.15Z"/><path d="M23.75,25.06H27.7V22.43H21.11V29h2.64Z"/><path d="M76.51,42.21H73.87v4h-4v2.64h6.59Z"/><path d="M73.87,29h2.64V22.43H69.92v2.63h4Z"/></g></g></svg>