<svg xmlns="http://www.w3.org/2000/svg" viewBox="0 0 70.03 70.03"><defs><style>.cls-1{fill:#4485ed;}.cls-2{fill:#fff;}</style></defs><title>colored-bulb</title><g id="Layer_2" data-name="Layer 2"><g id="ICON"><circle class="cls-1" cx="35.02" cy="35.02" r="33.77"/><path class="cls-2" d="M35,2.5A32.52,32.52,0,1,1,2.5,35,32.56,32.56,0,0,1,35,2.5M35,0A35,35,0,1,0,70,35,35,35,0,0,0,35,0Z"/><path class="cls-2" d="M29,16a14.15,14.15,0,0,0,.59,26.86L30,44a4.18,4.18,0,0,0-.28,3.43,4.11,4.11,0,0,0,2,2.31,4.14,4.14,0,0,0-.1,3.06,4.18,4.18,0,0,0,4.11,2.78,7,7,0,0,0,13.06-4.65,4.2,4.2,0,0,0,1.44-4.75,4.16,4.16,0,0,0-2-2.31,4.18,4.18,0,0,0-2.29-5.54l-.4-1.11A14.15,14.15,0,0,0,29,16ZM43.85,40.77a1.52,1.52,0,0,1,1,2.86L34.13,47.45a1.52,1.52,0,1,1-1-2.86Zm-.53,15.51a4.38,4.38,0,0,1-4.94-1.47L46.22,52a4.38,4.38,0,0,1-2.9,4.26ZM46.78,49,36,52.82A1.52,1.52,0,0,1,35,50l10.74-3.82a1.52,1.52,0,1,1,1,2.86ZM43,36.21a1.34,1.34,0,0,0-.18,1.24l.28.79-.09,0-1.43.51-1.76-4.93,1.16-2.44a1.33,1.33,0,1,0-2.41-1.14l-1.39,2.93a1.34,1.34,0,0,0-.05,1L39,39.67l-2.86,1-1.95-5.45a1.31,1.31,0,0,0-.68-.76l-2.94-1.39a1.33,1.33,0,1,0-1.14,2.4l2.44,1.16,1.76,4.94-1.43.51-.09,0-.28-.78a1.33,1.33,0,0,0-.92-.85,11.49,11.49,0,1,1,12-4.28Z"/><path class="cls-2" d="M17.54,35.12a1.32,1.32,0,0,0-1.7-.81l-2.68.95a1.33,1.33,0,0,0,.89,2.51l2.68-1a1.31,1.31,0,0,0,.81-1.69Z"/><path class="cls-2" d="M53.42,20.93l-2.69,1a1.33,1.33,0,0,0,.9,2.5l2.68-.95a1.33,1.33,0,1,0-.89-2.51Z"/><path class="cls-2" d="M20.72,42.59l-1.85,2.17a1.33,1.33,0,0,0,1.46,2.11,1.27,1.27,0,0,0,.57-.39l1.84-2.17a1.33,1.33,0,0,0-2-1.72Z"/><path class="cls-2" d="M46.19,16.5a1.24,1.24,0,0,0,.56-.39l1.85-2.17a1.33,1.33,0,0,0-2-1.72l-1.84,2.17a1.33,1.33,0,0,0,1.46,2.11Z"/><path class="cls-2" d="M55,31.9l-2.8-.51A1.33,1.33,0,1,0,51.71,34l2.8.52A1.33,1.33,0,0,0,55,31.9Z"/><path class="cls-2" d="M15.76,24.7,13,24.18a1.33,1.33,0,0,0-.48,2.62l2.8.51a1.24,1.24,0,0,0,.69,0,1.33,1.33,0,0,0-.21-2.56Z"/></g></g></svg>