<svg xmlns="http://www.w3.org/2000/svg" xmlns:xlink="http://www.w3.org/1999/xlink" viewBox="0 0 61.78 70.2"><defs><style>.cls-1{fill:none;}.cls-2{fill:#fff;}.cls-2,.cls-3,.cls-6,.cls-7{fill-rule:evenodd;}.cls-3,.cls-4{fill:#4485ed;}.cls-5{clip-path:url(#clip-path);}.cls-6{fill:#ffe100;}</style><clipPath id="clip-path" transform="translate(0)"><rect class="cls-1" width="61.84" height="70.2"/></clipPath></defs><title>colored-video</title><g id="Layer_2" data-name="Layer 2"><g id="ICON"><path class="cls-2" d="M60.41,29.71V62.57a6.28,6.28,0,0,1-6.26,6.26H10.23A6.28,6.28,0,0,1,4,62.57V29.71Z" transform="translate(0)"/><path class="cls-3" d="M1.62,21.59,4,29.71,58.18,14,55.83,5.89a6.27,6.27,0,0,0-7.75-4.27L5.89,13.84a6.27,6.27,0,0,0-4.27,7.75Z" transform="translate(0)"/><rect class="cls-4" x="3.97" y="29.71" width="56.44" height="12.83"/><g class="cls-5"><path class="cls-6" d="M40.3,55.55l-6-3.48-6-3.48V62.5l6-3.48Z" transform="translate(0)"/><path class="cls-7" d="M60.41,28.34H13.63l44.93-13a1.37,1.37,0,0,0,.94-1.7L57.15,5.51A7.67,7.67,0,0,0,49.81,0,7.47,7.47,0,0,0,47.7.3L5.51,12.52A7.64,7.64,0,0,0,.3,22L2.6,29.9V62.57a7.64,7.64,0,0,0,7.63,7.63H26.71a1.37,1.37,0,0,0,0-2.74H10.23a4.89,4.89,0,0,1-4.89-4.89V43.91H59V62.57a4.89,4.89,0,0,1-4.89,4.89H37.68a1.37,1.37,0,1,0,0,2.74H54.15a7.64,7.64,0,0,0,7.63-7.63V29.71a1.37,1.37,0,0,0-1.37-1.37ZM36.23,41.17l5.83-10.09h7.58L43.81,41.17Zm-10.74,0,5.82-10.09h7.58L33.07,41.17Zm-10.74,0,5.82-10.09h7.58L22.32,41.17Zm5.09-17.75-9.75-9.37,7.31-2.12a.91.91,0,0,0,.18.21l9.75,9.37L20,23.63a1.18,1.18,0,0,0-.18-.21ZM38.22,6.17,48,15.54l-7.31,2.11a1.68,1.68,0,0,0-.18-.21L30.73,8.07,38,6a1.24,1.24,0,0,0,.18.22Zm-10.32,3,9.75,9.36-7.31,2.12a1.68,1.68,0,0,0-.18-.21l-9.75-9.37,7.31-2.12a1.24,1.24,0,0,0,.18.22ZM48.46,2.93a5.12,5.12,0,0,1,1.35-.19,4.91,4.91,0,0,1,4.7,3.53l2,6.8L51,14.66a1.68,1.68,0,0,0-.18-.21L41.05,5.08ZM3.36,17.5a4.82,4.82,0,0,1,2.91-2.34l.81-.24a.91.91,0,0,0,.18.21L17,24.5,4.91,28l-2-6.8a4.81,4.81,0,0,1,.42-3.71Zm2,13.58H17.4L11.58,41.17H5.34ZM47,41.17,52.8,31.08H59V41.17Z" transform="translate(0)"/></g><path class="cls-7" d="M41.67,55.55A1.37,1.37,0,0,0,41,54.36l-12-7a1.39,1.39,0,0,0-1.37,0,1.37,1.37,0,0,0-.69,1.19V62.5a1.37,1.37,0,0,0,1.37,1.37,1.39,1.39,0,0,0,.69-.18l12.05-7a1.36,1.36,0,0,0,.68-1.18Zm-12,4.58V51l7.93,4.58Z" transform="translate(0)"/><path class="cls-7" d="M32.19,67.46a1.37,1.37,0,1,0,1.37,1.37,1.38,1.38,0,0,0-1.37-1.37Z" transform="translate(0)"/></g></g></svg>