<svg xmlns="http://www.w3.org/2000/svg" viewBox="0 0 70.87 62.53"><defs><style>.cls-1{fill:#fff;}.cls-2{fill:#4485ed;}.cls-3{fill:#01121c;}</style></defs><title>colored-press</title><g id="Layer_2" data-name="Layer 2"><g id="ICON"><path class="cls-1" d="M67.66,9.62h-8V3.21A1.61,1.61,0,0,0,58,1.6H3.21A1.61,1.61,0,0,0,1.6,3.21v51.3A6.44,6.44,0,0,0,8,60.93H62.85a6.43,6.43,0,0,0,6.41-6.42V11.22A1.6,1.6,0,0,0,67.66,9.62Z"/><rect class="cls-2" x="11.22" y="19.24" width="15.39" height="16.19"/><path class="cls-3" d="M27.42,49.7H11.22a1.61,1.61,0,0,0,0,3.21h16.2a1.61,1.61,0,0,0,0-3.21Z"/><path class="cls-3" d="M51.63,49.7H35.43a1.61,1.61,0,0,0,0,3.21h16.2a1.61,1.61,0,0,0,0-3.21Z"/><path class="cls-3" d="M51.63,9.62H11.22a1.61,1.61,0,0,0,0,3.21H51.63a1.61,1.61,0,0,0,0-3.21Z"/><path class="cls-3" d="M51.63,17.64H35.43a1.6,1.6,0,0,0,0,3.2h16.2a1.6,1.6,0,0,0,0-3.2Z"/><path class="cls-3" d="M51.63,25.65H35.43a1.61,1.61,0,0,0,0,3.21h16.2a1.61,1.61,0,0,0,0-3.21Z"/><path class="cls-3" d="M51.63,33.67H35.43a1.61,1.61,0,0,0,0,3.21h16.2a1.61,1.61,0,0,0,0-3.21Z"/><path class="cls-3" d="M51.63,41.69H35.43a1.6,1.6,0,0,0,0,3.2h16.2a1.6,1.6,0,0,0,0-3.2Z"/><path class="cls-3" d="M27.42,41.69H11.22a1.6,1.6,0,0,0,0,3.2h16.2a1.6,1.6,0,0,0,0-3.2Z"/><path class="cls-3" d="M27.42,17.64H11.22a1.6,1.6,0,0,0-1.6,1.6V35.43A1.61,1.61,0,0,0,11.22,37h16.2A1.61,1.61,0,0,0,29,35.43V19.24A1.6,1.6,0,0,0,27.42,17.64ZM25.81,33.83h-13v-13h13Z"/><path class="cls-3" d="M67.66,8H62.85V3.21A3.21,3.21,0,0,0,59.64,0H3.21A3.21,3.21,0,0,0,0,3.21v51.3a8,8,0,0,0,8,8H62.85a8,8,0,0,0,8-8V11.22A3.21,3.21,0,0,0,67.66,8Zm0,46.49a4.82,4.82,0,0,1-4.81,4.81H8a4.81,4.81,0,0,1-4.81-4.81V3.21H59.64v48.9a4,4,0,0,0,4,4,1.61,1.61,0,0,0,0-3.21.8.8,0,0,1-.8-.8V11.22h4.81Z"/></g></g></svg>