<svg xmlns="http://www.w3.org/2000/svg" xmlns:xlink="http://www.w3.org/1999/xlink" viewBox="0 0 70.9 70.9"><defs><style>.cls-1{fill:none;}.cls-2{fill:#4485ed;}.cls-3{fill:#fff;}.cls-4{fill:#ffe100;}.cls-5{fill:#5cb3cf;}.cls-6{clip-path:url(#clip-path);}</style><clipPath id="clip-path"><rect class="cls-1" x="0.03" y="0.12" width="70.87" height="70.87"/></clipPath></defs><title>colored-blog</title><g id="Layer_2" data-name="Layer 2"><g id="ICON"><path class="cls-2" d="M4.73,10.64a3.54,3.54,0,0,0-3.55,3.54V50.81H69.72V14.18a3.54,3.54,0,0,0-3.55-3.54Z"/><path class="cls-3" d="M8.27,47.27V4.73a3.55,3.55,0,0,1,3.55-3.55H59.08a3.55,3.55,0,0,1,3.55,3.55V47.27"/><path class="cls-4" d="M44.55,68.54,41.36,57.9H29.54L26.35,68.54h-3.9V70.9h26V68.54Z"/><path class="cls-4" d="M1.18,50.81v3.55A3.55,3.55,0,0,0,4.73,57.9H66.17a3.55,3.55,0,0,0,3.55-3.54V50.81Z"/><rect class="cls-3" x="13" y="15.36" width="11.82" height="9.45"/><rect class="cls-3" x="13" y="34.27" width="11.82" height="9.45"/><rect class="cls-5" x="11.82" y="4.73" width="2.36" height="2.36"/><rect class="cls-5" x="16.54" y="4.73" width="2.36" height="2.36"/><rect class="cls-5" x="21.27" y="4.73" width="2.36" height="2.36"/><rect class="cls-5" x="11.82" y="9.45" width="47.27" height="2.36"/><rect class="cls-5" x="28.36" y="14.18" width="9.45" height="2.36"/><rect class="cls-5" x="28.36" y="18.91" width="18.91" height="2.36"/><rect class="cls-5" x="28.36" y="23.63" width="9.45" height="2.36"/><rect class="cls-5" x="11.82" y="28.36" width="47.27" height="2.36"/><rect class="cls-5" x="49.63" y="18.91" width="9.45" height="2.36"/><rect class="cls-5" x="40.18" y="23.63" width="16.54" height="2.36"/><rect class="cls-5" x="28.36" y="33.09" width="9.45" height="2.36"/><rect class="cls-5" x="28.36" y="37.81" width="18.91" height="2.36"/><rect class="cls-5" x="28.36" y="42.54" width="9.45" height="2.36"/><rect class="cls-5" x="49.63" y="37.81" width="9.45" height="2.36"/><rect class="cls-5" x="40.18" y="42.54" width="16.54" height="2.36"/><g class="cls-6"><path d="M66.17,9.45v2.37a2.36,2.36,0,0,1,2.37,2.36V49.63H2.36V14.18a2.36,2.36,0,0,1,2.37-2.36V9.45A4.73,4.73,0,0,0,0,14.18V54.36a4.72,4.72,0,0,0,4.73,4.72H28l-2.83,9.46H22.45V70.9h26V68.54H45.78L43,59.08H66.17a4.72,4.72,0,0,0,4.73-4.72V14.18a4.73,4.73,0,0,0-4.73-4.73ZM43.32,68.54H27.58l2.84-9.46H40.48ZM68.54,54.36a2.37,2.37,0,0,1-2.37,2.36H4.73a2.37,2.37,0,0,1-2.37-2.36V52H68.54Z"/><path d="M63.81,47.27V4.73A4.73,4.73,0,0,0,59.08,0H11.82A4.73,4.73,0,0,0,7.09,4.73V47.27H9.45V4.73a2.37,2.37,0,0,1,2.37-2.37H59.08a2.37,2.37,0,0,1,2.37,2.37V47.27Z"/></g><rect x="11.82" y="4.73" width="2.36" height="2.36"/><rect x="16.54" y="4.73" width="2.36" height="2.36"/><rect x="21.27" y="4.73" width="2.36" height="2.36"/><rect x="11.82" y="9.45" width="47.27" height="2.36"/><path d="M24.81,26A1.19,1.19,0,0,0,26,24.81V15.36a1.18,1.18,0,0,0-1.19-1.18H13a1.18,1.18,0,0,0-1.18,1.18v9.45A1.18,1.18,0,0,0,13,26ZM14.18,16.54h9.45v7.09H14.18Z"/><rect x="28.36" y="14.18" width="9.45" height="2.36"/><rect x="28.36" y="18.91" width="18.91" height="2.36"/><rect x="28.36" y="23.63" width="9.45" height="2.36"/><rect x="11.82" y="28.36" width="47.27" height="2.36"/><rect x="49.63" y="18.91" width="9.45" height="2.36"/><rect x="40.18" y="23.63" width="16.54" height="2.36"/><path d="M13,33.09a1.18,1.18,0,0,0-1.18,1.18v9.45A1.18,1.18,0,0,0,13,44.9H24.81A1.18,1.18,0,0,0,26,43.72V34.27a1.18,1.18,0,0,0-1.19-1.18Zm10.63,9.45H14.18V35.45h9.45Z"/><rect x="28.36" y="33.09" width="9.45" height="2.36"/><rect x="28.36" y="37.81" width="18.91" height="2.36"/><rect x="28.36" y="42.54" width="9.45" height="2.36"/><rect x="49.63" y="37.81" width="9.45" height="2.36"/><rect x="40.18" y="42.54" width="16.54" height="2.36"/></g></g></svg>