<svg xmlns="http://www.w3.org/2000/svg" viewBox="0 0 70.87 67.06"><defs><style>.cls-1{fill:#ffe100;}.cls-2{fill:#4485ed;}.cls-3{fill:#fff;}</style></defs><title>colored-media</title><g id="Layer_2" data-name="Layer 2"><g id="ICON"><path class="cls-1" d="M17.52,29.11l8.31,14.38-12,6.92A8.3,8.3,0,1,1,5.54,36Z"/><path class="cls-1" d="M56.67,33.75a2.77,2.77,0,0,1-2.33,4.15l-1.55.3,0-.17L34.93,7.17l-.11-.1,1-1.27a2.77,2.77,0,0,1,4.76.06c27.66,47.9-7.23-12.53,16.1,27.89Z"/><path class="cls-2" d="M28.65,59.45a4.16,4.16,0,0,1-7.2,4.15L13.84,50.41,21,46.26c.07.11,7.61,13.17,7.62,13.19Z"/><path class="cls-2" d="M52.29,15.08l2.77,4.79L51.65,25l-5.54-9.59Z"/><path class="cls-3" d="M52.75,38l0,.17-27,5.29L17.52,29.11l17.3-22,.11.1Z"/><path d="M19,42.66a1.38,1.38,0,1,0-1.89-.5,1.38,1.38,0,0,0,1.89.5Z"/><path d="M13.29,52.22l7,12.07a5.53,5.53,0,1,0,9.58-5.54l-4.15-7.19,3.6-2.08a1.37,1.37,0,0,0,.5-1.89L28,44.48l26.51-5.2a4.16,4.16,0,0,0,3.36-6.23l-4.6-8,2.94-4.46a1.36,1.36,0,0,0,0-1.45l-2.76-4.79a1.37,1.37,0,0,0-1.28-.69L46.88,14,41.77,5.17a4.12,4.12,0,0,0-3.54-2.08h0A4.14,4.14,0,0,0,34.68,5L16.6,28,4.85,34.83a9.69,9.69,0,0,0,8.44,17.39Zm14.16,7.92a2.77,2.77,0,0,1-4.8,2.77l-6.92-12,4.8-2.77,6.92,12Zm-3.14-11-1.39-2.39,2.4-1.39,1.39,2.4ZM51.52,16.51l1.91,3.31-1.71,2.59L48.43,16.7ZM37,6.53a1.37,1.37,0,0,1,1.2-.67,1.4,1.4,0,0,1,1.18.69L55.47,34.44a1.37,1.37,0,0,1-1.16,2.07,6.06,6.06,0,0,0-.76.13l-17-29.49L37,6.53Zm-2.32,3,16,27.72L26.53,41.94,19.19,29.22ZM3.7,46.68a6.91,6.91,0,0,1,2.53-9.45L17,31l6.92,12L13.15,49.21A6.92,6.92,0,0,1,3.7,46.68Z"/><path d="M14.67,43.54A1.39,1.39,0,0,0,12.78,43l-2.4,1.39a1.39,1.39,0,0,1-1.89-.51,1.39,1.39,0,1,0-2.4,1.39,4.18,4.18,0,0,0,5.68,1.52l2.39-1.39a1.39,1.39,0,0,0,.51-1.89Z"/><path d="M68.81,6.05l-7.71,4.3a1.38,1.38,0,0,0,1.34,2.42l7.71-4.3a1.38,1.38,0,1,0-1.34-2.42Z"/><path d="M68,20.39,62.65,19a1.38,1.38,0,0,0-.71,2.67l5.34,1.43A1.38,1.38,0,1,0,68,20.39Z"/><path d="M54.56,1,53.13,6.37a1.38,1.38,0,1,0,2.67.72l1.43-5.35a1.37,1.37,0,0,0-1-1.69,1.39,1.39,0,0,0-1.7,1Z"/></g></g></svg>