<svg xmlns="http://www.w3.org/2000/svg" viewBox="0 0 55.54 55.55"><defs><style>.cls-1{fill:#ffe100;}.cls-2{fill:#4485ed;}</style></defs><title>colored-contact</title><g id="Layer_2" data-name="Layer 2"><g id="ICON"><path class="cls-1" d="M29.5,5.42V17.79a4.34,4.34,0,0,0,4.34,4.34h4.65L42,26.69l3.48-4.56h4.65a4.34,4.34,0,0,0,4.34-4.34V5.42a4.35,4.35,0,0,0-4.34-4.34H33.84A4.35,4.35,0,0,0,29.5,5.42Z"/><path class="cls-2" d="M8.05,2.58,6,4.65A16.73,16.73,0,0,0,6,28.32L27.23,49.56a16.72,16.72,0,0,0,23.66,0L53,47.5a5.12,5.12,0,0,0,0-7.24l-7.85-7.84a5.11,5.11,0,0,0-7.23,0L33.29,37,18.52,22.25l4.59-4.6a5.11,5.11,0,0,0,0-7.23L15.28,2.58A5.12,5.12,0,0,0,8.05,2.58Z"/><path class="cls-2" d="M45.11,32.42a5.11,5.11,0,0,0-7.23,0l-2.73,2.74L50.2,50.21c.24-.21.47-.42.69-.65L53,47.5a5.12,5.12,0,0,0,0-7.24Z"/><path class="cls-2" d="M20.38,20.39l2.73-2.74a5.11,5.11,0,0,0,0-7.23L15.28,2.58a5.12,5.12,0,0,0-7.23,0L6,4.65c-.23.22-.44.45-.65.69Z"/><path d="M16.73,38a1.09,1.09,0,1,0,0,2.17,1.14,1.14,0,0,0,.77-.32,1.1,1.1,0,0,0,0-1.53A1.14,1.14,0,0,0,16.73,38Z"/><path d="M45.88,31.65a6.2,6.2,0,0,0-8.76,0l-2.74,2.74h0l-1.09,1.09L20.05,22.25l3.83-3.83a6.2,6.2,0,0,0,0-8.77L16,1.82a6.19,6.19,0,0,0-8.76,0L5.21,3.88a17.84,17.84,0,0,0,0,25.2l7.62,7.62a1.09,1.09,0,1,0,1.54-1.53L6.75,27.55A15.66,15.66,0,0,1,5.4,7l8.24,8.23a1.05,1.05,0,0,0,.77.32,1.07,1.07,0,0,0,.77-.32,1.09,1.09,0,0,0,0-1.53L6.84,5.32l2-2a4,4,0,0,1,5.7,0l7.84,7.84a4,4,0,0,1,0,5.69l-4.6,4.6a1.07,1.07,0,0,0,0,1.53L32.52,37.78a1.08,1.08,0,0,0,1.54,0l1.09-1.09L48.6,50.14A15.67,15.67,0,0,1,28,48.8l-7.73-7.73a1.08,1.08,0,0,0-1.53,1.53l7.73,7.73a17.82,17.82,0,0,0,25.2,0l2.07-2.07a6.2,6.2,0,0,0,0-8.76Zm6.31,15.08-2,2L36.68,35.16l2-2a4,4,0,0,1,5.7,0L52.19,41a4,4,0,0,1,0,5.7Z"/><path d="M17,18.14a1.08,1.08,0,0,0,.77-1.85,1.08,1.08,0,1,0-1.53,1.53A1.09,1.09,0,0,0,17,18.14Z"/><path d="M42.24,4.35a3.75,3.75,0,0,0-4,3.75,1.09,1.09,0,1,0,2.17,0,1.59,1.59,0,0,1,1.7-1.59A1.61,1.61,0,0,1,43.57,8a1.58,1.58,0,0,1-1.24,1.66,1.83,1.83,0,0,0-1.44,1.79v2a1.09,1.09,0,0,0,2.17,0V11.7a3.74,3.74,0,0,0,2.67-3.86A3.78,3.78,0,0,0,42.24,4.35Z"/><path d="M42,16.17A1.08,1.08,0,0,0,41.21,18a1.06,1.06,0,0,0,.77.32,1.09,1.09,0,0,0,.77-1.85A1.14,1.14,0,0,0,42,16.17Z"/><path d="M50.12,0H33.84a5.42,5.42,0,0,0-5.42,5.42V17.79a5.42,5.42,0,0,0,5.42,5.42H38l3.17,4.14a1.09,1.09,0,0,0,.86.42h0a1.09,1.09,0,0,0,.86-.42L46,23.21h4.11a5.42,5.42,0,0,0,5.42-5.42V5.42A5.42,5.42,0,0,0,50.12,0Zm3.25,17.79a3.26,3.26,0,0,1-3.25,3.26H45.47a1.06,1.06,0,0,0-.86.42L42,24.9l-2.64-3.43a1.06,1.06,0,0,0-.86-.42H33.84a3.26,3.26,0,0,1-3.25-3.26V5.42a3.26,3.26,0,0,1,3.25-3.25H50.12a3.26,3.26,0,0,1,3.25,3.25V17.79Z"/></g></g></svg>