<svg xmlns="http://www.w3.org/2000/svg" viewBox="0 0 60.65 60.34"><defs><style>.cls-1{fill:#ffe100;}</style></defs><title>colored-speedsign</title><g id="Layer_2" data-name="Layer 2"><g id="ICON"><path class="cls-1" d="M57.59,4.83a5.27,5.27,0,0,1,0,7.47L54.92,15,45.67,5.73l2.67-2.67a5.28,5.28,0,0,1,7.48,0Z"/><path class="cls-1" d="M54.92,15,30.73,39.17h0l-9.25-9.25L45.67,5.73Z"/><path class="cls-1" d="M21.48,29.92l9.25,9.25-.09.08L17.85,42.8,21.4,30Z"/><path d="M56,37.87a1.5,1.5,0,0,0-1.51,1.51V52.79a4.54,4.54,0,0,1-4.54,4.53H7.55A4.53,4.53,0,0,1,3,52.79V13.43A4.53,4.53,0,0,1,7.55,8.9H21a1.52,1.52,0,0,0,0-3H7.55A7.56,7.56,0,0,0,0,13.43V52.79a7.55,7.55,0,0,0,7.55,7.55H49.93a7.56,7.56,0,0,0,7.56-7.55V39.38A1.51,1.51,0,0,0,56,37.87Z"/><path d="M56.89,2a6.8,6.8,0,0,0-9.61,0l-26.95,27a1.44,1.44,0,0,0-.39.66L16.4,42.39a1.5,1.5,0,0,0,1.86,1.86l12.79-3.54a1.44,1.44,0,0,0,.66-.39l.09-.09L58.66,13.37a6.78,6.78,0,0,0,0-9.61ZM22.2,32.77l5.68,5.68L20,40.63Zm8.53,6.4h0l1,1Zm0-2.14-7.11-7.11L45.67,7.86,52.79,15ZM56.52,11.24l-1.6,1.6L47.81,5.73l1.6-1.61a3.78,3.78,0,0,1,5.34,0L56.52,5.9a3.77,3.77,0,0,1,0,5.34Z"/></g></g></svg>