<svg xmlns="http://www.w3.org/2000/svg" viewBox="0 0 46.63 46.63"><defs><style>.cls-1{fill:#4485ed;}</style></defs><title>colored-pen-nib</title><g id="Layer_2" data-name="Layer 2"><g id="ICON"><path class="cls-1" d="M.4,19.23a1.81,1.81,0,0,0,.27,2.55l9.24,7.49a1.82,1.82,0,0,0,1.14.4,1.8,1.8,0,0,0,1.28-.53l.57-.56,7.24,12.7a1.77,1.77,0,0,0,1.23.88L44.48,46.6l.34,0a1.77,1.77,0,0,0,1.28-.53,1.8,1.8,0,0,0,.5-1.62L42.17,21.37a1.81,1.81,0,0,0-.89-1.23L28.58,12.9l.56-.57a1.81,1.81,0,0,0,.13-2.42L21.78.67A1.81,1.81,0,1,0,19,3l6.46,8L12,24.34h0l-1.08,1.09L3,19a1.81,1.81,0,0,0-2.55.27Zm15.15,6.69L25.92,15.55l12.85,7.32,3.17,16.52-11.06-11a4.81,4.81,0,0,0,.39-1.92,4.89,4.89,0,1,0-2.95,4.48l11,11L22.87,38.77Zm11.73,1.42a1.21,1.21,0,0,1-.89.36,1.29,1.29,0,0,1-.89-.36,1.27,1.27,0,0,1,0-1.79,1.29,1.29,0,0,1,.89-.36,1.26,1.26,0,0,1,.89,2.15Z"/></g></g></svg>