<svg xmlns="http://www.w3.org/2000/svg" viewBox="0 0 70.87 70.25"><defs><style>.cls-1{fill:#ffe100;}</style></defs><title>colored-cogs</title><g id="Layer_2" data-name="Layer 2"><g id="ICON"><path class="cls-1" d="M32.05,24h2.57A15.8,15.8,0,0,0,37,29.58L35.13,31.4a1.67,1.67,0,0,0,0,2.36l2,2a1.66,1.66,0,0,0,2.35,0l1.83-1.82a15.43,15.43,0,0,0,5.62,2.32v2.58a1.66,1.66,0,0,0,1.66,1.66h2.81A1.66,1.66,0,0,0,53,38.82V36.24a15.53,15.53,0,0,0,5.62-2.32l1.83,1.82a1.66,1.66,0,0,0,2.35,0l2-2a1.67,1.67,0,0,0,0-2.36L63,29.58A15.59,15.59,0,0,0,65.33,24H67.9a1.66,1.66,0,0,0,1.66-1.67V19.5a1.66,1.66,0,0,0-1.66-1.66H65.33A15.72,15.72,0,0,0,63,12.22l1.82-1.83a1.66,1.66,0,0,0,0-2.35l-2-2a1.67,1.67,0,0,0-2.36,0L58.65,7.88A15.59,15.59,0,0,0,53,5.55V3a1.66,1.66,0,0,0-1.67-1.66h-2.8A1.66,1.66,0,0,0,46.9,3V5.55a15.77,15.77,0,0,0-5.63,2.33L39.46,6.06a1.66,1.66,0,0,0-2.35,0l-2,2a1.66,1.66,0,0,0,0,2.35L37,12.22a15.44,15.44,0,0,0-2.33,5.62H32.05a1.66,1.66,0,0,0-1.66,1.66v2.81A1.65,1.65,0,0,0,32.05,24ZM50,13.81a7.1,7.1,0,1,1-7.1,7.1,7.1,7.1,0,0,1,7.1-7.1Z"/><path d="M50.06,54.71a1,1,0,0,1-1.27.53l-3.27-1.36a1.31,1.31,0,0,0-1.59.48,20.06,20.06,0,0,1-5.56,5.57,1.29,1.29,0,0,0-.48,1.59l1.34,3.26a1,1,0,0,1-.53,1.28l-3.56,1.48A1,1,0,0,1,33.87,67l-1.36-3.27A1.3,1.3,0,0,0,31.05,63a20,20,0,0,1-7.86,0,1.31,1.31,0,0,0-1.46.78L20.37,67a1,1,0,0,1-1.28.53l-3.55-1.47a1,1,0,0,1-.54-.53,1,1,0,0,1,0-.76l1.36-3.26a1.28,1.28,0,0,0-.48-1.59,20.06,20.06,0,0,1-5.56-5.57,1.31,1.31,0,0,0-1.59-.48L5.46,55.24a1,1,0,0,1-1.27-.53L2.71,51.15a1,1,0,0,1,.54-1.27l3.27-1.36a1.3,1.3,0,0,0,.78-1.46,20,20,0,0,1,0-7.87,1.31,1.31,0,0,0-.78-1.46L3.25,36.37a1,1,0,0,1-.54-1.28l1.48-3.56A1,1,0,0,1,4.72,31a1,1,0,0,1,.76,0l3.26,1.36a1.3,1.3,0,0,0,1.59-.48,20.23,20.23,0,0,1,5.57-5.57,1.3,1.3,0,0,0,.48-1.59L15,21.45a1,1,0,0,1,.53-1.28l3.56-1.48a1,1,0,0,1,1.27.54l1.36,3.27a1.3,1.3,0,0,0,2.41-1L22.8,18.23a3.61,3.61,0,0,0-4.7-1.95l-3.56,1.47a3.57,3.57,0,0,0-1.95,2,3.66,3.66,0,0,0,0,2.76l.95,2.3a22.57,22.57,0,0,0-4.78,4.78l-2.3-.95a3.6,3.6,0,0,0-4.71,1.95L.27,34.1a3.69,3.69,0,0,0,0,2.77,3.62,3.62,0,0,0,2,2l2.3,1a22,22,0,0,0,0,6.77l-2.3,1a3.61,3.61,0,0,0-1.95,4.7L1.75,55.7a3.6,3.6,0,0,0,4.69,2l2.3-1a22.9,22.9,0,0,0,4.79,4.79l-1,2.3a3.6,3.6,0,0,0,2,4.71L18.08,70a3.6,3.6,0,0,0,4.7-2l1-2.3a21.89,21.89,0,0,0,6.76,0l1,2.3a3.6,3.6,0,0,0,3.32,2.23A3.46,3.46,0,0,0,36.15,70l3.56-1.47a3.61,3.61,0,0,0,1.95-4.7l-.95-2.3a22.8,22.8,0,0,0,4.78-4.78l2.3,1a3.59,3.59,0,0,0,4.7-2L54,52.16a3.66,3.66,0,0,0,0-2.76,3.6,3.6,0,0,0-2-1.95l-3.26-1.36a1.3,1.3,0,1,0-1,2.41L51,49.86a1,1,0,0,1,.53,1.29Z"/><path d="M27.05,34.18a1.31,1.31,0,1,0,0-2.62h0a11.56,11.56,0,0,0,.07,23.12h.09A11.54,11.54,0,0,0,38.65,43a1.31,1.31,0,0,0-1.31-1.3h0A1.31,1.31,0,0,0,36,43.05a8.93,8.93,0,0,1-8.87,9h-.08a8.95,8.95,0,0,1-6.36-15.22,9,9,0,0,1,6.34-2.66Z"/><path d="M67.89,25.27a3,3,0,0,0,3-3V19.5a3,3,0,0,0-3-3H66.37a16.69,16.69,0,0,0-1.71-4.12l1.09-1.08a3,3,0,0,0,0-4.21l-2-2a3,3,0,0,0-2.1-.86,2.93,2.93,0,0,0-2.1.86L58.49,6.22a16.31,16.31,0,0,0-4.12-1.71V3a3,3,0,0,0-3-3h-2.8a3,3,0,0,0-3,3V4.51a16.53,16.53,0,0,0-4.12,1.71L40.4,5.13a3,3,0,0,0-4.19,0l-2,2a3,3,0,0,0,0,4.21l1.09,1.08a16.62,16.62,0,0,0-1.71,4.12H32.08a3,3,0,0,0-3,3v2.81a3,3,0,0,0,3,3h1.53a16.69,16.69,0,0,0,1.71,4.12l-1.09,1.08a3,3,0,0,0,0,4.21l2,2a3,3,0,0,0,2.1.87,2.92,2.92,0,0,0,2.09-.87l1.09-1.09a16.31,16.31,0,0,0,4.12,1.71v1.53a3,3,0,0,0,3,3h2.8a3,3,0,0,0,3-3V37.29a17.32,17.32,0,0,0,4.12-1.71l1.08,1.08a3,3,0,0,0,2.1.87,2.88,2.88,0,0,0,2.1-.87l2-2a3,3,0,0,0,0-4.2l-1.09-1.09a16.31,16.31,0,0,0,1.71-4.12ZM64,23.71a13.94,13.94,0,0,1-2.14,5.16,1.33,1.33,0,0,0,.16,1.65l1.82,1.82a.35.35,0,0,1,0,.51l-2,2a.36.36,0,0,1-.24.1.35.35,0,0,1-.25-.1L59.59,33a1.29,1.29,0,0,0-1.65-.16A14.54,14.54,0,0,1,52.78,35a1.31,1.31,0,0,0-1.06,1.28v2.58a.34.34,0,0,1-.34.34H48.57a.34.34,0,0,1-.34-.34V36.27A1.32,1.32,0,0,0,47.17,35,14.18,14.18,0,0,1,42,32.85a1.3,1.3,0,0,0-1.65.17l-1.82,1.82a.34.34,0,0,1-.25.1.3.3,0,0,1-.24-.1l-2-2a.33.33,0,0,1,0-.5l1.82-1.83a1.28,1.28,0,0,0,.16-1.64,14.23,14.23,0,0,1-2.14-5.17,1.33,1.33,0,0,0-1.29-1H32.05a.35.35,0,0,1-.35-.35V19.5a.35.35,0,0,1,.35-.34h2.57a1.33,1.33,0,0,0,1.29-1.06,14,14,0,0,1,2.14-5.16,1.31,1.31,0,0,0-.16-1.65L36.07,9.47a.34.34,0,0,1-.1-.25.3.3,0,0,1,.1-.24l2-2a.39.39,0,0,1,.25-.1.37.37,0,0,1,.25.1L40.35,8.8A1.28,1.28,0,0,0,42,9a14.58,14.58,0,0,1,5.17-2.14,1.31,1.31,0,0,0,1.05-1.28V3a.35.35,0,0,1,.35-.35h2.8a.35.35,0,0,1,.35.35V5.55a1.33,1.33,0,0,0,1.06,1.29A14,14,0,0,1,57.93,9a1.3,1.3,0,0,0,1.64-.16L61.4,7a.31.31,0,0,1,.24-.1.33.33,0,0,1,.25.1l2,2a.35.35,0,0,1,0,.5l-1.82,1.83A1.28,1.28,0,0,0,61.89,13,14.54,14.54,0,0,1,64,18.11a1.31,1.31,0,0,0,1.28,1.06h2.58a.35.35,0,0,1,.34.35v2.8a.35.35,0,0,1-.34.35H65.31a1.26,1.26,0,0,0-1.27,1Z"/><path d="M50,12.49a8.4,8.4,0,1,0,8.39,8.4A8.4,8.4,0,0,0,50,12.49Zm0,14.18a5.78,5.78,0,1,1,5.78-5.78A5.78,5.78,0,0,1,50,26.67Z"/></g></g></svg>