<svg xmlns="http://www.w3.org/2000/svg" viewBox="0 0 81.56 59.87"><defs><style>.cls-1{fill:#fed9a8;}.cls-2{fill:#4485ed;}.cls-3{fill:#ffe100;}</style></defs><title>colored-user-group</title><g id="Layer_2" data-name="Layer 2"><g id="ICON"><path d="M21.63,29.3c-.35-4.93-4-8.94-8.94-8.94s-8.59,4-8.94,8.94c-.21,2.93,0,7.66-1.28,10.21,0,0,1.28,2.56,6,3.84h8.48c4.69-1.27,6-3.83,6-3.83C21.63,37,21.83,32.23,21.63,29.3Z"/><path class="cls-1" d="M22.06,46.42l-4.13-2.07a2.53,2.53,0,0,1-1.41-2.28V38.24H8.86v3.83a2.54,2.54,0,0,1-1.42,2.28L3.31,46.42a3.82,3.82,0,0,0-2.12,3.42v8.83h23V49.84A3.82,3.82,0,0,0,22.06,46.42Z"/><path class="cls-2" d="M24.18,49.84a3.82,3.82,0,0,0-2.12-3.42l-4.13-2.07a2.4,2.4,0,0,1-.63-.45l-1.47,1.63a4.15,4.15,0,0,1-6.29,0L8.07,43.9a2.66,2.66,0,0,1-.63.45L3.31,46.42a3.82,3.82,0,0,0-2.12,3.42v8.83h23V49.84Z"/><path class="cls-1" d="M12.69,40.79h0a7.66,7.66,0,0,1-6.76-4A3.74,3.74,0,0,1,7.14,32a9.07,9.07,0,0,0,.89-.7A7.47,7.47,0,0,0,9.78,29a1.25,1.25,0,0,1,1.43-.69,21.85,21.85,0,0,1,8.68,4.45,1.2,1.2,0,0,1,.44,1A7.67,7.67,0,0,1,12.69,40.79Z"/><path d="M58.66,25.47v.89a10.11,10.11,0,0,0,.52,3.23l2,6.09H65v-14H62.49A3.82,3.82,0,0,0,58.66,25.47Z"/><path d="M76.24,27.78,74,35.68,63.76,26.74a2.55,2.55,0,0,1-2.55-2.55h0A3.83,3.83,0,0,1,65,20.36H76.53v5.31A7.57,7.57,0,0,1,76.24,27.78Z"/><rect class="cls-1" x="63.76" y="39.51" width="7.66" height="7.66"/><path class="cls-2" d="M77.59,44.37l-6.16-1.76L67.6,47.18l-3.84-4.57L57.6,44.37a3.83,3.83,0,0,0-2.77,3.69V58.67H80.37V48.06A3.84,3.84,0,0,0,77.59,44.37Z"/><path class="cls-1" d="M67.6,40.79h0a7.66,7.66,0,0,1-7.67-7.66h0a6.15,6.15,0,0,1,1.81-4.36L63,27.51a2.53,2.53,0,0,1,1.85-.75c4.08.13,7.7,1,9.67,2.93a2.57,2.57,0,0,1,.74,1.81v1.63A7.66,7.66,0,0,1,67.6,40.79Z"/><path class="cls-3" d="M59.13,44.68,48.44,40.79l-7.66,2.55-7.66-2.55L22.43,44.68a5.11,5.11,0,0,0-3.36,4.8v9.19H62.49V49.48A5.11,5.11,0,0,0,59.13,44.68Z"/><path d="M54.83,14.46V3.76a2.56,2.56,0,0,0-2.56-2.55H37A10.22,10.22,0,0,0,26.73,11.42v3a12.56,12.56,0,0,0,.66,4l.42,1.28A3.84,3.84,0,0,1,28,21v.66H53.55V21a3.84,3.84,0,0,1,.2-1.21l.42-1.28A12.84,12.84,0,0,0,54.83,14.46Z"/><rect class="cls-1" x="33.12" y="31.85" width="15.32" height="11.49"/><path class="cls-3" d="M40.78,43.34l-4.07,4.08a1.29,1.29,0,0,1-1.92-.13l-4.23-5.57,1.11-2.33a1.29,1.29,0,0,1,1.82-.54Z"/><path class="cls-3" d="M40.78,43.34l4.07,4.08a1.29,1.29,0,0,0,1.92-.13L51,41.72l-1.11-2.33a1.29,1.29,0,0,0-1.82-.54Z"/><path class="cls-1" d="M40.78,35.68h0A12.77,12.77,0,0,1,28,22.91V21.64l2.13-1.42A3.84,3.84,0,0,0,31.84,17V12.7s10.22-3.83,17.88,2.55V17a3.84,3.84,0,0,0,1.7,3.19l2.13,1.42v1.27A12.77,12.77,0,0,1,40.78,35.68Z"/><path d="M70.89,29.09a1.12,1.12,0,0,0,.53.13,1.21,1.21,0,0,0,1.07-.66A1.2,1.2,0,0,0,72,27c-2.78-1.39-8-1.4-8.2-1.4a1.2,1.2,0,1,0,0,2.39C65.1,27.94,69,28.14,70.89,29.09Z"/><path d="M77.91,44,73,42.55a.5.5,0,0,1-.36-.48V40.43a9.17,9.17,0,0,0,1.14-.94,8.8,8.8,0,0,0,2.69-6.36V30.86l.48-1a7.65,7.65,0,0,0,.8-3.39V20.36a1.2,1.2,0,0,0-1.2-1.2H65a7.6,7.6,0,0,0-7.59,7.58v.07a6.26,6.26,0,0,0,.67,2.82l.61,1.23v2a9.35,9.35,0,0,0,3.83,7.54v1.72c0,.27,0,.38-1,.66l-2.41.69-7-2.53a1.22,1.22,0,0,0-.33-.92l-2.23-2.34V33.71l.7-.61a14,14,0,0,0,4.41-10.19V19.78A13.81,13.81,0,0,0,56,14V1.19A1.19,1.19,0,0,0,54.85,0H37A11.42,11.42,0,0,0,25.55,11.41V14a13.81,13.81,0,0,0,1.28,5.81v2.69a14.6,14.6,0,0,0,5.11,11.15v4L29.71,40a1.22,1.22,0,0,0-.33.92L22,43.56a6.06,6.06,0,0,0-1.47.77l-1.16-.57c3.44-1.5,4.53-3.6,4.58-3.71A1.19,1.19,0,0,0,24,39c-.86-1.72-1-4.88-1.05-7.41,0-.85-.05-1.65-.1-2.36-.41-5.73-4.77-10-10.14-10S3,23.48,2.56,29.21c-.05.71-.08,1.51-.11,2.36C2.37,34.1,2.26,37.26,1.4,39a1.25,1.25,0,0,0,0,1.07A9.11,9.11,0,0,0,6,43.75l-3.2,1.61A5,5,0,0,0,0,49.85v8.83a1.2,1.2,0,0,0,2.39,0V49.85a2.63,2.63,0,0,1,1.46-2.36l4-2,1.39,1.32a5,5,0,0,0,6.92,0l1.39-1.32,1.3.65a6.31,6.31,0,0,0-1,3.33v9.2a1.2,1.2,0,0,0,2.39,0v-9.2a3.94,3.94,0,0,1,2.58-3.68L30.6,43l3.23,4.84a2.46,2.46,0,0,0,1.81,1.08l.25,0a2.45,2.45,0,0,0,1.74-.73l2-2V58.68a1.2,1.2,0,0,0,2.39,0V46.23l2,2a2.45,2.45,0,0,0,1.74.73H46a2.5,2.5,0,0,0,1.81-1.09L51,43l7.75,2.81a3.94,3.94,0,0,1,2.58,3.68v9.2a1.2,1.2,0,0,0,2.39,0v-9.2a6.32,6.32,0,0,0-1.77-4.37l.29-.08a7,7,0,0,0,1.12-.4l3.05,3v11a1.2,1.2,0,0,0,2.39,0v-11l3-3a3.17,3.17,0,0,0,.51.2l4.94,1.41a2.65,2.65,0,0,1,1.91,2.54v9.88a1.2,1.2,0,0,0,2.39,0V48.8A5.06,5.06,0,0,0,77.91,44Zm-60.19-2.1V40.43a8.85,8.85,0,0,0,3.15-3.89,14,14,0,0,0,.68,2.85A8.63,8.63,0,0,1,17.72,41.86ZM4.94,29.38a8.86,8.86,0,0,1,2.42-5.57,7.43,7.43,0,0,1,10.67,0,8.9,8.9,0,0,1,2.41,5.57c0,.67.08,1.44.1,2.27v.21a10.74,10.74,0,0,0-5.9-4.31,14.74,14.74,0,0,0-4.55-.72,1.19,1.19,0,0,0-.82.36L7.12,29.43a1.2,1.2,0,0,0,1.72,1.66l1.8-1.86c1.54.07,6.51.65,8.44,4.9a6.47,6.47,0,0,1-12.86-1A1.19,1.19,0,0,0,5,31.94h-.2c0-.1,0-.2,0-.3C4.87,30.82,4.89,30.05,4.94,29.38Zm-1.11,10a12.75,12.75,0,0,0,.68-2.86,8.9,8.9,0,0,0,3.15,3.89v1.43A8.53,8.53,0,0,1,3.83,39.39Zm7,5.69L9.76,44a2.44,2.44,0,0,0,.29-1.17V41.59a8.91,8.91,0,0,0,5.28,0v1.27A2.44,2.44,0,0,0,15.62,44l-1.11,1.06A2.65,2.65,0,0,1,10.87,45.08ZM29.22,22.47v-3A1.32,1.32,0,0,0,29.1,19a11.43,11.43,0,0,1-1.16-5V11.41a9,9,0,0,1,9-9H53.65V14a11.43,11.43,0,0,1-1.16,5,1.32,1.32,0,0,0-.12.52v3.4a11.46,11.46,0,0,1-3.66,8.45,9.73,9.73,0,0,1-.92.78h0A11.5,11.5,0,0,1,40,34.47,11.84,11.84,0,0,1,29.22,22.47ZM39.87,36.85c.31,0,.63,0,.94,0a13.89,13.89,0,0,0,6.45-1.58v2.18L40.8,41.9l-6.47-4.42V35.25A13.49,13.49,0,0,0,39.87,36.85Zm-3.93,9.66a.09.09,0,0,1-.06,0s-.06,0-.06,0L32.1,40.93l1.2-1.26,5.63,3.85Zm9.83,0s0,0-.06,0a.09.09,0,0,1-.06,0l-3-3,5.63-3.85,1.2,1.26ZM61.12,32.81V30.58A1.13,1.13,0,0,0,61,30l-.73-1.47a4,4,0,0,1-.42-1.76v-.07A5.2,5.2,0,0,1,65,21.55h10.3v5a5.25,5.25,0,0,1-.55,2.33l-.6,1.2a1.13,1.13,0,0,0-.13.54v2.55a6.47,6.47,0,0,1-6.67,6.47A6.69,6.69,0,0,1,61.12,32.81ZM67.32,42h.27a8.93,8.93,0,0,0,2.64-.4v.48a3.27,3.27,0,0,0,.08.7l-2.72,2.72-2.71-2.71a3.11,3.11,0,0,0,.07-.71v-.5A8.93,8.93,0,0,0,67.32,42Z"/><path d="M75.26,49.82A1.19,1.19,0,0,0,74.06,51v7.67a1.2,1.2,0,0,0,2.39,0V51A1.19,1.19,0,0,0,75.26,49.82Z"/><path d="M6.3,51.4a1.19,1.19,0,0,0-1.19,1.19v6.09a1.2,1.2,0,0,0,2.39,0V52.59A1.19,1.19,0,0,0,6.3,51.4Z"/><path d="M33.05,13.77a.08.08,0,0,1,.06-.08,38,38,0,0,1,7.76-.38c3.73.25,6.43,1.18,8,2.78a1.2,1.2,0,1,0,1.69-1.69c-4.52-4.52-14-3.65-17.83-3.07a2.45,2.45,0,0,0-2.09,2.44v2.75a1.2,1.2,0,1,0,2.39,0V13.77Z"/><path d="M26.74,52.37a1.19,1.19,0,0,0-1.19,1.2v5.11a1.2,1.2,0,0,0,2.39,0V53.57A1.2,1.2,0,0,0,26.74,52.37Z"/><path d="M54.85,52.37a1.2,1.2,0,0,0-1.2,1.2v5.11a1.2,1.2,0,0,0,2.39,0V53.57A1.19,1.19,0,0,0,54.85,52.37Z"/></g></g></svg>