<svg xmlns="http://www.w3.org/2000/svg" viewBox="0 0 70.87 70.79"><defs><style>.cls-1{fill:#4485ed;}</style></defs><title>colored-protected</title><g id="Layer_2" data-name="Layer 2"><g id="ICON"><path class="cls-1" d="M47.94,50H24a1,1,0,0,1-1-1V32.48a1,1,0,0,1,1-1h24a1,1,0,0,1,1,1V49a1,1,0,0,1-1,1Z"/><path d="M3.33,48.26a1.83,1.83,0,0,0,.45-.07,1.31,1.31,0,0,0,.79-1.68A32.8,32.8,0,0,1,58.36,12l.2.19-4,0a1.32,1.32,0,0,0,0,2.63h0l7.14-.08a1.32,1.32,0,0,0,.93-.4,1.28,1.28,0,0,0,.38-.92L63,6.27A1.32,1.32,0,0,0,61.65,5,1.33,1.33,0,0,0,60.34,6.3l0,4-.21-.19A35.14,35.14,0,0,0,35.44,0H35A35.42,35.42,0,0,0,.75,28.17,35.53,35.53,0,0,0,2.08,47.42a1.35,1.35,0,0,0,1.25.84Z"/><path d="M68.78,23.41a1.32,1.32,0,0,0-2.48.89A32.81,32.81,0,0,1,12.5,58.84l-.2-.19,4,0a1.34,1.34,0,0,0,1.3-1.33A1.32,1.32,0,0,0,16.25,56h0l-7.15.09a1.33,1.33,0,0,0-1.3,1.33l.09,7.14A1.32,1.32,0,0,0,9.2,65.84h0a1.34,1.34,0,0,0,1.3-1.33l0-4,.2.18A35.43,35.43,0,0,0,68.78,23.41Z"/><path d="M36,14.39a10.51,10.51,0,0,0-10.51,10.5v5.25H25a3.42,3.42,0,0,0-3.42,3.42V47.94A3.42,3.42,0,0,0,25,51.36H46.88a3.42,3.42,0,0,0,3.42-3.42V33.56a3.42,3.42,0,0,0-3.42-3.42h-.42V24.89A10.51,10.51,0,0,0,36,14.39Zm-7.87,10.5a7.88,7.88,0,0,1,15.76,0v5.25H28.09Zm19.57,8.65V47.93a.77.77,0,0,1-.78.78H25.05a.78.78,0,0,1-.79-.78V33.54a.78.78,0,0,1,.79-.78H46.88a.77.77,0,0,1,.78.78Z"/><path d="M36.3,37.35a2,2,0,0,0-2.17,1.16,2,2,0,0,0,.65,2.42.43.43,0,0,1,.19.41v2.58a1,1,0,0,0,1.51.87.89.89,0,0,0,.48-.87V41.34a.44.44,0,0,1,.2-.42A1.89,1.89,0,0,0,38,39.31a2,2,0,0,0-1.67-2Z"/></g></g></svg>