<svg xmlns="http://www.w3.org/2000/svg" viewBox="0 0 70.87 70.87"><defs><style>.cls-1{fill:#fff;}.cls-2{fill:#4485ed;}.cls-3{fill:#ffe100;}</style></defs><title>colored-marker</title><g id="Layer_2" data-name="Layer 2"><g id="ICON"><path class="cls-1" d="M43.74,52H27.13L13.29,69.48H57.58L43.74,52Z"/><path class="cls-2" d="M55.64,52H43.74L57.58,69.48h11.9L55.64,52Z"/><path class="cls-3" d="M35.43,60.76,18.16,33.67a20.76,20.76,0,1,1,34.55,0L35.43,60.76ZM45.8,29.05a12.34,12.34,0,0,0,2.09-6.9,12.46,12.46,0,1,0-2.09,6.9Z"/><path class="cls-2" d="M15.23,52C14.83,52.53,1.77,69,1.38,69.48H13.29L27.13,52Z"/><path d="M43.74,36a1.38,1.38,0,1,0,1.38,1.38A1.38,1.38,0,0,0,43.74,36Z"/><path d="M14.14,51.18.3,68.62a1.39,1.39,0,0,0,1.08,2.25h68.1a1.39,1.39,0,0,0,1.09-2.25L56.72,51.18a1.37,1.37,0,0,0-1.08-.52H43.52L53.87,34.42a22.15,22.15,0,1,0-36.87,0L27.35,50.66H15.23a1.38,1.38,0,0,0-1.09.52ZM9,62.15h8.37L12.62,68.1H4.25Zm20.14-8.72,3.8,6H23.07l4.73-6Zm12.64,0h1.32l4.72,6H38ZM50,62.15l4.72,5.95H16.15l4.73-5.95Zm8.26,5.95-4.73-5.95h8.37l4.73,5.95Zm1.45-8.72H51.33l-4.73-6H55ZM19.31,32.9a19.38,19.38,0,1,1,32.25,0l0,0L35.43,58.19,19.32,32.92v0Zm5,20.53-4.72,6H11.17l4.72-6Z"/><path d="M35.43,36A13.85,13.85,0,1,0,21.59,22.15,13.84,13.84,0,0,0,35.43,36Zm0-24.92A11.08,11.08,0,1,1,24.36,22.15,11.09,11.09,0,0,1,35.43,11.07Z"/><path d="M41.26,40.71a1.39,1.39,0,0,0-1.9.47l-5.11,8.49a1.38,1.38,0,0,0,2.37,1.43l5.11-8.49a1.37,1.37,0,0,0-.47-1.9Z"/></g></g></svg>