<svg xmlns="http://www.w3.org/2000/svg" viewBox="0 0 70.53 70.53"><defs><style>.cls-1{fill:#fff;}.cls-2{fill:#4485ed;}</style></defs><title>colored-avatar-circle</title><g id="Layer_2" data-name="Layer 2"><g id="ICON"><circle class="cls-1" cx="35.27" cy="35.27" r="33.98"/><path class="cls-2" d="M25.15,54.57,15,60.1a9.28,9.28,0,0,0-1.63,1.16A34,34,0,0,0,57,61.37a9.33,9.33,0,0,0-1.79-1.2L44.38,54.74A4.12,4.12,0,0,1,42.09,51V46.78a16.54,16.54,0,0,0,1-1.32,24.85,24.85,0,0,0,3.38-6.8,3.42,3.42,0,0,0,2.42-3.25V30.87a3.4,3.4,0,0,0-1.14-2.52V21.77s1.35-10.23-12.5-10.23S22.76,21.77,22.76,21.77v6.58a3.36,3.36,0,0,0-1.13,2.52v4.54a3.38,3.38,0,0,0,1.57,2.86,22.37,22.37,0,0,0,4.11,8.51v4.15A4.15,4.15,0,0,1,25.15,54.57Z"/><path d="M35.27,70.53A35.27,35.27,0,1,1,70.53,35.27,35.27,35.27,0,0,1,35.27,70.53Zm0-68A32.71,32.71,0,1,0,68,35.27,32.72,32.72,0,0,0,35.27,2.56Z"/><path d="M35.27,70.53a35.26,35.26,0,0,1-22.71-8.29,1.27,1.27,0,0,1-.46-1,1.32,1.32,0,0,1,.44-1A10.61,10.61,0,0,1,14.4,59l10.14-5.53A2.85,2.85,0,0,0,26,50.93V47.22a24.06,24.06,0,0,1-4-8.19,4.67,4.67,0,0,1-1.72-3.62V30.87a4.69,4.69,0,0,1,1.14-3v-6a10.38,10.38,0,0,1,2.41-7.52c2.37-2.69,6.19-4.06,11.38-4.06s9,1.37,11.37,4.06a10.34,10.34,0,0,1,2.41,7.52v6a4.64,4.64,0,0,1,1.14,3v4.54a4.66,4.66,0,0,1-2.67,4.22,26.48,26.48,0,0,1-3.36,6.57c-.27.39-.54.74-.79,1V51A2.87,2.87,0,0,0,45,53.6L55.81,59a10.71,10.71,0,0,1,2,1.37,1.28,1.28,0,0,1,0,2A35.27,35.27,0,0,1,35.27,70.53ZM15.49,61.3a32.69,32.69,0,0,0,39.39.13l-.22-.11L43.8,55.89a5.4,5.4,0,0,1-3-4.85V46.78a1.34,1.34,0,0,1,.32-.85c.34-.39.65-.79,1-1.21a23.76,23.76,0,0,0,3.2-6.46,1.29,1.29,0,0,1,.84-.83,2.13,2.13,0,0,0,1.51-2V30.87a2.07,2.07,0,0,0-.71-1.57,1.29,1.29,0,0,1-.42-.95V21.77a1,1,0,0,1,0-.17A7.84,7.84,0,0,0,44.69,16c-1.86-2.1-5-3.17-9.42-3.17S27.68,13.9,25.82,16A7.74,7.74,0,0,0,24,21.6a1.11,1.11,0,0,1,0,.17v6.58a1.3,1.3,0,0,1-.43.95,2.07,2.07,0,0,0-.71,1.57v4.54a2.12,2.12,0,0,0,1,1.79,1.3,1.3,0,0,1,.56.79,21.31,21.31,0,0,0,3.85,8,1.28,1.28,0,0,1,.29.82v4.15a5.42,5.42,0,0,1-2.83,4.77h0L15.62,61.23Z"/></g></g></svg>