<svg xmlns="http://www.w3.org/2000/svg" viewBox="0 0 70.87 70.86"><defs><style>.cls-1{fill:#fff;}.cls-2{fill:#ffe100;}</style></defs><title>colored-testimonials</title><g id="Layer_2" data-name="Layer 2"><g id="ICON"><path class="cls-1" d="M46.27,12.16H24.6A23.22,23.22,0,0,0,1.38,35.38h0A23.22,23.22,0,0,0,24.6,58.59H40.17L51.05,69.48V58.1A23.22,23.22,0,0,0,69.48,35.38h0A23.21,23.21,0,0,0,46.27,12.16Z"/><path class="cls-2" d="M17.14,1.38V5.53c-2.66.24-4,2.16-4,5.77h4a.8.8,0,0,1,.8.8v6.69a.79.79,0,0,1-.8.79H9.65a.79.79,0,0,1-.79-.79V11.58Q8.86,1.85,17.14,1.38Z"/><path class="cls-2" d="M31.29,1.38V5.53c-2.66.24-4,2.16-4,5.77h4a.8.8,0,0,1,.8.8v6.69a.79.79,0,0,1-.8.79H23.81a.79.79,0,0,1-.8-.79V11.58Q23,1.85,31.29,1.38Z"/><path d="M17.14,21H9.65a2.19,2.19,0,0,1-2.18-2.18V11.58C7.47,2.46,12.69.25,17.06,0a1.39,1.39,0,0,1,1,.38,1.36,1.36,0,0,1,.44,1V5.53A1.38,1.38,0,0,1,17.27,6.9c-.72.07-2.27.21-2.65,3h2.52a2.18,2.18,0,0,1,2.18,2.19v6.69A2.18,2.18,0,0,1,17.14,21Zm-6.9-2.77h6.32V12.68h-3.4a1.38,1.38,0,0,1-1.39-1.38c0-4.68,2.13-6.35,4-6.91V2.93c-2.69.51-5.52,2.29-5.52,8.65Z"/><path d="M31.29,21H23.8a2.19,2.19,0,0,1-2.18-2.18V11.58C21.62,2.46,26.84.25,31.21,0a1.39,1.39,0,0,1,1,.38,1.36,1.36,0,0,1,.44,1V5.53A1.38,1.38,0,0,1,31.42,6.9c-.72.07-2.27.21-2.65,3h2.52a2.18,2.18,0,0,1,2.18,2.19v6.69A2.18,2.18,0,0,1,31.29,21Zm-6.9-2.77h6.32V12.68h-3.4a1.38,1.38,0,0,1-1.39-1.38c0-4.68,2.13-6.35,4-6.91V2.93c-2.69.51-5.52,2.29-5.52,8.65Z"/><path d="M38.48,13.54a1.38,1.38,0,0,1-1-.4,1.38,1.38,0,0,1,0-2,1.38,1.38,0,0,1,1-.4,1.39,1.39,0,0,1,1,.4,1.4,1.4,0,0,1,0,2A1.39,1.39,0,0,1,38.48,13.54Z"/><path d="M51.06,70.86a1.38,1.38,0,0,1-1-.4L39.59,60h-15A24.6,24.6,0,0,1,3.09,23.44a1.38,1.38,0,1,1,2.42,1.34A21.84,21.84,0,0,0,24.6,57.21H40.17a1.39,1.39,0,0,1,1,.4l8.52,8.53v-8a1.39,1.39,0,0,1,1.1-1.36,21.83,21.83,0,0,0-4.5-43.2H44.52a1.38,1.38,0,0,1,0-2.76h1.75a24.6,24.6,0,0,1,6.17,48.41V69.48a1.37,1.37,0,0,1-1.38,1.38Z"/><path d="M52.47,27.33H18.4a1.38,1.38,0,0,1,0-2.76H52.47a1.38,1.38,0,1,1,0,2.76Z"/><path d="M52.47,34.72H18.4a1.39,1.39,0,0,1,0-2.77H52.47a1.39,1.39,0,0,1,0,2.77Z"/><path d="M52.47,42.1H18.4a1.39,1.39,0,0,1,0-2.77H52.47a1.39,1.39,0,0,1,0,2.77Z"/><path d="M52.47,49.48H34.31a1.39,1.39,0,1,1,0-2.77H52.47a1.39,1.39,0,0,1,0,2.77Z"/><path d="M26.52,49.48h0a1.39,1.39,0,1,1,0-2.77h0a1.39,1.39,0,0,1,0,2.77Z"/></g></g></svg>