<svg xmlns="http://www.w3.org/2000/svg" viewBox="0 0 67.26 67.26"><defs><style>.cls-1{fill:#4485ed;}.cls-2{fill:#ffe100;}.cls-3{fill:#fff;}</style></defs><title>colored-company</title><g id="Layer_2" data-name="Layer 2"><g id="ICON"><path class="cls-1" d="M48.21,17.94V45.72a3.32,3.32,0,0,1,.28,4.69,3.83,3.83,0,0,1-.28.29V52a5.6,5.6,0,0,1,3.36,5.13V58.3H52a5.6,5.6,0,0,1,10.27,0h3.83V17.94Z"/><path class="cls-1" d="M17.94,48.21a3.32,3.32,0,0,1,1.12-2.49V17.94H1.12V58.3H5a5.59,5.59,0,0,1,10.26,0h.47V57.17A5.63,5.63,0,0,1,19.06,52V50.7A3.35,3.35,0,0,1,17.94,48.21Z"/><path class="cls-2" d="M19.06,1.12v44.6a3.31,3.31,0,0,1,3-.8,3.36,3.36,0,0,1-.72,6.65,5.61,5.61,0,0,1,5.61,5.6,6.73,6.73,0,0,1,13.45,0,5.6,5.6,0,0,1,5.6-5.6,3.36,3.36,0,0,1-.72-6.65,3.33,3.33,0,0,1,3,.8V1.12Z"/><circle class="cls-3" cx="33.63" cy="45.96" r="4.48"/><circle class="cls-3" cx="10.09" cy="51.57" r="3.36"/><circle class="cls-3" cx="57.17" cy="51.57" r="3.36"/><path class="cls-3" d="M33.63,50.45a6.72,6.72,0,0,1,6.73,6.72v9H26.91v-9A6.72,6.72,0,0,1,33.63,50.45Z"/><path class="cls-3" d="M10.09,54.93a5.6,5.6,0,0,1,5.6,5.61v5.6H4.48v-5.6A5.61,5.61,0,0,1,10.09,54.93Z"/><path class="cls-3" d="M21.3,51.57a5.61,5.61,0,0,1,5.61,5.6v9H15.69v-9A5.61,5.61,0,0,1,21.3,51.57Z"/><circle class="cls-3" cx="21.3" cy="48.21" r="3.36"/><path class="cls-3" d="M57.17,54.93a5.61,5.61,0,0,1,5.61,5.61v5.6H51.57v-5.6A5.61,5.61,0,0,1,57.17,54.93Z"/><path class="cls-3" d="M46,51.57a5.61,5.61,0,0,1,5.61,5.6v9H40.36v-9A5.6,5.6,0,0,1,46,51.57Z"/><circle class="cls-3" cx="45.96" cy="48.21" r="3.36"/><path class="cls-3" d="M26.91,5.61H40.36v9H26.91Z"/><path d="M23.54,22.42h2.24v2.24H23.54Z"/><path d="M23.54,26.91h2.24v2.24H23.54Z"/><path d="M23.54,31.39h2.24v2.24H23.54Z"/><path d="M23.54,35.87h2.24v2.25H23.54Z"/><path d="M28,22.42h2.24v2.24H28Z"/><path d="M28,26.91h2.24v2.24H28Z"/><path d="M28,31.39h2.24v2.24H28Z"/><path d="M28,35.87h2.24v2.25H28Z"/><path d="M32.51,22.42h2.24v2.24H32.51Z"/><path d="M32.51,26.91h2.24v2.24H32.51Z"/><path d="M32.51,31.39h2.24v2.24H32.51Z"/><path d="M32.51,35.87h2.24v2.25H32.51Z"/><path d="M37,22.42h2.25v2.24H37Z"/><path d="M28,17.94h2.24v2.24H28Z"/><path d="M32.51,17.94h2.24v2.24H32.51Z"/><path d="M37,17.94h2.25v2.24H37Z"/><path d="M37,26.91h2.25v2.24H37Z"/><path d="M37,31.39h2.25v2.24H37Z"/><path d="M37,35.87h2.25v2.25H37Z"/><path d="M41.48,22.42h2.24v2.24H41.48Z"/><path d="M41.48,26.91h2.24v2.24H41.48Z"/><path d="M41.48,31.39h2.24v2.24H41.48Z"/><path d="M41.48,35.87h2.24v2.25H41.48Z"/><path d="M66.14,16.82H49.33V1.12A1.12,1.12,0,0,0,48.21,0H19.06a1.12,1.12,0,0,0-1.12,1.12h0v15.7H1.12A1.12,1.12,0,0,0,0,17.94H0V58.3a1.12,1.12,0,0,0,1.12,1.12H3.46a8.32,8.32,0,0,0-.1,1.12v5.6a1.12,1.12,0,0,0,1.12,1.12h58.3a1.12,1.12,0,0,0,1.12-1.12h0v-5.6a7,7,0,0,0-.1-1.12h2.34a1.12,1.12,0,0,0,1.12-1.12h0V17.94a1.12,1.12,0,0,0-1.12-1.12ZM48.21,48.21A2.25,2.25,0,1,1,46,46,2.25,2.25,0,0,1,48.21,48.21ZM21.3,46a2.25,2.25,0,1,1-2.24,2.25A2.24,2.24,0,0,1,21.3,46ZM14.57,65h-9V60.54a4.48,4.48,0,1,1,9,0ZM7.85,51.57a2.24,2.24,0,1,1,2.24,2.24A2.24,2.24,0,0,1,7.85,51.57Zm6.89,4.12a6.27,6.27,0,0,0-1.41-1,4.48,4.48,0,1,0-6.48,0,6.86,6.86,0,0,0-2.58,2.52h-2V19.06h15.7V45.27a4.43,4.43,0,0,0,.12,6A6.74,6.74,0,0,0,14.74,55.69Zm11,9.33h-9V57.17a4.48,4.48,0,0,1,9,0Zm13.46,0H28V57.17a5.61,5.61,0,0,1,11.21,0ZM30.27,46a3.36,3.36,0,1,1,3.36,3.37A3.36,3.36,0,0,1,30.27,46Zm10.19,7.36a8,8,0,0,0-3.22-3.11,5.6,5.6,0,1,0-7.9-.67,6.14,6.14,0,0,0,.68.67,8,8,0,0,0-3.22,3.11,6.67,6.67,0,0,0-2.26-2,4.45,4.45,0,0,0-4.36-7.41V2.24h26.9V43.88A4.66,4.66,0,0,0,46,43.72a4.48,4.48,0,0,0-3.24,7.57,6.67,6.67,0,0,0-2.26,2Zm10,7.22V65h-9V57.17a4.49,4.49,0,0,1,9,0ZM61.66,65h-9V60.54a4.49,4.49,0,1,1,9,0ZM54.93,51.57a2.25,2.25,0,1,1,2.24,2.24A2.24,2.24,0,0,1,54.93,51.57ZM65,57.17H63a6.76,6.76,0,0,0-2.57-2.52,4.48,4.48,0,1,0-6.49,0,6.5,6.5,0,0,0-1.41,1,6.75,6.75,0,0,0-3.31-4.4,4.44,4.44,0,0,0,.12-6V19.06H65Z"/><path d="M52.69,25.78h2.24V43.72H52.69Z"/><path d="M59.42,25.78h2.24V43.72H59.42Z"/><path d="M5.61,25.78H7.85V43.72H5.61Z"/><path d="M12.33,25.78h2.24V43.72H12.33Z"/><path d="M26.91,15.69H40.36a1.11,1.11,0,0,0,1.12-1.11h0v-9a1.13,1.13,0,0,0-1.12-1.13H26.91A1.13,1.13,0,0,0,25.78,5.6h0v9a1.12,1.12,0,0,0,1.12,1.12Zm1.12-9H39.24v6.72H28Z"/></g></g></svg>