<svg xmlns="http://www.w3.org/2000/svg" viewBox="0 0 76.95 70.16"><defs><style>.cls-1{fill:#4485ed;}.cls-2{fill:#fff;}.cls-3{fill:#ffe100;}</style></defs><title>colored-lanlord-guide</title><g id="Layer_2" data-name="Layer 2"><g id="ICON"><polygon class="cls-1" points="64.18 21.4 37.2 3.45 10.22 21.4 10.22 63.94 64.19 63.94 64.19 21.4 64.18 21.4"/><polygon class="cls-2" points="64.18 21.4 37.2 3.45 30.76 7.73 57.47 25.49 57.48 25.49 57.48 63.94 64.19 63.94 64.19 21.4 64.18 21.4"/><path class="cls-1" d="M5.17,28.6l31.58-21a.83.83,0,0,1,.91,0l31.58,21a2.65,2.65,0,0,0,2.93,0h0a2.64,2.64,0,0,0,0-4.41l-34.51-23a.83.83,0,0,0-.91,0l-34.51,23a2.64,2.64,0,0,0,0,4.41h0A2.65,2.65,0,0,0,5.17,28.6Z"/><path class="cls-2" d="M34,32.3H18a1.21,1.21,0,0,0-1.21,1.21V64H35.24V33.51A1.21,1.21,0,0,0,34,32.3Z"/><path class="cls-1" d="M69.79,60.07H4.62a1.94,1.94,0,0,0-1.94,2h0A1.94,1.94,0,0,0,4.62,64H69.79A1.94,1.94,0,0,0,71.73,62h0A1.94,1.94,0,0,0,69.79,60.07Z"/><circle class="cls-3" cx="58.59" cy="51.85" r="17.22"/><path d="M14.94,14.45,1.67,23.28a3.74,3.74,0,1,0,4.15,6.23l3.34-2.22V46.66a1.1,1.1,0,0,0,2.19,0V25.83L37.24,8.61l25.9,17.22v8.26L62.85,34l-.13,0-.32-.07-.18,0-.3-.06-.23,0-.27,0L61,33.68l-.21,0-.31,0-.23,0-.31,0-.21,0h-1A18.35,18.35,0,0,0,40.69,48.16a18.7,18.7,0,0,0-.37,3.69v.46a18.78,18.78,0,0,0,.81,4.95h0l.06.21c.17.51.35,1,.56,1.51H36.37V33.51a2.3,2.3,0,0,0-2.3-2.3H18a2.31,2.31,0,0,0-2.31,2.3V59H11.35v-5.5a1.1,1.1,0,0,0-2.19,0V59H4.66a3,3,0,0,0,0,6.07H46A18.31,18.31,0,1,0,65.32,34.8V27.29l3.35,2.22a3.74,3.74,0,1,0,4.15-6.23l-8.65-5.76A1.1,1.1,0,0,0,63,19.35l8.66,5.75a1.53,1.53,0,0,1,.69,1.3,1.52,1.52,0,0,1-.69,1.29,1.56,1.56,0,0,1-1.73,0l-31.57-21-.11-.06,0,0-.11-.05h0l-.12,0h0l-.07,0a1.9,1.9,0,0,0-1.68.22L9.65,24.34h0l-5,3.35a1.56,1.56,0,0,1-1.73,0,1.52,1.52,0,0,1-.69-1.29,1.53,1.53,0,0,1,.69-1.3L37.24,2.24l20,13.32a1.1,1.1,0,0,0,1.52-.3,1.11,1.11,0,0,0-.31-1.52L38.31.32a1.92,1.92,0,0,0-2.13,0L25.87,7.18Zm3,19.06A.11.11,0,0,1,18,33.4h16a.11.11,0,0,1,.11.11V59H17.91ZM4.66,62.86a.85.85,0,1,1,0-1.69h38.2A19.22,19.22,0,0,0,44,62.86Zm54,5.11A16.14,16.14,0,0,1,43.38,57.09l-.06-.16a1.42,1.42,0,0,0-.07-.22l-.1-.34,0-.07a16,16,0,0,1-.55-2.93v0l0-.41a.45.45,0,0,0,0-.11c0-.12,0-.24,0-.36s0-.08,0-.12,0-.32,0-.47a16.58,16.58,0,0,1,.33-3.25,16.16,16.16,0,0,1,15.8-12.88h.73l.56,0,.14,0,.48,0,.13,0,.52.07.21,0,.48.09.23.05.31.07.37.1.3.08.31.09.14.05A16.12,16.12,0,0,1,58.63,68Z"/><path d="M60.2,50.42V45.87c1.74.12,2.34,1,3.06,1,1,0,1.37-1.19,1.37-1.78,0-1.51-2.74-2-4.43-2v-.67c0-.34-.44-.65-.88-.65s-.88.31-.88.65V43c-2.59.34-5,1.76-5,5.05s2.67,4.33,5,5.21v5.16c-2.28-.26-3-2-4-2-.8,0-1.45,1.09-1.45,1.82,0,1.45,2.36,3.13,5.49,3.21v.72c0,.34.39.65.88.65s.88-.31.88-.65v-.8c2.91-.47,4.9-2.31,4.9-5.49C65.1,52.45,62.51,51.28,60.2,50.42Zm-1.55-.57c-1.19-.46-2.07-1-2.07-2.09,0-1,.78-1.61,2.07-1.82ZM60,58.43V53.92c1.11.49,1.94,1.12,1.94,2.39A2.11,2.11,0,0,1,60,58.43Z"/></g></g></svg>