<svg xmlns="http://www.w3.org/2000/svg" viewBox="0 0 70.87 71.04"><defs><style>.cls-1{fill:#fff;}.cls-2{fill:#ffe100;}.cls-3{fill:#4485ed;}</style></defs><title>colored-browse</title><g id="Layer_2" data-name="Layer 2"><g id="ICON"><rect class="cls-1" x="44.34" y="36.23" width="4.62" height="21.18" transform="translate(-19.44 46.7) rotate(-45)"/><path class="cls-2" d="M69.19,66.07,65.9,69.36a2.18,2.18,0,0,1-3.08,0L46.49,53a2.18,2.18,0,0,1,0-3.08l3.29-3.29a2.18,2.18,0,0,1,3.08,0L69.19,63A2.18,2.18,0,0,1,69.19,66.07Z"/><circle class="cls-2" cx="26.05" cy="26.22" r="25.2"/><circle class="cls-1" cx="26.05" cy="26.22" r="20.67"/><path class="cls-3" d="M26.51,12.33l-11,10.37V38.49a.76.76,0,0,0,.75.76H36.8a.75.75,0,0,0,.75-.76V22.7Z"/><path class="cls-3" d="M41.44,26.41a1.54,1.54,0,0,1-1-.41L26.51,13,12.62,26a1.52,1.52,0,0,1-2.08-2.21l14.93-14a1.52,1.52,0,0,1,2.08,0l14.93,14a1.51,1.51,0,0,1-1,2.62Z"/><path class="cls-1" d="M29.35,25.35H23.68a.48.48,0,0,0-.48.48V39.25h6.63V25.83A.49.49,0,0,0,29.35,25.35Z"/><path d="M.91,24.21a1,1,0,0,0,1.16-.91A23.9,23.9,0,0,1,9,9.14a24.18,24.18,0,0,1,34.16,0A23.9,23.9,0,0,1,50,23.31a1,1,0,0,0,1,.91h.13a1,1,0,0,0,.9-1.15A26,26,0,0,0,44.6,7.67a26.26,26.26,0,0,0-37.1,0A26,26,0,0,0,0,23.05,1,1,0,0,0,.91,24.21Z"/><path d="M10.7,10.87a21.71,21.71,0,1,0,30.7,0A21.72,21.72,0,0,0,10.7,10.87ZM39.93,40.1a19.63,19.63,0,1,1,5.75-13.88A19.64,19.64,0,0,1,39.93,40.1Z"/><path d="M69.92,62.25,53.6,45.93a3.21,3.21,0,0,0-3.71-.61l-3.07-3.07A26,26,0,0,0,52,29.82,1,1,0,0,0,50,29.54a23.89,23.89,0,0,1-5.33,12.1l0,0c-.36.43-.74.85-1.12,1.25h0l-.38.39c-.13.14-.27.27-.41.4l-.27.26-.13.12-.35.31-.07.06-.37.31A24.17,24.17,0,0,1,9,43.3,23.89,23.89,0,0,1,2.12,29.51a1,1,0,1,0-2.06.28,26.25,26.25,0,0,0,42,17.2l3.07,3.07a3.17,3.17,0,0,0-.34,1.43,3.24,3.24,0,0,0,.94,2.28L62.08,70.1a3.24,3.24,0,0,0,4.56,0l3.28-3.29h0A3.22,3.22,0,0,0,69.92,62.25ZM43.68,45.65l.47-.44.06-.06.39-.38.44-.45h0l.43-.46,2.82,2.82-1.8,1.8ZM68.46,65.34l-3.29,3.29a1.16,1.16,0,0,1-.81.33,1.18,1.18,0,0,1-.81-.33L47.22,52.3a1.16,1.16,0,0,1,0-1.62h0L48.88,49l1.63-1.64a1.15,1.15,0,0,1,.81-.33,1.17,1.17,0,0,1,.81.33L68.46,63.72A1.16,1.16,0,0,1,68.46,65.34Z"/><path d="M24.76,9,9.83,23a2.57,2.57,0,0,0-.11,3.61,2.52,2.52,0,0,0,1.78.8h.08a2.53,2.53,0,0,0,1.75-.7l1.1-1V38.49a1.8,1.8,0,0,0,1.79,1.8H36.8a1.8,1.8,0,0,0,1.79-1.8V25.72l1.1,1A2.55,2.55,0,0,0,43.19,23L28.26,9A2.54,2.54,0,0,0,24.76,9Zm4,29.2H24.23V26.39h4.56Zm7.73,0H30.87V25.83a1.53,1.53,0,0,0-1.52-1.52H23.68a1.52,1.52,0,0,0-1.52,1.52V38.21H16.51V23.77l10-9.4,10,9.4V38.21Zm5.4-13.33a.49.49,0,0,1-.13.34.47.47,0,0,1-.35.15.47.47,0,0,1-.33-.13l-2.84-2.67h0l-11-10.37a1,1,0,0,0-1.42,0l-11,10.37h0l-2.85,2.67a.49.49,0,0,1-.34.13.5.5,0,0,1-.34-.15.54.54,0,0,1-.13-.34.52.52,0,0,1,.16-.34l14.92-14a.48.48,0,0,1,.33-.13.46.46,0,0,1,.33.13l14.93,14A.5.5,0,0,1,41.92,24.88Z"/></g></g></svg>