<svg xmlns="http://www.w3.org/2000/svg" viewBox="0 0 70.87 70.87"><defs><style>.cls-1{fill:#ffe100;}.cls-2{fill:#4485ed;}.cls-3{fill:#fff;}</style></defs><title>colored-tenant-guide</title><g id="Layer_2" data-name="Layer 2"><g id="ICON"><path class="cls-1" d="M28.05,0A13.3,13.3,0,0,0,14.76,13.29,13.6,13.6,0,0,0,15,15.44L.43,30A1.5,1.5,0,0,0,0,31v8.86a1.48,1.48,0,0,0,1.48,1.48h8.85a1.51,1.51,0,0,0,1.05-.43l2.95-3a1.44,1.44,0,0,0,.43-1V35.43h1.48A1.48,1.48,0,0,0,17.29,35l2.95-3a1.51,1.51,0,0,0,.43-1V29.53h1.48a1.5,1.5,0,0,0,1-.43l2.71-2.71A13.28,13.28,0,1,0,28.05,0ZM31,14.76a4.43,4.43,0,1,1,4.43-4.43A4.43,4.43,0,0,1,31,14.76Z"/><path class="cls-2" d="M53.15,24.49l-6.34-6.34a1.47,1.47,0,0,0-2.09,0L21.1,41.77a1.48,1.48,0,0,0,1,2.52h4.42v25.1a1.49,1.49,0,0,0,1.48,1.48H39.86a1.48,1.48,0,0,0,1.48-1.48V50.2H50.2V69.39a1.48,1.48,0,0,0,1.47,1.48H63.48A1.48,1.48,0,0,0,65,69.39V44.29h4.43a1.46,1.46,0,0,0,1.36-.91,1.48,1.48,0,0,0-.32-1.61h0L65,36.3Z"/><path class="cls-3" d="M50.2,31a4.43,4.43,0,1,1-4.43-4.43A4.43,4.43,0,0,1,50.2,31Z"/><path d="M10.33,41.34H1.48A1.48,1.48,0,0,1,0,39.86V31a1.5,1.5,0,0,1,.43-1L15,15.43a13.28,13.28,0,1,1,13.1,11.14,12.35,12.35,0,0,1-2.15-.19L23.19,29.1a1.5,1.5,0,0,1-1,.43H20.67V31a1.51,1.51,0,0,1-.43,1l-2.95,3a1.48,1.48,0,0,1-1.05.43H14.76v1.48a1.44,1.44,0,0,1-.43,1l-2.95,3a1.51,1.51,0,0,1-1.05.43ZM3,38.39H9.72l2.09-2.09V34a1.48,1.48,0,0,1,1.48-1.48h2.34l2.09-2.09V28.05a1.48,1.48,0,0,1,1.47-1.48h2.34l2.84-2.83a1.45,1.45,0,0,1,1.37-.4A10.44,10.44,0,1,0,18,15.59,1.47,1.47,0,0,1,17.6,17L3,31.61Z"/><path d="M31,14.76a4.43,4.43,0,1,1,4.43-4.43A4.43,4.43,0,0,1,31,14.76Zm0-5.9a1.48,1.48,0,1,0,1.48,1.47A1.47,1.47,0,0,0,31,8.86Z"/><path d="M7.38,35.43a1.45,1.45,0,0,1-1-.43,1.47,1.47,0,0,1,0-2.09L18.15,21.1a1.47,1.47,0,0,1,2.08,2.09L8.42,35a1.44,1.44,0,0,1-1,.43Z"/><path d="M65,36.3l5.47,5.47a1.48,1.48,0,0,1-1,2.52H65v25.1a1.48,1.48,0,0,1-1.48,1.48H51.67a1.48,1.48,0,0,1-1.47-1.48V50.2H41.34V69.39a1.48,1.48,0,0,1-1.48,1.48H28.05a1.49,1.49,0,0,1-1.48-1.48V44.29H22.15a1.48,1.48,0,0,1-1-2.52L44.72,18.15a1.47,1.47,0,0,1,2.09,0l6.34,6.34ZM53.58,29.1l-7.81-7.82L25.71,41.34h2.34a1.47,1.47,0,0,1,1.48,1.47v25.1h8.86V48.72a1.48,1.48,0,0,1,1.47-1.48H51.67a1.48,1.48,0,0,1,1.48,1.48V67.91H62V42.81a1.47,1.47,0,0,1,1.47-1.47h2.34L62.44,38"/><path d="M45.77,35.43A4.43,4.43,0,1,1,50.2,31a4.43,4.43,0,0,1-4.43,4.43Zm0-5.9A1.48,1.48,0,1,0,47.24,31a1.47,1.47,0,0,0-1.47-1.47Z"/><path d="M50.89,25.79a1.37,1.37,0,0,1-.52-.1,1.47,1.47,0,0,1-.87-1.89A11.08,11.08,0,0,0,34.14,10,1.48,1.48,0,1,1,32.81,7.4,14,14,0,0,1,53.15,19.93a14.11,14.11,0,0,1-.88,4.9,1.47,1.47,0,0,1-1.38,1Z"/><path d="M39.12,34a14.07,14.07,0,0,1-12.79-8.27A1.48,1.48,0,0,1,29,24.48a11.12,11.12,0,0,0,13.39,6,1.48,1.48,0,0,1,.87,2.82,14.28,14.28,0,0,1-4.17.63Z"/></g></g></svg>