<svg xmlns="http://www.w3.org/2000/svg" viewBox="0 0 66.5 58.46"><defs><style>.cls-1{fill:#f05;}</style></defs><title>colored-heart</title><g id="Layer_2" data-name="Layer 2"><g id="ICON"><path class="cls-1" d="M61.13,5.43a18.41,18.41,0,0,0-26,0L33.27,7.26,31.42,5.41a18.39,18.39,0,1,0-26,26L31.89,57.9a1.93,1.93,0,0,0,1.34.56,1.89,1.89,0,0,0,1.34-.55L61.1,31.48a18.44,18.44,0,0,0,0-26Z"/><path d="M61.13,5.43a18.41,18.41,0,0,0-26,0L33.27,7.26,31.42,5.41a18.39,18.39,0,1,0-26,26L31.89,57.9a1.93,1.93,0,0,0,1.34.56,1.89,1.89,0,0,0,1.34-.55L61.1,31.48a18.44,18.44,0,0,0,0-26ZM58.42,28.79,33.23,53.88,8.09,28.74A14.59,14.59,0,1,1,28.73,8.11l3.19,3.18a1.89,1.89,0,0,0,2.69,0l3.16-3.16A14.61,14.61,0,0,1,58.42,28.79Z"/></g></g></svg>