<svg xmlns="http://www.w3.org/2000/svg" viewBox="0 0 121.77 31.4"><defs><style>.cls-1{fill:#3a5896;}</style></defs><title>colored-allianz</title><g id="Layer_2" data-name="Layer 2"><g id="ICON"><path class="cls-1" d="M10.84,16.88H6.77L8.93,9.74Zm-6.17,8,1.38-4.74h5.48l1.3,4.74H17.9l-5-18a1.87,1.87,0,0,0-2-1.56H3.66V7h.61c.74,0,1.15.29,1.15.88A5.12,5.12,0,0,1,5,9.47L0,24.88Z"/><path class="cls-1" d="M24.13,24.88v-18a1.35,1.35,0,0,0-1.42-1.5H18.33V7h.29c.75,0,1.07.33,1.07,1.09V24.88Z"/><path class="cls-1" d="M32,24.88v-18a1.35,1.35,0,0,0-1.42-1.5H26.18V7h.29c.75,0,1.07.33,1.07,1.09V24.88Z"/><path class="cls-1" d="M39.83,7.11c0-1.3-.93-2.07-2.52-2.07s-2.53.77-2.53,2.07.95,2.07,2.53,2.07S39.83,8.41,39.83,7.11Zm0,17.77V11.58a1.36,1.36,0,0,0-1.43-1.51H34.06v1.78h.26c.75,0,1.07.35,1.07,1.12V24.88Z"/><path class="cls-1" d="M49.85,17.88V20.7A3.7,3.7,0,0,1,47.37,22c-.82,0-1.11-.41-1.11-1.49s.23-1.57,1.05-1.89A11.62,11.62,0,0,1,49.85,17.88Zm-6-3.41a10.61,10.61,0,0,1,4.41-1.14c1.2,0,1.63.44,1.63,1.72v.32c-1.82.29-2.39.41-3.41.65a9.18,9.18,0,0,0-1.68.55c-1.8.73-2.65,2.16-2.65,4.35,0,2.77,1.17,4.11,3.59,4.11a6.1,6.1,0,0,0,2.39-.47A8.45,8.45,0,0,0,50,23.3v.21a1.21,1.21,0,0,0,1.36,1.37h4.17V23.21h-.21c-.77,0-1.06-.32-1.06-1.19V15.08c0-3.72-1.27-5-4.92-5a15.22,15.22,0,0,0-3.45.41,11.88,11.88,0,0,0-3,1.18Z"/><path class="cls-1" d="M62.38,24.88V14.94A3.43,3.43,0,0,1,65,13.7c1,0,1.26.38,1.26,1.86v9.32h4.45V14.81c0-2.34-.18-3.08-.92-3.88A3.58,3.58,0,0,0,67,9.9c-1.8,0-3.06.58-4.78,2.25v-.61c0-1-.46-1.47-1.37-1.47H56.62v1.78h.26c.75,0,1.06.35,1.06,1.12V24.88Z"/><path class="cls-1" d="M84.37,21.89H78.09l6-8.53v-3H74.59A1.37,1.37,0,0,0,73,11.94v2.65H74.8v-.26c0-.68.35-1,1.07-1H79.1L73,22v2.93H84.37Z"/><path class="cls-1" d="M108.44,24V7.66c0-1.3-.42-1.74-1.68-1.74h-3.67V7.7h.6a.55.55,0,0,1,.38.21,1.18,1.18,0,0,1,.22.84V24Zm2.07,0h4.15V11.62c0-1.24-.46-1.74-1.71-1.74h-2.44Zm-8,0V9.88h-2.45c-1.21,0-1.7.5-1.7,1.74V24Zm16.29-8.28c0,7.38-5.26,12.75-12.44,12.75S93.92,23.07,93.92,15.69,99.16,3,106.36,3,118.8,8.33,118.8,15.69Zm3,0c0-9-6.58-15.69-15.39-15.69S91,6.7,91,15.69s6.6,15.71,15.42,15.71S121.77,24.7,121.77,15.69Z"/></g></g></svg>