<svg xmlns="http://www.w3.org/2000/svg" viewBox="0 0 70.87 70.87"><defs><style>.cls-1{fill:#fff;}.cls-2{fill:#ffe100;}.cls-3{fill:#4485ed;}</style></defs><title>colored-overview</title><g id="Layer_2" data-name="Layer 2"><g id="ICON"><path class="cls-1" d="M41,1.38H4.15A2.77,2.77,0,0,0,1.38,4.15V66.72a2.76,2.76,0,0,0,2.77,2.76H51.76a2.76,2.76,0,0,0,2.77-2.76V15Z"/><path class="cls-2" d="M52.33,57l11.5,11.5a3.31,3.31,0,0,0,4.68-4.68L57,52.33Z"/><path class="cls-2" d="M59.52,42.91A16.61,16.61,0,1,1,42.91,26.3,16.61,16.61,0,0,1,59.52,42.91Z"/><path class="cls-1" d="M53.71,42.91a10.8,10.8,0,1,1-10.8-10.8,10.8,10.8,0,0,1,10.8,10.8Z"/><path class="cls-3" d="M43.74,15H54.53L41,1.38v10.8A2.77,2.77,0,0,0,43.74,15Z"/><path d="M42.91,30.73A12.18,12.18,0,1,0,55.09,42.91,12.19,12.19,0,0,0,42.91,30.73Zm0,21.59a9.41,9.41,0,1,1,9.41-9.41,9.42,9.42,0,0,1-9.41,9.41Z"/><path d="M69.49,62.86l-11-11a18,18,0,0,0-2.59-21.38V15h0a1.35,1.35,0,0,0-.4-1L42,.41A1.38,1.38,0,0,0,41,0H4.15A4.15,4.15,0,0,0,0,4.15V66.72a4.15,4.15,0,0,0,4.15,4.15H51.76a4.16,4.16,0,0,0,4.16-4.15V62.55l6.94,6.94a4.69,4.69,0,0,0,6.63-6.63ZM42.91,58.13A15.23,15.23,0,1,1,58.13,42.91,15.24,15.24,0,0,1,42.91,58.13Zm-.56-53.4,8.84,8.83H43.74a1.38,1.38,0,0,1-1.39-1.38Zm10.8,62a1.38,1.38,0,0,1-1.39,1.38H4.15a1.38,1.38,0,0,1-1.38-1.38V4.15A1.38,1.38,0,0,1,4.15,2.77H39.58v9.41a4.16,4.16,0,0,0,4.16,4.15h9.41V28.12A18,18,0,0,0,25.79,48.46H8.88a1.39,1.39,0,0,0,0,2.77H26.55a1.58,1.58,0,0,0,.38,0,18,18,0,0,0,24.94,7.33l1.28,1.28Zm14.39.82a1.94,1.94,0,0,1-2.73,0L54.19,56.91a17.49,17.49,0,0,0,2.72-2.72L67.54,64.81a1.94,1.94,0,0,1,0,2.73Z"/><path d="M42.91,36.68a1.39,1.39,0,1,0,0,2.77,3.46,3.46,0,0,1,3.46,3.46,1.39,1.39,0,0,0,2.77,0,6.24,6.24,0,0,0-6.23-6.23Z"/><path d="M21.34,38.87H8.88a1.38,1.38,0,1,0,0,2.76H21.34a1.38,1.38,0,0,0,0-2.76Z"/><path d="M22.16,29.27H8.88a1.39,1.39,0,0,0,0,2.77H22.16a1.39,1.39,0,0,0,0-2.77Z"/><path d="M26.3,58.06a1.39,1.39,0,0,0-1,.41,1.36,1.36,0,0,0,0,2,1.39,1.39,0,0,0,1,.41,1.4,1.4,0,0,0,1-.41,1.39,1.39,0,0,0,0-2,1.4,1.4,0,0,0-1-.41Z"/><path d="M20.61,58.06H8.88a1.39,1.39,0,0,0,0,2.77H20.61a1.39,1.39,0,1,0,0-2.77Z"/><path d="M8.88,22.44a1.44,1.44,0,0,0,1-.4,1.39,1.39,0,0,0,.4-1,1.38,1.38,0,0,0-.4-1,1.38,1.38,0,0,0-2,0,1.37,1.37,0,0,0-.41,1,1.4,1.4,0,0,0,.41,1,1.44,1.44,0,0,0,1,.4Z"/><path d="M35.43,19.67H14.75a1.39,1.39,0,1,0,0,2.77H35.43a1.39,1.39,0,1,0,0-2.77Z"/><path d="M8.88,12.84H35.43a1.38,1.38,0,1,0,0-2.76H8.88a1.38,1.38,0,0,0,0,2.76Z"/></g></g></svg>