<svg xmlns="http://www.w3.org/2000/svg" viewBox="0 0 70.87 64.62"><defs><style>.cls-1{fill:#4485ed;}.cls-2{fill:#fff;}.cls-3{fill:#ffe100;}</style></defs><title>colored-landlord-help</title><g id="Layer_2" data-name="Layer 2"><g id="ICON"><polygon class="cls-1" points="59.11 19.71 34.26 3.18 9.41 19.71 9.41 58.89 59.12 58.89 59.12 19.71 59.11 19.71"/><polygon class="cls-2" points="59.11 19.71 34.26 3.18 28.33 7.12 52.93 23.48 52.94 23.48 52.94 58.89 59.12 58.89 59.12 19.71 59.11 19.71"/><path class="cls-1" d="M4.76,26.34,33.84,7a.76.76,0,0,1,.84,0L63.77,26.34a2.42,2.42,0,0,0,2.7,0h0a2.44,2.44,0,0,0,0-4.06L34.68,1.14a.76.76,0,0,0-.84,0L2.06,22.28a2.44,2.44,0,0,0,0,4.06h0A2.42,2.42,0,0,0,4.76,26.34Z"/><path class="cls-2" d="M31.34,29.75H16.57a1.12,1.12,0,0,0-1.12,1.11v28h17v-28A1.11,1.11,0,0,0,31.34,29.75Z"/><path class="cls-1" d="M64.27,55.33h-60a1.79,1.79,0,0,0-1.79,1.79h0A1.79,1.79,0,0,0,4.26,58.9h60a1.79,1.79,0,0,0,1.79-1.78h0A1.79,1.79,0,0,0,64.27,55.33Z"/><circle class="cls-3" cx="53.96" cy="47.75" r="15.86"/><path d="M13.76,13.31,1.54,21.44a3.44,3.44,0,0,0,0,5.74,3.43,3.43,0,0,0,3.82,0l3.08-2.05V43a1,1,0,1,0,2,0V23.79L34.3,7.93,58.15,23.79V31.4l-.26-.06-.12,0-.3-.07-.17,0L57,31.16l-.21,0-.25,0L56.13,31l-.19,0-.29,0h-.2l-.29,0H54A16.91,16.91,0,0,0,37.47,44.36a17.17,17.17,0,0,0-.34,3.39c0,.14,0,.28,0,.43a16.66,16.66,0,0,0,.74,4.55h0a1.39,1.39,0,0,0,.06.19c.15.47.32.93.51,1.39h-5V30.86a2.12,2.12,0,0,0-2.12-2.12H16.6a2.12,2.12,0,0,0-2.12,2.12V54.32h-4V49.25a1,1,0,0,0-2,0v5.07H4.29a2.8,2.8,0,0,0,0,5.59h38A16.86,16.86,0,1,0,60.16,32.05V25.13l3.08,2.05a3.45,3.45,0,1,0,3.82-5.74l-8-5.3A1,1,0,1,0,58,17.82l8,5.3a1.43,1.43,0,0,1,0,2.38,1.4,1.4,0,0,1-1.59,0L35.28,6.16l-.1-.06h0l-.11,0h0l-.11,0h0l-.06,0a1.75,1.75,0,0,0-1.55.2L8.89,22.41h0L4.24,25.5a1.43,1.43,0,0,1-1.59-2.38l31.65-21L52.74,14.33a1,1,0,1,0,1.12-1.67L35.28.3a1.75,1.75,0,0,0-2,0l-9.5,6.32ZM16.5,30.86a.1.1,0,0,1,.1-.1H31.38a.11.11,0,0,1,.1.1V54.32h-15ZM4.29,57.9a.78.78,0,1,1,0-1.56H39.48c.32.53.67,1.06,1,1.56ZM54,62.6a14.88,14.88,0,0,1-14-10,.88.88,0,0,0-.05-.15l-.06-.2a3,3,0,0,1-.1-.32l0-.06a15.38,15.38,0,0,1-.51-2.69v0l0-.38v-.1c0-.11,0-.22,0-.34s0-.07,0-.11v-.43A14.83,14.83,0,0,1,54,32.9h.67l.52,0h.13l.44,0,.12,0,.48.07.18,0,.45.08.21,0,.29.06.34.09.27.07.29.09.13,0A14.85,14.85,0,0,1,54,62.6Z"/><path d="M55.45,46.44v-4.2c1.6.12,2.14.88,2.81.88.89,0,1.27-1.09,1.27-1.64,0-1.39-2.53-1.84-4.08-1.89V39c0-.31-.41-.59-.81-.59s-.81.28-.81.59v.67c-2.39.31-4.63,1.62-4.63,4.65s2.45,4,4.63,4.8v4.75c-2.1-.24-2.82-1.79-3.73-1.79-.74,0-1.33,1-1.33,1.67,0,1.33,2.17,2.88,5.06,3v.66c0,.31.35.6.81.6s.81-.29.81-.6V56.6c2.67-.43,4.51-2.12,4.51-5.05C60,48.3,57.57,47.23,55.45,46.44ZM54,45.92c-1.1-.43-1.91-.89-1.91-1.94,0-.9.71-1.48,1.91-1.67Zm1.24,7.89V49.66c1,.45,1.79,1,1.79,2.2A1.94,1.94,0,0,1,55.26,53.81Z"/></g></g></svg>