<svg xmlns="http://www.w3.org/2000/svg" xmlns:xlink="http://www.w3.org/1999/xlink" viewBox="0 0 103.04 64.53"><defs><style>.cls-1{fill:none;}.cls-2{fill:#fff;}.cls-3{fill:#ffe100;}.cls-4{fill:#754c29;}.cls-5{fill:#4485ed;}.cls-6{clip-path:url(#clip-path);}</style><clipPath id="clip-path" transform="translate(0 -0.07)"><rect class="cls-1" width="103.04" height="64.8"/></clipPath></defs><title>colored-home-listing</title><g id="Layer_2" data-name="Layer 2"><g id="ICON"><path class="cls-2" d="M90.57,21V47.62a1.7,1.7,0,0,1-1.69,1.7H73.59v-11l.83.61a3.07,3.07,0,0,0,4.27-.68v4.25h6.79v-6.8H79.16A3.05,3.05,0,0,0,78,34L58.06,20,73.59,8.56Z" transform="translate(0 -0.07)"/><path class="cls-2" d="M45,20,25.06,34a3.15,3.15,0,0,0-1.19,1.7H19.25V49.32H14.16a1.7,1.7,0,0,1-1.7-1.7V21l17-12.47Z" transform="translate(0 -0.07)"/><path class="cls-2" d="M34.54,23.85a5.1,5.1,0,1,1-5.1-5.1,5.1,5.1,0,0,1,5.1,5.1Z" transform="translate(0 -0.07)"/><path class="cls-3" d="M24.28,38.2a3.07,3.07,0,0,0,4.33.76l.83-.61v11H19.25V35.73h4.62a3.12,3.12,0,0,0,.41,2.47Z" transform="translate(0 -0.07)"/><path class="cls-3" d="M50.11,16.36,45,20,29.44,8.56,12.46,21,6.53,25.37A3,3,0,0,1,4.75,26,3.09,3.09,0,0,1,2.2,24.61,3,3,0,0,1,3,20.45L29.44,1.77Z" transform="translate(0 -0.07)"/><rect class="cls-4" x="19.25" y="35.66" width="10.19" height="1.7"/><path class="cls-3" d="M68.5,34.61l5.09,3.74v11H68.5Z" transform="translate(0 -0.07)"/><path class="cls-2" d="M85.48,35.73v6.8H78.69V38.28a.27.27,0,0,0,.07-.08,3,3,0,0,0,.4-2.47Z" transform="translate(0 -0.07)"/><path class="cls-2" d="M78.69,23.85a5.1,5.1,0,1,1-5.1-5.1,5.09,5.09,0,0,1,5.1,5.1Z" transform="translate(0 -0.07)"/><path class="cls-3" d="M101.34,22.93a3,3,0,0,1-4.84,2.44L90.57,21l-17-12.47L58.06,20l-5.13-3.61L73.59,1.77l26.46,18.68a3.05,3.05,0,0,1,1.29,2.48Z" transform="translate(0 -0.07)"/><path class="cls-2" d="M34.54,34.61V49.32h-5.1v-11Z" transform="translate(0 -0.07)"/><path class="cls-2" d="M68.5,34.61v26.6a1.7,1.7,0,0,1-1.7,1.69H36.23a1.69,1.69,0,0,1-1.69-1.69V34.61l17-12.46Z" transform="translate(0 -0.07)"/><path class="cls-5" d="M73.59,38.35,68.5,34.61l-17-12.46-17,12.46-5.1,3.74-.83.61a3.07,3.07,0,0,1-4.21-.59,3,3,0,0,1-.53-2.64A3.15,3.15,0,0,1,25.06,34L45,20l5.13-3.61,1.41-1,1.41,1L58.06,20,78,34a3,3,0,0,1,.79,4.17.27.27,0,0,1-.07.08,3.07,3.07,0,0,1-4.27.68Z" transform="translate(0 -0.07)"/><rect class="cls-2" x="56.61" y="49.25" width="6.79" height="6.79"/><path class="cls-2" d="M56.61,37.43a5.1,5.1,0,1,1-5.09-5.09,5.1,5.1,0,0,1,5.09,5.09Z" transform="translate(0 -0.07)"/><rect class="cls-5" x="41.33" y="49.25" width="10.19" height="13.59"/><rect class="cls-4" x="41.33" y="49.25" width="10.19" height="1.7"/><path d="M63.4,47.62H56.61a1.7,1.7,0,0,0-1.7,1.7v6.79a1.7,1.7,0,0,0,1.7,1.7H63.4a1.7,1.7,0,0,0,1.7-1.7V49.32a1.7,1.7,0,0,0-1.7-1.7Zm-1.69,6.79h-3.4V51h3.4Z" transform="translate(0 -0.07)"/><g class="cls-6"><path d="M58.31,37.43a6.8,6.8,0,1,0-6.79,6.79,6.79,6.79,0,0,0,6.79-6.79Zm-6.79,3.4a3.4,3.4,0,1,1,3.39-3.4,3.4,3.4,0,0,1-3.39,3.4Z" transform="translate(0 -0.07)"/><path d="M101,19.06,74.57.38a1.72,1.72,0,0,0-2,0L52.93,14.27,52.5,14a1.68,1.68,0,0,0-2,0l-.44.3L30.42.38a1.72,1.72,0,0,0-2,0L2,19.06a4.73,4.73,0,1,0,5.54,7.68l3.22-2.36V47.62a3.4,3.4,0,0,0,3.4,3.4H32.84V61.21a3.39,3.39,0,0,0,3.39,3.39H66.8a3.4,3.4,0,0,0,3.4-3.39V51H88.88a3.4,3.4,0,0,0,3.39-3.4V24.38l3.23,2.37a4.7,4.7,0,0,0,2.78.91,4.8,4.8,0,0,0,4-2.13A4.73,4.73,0,0,0,101,19.06ZM77,35.42a1.33,1.33,0,0,1-.53,2.4,1.36,1.36,0,0,1-1-.24L52.52,20.77a1.7,1.7,0,0,0-2,0L27.6,37.58a1.36,1.36,0,0,1-1,.24,1.34,1.34,0,0,1-1.07-1A1.32,1.32,0,0,1,26,35.42l25.48-18ZM70.2,23.85a3.4,3.4,0,1,1,3.39,3.39,3.4,3.4,0,0,1-3.39-3.39ZM83.78,37.43v3.4H80.39V38.71a4.82,4.82,0,0,0,.48-1.28ZM29.44,27.24a3.4,3.4,0,1,1,3.4-3.39,3.4,3.4,0,0,1-3.4,3.39ZM5.54,24a1.4,1.4,0,0,1-.79.25,1.37,1.37,0,0,1-1.12-.57A1.35,1.35,0,0,1,4,21.84l25.47-18,17.72,12.5L45,17.88,30.45,7.2a1.71,1.71,0,0,0-2,0Zm8.62-2.11L29.44,10.67l12.63,9.27-5.86,4.14c0-.08,0-.16,0-.24a6.79,6.79,0,1,0-8.83,6.45l-3.33,2.36A4.66,4.66,0,0,0,22.77,34H19.25a1.7,1.7,0,0,0-1.7,1.69V47.62H14.16ZM21,47.62V37.43h1.21a5,5,0,0,0,.71,1.7,4.68,4.68,0,0,0,4.87,2v6.49Zm10.19,0V39.2L32.84,38v9.67ZM43,61.21V51h6.79V61.21Zm23.77,0H53.22V49.32a1.7,1.7,0,0,0-1.7-1.7H41.33a1.7,1.7,0,0,0-1.7,1.7V61.21h-3.4V35.46L51.52,24.25,66.8,35.46Zm3.4-13.59V38l1.69,1.25v8.42Zm18.68,0H75.29V41.14a4.42,4.42,0,0,0,1.7,0v1.36a1.7,1.7,0,0,0,1.7,1.69h6.79a1.7,1.7,0,0,0,1.7-1.69v-6.8a1.7,1.7,0,0,0-1.7-1.7H80.26A4.82,4.82,0,0,0,79,32.64L75.63,30.3a6.78,6.78,0,1,0-8.83-6.45c0,.08,0,.15,0,.23L61,19.94l12.63-9.27L88.88,21.89Zm10.55-24A1.38,1.38,0,0,1,97.5,24L74.59,7.19a1.7,1.7,0,0,0-2,0L58,17.88l-2.17-1.53L73.59,3.85l25.48,18a1.35,1.35,0,0,1,.36,1.83Z" transform="translate(0 -0.07)"/></g></g></g></svg>