<svg xmlns="http://www.w3.org/2000/svg" viewBox="0 0 44.86 54.54"><defs><style>.cls-1{fill:#ffe100;}.cls-2{fill:#fff;}</style></defs><title>colored-document</title><g id="Layer_2" data-name="Layer 2"><g id="ICON"><polygon class="cls-1" points="32.45 42.13 32.45 51.82 9.18 51.82 9.18 9.18 42.13 9.18 42.13 42.13 32.45 42.13"/><rect x="12.91" y="19.37" width="25.5" height="2.73"/><rect x="12.91" y="25.82" width="25.5" height="2.73"/><rect x="12.91" y="32.28" width="25.5" height="2.73"/><rect x="19.36" y="12.91" width="12.58" height="2.73"/><path d="M38.4,6.46V0H0V48.09H6.46v6.45H34.38L44.86,44.06V6.46Zm1.81,38.4-5,5v-5ZM35.68,2.73V6.46H6.46v38.9H2.72V2.73Zm-3.23,39.4v9.69H9.18V9.18h33v33Z"/><polygon class="cls-2" points="35.68 2.73 35.68 6.46 6.46 6.46 6.46 45.36 2.73 45.36 2.73 2.73 35.68 2.73"/><polygon class="cls-2" points="40.21 44.86 35.17 49.89 35.17 44.86 40.21 44.86"/></g></g></svg>