<svg xmlns="http://www.w3.org/2000/svg" viewBox="0 0 49.13 49.13"><defs><style>.cls-1{fill:#4485ed;}</style></defs><title>cooking</title><g id="Layer_2" data-name="Layer 2"><g id="ICON"><path class="cls-1" d="M37.34,17.69H26.84a1.72,1.72,0,0,0,0-3.44H22.55a1.72,1.72,0,0,0,0,3.44H12.05c-2.91,0-5.33,2.62-5.8,5.4h36.9c-.47-2.79-2.89-5.4-5.81-5.4Z"/><path class="cls-1" d="M43.24,26v-.49H0V28H6.16V43.23a5.9,5.9,0,0,0,5.89,5.9H37.34a5.9,5.9,0,0,0,5.9-5.9V28.5h5.89V26Z"/><path class="cls-1" d="M15.67,5.9c.17.23.36.44.55.65l.47.48c.3.3.58.6.81.87s.2.27.27.38a.79.79,0,0,1,.14.31.71.71,0,0,1-.19.49,3,3,0,0,1-.54.51,1.85,1.85,0,0,0,.85.1,1.48,1.48,0,0,0,.9-.46,1.71,1.71,0,0,0,.45-1.08,3,3,0,0,0-.12-1,5.38,5.38,0,0,0-.75-1.56c-.16-.23-.34-.45-.48-.63a5.06,5.06,0,0,1-.37-.47,4.6,4.6,0,0,1-.9-1.9A4.73,4.73,0,0,1,17.18,0a3.17,3.17,0,0,0-2.34,2.38,3.94,3.94,0,0,0,0,1.9,5.31,5.31,0,0,0,.79,1.62Z"/><path class="cls-1" d="M22.05,5.9c.17.23.35.44.54.65l.47.48a10.35,10.35,0,0,1,.81.87c.11.14.2.27.27.38a.67.67,0,0,1,.14.31.8.8,0,0,1-.18.49,3.06,3.06,0,0,1-.55.51,1.87,1.87,0,0,0,.85.1,1.51,1.51,0,0,0,.9-.46,1.71,1.71,0,0,0,.45-1.08,2.78,2.78,0,0,0-.12-1,5.15,5.15,0,0,0-.76-1.56c-.15-.23-.34-.45-.47-.63s-.26-.32-.37-.47a4.47,4.47,0,0,1-.9-1.9A4.65,4.65,0,0,1,23.55,0a3.18,3.18,0,0,0-2.34,2.38,3.85,3.85,0,0,0,.05,1.91,4.94,4.94,0,0,0,.79,1.61Z"/><path class="cls-1" d="M27.85,5.9c.17.23.35.44.54.65l.48.48c.3.3.58.6.8.87a2.28,2.28,0,0,1,.27.38.81.81,0,0,1,.15.31.82.82,0,0,1-.19.49,3,3,0,0,1-.54.51,1.81,1.81,0,0,0,.84.1,1.53,1.53,0,0,0,.91-.46,1.76,1.76,0,0,0,.44-1.08,3,3,0,0,0-.11-1,5.15,5.15,0,0,0-.76-1.56c-.16-.23-.34-.45-.48-.63s-.26-.32-.37-.47a4.6,4.6,0,0,1-.9-1.9A4.75,4.75,0,0,1,29.36,0,3.13,3.13,0,0,0,27,2.38a3.71,3.71,0,0,0,0,1.9,5.09,5.09,0,0,0,.79,1.62Z"/></g></g></svg>