<?xml version="1.0" encoding="utf-8"?>
<!-- Generator: Adobe Illustrator 23.0.0, SVG Export Plug-In . SVG Version: 6.00 Build 0)  -->
<svg version="1.1" id="Layer_1" xmlns="http://www.w3.org/2000/svg" xmlns:xlink="http://www.w3.org/1999/xlink" x="0px" y="0px"
	 viewBox="0 0 24 24" style="enable-background:new 0 0 24 24;" xml:space="preserve">
<style type="text/css">
	.st0{fill:#2C76EC;}
	.st1{fill:none;}
</style>
<path class="st0" d="M22,9V7h-2V5c0-1.1-0.9-2-2-2H4C2.9,3,2,3.9,2,5v14c0,1.1,0.9,2,2,2h14c1.1,0,2-0.9,2-2v-2h2v-2h-2v-2h2v-2h-2
	V9H22z M18,19H4V5h14V19z M6,13h5v4H6V13z M12,7h4v3h-4V7z M6,7h5v5H6V7z M12,11h4v6h-4V11z"/>
<path class="st1" d="M0,0h24v24H0V0z M0,0h24v24H0V0z"/>
</svg>
