<svg xmlns="http://www.w3.org/2000/svg" viewBox="0 0 41.72 50.06"><defs><style>.cls-1{fill:#4485ed;}</style></defs><title>dog</title><g id="Layer_2" data-name="Layer 2"><g id="ICON"><path class="cls-1" d="M40.68,18.77c-3.54,0-7.31,2.93-7.31,8.35a13.32,13.32,0,0,0,2.07,6.61,13.47,13.47,0,0,1,2.11,7c0,4.91-2.39,7.3-7.3,7.3H29.08a7.29,7.29,0,0,0,2.21-5.22V38.59c0-5.36-3.1-8.08-5.36-10.07-.44-.38-.85-.74-1.2-1.1-.52-.52-1.22-1.14-2-1.82-1.88-1.67-5-4.48-5-5.78V9.39a5.48,5.48,0,0,0-3.32-4.95C14,3.17,12.57,0,9.39,0A1,1,0,0,0,8.34,1c0,1.62-.71,3.13-1,3.13-1.5,0-2.41,1.35-3.13,2.44a7.64,7.64,0,0,1-.74,1,8.91,8.91,0,0,1-1,.79C1.28,9.2,0,10.11,0,11.47c0,3.8,4.48,5.22,7.3,5.22a5.74,5.74,0,0,1,.84,0h0a13.09,13.09,0,0,1,.2,3.59v.54a2.66,2.66,0,0,1-.56,1.47,9.88,9.88,0,0,0-1.52,5.83c0,2.2,1.6,5.54,2.08,6.51V43.8h-1a3.14,3.14,0,0,0-3.13,3.13V49a1,1,0,0,0,1,1h25c6,0,9.38-3.33,9.38-9.38a15.58,15.58,0,0,0-2.35-7.93,11.28,11.28,0,0,1-1.82-5.63c0-4.59,3.12-6.26,5.22-6.26a1,1,0,0,0,0-2.09Z"/></g></g></svg>