<?xml version="1.0" encoding="utf-8"?>
<!-- Generator: Adobe Illustrator 23.0.0, SVG Export Plug-In . SVG Version: 6.00 Build 0)  -->
<svg version="1.1" id="Layer_1" xmlns="http://www.w3.org/2000/svg" xmlns:xlink="http://www.w3.org/1999/xlink" x="0px" y="0px"
	 viewBox="0 0 512 512" style="enable-background:new 0 0 512 512;" xml:space="preserve">
<style type="text/css">
	.st0{fill:none;}
	.st1{fill:#2C76EC;}
</style>
<g>
	<rect class="st0" width="512" height="512"/>
	<path class="st1" d="M298.7,42.7H128c-23.5,0-42.7,19.2-42.7,42.7v341.3c0,23.5,19.2,42.7,42.7,42.7h256
		c23.5,0,42.7-19.2,42.7-42.7v-256L298.7,42.7z M320,234.7h-85.3V256h64c11.7,0,21.3,9.6,21.3,21.3v64c0,11.7-9.6,21.3-21.3,21.3
		h-21.3V384h-42.7v-21.3H192V320h85.3v-21.3h-64c-11.7,0-21.3-9.6-21.3-21.3v-64c0-11.7,9.6-21.3,21.3-21.3h21.3v-21.3h42.7V192H320
		V234.7z"/>
</g>
</svg>
