<?xml version="1.0" encoding="utf-8"?>
<!-- Generator: Adobe Illustrator 23.0.0, SVG Export Plug-In . SVG Version: 6.00 Build 0)  -->
<svg version="1.1" id="Layer_1" xmlns="http://www.w3.org/2000/svg" xmlns:xlink="http://www.w3.org/1999/xlink" x="0px" y="0px"
	 viewBox="0 0 24 24" style="enable-background:new 0 0 24 24;" xml:space="preserve">
<style type="text/css">
	.st0{fill:none;}
	.st1{fill:#2C76EC;}
</style>
<path class="st0" d="M0,0h24v24H0V0z"/>
<path class="st1" d="M16.5,11.1L15.5,10l-4.9,4.9l-2.1-2.1l-1.1,1.1l3.2,3.2C10.6,17,16.5,11.1,16.5,11.1z M19,3h-1V1h-2v2H8V1H6v2
	H5C3.9,3,3,3.9,3,5l0,14c0,1.1,0.9,2,2,2h14c1.1,0,2-0.9,2-2V5C21,3.9,20.1,3,19,3z M19,19H5V8h14V19z"/>
</svg>
