<svg xmlns="http://www.w3.org/2000/svg" viewBox="0 0 20.79 38.45"><defs><style>.cls-1{fill:#fff;}</style></defs><title>facebook</title><g id="Layer_2" data-name="Layer 2"><g id="ICON"><path class="cls-1" d="M20,0H15C9.42,0,5.8,3.71,5.8,9.46v4.37h-5a.78.78,0,0,0-.78.78v6.32a.78.78,0,0,0,.78.78h5v16a.78.78,0,0,0,.78.78h6.54a.79.79,0,0,0,.79-.78v-16h5.86a.78.78,0,0,0,.78-.78V14.61a.77.77,0,0,0-.78-.78H13.91v-3.7c0-1.78.42-2.68,2.73-2.68H20a.78.78,0,0,0,.79-.78V.79A.78.78,0,0,0,20,0Z"/></g></g></svg>