<svg xmlns="http://www.w3.org/2000/svg" viewBox="0 0 70.03 70.03"><defs><style>.cls-1{fill:#fff;}.cls-2{fill:#f05;}</style></defs><title>favs</title><g id="Layer_2" data-name="Layer 2"><g id="ICON"><circle class="cls-1" cx="35.02" cy="35.02" r="33.77"/><path class="cls-2" d="M35,2.5A32.52,32.52,0,1,1,2.5,35,32.56,32.56,0,0,1,35,2.5M35,0A35,35,0,1,0,70,35,35,35,0,0,0,35,0Z"/><path class="cls-2" d="M52.14,21.23a11.32,11.32,0,0,0-16,0L35,22.36l-1.14-1.13a11.29,11.29,0,1,0-16,16L34.18,53.46a1.16,1.16,0,0,0,1.65,0L52.12,37.24a11.33,11.33,0,0,0,0-16ZM50.48,35.58,35,51,19.56,35.56A9,9,0,1,1,32.24,22.88l2,2a1.16,1.16,0,0,0,1.65,0l1.94-1.94A9,9,0,0,1,50.48,35.58Z"/></g></g></svg>