<svg xmlns="http://www.w3.org/2000/svg" xmlns:xlink="http://www.w3.org/1999/xlink" viewBox="0 0 122 39.91"><defs><style>.cls-1{fill:none;}.cls-2{fill:#010101;}.cls-3{clip-path:url(#clip-path);}.cls-4{fill:url(#linear-gradient);}.cls-5{fill:url(#linear-gradient-2);}.cls-6{fill:url(#linear-gradient-3);}.cls-7{fill:url(#linear-gradient-4);}.cls-8{fill:#f7f7f8;}.cls-9{fill:#f6f8f9;}</style><clipPath id="clip-path"><path id="SVGID" class="cls-1" d="M26.44,17.57l-5.5-3.18L10.33,8.26c-.59-.34-1.18-.13-1.18.58v25c0,.53.42.76.93.47L20.94,28l5.5-3.18,5.29-3.05c.62-.36.56-.85,0-1.13s-5.32-3.07-5.32-3.07Z"/></clipPath><linearGradient id="linear-gradient" x1="1203.17" y1="-2023.12" x2="1203.17" y2="-2020.87" gradientTransform="translate(-14422.08 24285.11) scale(12)" gradientUnits="userSpaceOnUse"><stop offset="0" stop-color="#297cae"/><stop offset="0.29" stop-color="#4b91b4"/><stop offset="0.77" stop-color="#79bbb9"/><stop offset="1" stop-color="#87cdbb"/></linearGradient><linearGradient id="linear-gradient-2" x1="1202.6" y1="-2022.56" x2="1204.04" y2="-2022.56" gradientTransform="translate(-14422.08 24285.11) scale(12)" gradientUnits="userSpaceOnUse"><stop offset="0" stop-color="#53bfac"/><stop offset="1" stop-color="#dce698"/></linearGradient><linearGradient id="linear-gradient-3" x1="1203.32" y1="-2021.99" x2="1203.32" y2="-2020.86" gradientTransform="translate(-14422.08 24285.11) scale(12)" gradientUnits="userSpaceOnUse"><stop offset="0" stop-color="#ea423d"/><stop offset="0.17" stop-color="#d84553"/><stop offset="0.57" stop-color="#af497b"/><stop offset="0.86" stop-color="#944c91"/><stop offset="1" stop-color="#884b9b"/></linearGradient><linearGradient id="linear-gradient-4" x1="1204.15" y1="-2022.3" x2="1204.15" y2="-2021.69" gradientTransform="translate(-14422.08 24285.11) scale(12)" gradientUnits="userSpaceOnUse"><stop offset="0" stop-color="#f3877a"/><stop offset="0.12" stop-color="#f48f7b"/><stop offset="0.71" stop-color="#fab678"/><stop offset="1" stop-color="#fcc775"/></linearGradient></defs><title>google-play</title><g id="Layer_2" data-name="Layer 2"><g id="ICON"><path class="cls-2" d="M122,34.51a5.4,5.4,0,0,1-5.4,5.4H5.39A5.39,5.39,0,0,1,0,34.51V5.39A5.39,5.39,0,0,1,5.39,0H116.6A5.39,5.39,0,0,1,122,5.39V34.51Z"/><g class="cls-3"><path class="cls-4" d="M9.15,7.68v27L22.78,21.2Z"/></g><g class="cls-3"><path class="cls-5" d="M26.44,17.57l-5.5-3.18L9.15,7.58v.1L22.78,21.2Z"/></g><g class="cls-3"><path class="cls-6" d="M9.15,34.71v.1L20.94,28l5.5-3.18L22.78,21.2Z"/></g><g class="cls-3"><path class="cls-7" d="M26.44,17.57,22.78,21.2l3.66,3.62,6.28-3.63Z"/></g><path class="cls-8" d="M94.94,26.48a3.37,3.37,0,0,1-1.4-.29,2.47,2.47,0,0,1-1.06-.87h-.09a10.19,10.19,0,0,1,.09,1.31v3.23H91.29V18.48h1l.17,1.07h.06a2.73,2.73,0,0,1,1.06-.93,3.3,3.3,0,0,1,1.4-.29,2.93,2.93,0,0,1,2.42,1.07,4.74,4.74,0,0,1,.84,3,4.67,4.67,0,0,1-.86,3,2.91,2.91,0,0,1-2.4,1.07Zm-.17-7.14A2.13,2.13,0,0,0,93,20a3.41,3.41,0,0,0-.55,2.12v.27A3.94,3.94,0,0,0,93,24.77a2.12,2.12,0,0,0,1.77.71,1.82,1.82,0,0,0,1.59-.82A3.89,3.89,0,0,0,97,22.38a3.7,3.7,0,0,0-.58-2.25,1.87,1.87,0,0,0-1.62-.79Zm6.19,7H99.77V15.18H101Zm6.84,0-.23-1.11h-.06a3.36,3.36,0,0,1-1.17,1,3.67,3.67,0,0,1-1.46.26,2.62,2.62,0,0,1-1.83-.6,2.2,2.2,0,0,1-.67-1.72q0-2.39,3.81-2.49l1.34-.05v-.48a2,2,0,0,0-.4-1.37,1.67,1.67,0,0,0-1.28-.44,5.22,5.22,0,0,0-2.22.6l-.36-.91a5.08,5.08,0,0,1,1.27-.49,5.47,5.47,0,0,1,1.39-.18A3,3,0,0,1,108,19a2.61,2.61,0,0,1,.68,2v5.36Zm-2.68-.83a2.42,2.42,0,0,0,1.74-.61,2.29,2.29,0,0,0,.64-1.71v-.71l-1.19.05a4.3,4.3,0,0,0-2,.44,1.33,1.33,0,0,0-.63,1.22,1.23,1.23,0,0,0,.39,1,1.66,1.66,0,0,0,1.1.34Zm4.26-7h1.27L112.38,23a18.13,18.13,0,0,1,.7,2.21h.06c.06-.24.19-.66.39-1.25s.84-2.4,1.94-5.44h1.28l-3.38,8.94a4.38,4.38,0,0,1-1.17,1.89,2.51,2.51,0,0,1-1.65.55,4.81,4.81,0,0,1-1.07-.12v-.95a4.71,4.71,0,0,0,.88.08,1.82,1.82,0,0,0,1.75-1.37l.44-1.12-3.17-7.9Zm-36.49.73a2.74,2.74,0,0,1,1.17,2.21,2.78,2.78,0,0,1-1.38,2.34,1.12,1.12,0,0,0-.46.81.87.87,0,0,0,.43.7l.59.46A2.87,2.87,0,0,1,74.62,28c0,1.55-1.5,3.11-4.33,3.11-2.38,0-3.53-1.13-3.53-2.35a2.39,2.39,0,0,1,1.27-2A7.1,7.1,0,0,1,71.17,26a1.75,1.75,0,0,1-.5-1.12,1.51,1.51,0,0,1,.17-.64l-.53,0a2.6,2.6,0,0,1-2.73-2.58,3,3,0,0,1,1-2.2,4.52,4.52,0,0,1,3-.91H75l-1,.6ZM71.72,26.5h-.37a6.55,6.55,0,0,0-1.73.26,1.85,1.85,0,0,0-1.41,1.69c0,1.17,1.13,2,2.89,2,1.58,0,2.42-.76,2.42-1.78,0-.84-.55-1.28-1.8-2.17Zm.48-3.12a1.65,1.65,0,0,0,.41-1.2c0-1.18-.71-3-2.07-3a1.52,1.52,0,0,0-1.15.54A1.89,1.89,0,0,0,69,20.92c0,1.1.64,2.92,2,2.92a1.7,1.7,0,0,0,1.12-.46Zm-9.66,2.86a3.86,3.86,0,0,1-4-3.87,4.06,4.06,0,0,1,4.25-4,3.84,3.84,0,0,1,3.92,3.87,4,4,0,0,1-4.17,4Zm2.05-1.33a2.92,2.92,0,0,0,.5-1.82c0-1.45-.69-4.2-2.73-4.2a2.24,2.24,0,0,0-1.47.56,2.47,2.47,0,0,0-.76,2c0,1.62.8,4.3,2.79,4.3a2.07,2.07,0,0,0,1.67-.84ZM53.65,26.24a3.87,3.87,0,0,1-4-3.87,4.07,4.07,0,0,1,4.25-4,3.84,3.84,0,0,1,3.93,3.87A4,4,0,0,1,53.65,26.24Zm2.05-1.33a3,3,0,0,0,.49-1.82c0-1.45-.69-4.2-2.72-4.2a2.27,2.27,0,0,0-1.48.56,2.46,2.46,0,0,0-.75,2c0,1.62.8,4.3,2.79,4.3A2.08,2.08,0,0,0,55.7,24.91ZM48.39,26,46,26.53a17.44,17.44,0,0,1-2.72.28,5.86,5.86,0,0,1-6.29-6c0-3.2,2.46-6.16,6.67-6.16a9.65,9.65,0,0,1,2.52.34,6.64,6.64,0,0,1,2.18,1L47,17.34l-.58.13.41-.66a4.68,4.68,0,0,0-3.53-1.55,4.56,4.56,0,0,0-4.57,4.87,5.84,5.84,0,0,0,5.84,6,5.08,5.08,0,0,0,2.1-.41V23.08l-2.49.13,1.32-.71H49l-.43.41a.38.38,0,0,0-.17.27c0,.15,0,.63,0,.79v2Z"/><path class="cls-8" d="M78.11,25.51c-.55-.05-.66-.15-.66-.79V15.38a.41.41,0,0,1,0-.11c.06-.58.23-.67.74-1H75.84l-1.24.59h1.26V25.08c0,.33-.06.38-.44.87h2.92l.61-.36-.84-.08Zm6.71.15-.54.3a3.91,3.91,0,0,1-1.59.31,3.55,3.55,0,0,1-2.18-.64,4.25,4.25,0,0,1-1.67-3.46,3.71,3.71,0,0,1,3.75-3.78,3.2,3.2,0,0,1,1.69.45,2.75,2.75,0,0,1,1.15,1.63L81.58,22l-1.26.1c.4,2.08,1.81,3.29,3.37,3.29a4.21,4.21,0,0,0,2-.57l-.87.82Zm-1.54-4.88c.31-.12.48-.22.48-.45a1.63,1.63,0,0,0-1.63-1.4,2,2,0,0,0-1.88,2.27c0,.28,0,.58,0,.87l3-1.29ZM86.4,18.5v1.08h-.13V18.5h-.36v-.11h.85v.11Zm1.48,1.08V18.49h0l-.33,1.09h-.1l-.34-1.09h0v1.09H87V18.39h.2l.3,1h0l.3-1H88v1.19Z"/><path class="cls-9" d="M40.3,11.45h-.82a5.43,5.43,0,0,0-.24-1H38.06a5,5,0,0,0-.24,1h-.77c0-.06.2-.61.6-1.64a12.81,12.81,0,0,0,.6-1.69h1a14,14,0,0,0,.55,1.67A15.2,15.2,0,0,1,40.3,11.45ZM39.11,10a12.85,12.85,0,0,1-.43-1.43h0A14.18,14.18,0,0,1,38.18,10Zm4.49,1.45H43a6.5,6.5,0,0,0-.71-1.11,6.13,6.13,0,0,1-.84-1.44h0a7.57,7.57,0,0,1,.07,1c0,.42,0,.94,0,1.54h-.63c0-.53,0-1.11,0-1.74s0-1.16,0-1.59h.76a4.65,4.65,0,0,0,.64,1.08A6.36,6.36,0,0,1,43,10.57h0a10,10,0,0,1-.06-1c0-.46,0-.94,0-1.42h.64q0,.63,0,1.59T43.6,11.45Zm3.72-1.78a1.9,1.9,0,0,1-.47,1.27,1.64,1.64,0,0,1-1.31.54l-1,0c0-.51,0-1.1,0-1.74s0-1.15,0-1.59h1.06a1.73,1.73,0,0,1,1.34.46,1.6,1.6,0,0,1,.42,1.11Zm-.7.11A1.23,1.23,0,0,0,46.33,9a1.1,1.1,0,0,0-.88-.34l-.3,0c0,.34,0,.69,0,1.07s0,.81,0,1.21a1.86,1.86,0,0,0,.33,0,1,1,0,0,0,.82-.35,1.29,1.29,0,0,0,.27-.83Zm4.12,1.67H50a5.67,5.67,0,0,0-.45-1.12.62.62,0,0,0-.52-.21h-.28c0,.44,0,.88,0,1.33H48c0-.51,0-1.1,0-1.74s0-1.15,0-1.59h1.22q1.17,0,1.17.81a.89.89,0,0,1-.67.88v0a.83.83,0,0,1,.45.41A8.43,8.43,0,0,1,50.74,11.45Zm-1-2.36c0-.33-.22-.5-.66-.5a2.58,2.58,0,0,0-.42,0c0,.27,0,.61,0,1H49C49.51,9.66,49.78,9.47,49.78,9.09Zm4.63.63A1.86,1.86,0,0,1,53.93,11a1.57,1.57,0,0,1-1.19.51,1.48,1.48,0,0,1-1.13-.47,1.66,1.66,0,0,1-.46-1.21,1.83,1.83,0,0,1,.48-1.3A1.62,1.62,0,0,1,54,8.51a1.69,1.69,0,0,1,.45,1.21Zm-.7.08a1.33,1.33,0,0,0-.28-.87.85.85,0,0,0-.68-.33.78.78,0,0,0-.63.33,1.37,1.37,0,0,0-.26.85,1.37,1.37,0,0,0,.27.87.86.86,0,0,0,.68.33.75.75,0,0,0,.63-.34,1.28,1.28,0,0,0,.27-.84Zm2.15,1.65h-.72q0-.79,0-1.74t0-1.59h.72q0,.65,0,1.59T55.86,11.45Zm3.71-1.78a1.89,1.89,0,0,1-.46,1.27,1.64,1.64,0,0,1-1.31.54l-1,0c0-.51,0-1.1,0-1.74s0-1.15,0-1.59h1.06a1.73,1.73,0,0,1,1.34.46,1.59,1.59,0,0,1,.41,1.11Zm-.69.11A1.23,1.23,0,0,0,58.59,9a1.11,1.11,0,0,0-.88-.34l-.3,0c0,.34,0,.69,0,1.07s0,.81,0,1.21a1.86,1.86,0,0,0,.33,0,1,1,0,0,0,.82-.35A1.29,1.29,0,0,0,58.88,9.78Zm5.62,1.67h-.82a6,6,0,0,0-.23-1H62.26a5,5,0,0,0-.24,1h-.77c0-.06.2-.61.6-1.64a12.81,12.81,0,0,0,.6-1.69h1A14.92,14.92,0,0,0,64,9.79a15.2,15.2,0,0,1,.54,1.66ZM63.32,10a14.58,14.58,0,0,1-.44-1.43h0A13,13,0,0,1,62.38,10Zm4.17-1a1,1,0,0,1-.45.9,2,2,0,0,1-1.12.3h-.17c0,.32,0,.75,0,1.27h-.72q0-.73,0-1.74t0-1.59h1.27a1.41,1.41,0,0,1,.82.22.74.74,0,0,1,.34.67Zm-.66.14c0-.36-.24-.55-.73-.55a2.58,2.58,0,0,0-.38,0c0,.32,0,.69,0,1.1h.14C66.52,9.72,66.83,9.53,66.83,9.13ZM70.56,9a1,1,0,0,1-.45.9,2,2,0,0,1-1.12.3h-.17c0,.32,0,.75,0,1.27h-.72q0-.73,0-1.74t0-1.59H69.4a1.47,1.47,0,0,1,.83.22.75.75,0,0,1,.33.67Zm-.66.14c0-.36-.24-.55-.73-.55a2.58,2.58,0,0,0-.38,0c0,.32,0,.69,0,1.1H69C69.59,9.72,69.9,9.53,69.9,9.13Zm5.69.59A1.86,1.86,0,0,1,75.11,11a1.59,1.59,0,0,1-1.2.51,1.5,1.5,0,0,1-1.13-.47,1.69,1.69,0,0,1-.45-1.21,1.83,1.83,0,0,1,.48-1.3A1.55,1.55,0,0,1,74,8a1.52,1.52,0,0,1,1.13.47,1.66,1.66,0,0,1,.46,1.21Zm-.71.08a1.33,1.33,0,0,0-.27-.87.86.86,0,0,0-.68-.33.8.8,0,0,0-.64.33,1.37,1.37,0,0,0-.26.85,1.32,1.32,0,0,0,.28.87A.84.84,0,0,0,74,11a.78.78,0,0,0,.64-.34,1.34,1.34,0,0,0,.26-.84Zm4.18,1.65h-.63a6.5,6.5,0,0,0-.71-1.11,6.13,6.13,0,0,1-.84-1.44h0a9.72,9.72,0,0,1,.07,1c0,.42,0,.94,0,1.54h-.63c0-.53,0-1.11,0-1.74s0-1.16,0-1.59h.76A4.82,4.82,0,0,0,77.7,9.2a6.57,6.57,0,0,1,.78,1.37h0a10,10,0,0,1-.06-1c0-.46,0-.94,0-1.42h.64c0,.42,0,1,0,1.59S79,10.93,79.06,11.45Z"/></g></g></svg>