<svg xmlns="http://www.w3.org/2000/svg" xmlns:xlink="http://www.w3.org/1999/xlink" viewBox="0 0 80.05 69.72"><defs><style>.cls-1,.cls-6{fill:none;}.cls-2{fill:#ffe100;}.cls-3{clip-path:url(#clip-path);}.cls-4{opacity:0.1;}.cls-5,.cls-7{fill:#fff;}.cls-5{opacity:0.3;}.cls-6{fill-rule:evenodd;}</style><clipPath id="clip-path"><path class="cls-1" d="M45.63,10.26A27.73,27.73,0,1,1,9.44,25.35,27.72,27.72,0,0,1,45.63,10.26Z"/></clipPath></defs><title>grin</title><g id="Layer_2" data-name="Layer 2"><g id="ICON"><path class="cls-2" d="M45.63,10.26A27.73,27.73,0,1,1,9.44,25.35,27.72,27.72,0,0,1,45.63,10.26Z"/><g class="cls-3"><path class="cls-4" d="M72,19.3a4.85,4.85,0,0,0-6.87,0,10.26,10.26,0,0,0-2.57,5.47c-.29,1.86-.44,4.49-.61,5.57a45,45,0,0,1-1,4.57c-.22.83-.5,1.65-.77,2.47-.07.18-.68,1.74-.63,1.66a39.09,39.09,0,0,1-1.9,3.7c-.41.7-.85,1.38-1.3,2.06-.1.15-1,1.42-1,1.37a39.56,39.56,0,0,1-3.08,3.39c-.57.55-1.16,1.08-1.76,1.59l-.91.76-.23.17c-10.22,7.61-22.47,9-35.27,9.74a1.9,1.9,0,0,0-1,3.52c12.92,7.2,30.12,5.1,42.1-3.19A44.08,44.08,0,0,0,69.71,45.53a47.25,47.25,0,0,0,3.9-11.26,61.46,61.46,0,0,0,1-7.15A10,10,0,0,0,72,19.3Z"/><path class="cls-5" d="M79.44,10.74c-1.27-1.92-2.54-4-4.56-5.25a40.09,40.09,0,0,0-6.51-3A46.52,46.52,0,0,0,55.14.11,63.61,63.61,0,0,0,28.51,4.45C20.1,7.71,11.61,13.18,6.28,20.58c-4.89,6.8-7.92,15.73-5.33,24A33.91,33.91,0,0,0,4.63,52a.52.52,0,0,0,1-.27c-.16-4.05.9-7.9,1.8-11.8a27,27,0,0,1,4.51-10l.54-.73c.23-.29.47-.58.71-.86.62-.73,1.28-1.41,1.92-2.11a41.14,41.14,0,0,1,4.28-4l.12-.1.37-.26c.4-.3.81-.58,1.22-.86.83-.57,1.68-1.1,2.54-1.62a53.26,53.26,0,0,1,5.57-2.87l.94-.39c.48-.2,1-.38,1.46-.56,1-.36,2-.72,3-1.06,2-.66,4-1.2,6.1-1.66,1-.23,2.06-.42,3.1-.59l1.06-.16,1.05-.13a56.12,56.12,0,0,1,6.74-.3c1,0,2,.06,3.06.13.51,0,1,.08,1.52.13L58,12a45.07,45.07,0,0,1,5.84,1.28c1.66.49,3.33,1,4.95,1.65.1.05.74.32.85.38a7.94,7.94,0,0,0,3.21.82l.78.09c.44.09.88.22,1.31.33C78.18,17.38,81.43,13.74,79.44,10.74Z"/></g><path class="cls-6" d="M45.63,10.26A27.73,27.73,0,1,1,9.44,25.35,27.72,27.72,0,0,1,45.63,10.26Z"/><path d="M24.42,10.87A31.93,31.93,0,0,1,35,8.34,29.35,29.35,0,0,1,46,9.77,26.29,26.29,0,0,1,62,24.89a27.79,27.79,0,0,1,2,11c0,.93-.15,1.86-.21,2.78s-.31,1.84-.46,2.75l-.7,2.68-.94,2.6A30.29,30.29,0,0,1,46.8,62.53a27.83,27.83,0,0,1-22,.9,28.76,28.76,0,0,1-9.63-6A28,28,0,0,1,6.37,36.86a26.94,26.94,0,0,1,2.46-11,29.24,29.24,0,0,1,6.48-9A31.56,31.56,0,0,1,24.42,10.87Zm.12.27a24.89,24.89,0,0,0-8.64,6.29,26.15,26.15,0,0,0-5.22,9.15L10,29.1l-.47,2.56c-.08.86-.18,1.72-.23,2.58s0,1.72,0,2.57a27.26,27.26,0,0,0,8.06,18.33,26.74,26.74,0,0,0,8.5,5.66A27.63,27.63,0,0,0,46.15,61,25.38,25.38,0,0,0,60.76,46.38c.27-.84.54-1.69.8-2.54s.38-1.73.53-2.6.19-1.76.25-2.64,0-1.77,0-2.64a27.8,27.8,0,0,0-2.59-10.07A29.7,29.7,0,0,0,45.3,11.55,26.28,26.28,0,0,0,35,9.11,24.71,24.71,0,0,0,24.54,11.14Z"/><path d="M30.93,28.58a3,3,0,1,1-3-3A3,3,0,0,1,30.93,28.58Z"/><path d="M47,28.58a3,3,0,1,1-3-3A3,3,0,0,1,47,28.58Z"/><path class="cls-7" d="M16.18,37.28a19.47,19.47,0,0,0,38.83,0Z"/><path d="M16.18,37.28a20,20,0,0,0,6.74,12.2,19.35,19.35,0,0,0,6,3.44A18.81,18.81,0,0,0,35.59,54a18.58,18.58,0,0,0,12.24-5,18.79,18.79,0,0,0,4-5.4,18.49,18.49,0,0,0,1.77-6.45L55,38.73c-3.15,0-6.3-.12-9.46-.18s-6.34-.22-9.54-.33l-9.76-.44Zm0,0q4.58-.26,9.35-.5c3.16-.17,6.41-.29,9.65-.44s6.55-.25,9.87-.33,6.63-.15,10-.18h1.53l-.09,1.57A20.64,20.64,0,0,1,43.22,55.26a20.75,20.75,0,0,1-7.63,1.32,20.09,20.09,0,0,1-13.8-5.88,19.39,19.39,0,0,1-4.17-6.22A18.77,18.77,0,0,1,16.18,37.28Z"/></g></g></svg>