<svg xmlns="http://www.w3.org/2000/svg" viewBox="0 0 52.19 50.56"><defs><style>.cls-1{fill:#4485ed;}</style></defs><title>helping</title><g id="Layer_2" data-name="Layer 2"><g id="ICON"><path class="cls-1" d="M51.75,34.84l-5-4.94L36.57,40.13A12.49,12.49,0,0,1,30,43.59l6.52,6.52a1.54,1.54,0,0,0,2.16,0L51.75,37a1.55,1.55,0,0,0,0-2.17Z"/><path class="cls-1" d="M44.79,27.59a4.44,4.44,0,0,0,0-6.26h0a4.32,4.32,0,0,0-1.46-1,4.42,4.42,0,0,0-1-4.75h0a4.55,4.55,0,0,0-1.46-1,4.41,4.41,0,0,0-1-4.75h0a4.48,4.48,0,0,0-1.47-1,4.44,4.44,0,0,0-1-4.76h0a4.43,4.43,0,0,0-6.25,0L28.26,7l1.48,1.48a6.34,6.34,0,0,1,0,9,6.21,6.21,0,0,1-3,1.68,6.43,6.43,0,0,1-1.67,3,6.26,6.26,0,0,1-3,1.67,6.27,6.27,0,0,1-1.67,3,6.38,6.38,0,0,1-3,1.68,6.33,6.33,0,0,1-10.63,3L5.39,29.9.45,34.84A1.53,1.53,0,0,0,.45,37l13.1,13.1a1.54,1.54,0,0,0,2.16,0l9.38-9.38h2.65A9.34,9.34,0,0,0,34.41,38Z"/><path class="cls-1" d="M9,29.22a3.28,3.28,0,0,0,4.63-4.64A3.28,3.28,0,0,0,18.31,20a3.28,3.28,0,0,0,4.63-4.64,3.28,3.28,0,0,0,4.64-4.63L21,4.14a3.28,3.28,0,0,0-4.63,4.64l.82.81a3.28,3.28,0,0,0-4.64,4.64l1.64,1.64A3.27,3.27,0,0,0,9.6,20.5l1.63,1.64A3.28,3.28,0,0,0,6.6,26.78Z"/><path class="cls-1" d="M29,2a7.1,7.1,0,0,1,.71-.63L28.82.45A1.54,1.54,0,0,0,27.05.16L23.28,2.05,26.1,4.87Z"/></g></g></svg>