<svg xmlns="http://www.w3.org/2000/svg" xmlns:xlink="http://www.w3.org/1999/xlink" viewBox="0 0 263.26 231.55"><defs><style>.cls-1{fill:none;}.cls-2{isolation:isolate;}.cls-3,.cls-4{fill:#b0affd;}.cls-4,.cls-63{opacity:0.4;}.cls-22,.cls-38,.cls-4,.cls-59,.cls-60,.cls-61,.cls-63{mix-blend-mode:multiply;}.cls-5{opacity:0.7;}.cls-6{fill:#9797ef;}.cls-7{fill:#7777db;}.cls-8{fill:#8888e9;}.cls-9{fill:#fd9f00;}.cls-10{clip-path:url(#clip-path);}.cls-11{fill:#e38601;}.cls-12{fill:#fac61b;}.cls-13{clip-path:url(#clip-path-2);}.cls-14{clip-path:url(#clip-path-3);}.cls-15{clip-path:url(#clip-path-4);}.cls-16{clip-path:url(#clip-path-5);}.cls-17{clip-path:url(#clip-path-6);}.cls-18{clip-path:url(#clip-path-7);}.cls-19{clip-path:url(#clip-path-8);}.cls-20{clip-path:url(#clip-path-9);}.cls-21{clip-path:url(#clip-path-10);}.cls-22{opacity:0.2;}.cls-23{clip-path:url(#clip-path-11);}.cls-24{clip-path:url(#clip-path-12);}.cls-25{clip-path:url(#clip-path-13);}.cls-26{clip-path:url(#clip-path-14);}.cls-27{clip-path:url(#clip-path-15);}.cls-28{clip-path:url(#clip-path-16);}.cls-29{clip-path:url(#clip-path-17);}.cls-30,.cls-60{fill:#ffb127;}.cls-31{clip-path:url(#clip-path-18);}.cls-32{clip-path:url(#clip-path-19);}.cls-33{clip-path:url(#clip-path-20);}.cls-34{clip-path:url(#clip-path-21);}.cls-35{clip-path:url(#clip-path-22);}.cls-36{clip-path:url(#clip-path-23);}.cls-37{clip-path:url(#clip-path-24);}.cls-38{fill:#b5905c;}.cls-38,.cls-59,.cls-60,.cls-61,.cls-64{opacity:0.5;}.cls-39{clip-path:url(#clip-path-25);}.cls-40,.cls-63,.cls-64{fill:#ffd454;}.cls-41{fill:#fde571;}.cls-42{fill:#ffe1bd;}.cls-43{fill:#ed9c80;}.cls-44{fill:#3a3a3a;}.cls-45{fill:#3d38a0;}.cls-46{fill:#7762ef;}.cls-47{fill:#2c1e56;}.cls-48,.cls-59{fill:#5f52dd;}.cls-49{clip-path:url(#clip-path-26);}.cls-50{clip-path:url(#clip-path-27);}.cls-51{clip-path:url(#clip-path-28);}.cls-52{fill:#d8836c;}.cls-53{fill:#ffc064;}.cls-54{fill:#f9d04e;}.cls-55{fill:#feaf84;}.cls-56{fill:#594a5f;}.cls-57{fill:#272789;}.cls-58{fill:#f29d77;}.cls-61{fill:#edbf5a;}.cls-62{fill:#f8bd36;}.cls-64{mix-blend-mode:screen;}.cls-65{fill:#201d93;}.cls-66{fill:#2d24a3;}.cls-67{fill:#f4aa4a;}</style><clipPath id="clip-path"><path class="cls-1" d="M74.85,197.81v3.26c0,1.13-6,2-13.47,2s-13.47-.91-13.47-2v-3.26Z"/></clipPath><clipPath id="clip-path-2"><path class="cls-1" d="M76.8,194.13v3.26c0,1.13-6,2-13.47,2s-13.47-.91-13.47-2v-3.26Z"/></clipPath><clipPath id="clip-path-3"><path class="cls-1" d="M74.61,190.43v3.25c0,1.13-6,2-13.47,2s-13.46-.92-13.46-2v-3.25Z"/></clipPath><clipPath id="clip-path-4"><path class="cls-1" d="M179.8,193.06v3.25c0,1.13-6,2.05-13.46,2.05s-13.47-.92-13.47-2.05v-3.25Z"/></clipPath><clipPath id="clip-path-5"><path class="cls-1" d="M181.75,189.38v3.25c0,1.13-6,2.05-13.46,2.05s-13.47-.92-13.47-2.05v-3.25Z"/></clipPath><clipPath id="clip-path-6"><path class="cls-1" d="M179.56,185.67v3.26c0,1.13-6,2-13.46,2s-13.47-.92-13.47-2v-3.26Z"/></clipPath><clipPath id="clip-path-7"><path class="cls-1" d="M178.62,181.92v3.26c0,1.13-6,2-13.47,2s-13.47-.92-13.47-2v-3.26Z"/></clipPath><clipPath id="clip-path-8"><path class="cls-1" d="M181.83,178.22v3.26c0,1.13-6,2-13.47,2s-13.46-.91-13.46-2v-3.26Z"/></clipPath><clipPath id="clip-path-9"><path class="cls-1" d="M179.23,174.52v3.26c0,1.12-6,2-13.46,2s-13.47-.92-13.47-2v-3.26Z"/></clipPath><clipPath id="clip-path-10"><path class="cls-1" d="M181.56,170.81v3.26c0,1.13-6,2.05-13.46,2.05s-13.47-.92-13.47-2.05v-3.26Z"/></clipPath><clipPath id="clip-path-11"><path d="M179.8,193.06v3.25c0,1.13-6,2.05-13.46,2.05s-13.47-.92-13.47-2.05v-3.25Z"/></clipPath><clipPath id="clip-path-12"><path d="M181.75,189.38v3.25c0,1.13-6,2.05-13.46,2.05s-13.47-.92-13.47-2.05v-3.25Z"/></clipPath><clipPath id="clip-path-13"><path d="M179.56,185.67v3.26c0,1.13-6,2-13.46,2s-13.47-.92-13.47-2v-3.26Z"/></clipPath><clipPath id="clip-path-14"><path d="M178.62,181.92v3.26c0,1.13-6,2-13.47,2s-13.47-.92-13.47-2v-3.26Z"/></clipPath><clipPath id="clip-path-15"><path d="M181.83,178.22v3.26c0,1.13-6,2-13.47,2s-13.46-.91-13.46-2v-3.26Z"/></clipPath><clipPath id="clip-path-16"><path d="M179.23,174.52v3.26c0,1.12-6,2-13.46,2s-13.47-.92-13.47-2v-3.26Z"/></clipPath><clipPath id="clip-path-17"><path d="M181.56,170.81v3.26c0,1.13-6,2.05-13.46,2.05s-13.47-.92-13.47-2.05v-3.26Z"/></clipPath><clipPath id="clip-path-18"><path class="cls-1" d="M168.19,194.84v3.26c0,1.13,6,2,13.46,2s13.47-.91,13.47-2v-3.26Z"/></clipPath><clipPath id="clip-path-19"><path class="cls-1" d="M166.24,191.16v3.26c0,1.13,6,2,13.46,2s13.47-.91,13.47-2v-3.26Z"/></clipPath><clipPath id="clip-path-20"><path class="cls-1" d="M168.43,187.46v3.25c0,1.13,6,2,13.46,2s13.47-.92,13.47-2v-3.25Z"/></clipPath><clipPath id="clip-path-21"><path class="cls-1" d="M169.37,183.71V187c0,1.13,6,2,13.47,2s13.47-.92,13.47-2v-3.25Z"/></clipPath><clipPath id="clip-path-22"><path class="cls-1" d="M166.16,180v3.26c0,1.13,6,2.05,13.47,2.05s13.46-.92,13.46-2.05V180Z"/></clipPath><clipPath id="clip-path-23"><path class="cls-1" d="M168.76,176.3v3.26c0,1.13,6,2,13.46,2s13.47-.91,13.47-2V176.3Z"/></clipPath><clipPath id="clip-path-24"><path class="cls-1" d="M166.43,172.6v3.25c0,1.13,6,2.05,13.46,2.05s13.47-.92,13.47-2.05V172.6Z"/></clipPath><clipPath id="clip-path-25"><path class="cls-1" d="M186.8,175.83l2.61-.6,6.6,28.68-2.61.62c-6.93,1.6-14-3.53-15.85-11.46S179.87,177.43,186.8,175.83Z"/></clipPath><clipPath id="clip-path-26"><path class="cls-1" d="M240.09,125.64l0,1.77c0,.62-3.31,1-7.36,1s-7.33-.66-7.32-1.28l0-1.77Z"/></clipPath><clipPath id="clip-path-27"><path class="cls-1" d="M238.72,123.59l0,1.77c0,.62-3.31,1-7.36,1S224,125.65,224,125l0-1.77Z"/></clipPath><clipPath id="clip-path-28"><path class="cls-1" d="M240,121.6l0,1.77c0,.62-3.31,1-7.36.95s-7.32-.66-7.31-1.28l0-1.77Z"/></clipPath></defs><title>ico-01</title><g class="cls-2"><g id="Layer_2" data-name="Layer 2"><g id="ICON"><path class="cls-3" d="M85.59,189.9a.86.86,0,0,0,0,.37,2.51,2.51,0,0,1-.18-.82,58.88,58.88,0,0,0-2.79-6.23c-.21-.41-.44-.81-.66-1.22-1-.29-3.47-.33-4.12-.49A13.58,13.58,0,0,1,73.62,180c-.48-.33-1.68-1.5-1.16-2.18s3,.53,3.59.85a40.66,40.66,0,0,0,3.89,2.23,12.15,12.15,0,0,1,1.88.82,51.81,51.81,0,0,0-3.34-5.17c-1-.31-3.51-.35-4.18-.52a13.51,13.51,0,0,1-4.22-1.48c-.48-.34-1.68-1.5-1.16-2.18s3,.52,3.59.85a42.91,42.91,0,0,0,3.89,2.23,14.67,14.67,0,0,1,1.86.8A46.1,46.1,0,0,0,74,171.35c-1-1.06-2.16-2.06-3.31-3-1.18.16-2.75.53-3.28.54a13.67,13.67,0,0,1-4.47-.33c-.55-.2-2-1-1.69-1.8s3-.28,3.69-.12a38.43,38.43,0,0,0,4.34,1.13c.26,0,.53.06.8.09a44.08,44.08,0,0,0-5-3.4,15.15,15.15,0,0,1-1.49.31A36.91,36.91,0,0,0,60,166c-.54.17-2.78.86-3.15.12s.88-1.44,1.33-1.63a11.31,11.31,0,0,1,3.79-.55c.43,0,1.67.17,2.65.24-.82-.47-1.66-.92-2.51-1.33A43.36,43.36,0,0,0,58,161.11a8.71,8.71,0,0,1-1.83.43,35.86,35.86,0,0,0-3.62,1.23c-.55.17-2.79.86-3.16.12s.88-1.44,1.34-1.64a11.46,11.46,0,0,1,3.78-.54c.5,0,2.08.24,3.1.26a41.06,41.06,0,0,0-5.81-1.54,14,14,0,0,1-1.59.31,33.62,33.62,0,0,0-3.65,1.16c-.55.16-2.8.81-3.15.06s.9-1.42,1.36-1.61a11.54,11.54,0,0,1,3.8-.48,6.82,6.82,0,0,1,.74.06c1,0,2.07.1,3.1.22l.09,0-.08,0a37.19,37.19,0,0,1,4.17.75,13.62,13.62,0,0,1-1.15-1,34.48,34.48,0,0,0-3.17-2.14c-.47-.33-2.37-1.7-2-2.44s1.67-.17,2.1.07a11.58,11.58,0,0,1,2.73,2.68c.37.44,1.3,2.24,1.91,2.95a35.66,35.66,0,0,1,3.8,1.2,10.51,10.51,0,0,1-1.2-1.37,34.58,34.58,0,0,0-2.8-2.61c-.42-.4-2.09-2-1.61-2.72s1.68.09,2.07.4A11.61,11.61,0,0,1,59.53,158c.31.51,1,2.65,1.52,3.34.5.2,1,.4,1.5.62a38.45,38.45,0,0,1,5.91,3.22c-.11-.34-.2-.71-.31-1a35.21,35.21,0,0,0-1.58-3.49c-.23-.53-1.14-2.68-.43-3.12s1.51.72,1.75,1.16a11.5,11.5,0,0,1,.93,3.71c.07.48,0,2,0,3A41.62,41.62,0,0,1,74,169.51c-.16-.41-.3-.82-.47-1.18-.43-.91-.88-1.81-1.4-2.68a17.36,17.36,0,0,0-2.89-3.72.81.81,0,0,1,.7-1.39l.09,0c1.27.31,2,1.58,2.63,2.74.45.89,2.94,5.69,2.36,7.19a44,44,0,0,1,4.78,5.77c-.39-1.18-1-2.24-1.54-3.37-.23-.53-1.13-2.69-.43-3.13s1.51.73,1.75,1.17a11.44,11.44,0,0,1,.93,3.71c.06.43,0,1.72,0,2.72a45.71,45.71,0,0,1,2.93,5.19c0-.25,0-.5,0-.74a34.57,34.57,0,0,0-.66-3.77c-.09-.57-.43-2.88.36-3.13s1.28,1.08,1.41,1.56a11.73,11.73,0,0,1,0,3.83c0,.48-.54,2-.73,3,.64,1.37,1.21,2.78,1.72,4.21,0-1.13-.26-2.25-.36-3.38,0-.58-.2-2.91.61-3.1s1.2,1.18,1.28,1.67a11.16,11.16,0,0,1-.33,3.81c-.07.39-.48,1.4-.77,2.3.87,2.71,3.86,5.08,4.25,7.89C89.55,194.23,86.47,192.24,85.59,189.9Z"/><path class="cls-4" d="M225.27,202.18c0,2.64-43,4.45-96,4-23-.18-44.13-.76-60.66-1.56-13.45-1.1-18.51-1.1-25.13-1.77-1.59-.14,1.35.15,0,0-6.5-.7-10.16-1.46-10.15-2.23,0-2.65,43-4.45,96-4S225.29,199.53,225.27,202.18Z"/><path class="cls-3" d="M107.38,184.82c0,.05-.18-4-6.27-7.59-6.2-3.83-19-2.48-20.9-6.45-2-4.26,6.18-3.73,9.49-7.15s4.43-5.08-.48-5.76-7.82-.84-8-4.85-8.06-1.62-12.23-4.34-2.27-6.83,5.52-7.07c7.67-.05,7.88-1.33,5.6-2.37s-9-2.67-6.34-4.91,7.15-.67,4.73-3.13-7.84-4.06-5.41-7.07,9.15-3.17,13.41,4.09,5.54,9.26,9.27,9.86,6.82-3.46,11.35-2.12,3.9,5.65,1.44,8.6-6.67,8.79-3.8,11.11,5.72-1.54,9.51-2.43c4.2-1,9.25,2.35,5.6,8.41-3.81,6-9.93,10.88-9.28,24.15C109.49,185.45,108.44,185.12,107.38,184.82Z"/><g class="cls-5"><path class="cls-6" d="M109.18,185.57a.22.22,0,0,1-.26-.16c-13.06-45.26-32.2-61-32.39-61.14a.23.23,0,1,1,.28-.36c.2.16,19.45,16,32.55,61.38a.22.22,0,0,1-.16.28Z"/></g><g class="cls-5"><path class="cls-6" d="M88.32,138.25a.26.26,0,0,1-.15,0,25.29,25.29,0,0,0-12.84-2.9.22.22,0,0,1-.24-.21.22.22,0,0,1,.21-.24,25.7,25.7,0,0,1,13.09,3,.23.23,0,0,1,.09.31A.21.21,0,0,1,88.32,138.25Z"/></g><g class="cls-5"><path class="cls-6" d="M95.82,151.1a.2.2,0,0,1-.17,0,.23.23,0,0,1-.06-.32A90.53,90.53,0,0,1,107.21,138a.23.23,0,0,1,.3.34A91,91,0,0,0,96,151,.19.19,0,0,1,95.82,151.1Z"/></g><g class="cls-5"><path class="cls-6" d="M94.31,148.24h-.1c-11-3.16-22.79-2.15-22.91-2.14a.22.22,0,0,1-.24-.21.21.21,0,0,1,.2-.25c.12,0,12-1,23.07,2.16a.23.23,0,0,1,.16.28A.22.22,0,0,1,94.31,148.24Z"/></g><g class="cls-5"><path class="cls-6" d="M104.57,171.34a.17.17,0,0,1-.12,0c-7.57-2.65-19.79-2-19.91-1.94a.24.24,0,0,1-.25-.22.24.24,0,0,1,.22-.24c.12,0,12.44-.71,20.09,2a.23.23,0,0,1,.14.29A.23.23,0,0,1,104.57,171.34Z"/></g><g class="cls-5"><path class="cls-6" d="M105.67,174.47h-.1a.24.24,0,0,1-.16-.28c2.47-9.35,10.53-17.28,10.61-17.36a.25.25,0,0,1,.33,0,.23.23,0,0,1,0,.32c-.08.08-8,7.92-10.49,17.14A.23.23,0,0,1,105.67,174.47Z"/></g><path class="cls-7" d="M97.21,177.2s.41-16.46-12.55-18-8.29,17.2-2.73,23.33c0,0-7.2-8.48-12-2.75S78.6,192.1,78.6,192.1s-10.78-3.66-13.76-1.18c-3.85,3.19,1.82,7,1.82,7s-10-3.85-7.59,4.42l55.43-.15Z"/><path class="cls-3" d="M164.92,174.43a.66.66,0,0,1,.1.26,1.83,1.83,0,0,0-.11-.61,46,46,0,0,1,.18-5l.12-1c.63-.48,2.26-1.16,2.66-1.44a9.9,9.9,0,0,0,2.46-2.14c.23-.35.73-1.46.19-1.79s-1.9,1.16-2.21,1.54a27.57,27.57,0,0,1-2,2.55,8.09,8.09,0,0,0-1,1.06,36.48,36.48,0,0,1,.84-4.41c.6-.47,2.29-1.17,2.7-1.46a9.9,9.9,0,0,0,2.46-2.14c.23-.35.72-1.46.18-1.79s-1.89,1.16-2.2,1.54a29.47,29.47,0,0,1-2,2.55,10.21,10.21,0,0,0-1,1,34.24,34.24,0,0,1,1.52-4.48,31.46,31.46,0,0,1,1.42-2.92c.84-.21,2-.38,2.37-.51a9.77,9.77,0,0,0,2.94-1.42c.32-.28,1.09-1.22.66-1.67s-2.14.62-2.54.9a30.57,30.57,0,0,1-2.63,1.93l-.52.27a30.69,30.69,0,0,1,2.44-3.63c.36,0,.73-.13,1.09-.19a23.75,23.75,0,0,1,2.8-.13c.42,0,2.13-.16,2.17-.76s-1-.75-1.35-.76a8.31,8.31,0,0,0-2.72.64c-.3.1-1.08.56-1.73.87.43-.54.87-1.06,1.34-1.57a28.26,28.26,0,0,1,2.35-2.29,6.45,6.45,0,0,0,1.36-.19,25.8,25.8,0,0,1,2.79-.14c.42,0,2.13-.15,2.17-.76s-1-.74-1.35-.75a8.31,8.31,0,0,0-2.72.64c-.34.11-1.35.71-2,1a28.79,28.79,0,0,1,3.52-2.6,9.62,9.62,0,0,0,1.17-.22,25.8,25.8,0,0,1,2.79-.18c.42,0,2.12-.2,2.15-.8s-1-.73-1.36-.73a8.25,8.25,0,0,0-2.71.68,5.12,5.12,0,0,0-.49.24c-.69.3-1.37.62-2,1h0a24.5,24.5,0,0,0-2.63,1.63,9.33,9.33,0,0,0,.5-1,23.82,23.82,0,0,1,1.56-2.3c.23-.35,1.15-1.79.69-2.19s-1.18.32-1.41.61a8.44,8.44,0,0,0-1.11,2.55c-.13.39-.26,1.86-.48,2.51a26.56,26.56,0,0,0-2.26,1.83,6.47,6.47,0,0,0,.44-1.26,27.5,27.5,0,0,1,1.19-2.52c.17-.38.85-1.94.34-2.27s-1.11.51-1.29.82a8.29,8.29,0,0,0-.71,2.7c-.07.43,0,2.07-.12,2.67l-.85.82a27.61,27.61,0,0,0-3.12,3.78c0-.27-.06-.54-.08-.81a23.77,23.77,0,0,1,.12-2.79c0-.42,0-2.12-.57-2.23s-.83.89-.87,1.25a8.44,8.44,0,0,0,.39,2.77c.08.35.58,1.38.81,2.09a28.42,28.42,0,0,0-2.33,4.13c0-.31,0-.63,0-.92a20.22,20.22,0,0,1,.21-2.2,12.22,12.22,0,0,1,.94-3.3.6.6,0,0,0-.86-.76l-.06,0a3.38,3.38,0,0,0-1,2.57c-.06.72-.43,4.65.37,5.52a31,31,0,0,0-1.65,5.19c-.06-.9.09-1.8.12-2.7,0-.42,0-2.13-.57-2.24s-.83.9-.87,1.26a8.52,8.52,0,0,0,.39,2.77c.08.31.48,1.17.73,1.85a37.1,37.1,0,0,0-.56,4.31l-.19-.51a27.56,27.56,0,0,1-.58-2.73c-.1-.42-.5-2.08-1.11-2s-.57,1.08-.53,1.44a8.53,8.53,0,0,0,1.08,2.59c.16.32.9,1.2,1.3,1.83,0,1.11,0,2.21,0,3.32-.29-.78-.44-1.6-.69-2.39-.13-.41-.67-2-1.26-2s-.49,1.12-.42,1.48a8.52,8.52,0,0,0,1.28,2.51c.15.24.7.82,1.15,1.35.15,2.08-1.22,4.49-.71,6.5C163.42,178.43,165,176.26,164.92,174.43Z"/><path class="cls-3" d="M147.27,185.12s-1.32-3.78,3-9.37c4.34-5.86,16.76-9.37,17-13.75.23-4.68-7.13-1.17-11.47-3.11s-6-3.07-1.7-5.53,7-3.68,5.68-7.49,6.89-4.5,9.74-8.58-.42-7.18-7.75-4.51c-7.14,2.8-7.8,1.69-6.08-.13s7.42-5.83,4.07-6.91-6.89,2-5.56-1.15,5.78-6.68,2.4-8.57-9.67.45-10.93,8.78-1.71,10.65-4.95,12.59-7.62-.67-11.32,2.25-1.53,6.7,1.85,8.52,9.46,5.68,7.66,8.9-5.89.7-9.74,1.28c-4.27.64-7.71,5.62-2.08,9.89s13.26,6.42,17.59,19C145.54,186.49,146.4,185.8,147.27,185.12Z"/><g class="cls-5"><path class="cls-6" d="M145.87,186.49a.23.23,0,0,0,.19-.24c-4.68-46.88,7.25-68.59,7.37-68.81a.22.22,0,1,0-.39-.22c-.13.21-12.13,22.05-7.44,69.07a.23.23,0,0,0,.25.21Z"/></g><g class="cls-5"><path class="cls-6" d="M147.67,134.81a.22.22,0,0,0,.13-.08,25.16,25.16,0,0,1,10.85-7.45.23.23,0,0,0,.15-.29.22.22,0,0,0-.28-.15,25.72,25.72,0,0,0-11.07,7.6.23.23,0,0,0,.22.37Z"/></g><g class="cls-5"><path class="cls-6" d="M145.48,149.53a.27.27,0,0,0,.15-.1.23.23,0,0,0-.07-.32A91.29,91.29,0,0,0,130,141.54a.24.24,0,0,0-.3.14.23.23,0,0,0,.14.29,89.5,89.5,0,0,1,15.45,7.53A.23.23,0,0,0,145.48,149.53Z"/></g><g class="cls-5"><path class="cls-6" d="M145.82,146.31a.19.19,0,0,0,.1-.05c9-7,20.36-10.45,20.47-10.49a.22.22,0,0,0,.15-.28.21.21,0,0,0-.28-.15c-.12,0-11.54,3.51-20.62,10.56a.23.23,0,0,0,0,.32A.24.24,0,0,0,145.82,146.31Z"/></g><g class="cls-5"><path class="cls-6" d="M144.88,171.56a.14.14,0,0,0,.1-.05c6-5.27,17.65-9.16,17.77-9.2a.23.23,0,0,0,.14-.29.22.22,0,0,0-.28-.14c-.12,0-11.82,4-17.93,9.29a.23.23,0,0,0,.2.39Z"/></g><g class="cls-5"><path class="cls-6" d="M145,174.88l.09,0a.24.24,0,0,0,.05-.32c-5.77-7.76-16.19-12.13-16.3-12.17a.23.23,0,0,0-.3.12.24.24,0,0,0,.13.3c.1,0,10.41,4.36,16.1,12A.24.24,0,0,0,145,174.88Z"/></g><path class="cls-8" d="M148.54,173.17s-.41-16.45,12.55-18,8.29,17.21,2.73,23.33c0,0,7.2-8.47,12-2.75s-8.67,12.29-8.67,12.29,10.78-3.65,13.76-1.18c3.85,3.19-3.45,7.84-3.45,7.84s11.66-4.65,9.22,3.63l-55.43-.16Z"/><path class="cls-9" d="M74.85,197.81v3.26c0,1.13-6,2-13.47,2s-13.47-.91-13.47-2v-3.26Z"/><g class="cls-10"><rect class="cls-11" x="73.92" y="196.46" width="0.64" height="7.47"/><rect class="cls-11" x="72.26" y="196.46" width="0.64" height="7.47"/><rect class="cls-11" x="70.37" y="196.46" width="0.64" height="7.47"/><rect class="cls-11" x="68.02" y="196.46" width="0.64" height="7.47"/><rect class="cls-11" x="65.43" y="196.46" width="0.64" height="7.47"/><rect class="cls-11" x="62.61" y="196.46" width="0.64" height="7.47"/><rect class="cls-11" x="48.21" y="196.46" width="0.64" height="7.47"/><rect class="cls-11" x="49.86" y="196.46" width="0.64" height="7.47"/><rect class="cls-11" x="51.75" y="196.46" width="0.64" height="7.47"/><rect class="cls-11" x="54.1" y="196.46" width="0.64" height="7.47"/><rect class="cls-11" x="56.69" y="196.46" width="0.64" height="7.47"/><rect class="cls-11" x="59.52" y="196.46" width="0.64" height="7.47"/></g><path class="cls-12" d="M47.91,197.75c0,1.13,6,2,13.47,2s13.47-.91,13.47-2-6-2.05-13.47-2.05S47.91,196.62,47.91,197.75Z"/><path class="cls-9" d="M50.68,197.53c0,.53,4.79.95,10.7.95s10.71-.42,10.71-.95-4.8-.94-10.71-.94S50.68,197,50.68,197.53Z"/><path class="cls-11" d="M71.63,197.81a53.52,53.52,0,0,0-10.25-.67,53.31,53.31,0,0,0-10.24.67c-.3-.09-.46-.18-.46-.28,0-.52,4.79-.94,10.7-.94s10.71.42,10.71.94C72.09,197.63,71.92,197.72,71.63,197.81Z"/><path class="cls-9" d="M76.8,194.13v3.26c0,1.13-6,2-13.47,2s-13.47-.91-13.47-2v-3.26Z"/><g class="cls-13"><rect class="cls-11" x="75.87" y="192.78" width="0.64" height="7.47"/><rect class="cls-11" x="74.21" y="192.78" width="0.64" height="7.47"/><rect class="cls-11" x="72.33" y="192.78" width="0.64" height="7.47"/><rect class="cls-11" x="69.97" y="192.78" width="0.64" height="7.47"/><rect class="cls-11" x="67.38" y="192.78" width="0.64" height="7.47"/><rect class="cls-11" x="64.56" y="192.78" width="0.64" height="7.47"/><rect class="cls-11" x="50.16" y="192.78" width="0.64" height="7.47"/><rect class="cls-11" x="51.81" y="192.78" width="0.64" height="7.47"/><rect class="cls-11" x="53.7" y="192.78" width="0.64" height="7.47"/><rect class="cls-11" x="56.05" y="192.78" width="0.64" height="7.47"/><rect class="cls-11" x="58.64" y="192.78" width="0.64" height="7.47"/><rect class="cls-11" x="61.47" y="192.78" width="0.64" height="7.47"/></g><path class="cls-12" d="M49.86,194.07c0,1.13,6,2,13.47,2s13.47-.91,13.47-2-6-2-13.47-2S49.86,192.94,49.86,194.07Z"/><path class="cls-9" d="M52.63,193.86c0,.52,4.79.94,10.7.94S74,194.38,74,193.86s-4.8-1-10.71-1S52.63,193.33,52.63,193.86Z"/><path class="cls-11" d="M73.58,194.13a53.52,53.52,0,0,0-10.25-.67,53.31,53.31,0,0,0-10.24.67c-.3-.09-.46-.18-.46-.28,0-.52,4.79-.94,10.7-.94s10.71.42,10.71.94C74,194,73.87,194,73.58,194.13Z"/><path class="cls-9" d="M74.61,190.43v3.25c0,1.13-6,2-13.47,2s-13.46-.92-13.46-2v-3.25Z"/><g class="cls-14"><rect class="cls-11" x="73.68" y="189.07" width="0.64" height="7.47"/><rect class="cls-11" x="72.02" y="189.07" width="0.64" height="7.47"/><rect class="cls-11" x="70.14" y="189.07" width="0.64" height="7.47"/><rect class="cls-11" x="67.78" y="189.07" width="0.64" height="7.47"/><rect class="cls-11" x="65.19" y="189.07" width="0.64" height="7.47"/><rect class="cls-11" x="62.37" y="189.07" width="0.64" height="7.47"/><rect class="cls-11" x="47.97" y="189.07" width="0.64" height="7.47"/><rect class="cls-11" x="49.62" y="189.07" width="0.64" height="7.47"/><rect class="cls-11" x="51.51" y="189.07" width="0.64" height="7.47"/><rect class="cls-11" x="53.87" y="189.07" width="0.64" height="7.47"/><rect class="cls-11" x="56.46" y="189.07" width="0.64" height="7.47"/><rect class="cls-11" x="59.28" y="189.07" width="0.64" height="7.47"/></g><path class="cls-12" d="M47.68,190.37c0,1.13,6,2,13.46,2s13.47-.91,13.47-2-6-2.05-13.47-2.05S47.68,189.24,47.68,190.37Z"/><path class="cls-9" d="M50.44,190.15c0,.53,4.79.95,10.7.95s10.71-.42,10.71-.95-4.79-1-10.71-1S50.44,189.63,50.44,190.15Z"/><path class="cls-11" d="M71.39,190.43a53.24,53.24,0,0,0-10.25-.68,53,53,0,0,0-10.24.68c-.3-.09-.46-.18-.46-.28,0-.52,4.79-1,10.7-1s10.71.43,10.71,1C71.85,190.25,71.69,190.34,71.39,190.43Z"/><path class="cls-9" d="M179.8,193.06v3.25c0,1.13-6,2.05-13.46,2.05s-13.47-.92-13.47-2.05v-3.25Z"/><g class="cls-15"><rect class="cls-11" x="178.87" y="191.7" width="0.64" height="7.47"/><rect class="cls-11" x="177.22" y="191.7" width="0.64" height="7.47"/><rect class="cls-11" x="175.33" y="191.7" width="0.64" height="7.47"/><rect class="cls-11" x="172.97" y="191.7" width="0.64" height="7.47"/><rect class="cls-11" x="170.39" y="191.7" width="0.64" height="7.47"/><rect class="cls-11" x="167.56" y="191.7" width="0.64" height="7.47"/><rect class="cls-11" x="153.16" y="191.7" width="0.64" height="7.47"/><rect class="cls-11" x="154.82" y="191.7" width="0.64" height="7.47"/><rect class="cls-11" x="156.7" y="191.7" width="0.64" height="7.47"/><rect class="cls-11" x="159.06" y="191.7" width="0.64" height="7.47"/><rect class="cls-11" x="161.65" y="191.7" width="0.64" height="7.47"/><rect class="cls-11" x="164.47" y="191.7" width="0.64" height="7.47"/></g><path class="cls-12" d="M152.87,193c0,1.13,6,2,13.47,2s13.46-.91,13.46-2-6-2.05-13.46-2.05S152.87,191.87,152.87,193Z"/><ellipse class="cls-9" cx="166.34" cy="192.78" rx="10.71" ry="0.95"/><path class="cls-11" d="M176.58,193.06a53,53,0,0,0-10.24-.68,53.16,53.16,0,0,0-10.25.68c-.3-.09-.46-.18-.46-.28,0-.52,4.79-.95,10.71-.95s10.7.43,10.7.95C177,192.88,176.88,193,176.58,193.06Z"/><path class="cls-9" d="M181.75,189.38v3.25c0,1.13-6,2.05-13.46,2.05s-13.47-.92-13.47-2.05v-3.25Z"/><g class="cls-16"><rect class="cls-11" x="180.82" y="188.03" width="0.64" height="7.47"/><rect class="cls-11" x="179.17" y="188.03" width="0.64" height="7.47"/><rect class="cls-11" x="177.28" y="188.03" width="0.64" height="7.47"/><rect class="cls-11" x="174.93" y="188.03" width="0.64" height="7.47"/><rect class="cls-11" x="172.34" y="188.03" width="0.64" height="7.47"/><rect class="cls-11" x="169.51" y="188.03" width="0.64" height="7.47"/><rect class="cls-11" x="155.11" y="188.03" width="0.64" height="7.47"/><rect class="cls-11" x="156.77" y="188.03" width="0.64" height="7.47"/><rect class="cls-11" x="158.65" y="188.03" width="0.64" height="7.47"/><rect class="cls-11" x="161.01" y="188.03" width="0.64" height="7.47"/><rect class="cls-11" x="163.6" y="188.03" width="0.64" height="7.47"/><rect class="cls-11" x="166.42" y="188.03" width="0.64" height="7.47"/></g><path class="cls-12" d="M154.82,189.32c0,1.13,6,2,13.47,2s13.46-.91,13.46-2-6-2-13.46-2S154.82,188.19,154.82,189.32Z"/><path class="cls-9" d="M157.58,189.1c0,.53,4.79,1,10.71,1s10.7-.42,10.7-1-4.79-.95-10.7-.95S157.58,188.58,157.58,189.1Z"/><path class="cls-11" d="M178.53,189.38a53,53,0,0,0-10.24-.68,53.24,53.24,0,0,0-10.25.68c-.3-.09-.46-.18-.46-.28,0-.52,4.79-.95,10.71-.95s10.7.43,10.7.95C179,189.2,178.83,189.29,178.53,189.38Z"/><path class="cls-9" d="M179.56,185.67v3.26c0,1.13-6,2-13.46,2s-13.47-.92-13.47-2v-3.26Z"/><g class="cls-17"><rect class="cls-11" x="178.63" y="184.32" width="0.64" height="7.47"/><rect class="cls-11" x="176.98" y="184.32" width="0.64" height="7.47"/><rect class="cls-11" x="175.09" y="184.32" width="0.64" height="7.47"/><rect class="cls-11" x="172.74" y="184.32" width="0.64" height="7.47"/><rect class="cls-11" x="170.15" y="184.32" width="0.64" height="7.47"/><rect class="cls-11" x="167.33" y="184.32" width="0.64" height="7.47"/><rect class="cls-11" x="152.93" y="184.32" width="0.64" height="7.47"/><rect class="cls-11" x="154.58" y="184.32" width="0.64" height="7.47"/><rect class="cls-11" x="156.47" y="184.32" width="0.64" height="7.47"/><rect class="cls-11" x="158.82" y="184.32" width="0.64" height="7.47"/><rect class="cls-11" x="161.41" y="184.32" width="0.64" height="7.47"/><rect class="cls-11" x="164.23" y="184.32" width="0.64" height="7.47"/></g><path class="cls-12" d="M152.63,185.61c0,1.13,6,2,13.47,2s13.46-.92,13.46-2-6-2-13.46-2S152.63,184.48,152.63,185.61Z"/><path class="cls-9" d="M155.39,185.4c0,.52,4.8.95,10.71.95s10.7-.43,10.7-.95-4.79-1-10.7-1S155.39,184.87,155.39,185.4Z"/><path class="cls-11" d="M176.34,185.67A53.31,53.31,0,0,0,166.1,185a53.52,53.52,0,0,0-10.25.67c-.3-.08-.46-.18-.46-.27,0-.53,4.8-1,10.71-1s10.7.42,10.7,1C176.8,185.49,176.64,185.59,176.34,185.67Z"/><path class="cls-9" d="M178.62,181.92v3.26c0,1.13-6,2-13.47,2s-13.47-.92-13.47-2v-3.26Z"/><g class="cls-18"><rect class="cls-11" x="177.68" y="180.57" width="0.64" height="7.47"/><rect class="cls-11" x="176.03" y="180.57" width="0.64" height="7.47"/><rect class="cls-11" x="174.14" y="180.57" width="0.64" height="7.47"/><rect class="cls-11" x="171.79" y="180.57" width="0.64" height="7.47"/><rect class="cls-11" x="169.2" y="180.57" width="0.64" height="7.47"/><rect class="cls-11" x="166.38" y="180.57" width="0.64" height="7.47"/><rect class="cls-11" x="151.98" y="180.57" width="0.64" height="7.47"/><rect class="cls-11" x="153.63" y="180.57" width="0.64" height="7.47"/><rect class="cls-11" x="155.52" y="180.57" width="0.64" height="7.47"/><rect class="cls-11" x="157.87" y="180.57" width="0.64" height="7.47"/><rect class="cls-11" x="160.46" y="180.57" width="0.64" height="7.47"/><rect class="cls-11" x="163.29" y="180.57" width="0.64" height="7.47"/></g><path class="cls-12" d="M151.68,181.86c0,1.13,6,2,13.47,2s13.47-.92,13.47-2-6-2-13.47-2S151.68,180.73,151.68,181.86Z"/><path class="cls-9" d="M154.44,181.65c0,.52,4.8.95,10.71.95s10.71-.43,10.71-.95-4.8-1-10.71-1S154.44,181.12,154.44,181.65Z"/><path class="cls-11" d="M175.39,181.92a53.31,53.31,0,0,0-10.24-.67,53.31,53.31,0,0,0-10.24.67c-.3-.08-.47-.18-.47-.27,0-.53,4.8-1,10.71-1s10.71.42,10.71,1C175.86,181.74,175.69,181.84,175.39,181.92Z"/><path class="cls-9" d="M181.83,178.22v3.26c0,1.13-6,2-13.47,2s-13.46-.91-13.46-2v-3.26Z"/><g class="cls-19"><rect class="cls-11" x="180.9" y="176.87" width="0.64" height="7.47"/><rect class="cls-11" x="179.25" y="176.87" width="0.64" height="7.47"/><rect class="cls-11" x="177.36" y="176.87" width="0.64" height="7.47"/><rect class="cls-11" x="175" y="176.87" width="0.64" height="7.47"/><rect class="cls-11" x="172.41" y="176.87" width="0.64" height="7.47"/><rect class="cls-11" x="169.59" y="176.87" width="0.64" height="7.47"/><rect class="cls-11" x="155.19" y="176.87" width="0.64" height="7.47"/><rect class="cls-11" x="156.85" y="176.87" width="0.64" height="7.47"/><rect class="cls-11" x="158.73" y="176.87" width="0.64" height="7.47"/><rect class="cls-11" x="161.09" y="176.87" width="0.64" height="7.47"/><rect class="cls-11" x="163.68" y="176.87" width="0.64" height="7.47"/><rect class="cls-11" x="166.5" y="176.87" width="0.64" height="7.47"/></g><path class="cls-12" d="M154.9,178.16c0,1.13,6,2.05,13.46,2.05s13.47-.92,13.47-2.05-6-2-13.47-2S154.9,177,154.9,178.16Z"/><path class="cls-9" d="M157.66,178c0,.52,4.79.94,10.7.94s10.71-.42,10.71-.94-4.79-.95-10.71-.95S157.66,177.42,157.66,178Z"/><path class="cls-11" d="M178.61,178.22a53.44,53.44,0,0,0-10.25-.67,53.31,53.31,0,0,0-10.24.67c-.3-.09-.46-.18-.46-.27,0-.53,4.79-.95,10.7-.95s10.71.42,10.71.95C179.07,178,178.91,178.13,178.61,178.22Z"/><path class="cls-9" d="M179.23,174.52v3.26c0,1.12-6,2-13.46,2s-13.47-.92-13.47-2v-3.26Z"/><g class="cls-20"><rect class="cls-11" x="178.3" y="173.17" width="0.64" height="7.47"/><rect class="cls-11" x="176.65" y="173.17" width="0.64" height="7.47"/><rect class="cls-11" x="174.76" y="173.17" width="0.64" height="7.47"/><rect class="cls-11" x="172.4" y="173.17" width="0.64" height="7.47"/><rect class="cls-11" x="169.82" y="173.17" width="0.64" height="7.47"/><rect class="cls-11" x="166.99" y="173.17" width="0.64" height="7.47"/><rect class="cls-11" x="152.59" y="173.17" width="0.64" height="7.47"/><rect class="cls-11" x="154.25" y="173.17" width="0.64" height="7.47"/><rect class="cls-11" x="156.13" y="173.17" width="0.64" height="7.47"/><rect class="cls-11" x="158.49" y="173.17" width="0.64" height="7.47"/><rect class="cls-11" x="161.08" y="173.17" width="0.64" height="7.47"/><rect class="cls-11" x="163.9" y="173.17" width="0.64" height="7.47"/></g><path class="cls-12" d="M152.3,174.46c0,1.13,6,2,13.47,2s13.46-.91,13.46-2-6-2.05-13.46-2.05S152.3,173.33,152.3,174.46Z"/><ellipse class="cls-9" cx="165.77" cy="174.24" rx="10.71" ry="0.95"/><path class="cls-11" d="M176,174.52a53,53,0,0,0-10.24-.68,53.16,53.16,0,0,0-10.25.68c-.3-.09-.46-.18-.46-.28,0-.52,4.79-1,10.71-1s10.7.43,10.7,1C176.47,174.34,176.31,174.43,176,174.52Z"/><path class="cls-9" d="M181.56,170.81v3.26c0,1.13-6,2.05-13.46,2.05s-13.47-.92-13.47-2.05v-3.26Z"/><g class="cls-21"><rect class="cls-11" x="180.63" y="169.46" width="0.64" height="7.47"/><rect class="cls-11" x="178.98" y="169.46" width="0.64" height="7.47"/><rect class="cls-11" x="177.09" y="169.46" width="0.64" height="7.47"/><rect class="cls-11" x="174.74" y="169.46" width="0.64" height="7.47"/><rect class="cls-11" x="172.15" y="169.46" width="0.64" height="7.47"/><rect class="cls-11" x="169.33" y="169.46" width="0.64" height="7.47"/><rect class="cls-11" x="154.93" y="169.46" width="0.64" height="7.47"/><rect class="cls-11" x="156.58" y="169.46" width="0.64" height="7.47"/><rect class="cls-11" x="158.47" y="169.46" width="0.64" height="7.47"/><rect class="cls-11" x="160.82" y="169.46" width="0.64" height="7.47"/><rect class="cls-11" x="163.41" y="169.46" width="0.64" height="7.47"/><rect class="cls-11" x="166.23" y="169.46" width="0.64" height="7.47"/></g><path class="cls-12" d="M154.63,170.75c0,1.13,6,2.05,13.47,2.05s13.46-.92,13.46-2.05-6-2-13.46-2S154.63,169.62,154.63,170.75Z"/><path class="cls-9" d="M157.39,170.54c0,.52,4.8,1,10.71,1s10.7-.43,10.7-1-4.79-.95-10.7-.95S157.39,170,157.39,170.54Z"/><path class="cls-11" d="M178.34,170.81a54.18,54.18,0,0,0-10.24-.67,54.39,54.39,0,0,0-10.25.67c-.3-.08-.46-.18-.46-.27,0-.53,4.8-.95,10.71-.95s10.7.42,10.7.95C178.8,170.63,178.64,170.73,178.34,170.81Z"/><g class="cls-22"><path d="M179.8,193.06v3.25c0,1.13-6,2.05-13.46,2.05s-13.47-.92-13.47-2.05v-3.25Z"/><path d="M179.8,193.06v3.25c0,1.13-6,2.05-13.46,2.05s-13.47-.92-13.47-2.05v-3.25Z"/><g class="cls-23"><rect x="178.87" y="191.7" width="0.64" height="7.47"/><rect x="177.22" y="191.7" width="0.64" height="7.47"/><rect x="175.33" y="191.7" width="0.64" height="7.47"/><rect x="172.97" y="191.7" width="0.64" height="7.47"/><rect x="170.39" y="191.7" width="0.64" height="7.47"/><rect x="167.56" y="191.7" width="0.64" height="7.47"/><rect x="153.16" y="191.7" width="0.64" height="7.47"/><rect x="154.82" y="191.7" width="0.64" height="7.47"/><rect x="156.7" y="191.7" width="0.64" height="7.47"/><rect x="159.06" y="191.7" width="0.64" height="7.47"/><rect x="161.65" y="191.7" width="0.64" height="7.47"/><rect x="164.47" y="191.7" width="0.64" height="7.47"/></g><path d="M152.87,193c0,1.13,6,2,13.47,2s13.46-.91,13.46-2-6-2.05-13.46-2.05S152.87,191.87,152.87,193Z"/><ellipse cx="166.34" cy="192.78" rx="10.71" ry="0.95"/><path d="M176.58,193.06a53,53,0,0,0-10.24-.68,53.16,53.16,0,0,0-10.25.68c-.3-.09-.46-.18-.46-.28,0-.52,4.79-.95,10.71-.95s10.7.43,10.7.95C177,192.88,176.88,193,176.58,193.06Z"/><path d="M181.75,189.38v3.25c0,1.13-6,2.05-13.46,2.05s-13.47-.92-13.47-2.05v-3.25Z"/><path d="M181.75,189.38v3.25c0,1.13-6,2.05-13.46,2.05s-13.47-.92-13.47-2.05v-3.25Z"/><g class="cls-24"><rect x="180.82" y="188.03" width="0.64" height="7.47"/><rect x="179.17" y="188.03" width="0.64" height="7.47"/><rect x="177.28" y="188.03" width="0.64" height="7.47"/><rect x="174.93" y="188.03" width="0.64" height="7.47"/><rect x="172.34" y="188.03" width="0.64" height="7.47"/><rect x="169.51" y="188.03" width="0.64" height="7.47"/><rect x="155.11" y="188.03" width="0.64" height="7.47"/><rect x="156.77" y="188.03" width="0.64" height="7.47"/><rect x="158.65" y="188.03" width="0.64" height="7.47"/><rect x="161.01" y="188.03" width="0.64" height="7.47"/><rect x="163.6" y="188.03" width="0.64" height="7.47"/><rect x="166.42" y="188.03" width="0.64" height="7.47"/></g><path d="M154.82,189.32c0,1.13,6,2,13.47,2s13.46-.91,13.46-2-6-2-13.46-2S154.82,188.19,154.82,189.32Z"/><path d="M157.58,189.1c0,.53,4.79,1,10.71,1s10.7-.42,10.7-1-4.79-.95-10.7-.95S157.58,188.58,157.58,189.1Z"/><path d="M178.53,189.38a53,53,0,0,0-10.24-.68,53.24,53.24,0,0,0-10.25.68c-.3-.09-.46-.18-.46-.28,0-.52,4.79-.95,10.71-.95s10.7.43,10.7.95C179,189.2,178.83,189.29,178.53,189.38Z"/><path d="M179.56,185.67v3.26c0,1.13-6,2-13.46,2s-13.47-.92-13.47-2v-3.26Z"/><path d="M179.56,185.67v3.26c0,1.13-6,2-13.46,2s-13.47-.92-13.47-2v-3.26Z"/><g class="cls-25"><rect x="178.63" y="184.32" width="0.64" height="7.47"/><rect x="176.98" y="184.32" width="0.64" height="7.47"/><rect x="175.09" y="184.32" width="0.64" height="7.47"/><rect x="172.74" y="184.32" width="0.64" height="7.47"/><rect x="170.15" y="184.32" width="0.64" height="7.47"/><rect x="167.33" y="184.32" width="0.64" height="7.47"/><rect x="152.93" y="184.32" width="0.64" height="7.47"/><rect x="154.58" y="184.32" width="0.64" height="7.47"/><rect x="156.47" y="184.32" width="0.64" height="7.47"/><rect x="158.82" y="184.32" width="0.64" height="7.47"/><rect x="161.41" y="184.32" width="0.64" height="7.47"/><rect x="164.23" y="184.32" width="0.64" height="7.47"/></g><path d="M152.63,185.61c0,1.13,6,2,13.47,2s13.46-.92,13.46-2-6-2-13.46-2S152.63,184.48,152.63,185.61Z"/><path d="M155.39,185.4c0,.52,4.8.95,10.71.95s10.7-.43,10.7-.95-4.79-1-10.7-1S155.39,184.87,155.39,185.4Z"/><path d="M176.34,185.67A53.31,53.31,0,0,0,166.1,185a53.52,53.52,0,0,0-10.25.67c-.3-.08-.46-.18-.46-.27,0-.53,4.8-1,10.71-1s10.7.42,10.7,1C176.8,185.49,176.64,185.59,176.34,185.67Z"/><path d="M178.62,181.92v3.26c0,1.13-6,2-13.47,2s-13.47-.92-13.47-2v-3.26Z"/><path d="M178.62,181.92v3.26c0,1.13-6,2-13.47,2s-13.47-.92-13.47-2v-3.26Z"/><g class="cls-26"><rect x="177.68" y="180.57" width="0.64" height="7.47"/><rect x="176.03" y="180.57" width="0.64" height="7.47"/><rect x="174.14" y="180.57" width="0.64" height="7.47"/><rect x="171.79" y="180.57" width="0.64" height="7.47"/><rect x="169.2" y="180.57" width="0.64" height="7.47"/><rect x="166.38" y="180.57" width="0.64" height="7.47"/><rect x="151.98" y="180.57" width="0.64" height="7.47"/><rect x="153.63" y="180.57" width="0.64" height="7.47"/><rect x="155.52" y="180.57" width="0.64" height="7.47"/><rect x="157.87" y="180.57" width="0.64" height="7.47"/><rect x="160.46" y="180.57" width="0.64" height="7.47"/><rect x="163.29" y="180.57" width="0.64" height="7.47"/></g><path d="M151.68,181.86c0,1.13,6,2,13.47,2s13.47-.92,13.47-2-6-2-13.47-2S151.68,180.73,151.68,181.86Z"/><path d="M154.44,181.65c0,.52,4.8.95,10.71.95s10.71-.43,10.71-.95-4.8-1-10.71-1S154.44,181.12,154.44,181.65Z"/><path d="M175.39,181.92a53.31,53.31,0,0,0-10.24-.67,53.31,53.31,0,0,0-10.24.67c-.3-.08-.47-.18-.47-.27,0-.53,4.8-1,10.71-1s10.71.42,10.71,1C175.86,181.74,175.69,181.84,175.39,181.92Z"/><path d="M181.83,178.22v3.26c0,1.13-6,2-13.47,2s-13.46-.91-13.46-2v-3.26Z"/><path d="M181.83,178.22v3.26c0,1.13-6,2-13.47,2s-13.46-.91-13.46-2v-3.26Z"/><g class="cls-27"><rect x="180.9" y="176.87" width="0.64" height="7.47"/><rect x="179.25" y="176.87" width="0.64" height="7.47"/><rect x="177.36" y="176.87" width="0.64" height="7.47"/><rect x="175" y="176.87" width="0.64" height="7.47"/><rect x="172.41" y="176.87" width="0.64" height="7.47"/><rect x="169.59" y="176.87" width="0.64" height="7.47"/><rect x="155.19" y="176.87" width="0.64" height="7.47"/><rect x="156.85" y="176.87" width="0.64" height="7.47"/><rect x="158.73" y="176.87" width="0.64" height="7.47"/><rect x="161.09" y="176.87" width="0.64" height="7.47"/><rect x="163.68" y="176.87" width="0.64" height="7.47"/><rect x="166.5" y="176.87" width="0.64" height="7.47"/></g><path d="M154.9,178.16c0,1.13,6,2.05,13.46,2.05s13.47-.92,13.47-2.05-6-2-13.47-2S154.9,177,154.9,178.16Z"/><path d="M157.66,178c0,.52,4.79.94,10.7.94s10.71-.42,10.71-.94-4.79-.95-10.71-.95S157.66,177.42,157.66,178Z"/><path d="M178.61,178.22a53.44,53.44,0,0,0-10.25-.67,53.31,53.31,0,0,0-10.24.67c-.3-.09-.46-.18-.46-.27,0-.53,4.79-.95,10.7-.95s10.71.42,10.71.95C179.07,178,178.91,178.13,178.61,178.22Z"/><path d="M179.23,174.52v3.26c0,1.12-6,2-13.46,2s-13.47-.92-13.47-2v-3.26Z"/><path d="M179.23,174.52v3.26c0,1.12-6,2-13.46,2s-13.47-.92-13.47-2v-3.26Z"/><g class="cls-28"><rect x="178.3" y="173.17" width="0.64" height="7.47"/><rect x="176.65" y="173.17" width="0.64" height="7.47"/><rect x="174.76" y="173.17" width="0.64" height="7.47"/><rect x="172.4" y="173.17" width="0.64" height="7.47"/><rect x="169.82" y="173.17" width="0.64" height="7.47"/><rect x="166.99" y="173.17" width="0.64" height="7.47"/><rect x="152.59" y="173.17" width="0.64" height="7.47"/><rect x="154.25" y="173.17" width="0.64" height="7.47"/><rect x="156.13" y="173.17" width="0.64" height="7.47"/><rect x="158.49" y="173.17" width="0.64" height="7.47"/><rect x="161.08" y="173.17" width="0.64" height="7.47"/><rect x="163.9" y="173.17" width="0.64" height="7.47"/></g><path d="M152.3,174.46c0,1.13,6,2,13.47,2s13.46-.91,13.46-2-6-2.05-13.46-2.05S152.3,173.33,152.3,174.46Z"/><ellipse cx="165.77" cy="174.24" rx="10.71" ry="0.95"/><path d="M176,174.52a53,53,0,0,0-10.24-.68,53.16,53.16,0,0,0-10.25.68c-.3-.09-.46-.18-.46-.28,0-.52,4.79-1,10.71-1s10.7.43,10.7,1C176.47,174.34,176.31,174.43,176,174.52Z"/><path d="M181.56,170.81v3.26c0,1.13-6,2.05-13.46,2.05s-13.47-.92-13.47-2.05v-3.26Z"/><path d="M181.56,170.81v3.26c0,1.13-6,2.05-13.46,2.05s-13.47-.92-13.47-2.05v-3.26Z"/><g class="cls-29"><rect x="180.63" y="169.46" width="0.64" height="7.47"/><rect x="178.98" y="169.46" width="0.64" height="7.47"/><rect x="177.09" y="169.46" width="0.64" height="7.47"/><rect x="174.74" y="169.46" width="0.64" height="7.47"/><rect x="172.15" y="169.46" width="0.64" height="7.47"/><rect x="169.33" y="169.46" width="0.64" height="7.47"/><rect x="154.93" y="169.46" width="0.64" height="7.47"/><rect x="156.58" y="169.46" width="0.64" height="7.47"/><rect x="158.47" y="169.46" width="0.64" height="7.47"/><rect x="160.82" y="169.46" width="0.64" height="7.47"/><rect x="163.41" y="169.46" width="0.64" height="7.47"/><rect x="166.23" y="169.46" width="0.64" height="7.47"/></g><path d="M154.63,170.75c0,1.13,6,2.05,13.47,2.05s13.46-.92,13.46-2.05-6-2-13.46-2S154.63,169.62,154.63,170.75Z"/><path d="M157.39,170.54c0,.52,4.8,1,10.71,1s10.7-.43,10.7-1-4.79-.95-10.7-.95S157.39,170,157.39,170.54Z"/><path d="M178.34,170.81a54.18,54.18,0,0,0-10.24-.67,54.39,54.39,0,0,0-10.25.67c-.3-.08-.46-.18-.46-.27,0-.53,4.8-.95,10.71-.95s10.7.42,10.7.95C178.8,170.63,178.64,170.73,178.34,170.81Z"/></g><path class="cls-30" d="M168.19,194.84v3.26c0,1.13,6,2,13.46,2s13.47-.91,13.47-2v-3.26Z"/><g class="cls-31"><rect class="cls-11" x="168.48" y="193.49" width="0.64" height="7.47"/><rect class="cls-11" x="170.14" y="193.49" width="0.64" height="7.47"/><rect class="cls-11" x="172.02" y="193.49" width="0.64" height="7.47"/><rect class="cls-11" x="174.38" y="193.49" width="0.64" height="7.47"/><rect class="cls-11" x="176.97" y="193.49" width="0.64" height="7.47"/><rect class="cls-11" x="179.79" y="193.49" width="0.64" height="7.47"/><rect class="cls-11" x="194.19" y="193.49" width="0.64" height="7.47"/><rect class="cls-11" x="192.54" y="193.49" width="0.64" height="7.47"/><rect class="cls-11" x="190.65" y="193.49" width="0.64" height="7.47"/><rect class="cls-11" x="188.29" y="193.49" width="0.64" height="7.47"/><rect class="cls-11" x="185.7" y="193.49" width="0.64" height="7.47"/><rect class="cls-11" x="182.88" y="193.49" width="0.64" height="7.47"/></g><path class="cls-12" d="M195.12,194.78c0,1.13-6,2-13.47,2s-13.46-.91-13.46-2,6-2.05,13.46-2.05S195.12,193.65,195.12,194.78Z"/><ellipse class="cls-9" cx="181.65" cy="194.56" rx="10.71" ry="0.95"/><path class="cls-11" d="M171.41,194.84a53.39,53.39,0,0,1,10.24-.67,53.44,53.44,0,0,1,10.25.67c.3-.09.46-.18.46-.28,0-.52-4.79-.94-10.71-.94s-10.7.42-10.7.94C171,194.66,171.11,194.75,171.41,194.84Z"/><path class="cls-30" d="M166.24,191.16v3.26c0,1.13,6,2,13.46,2s13.47-.91,13.47-2v-3.26Z"/><g class="cls-32"><rect class="cls-11" x="166.53" y="189.81" width="0.64" height="7.47"/><rect class="cls-11" x="168.19" y="189.81" width="0.64" height="7.47"/><rect class="cls-11" x="170.07" y="189.81" width="0.64" height="7.47"/><rect class="cls-11" x="172.43" y="189.81" width="0.64" height="7.47"/><rect class="cls-11" x="175.02" y="189.81" width="0.64" height="7.47"/><rect class="cls-11" x="177.84" y="189.81" width="0.64" height="7.47"/><rect class="cls-11" x="192.24" y="189.81" width="0.64" height="7.47"/><rect class="cls-11" x="190.59" y="189.81" width="0.64" height="7.47"/><rect class="cls-11" x="188.7" y="189.81" width="0.64" height="7.47"/><rect class="cls-11" x="186.34" y="189.81" width="0.64" height="7.47"/><rect class="cls-11" x="183.75" y="189.81" width="0.64" height="7.47"/><rect class="cls-11" x="180.93" y="189.81" width="0.64" height="7.47"/></g><path class="cls-12" d="M193.17,191.1c0,1.13-6,2-13.47,2s-13.46-.91-13.46-2,6-2,13.46-2S193.17,190,193.17,191.1Z"/><path class="cls-9" d="M190.41,190.88c0,.53-4.79,1-10.71,1s-10.7-.42-10.7-1,4.79-.94,10.7-.94S190.41,190.36,190.41,190.88Z"/><path class="cls-11" d="M169.46,191.16a53.31,53.31,0,0,1,10.24-.67,53.44,53.44,0,0,1,10.25.67c.3-.09.46-.18.46-.28,0-.52-4.79-.94-10.71-.94s-10.7.42-10.7.94C169,191,169.16,191.07,169.46,191.16Z"/><path class="cls-30" d="M168.43,187.46v3.25c0,1.13,6,2,13.46,2s13.47-.92,13.47-2v-3.25Z"/><g class="cls-33"><rect class="cls-11" x="168.72" y="186.1" width="0.64" height="7.47"/><rect class="cls-11" x="170.37" y="186.1" width="0.64" height="7.47"/><rect class="cls-11" x="172.26" y="186.1" width="0.64" height="7.47"/><rect class="cls-11" x="174.62" y="186.1" width="0.64" height="7.47"/><rect class="cls-11" x="177.2" y="186.1" width="0.64" height="7.47"/><rect class="cls-11" x="180.03" y="186.1" width="0.64" height="7.47"/><rect class="cls-11" x="194.43" y="186.1" width="0.64" height="7.47"/><rect class="cls-11" x="192.77" y="186.1" width="0.64" height="7.47"/><rect class="cls-11" x="190.89" y="186.1" width="0.64" height="7.47"/><rect class="cls-11" x="188.53" y="186.1" width="0.64" height="7.47"/><rect class="cls-11" x="185.94" y="186.1" width="0.64" height="7.47"/><rect class="cls-11" x="183.12" y="186.1" width="0.64" height="7.47"/></g><path class="cls-12" d="M195.36,187.4c0,1.13-6,2-13.47,2s-13.46-.91-13.46-2,6-2.05,13.46-2.05S195.36,186.27,195.36,187.4Z"/><path class="cls-9" d="M192.6,187.18c0,.53-4.8.95-10.71.95s-10.7-.42-10.7-.95,4.79-1,10.7-1S192.6,186.66,192.6,187.18Z"/><path class="cls-11" d="M171.65,187.46a53,53,0,0,1,10.24-.68,53.24,53.24,0,0,1,10.25.68c.3-.09.46-.18.46-.28,0-.52-4.8-1-10.71-1s-10.7.43-10.7,1C171.19,187.28,171.35,187.37,171.65,187.46Z"/><path class="cls-30" d="M169.37,183.71V187c0,1.13,6,2,13.47,2s13.47-.92,13.47-2v-3.25Z"/><g class="cls-34"><rect class="cls-11" x="169.67" y="182.35" width="0.64" height="7.47"/><rect class="cls-11" x="171.32" y="182.35" width="0.64" height="7.47"/><rect class="cls-11" x="173.21" y="182.35" width="0.64" height="7.47"/><rect class="cls-11" x="175.56" y="182.35" width="0.64" height="7.47"/><rect class="cls-11" x="178.15" y="182.35" width="0.64" height="7.47"/><rect class="cls-11" x="180.97" y="182.35" width="0.64" height="7.47"/><rect class="cls-11" x="195.37" y="182.35" width="0.64" height="7.47"/><rect class="cls-11" x="193.72" y="182.35" width="0.64" height="7.47"/><rect class="cls-11" x="191.83" y="182.35" width="0.64" height="7.47"/><rect class="cls-11" x="189.48" y="182.35" width="0.64" height="7.47"/><rect class="cls-11" x="186.89" y="182.35" width="0.64" height="7.47"/><rect class="cls-11" x="184.07" y="182.35" width="0.64" height="7.47"/></g><path class="cls-12" d="M196.31,183.65c0,1.12-6,2-13.47,2s-13.47-.92-13.47-2,6-2.05,13.47-2.05S196.31,182.52,196.31,183.65Z"/><path class="cls-9" d="M193.55,183.43c0,.52-4.8.95-10.71.95s-10.71-.43-10.71-.95,4.8-1,10.71-1S193.55,182.91,193.55,183.43Z"/><path class="cls-11" d="M172.6,183.71a53,53,0,0,1,10.24-.68,53,53,0,0,1,10.24.68c.3-.09.47-.18.47-.28,0-.52-4.8-1-10.71-1s-10.71.43-10.71,1C172.13,183.53,172.3,183.62,172.6,183.71Z"/><path class="cls-30" d="M166.16,180v3.26c0,1.13,6,2.05,13.47,2.05s13.46-.92,13.46-2.05V180Z"/><g class="cls-35"><rect class="cls-11" x="166.45" y="178.65" width="0.64" height="7.47"/><rect class="cls-11" x="168.11" y="178.65" width="0.64" height="7.47"/><rect class="cls-11" x="169.99" y="178.65" width="0.64" height="7.47"/><rect class="cls-11" x="172.35" y="178.65" width="0.64" height="7.47"/><rect class="cls-11" x="174.94" y="178.65" width="0.64" height="7.47"/><rect class="cls-11" x="177.76" y="178.65" width="0.64" height="7.47"/><rect class="cls-11" x="192.16" y="178.65" width="0.64" height="7.47"/><rect class="cls-11" x="190.51" y="178.65" width="0.64" height="7.47"/><rect class="cls-11" x="188.62" y="178.65" width="0.64" height="7.47"/><rect class="cls-11" x="186.27" y="178.65" width="0.64" height="7.47"/><rect class="cls-11" x="183.68" y="178.65" width="0.64" height="7.47"/><rect class="cls-11" x="180.85" y="178.65" width="0.64" height="7.47"/></g><path class="cls-12" d="M193.09,179.94c0,1.13-6,2.05-13.46,2.05s-13.47-.92-13.47-2.05,6-2,13.47-2S193.09,178.81,193.09,179.94Z"/><path class="cls-9" d="M190.33,179.73c0,.52-4.79,1-10.7,1s-10.71-.43-10.71-1,4.79-.95,10.71-.95S190.33,179.2,190.33,179.73Z"/><path class="cls-11" d="M169.38,180a54.39,54.39,0,0,1,10.25-.67,54.18,54.18,0,0,1,10.24.67c.3-.08.46-.18.46-.27,0-.53-4.79-.95-10.7-.95s-10.71.42-10.71.95C168.92,179.82,169.08,179.92,169.38,180Z"/><path class="cls-30" d="M168.76,176.3v3.26c0,1.13,6,2,13.46,2s13.47-.91,13.47-2V176.3Z"/><g class="cls-36"><rect class="cls-11" x="169.05" y="174.95" width="0.64" height="7.47"/><rect class="cls-11" x="170.71" y="174.95" width="0.64" height="7.47"/><rect class="cls-11" x="172.59" y="174.95" width="0.64" height="7.47"/><rect class="cls-11" x="174.95" y="174.95" width="0.64" height="7.47"/><rect class="cls-11" x="177.54" y="174.95" width="0.64" height="7.47"/><rect class="cls-11" x="180.36" y="174.95" width="0.64" height="7.47"/><rect class="cls-11" x="194.76" y="174.95" width="0.64" height="7.47"/><rect class="cls-11" x="193.11" y="174.95" width="0.64" height="7.47"/><rect class="cls-11" x="191.22" y="174.95" width="0.64" height="7.47"/><rect class="cls-11" x="188.86" y="174.95" width="0.64" height="7.47"/><rect class="cls-11" x="186.27" y="174.95" width="0.64" height="7.47"/><rect class="cls-11" x="183.45" y="174.95" width="0.64" height="7.47"/></g><path class="cls-12" d="M195.69,176.24c0,1.13-6,2-13.47,2s-13.46-.91-13.46-2,6-2,13.46-2S195.69,175.11,195.69,176.24Z"/><ellipse class="cls-9" cx="182.22" cy="176.03" rx="10.71" ry="0.95"/><path class="cls-11" d="M172,176.3a53.39,53.39,0,0,1,10.24-.67,53.44,53.44,0,0,1,10.25.67c.3-.09.46-.18.46-.28,0-.52-4.79-.94-10.71-.94s-10.7.42-10.7.94C171.52,176.12,171.68,176.21,172,176.3Z"/><path class="cls-30" d="M166.43,172.6v3.25c0,1.13,6,2.05,13.46,2.05s13.47-.92,13.47-2.05V172.6Z"/><g class="cls-37"><rect class="cls-11" x="166.72" y="171.24" width="0.64" height="7.47"/><rect class="cls-11" x="168.37" y="171.24" width="0.64" height="7.47"/><rect class="cls-11" x="170.26" y="171.24" width="0.64" height="7.47"/><rect class="cls-11" x="172.62" y="171.24" width="0.64" height="7.47"/><rect class="cls-11" x="175.2" y="171.24" width="0.64" height="7.47"/><rect class="cls-11" x="178.03" y="171.24" width="0.64" height="7.47"/><rect class="cls-11" x="192.43" y="171.24" width="0.64" height="7.47"/><rect class="cls-11" x="190.77" y="171.24" width="0.64" height="7.47"/><rect class="cls-11" x="188.89" y="171.24" width="0.64" height="7.47"/><rect class="cls-11" x="186.53" y="171.24" width="0.64" height="7.47"/><rect class="cls-11" x="183.94" y="171.24" width="0.64" height="7.47"/><rect class="cls-11" x="181.12" y="171.24" width="0.64" height="7.47"/></g><path class="cls-12" d="M193.36,172.54c0,1.13-6,2-13.47,2s-13.46-.91-13.46-2,6-2,13.46-2S193.36,171.41,193.36,172.54Z"/><path class="cls-30" d="M190.6,172.32c0,.53-4.8,1-10.71,1s-10.7-.42-10.7-1,4.79-.95,10.7-.95S190.6,171.8,190.6,172.32Z"/><path class="cls-11" d="M169.65,172.6a53,53,0,0,1,10.24-.68,53.24,53.24,0,0,1,10.25.68c.3-.09.46-.18.46-.28,0-.52-4.8-.95-10.71-.95s-10.7.43-10.7.95C169.19,172.42,169.35,172.51,169.65,172.6Z"/><path class="cls-38" d="M176,200c-1.3-1.74-2.11-5.07-2.22-7.44-.37-8.7,3.79-14.51,10.72-16.1l2.61-.6,5.41,23.5c-2.45.5-2.87,5.48-4.59,5.13S176,200,176,200Z"/><path class="cls-9" d="M186.8,175.83l2.61-.6,6.6,28.68-2.61.62c-6.93,1.6-14-3.53-15.85-11.46S179.87,177.43,186.8,175.83Z"/><g class="cls-39"><rect class="cls-11" x="178.45" y="205.61" width="17.53" height="0.73" transform="translate(-41.4 47.19) rotate(-12.95)"/><rect class="cls-11" x="178.02" y="203.76" width="17.53" height="0.73" transform="translate(-41 47.05) rotate(-12.95)"/><rect class="cls-11" x="177.54" y="201.65" width="17.53" height="0.73" transform="translate(-40.53 46.89) rotate(-12.95)"/><rect class="cls-11" x="176.93" y="199.02" width="17.53" height="0.73" transform="translate(-39.96 46.69) rotate(-12.95)"/><rect class="cls-11" x="176.27" y="196.13" width="17.53" height="0.73" transform="translate(-39.33 46.46) rotate(-12.95)"/><rect class="cls-11" x="175.54" y="192.97" width="17.53" height="0.73" transform="translate(-38.64 46.22) rotate(-12.95)"/><rect class="cls-11" x="171.84" y="176.88" width="17.53" height="0.73" transform="translate(-35.13 44.99) rotate(-12.95)"/><rect class="cls-11" x="172.26" y="178.72" width="17.53" height="0.73" transform="translate(-35.53 45.13) rotate(-12.95)"/><rect class="cls-11" x="172.75" y="180.83" width="17.53" height="0.73" transform="translate(-35.99 45.29) rotate(-12.95)"/><rect class="cls-11" x="173.35" y="183.47" width="17.53" height="0.73" transform="translate(-36.57 45.49) rotate(-12.95)"/><rect class="cls-11" x="174.02" y="186.36" width="17.53" height="0.73" transform="translate(-37.19 45.71) rotate(-12.95)"/><rect class="cls-11" x="174.74" y="189.51" width="17.53" height="0.73" transform="translate(-37.88 45.95) rotate(-12.95)"/></g><ellipse class="cls-40" cx="193.27" cy="189.45" rx="12.89" ry="14.73" transform="translate(-37.54 48.14) rotate(-12.95)"/><path class="cls-41" d="M205.44,187.14c-1.82-7.93-8.92-13.06-15.86-11.46a11.78,11.78,0,0,0-7,4.76A11.94,11.94,0,0,1,190,175.1c6.94-1.59,14,3.54,15.86,11.47A15.53,15.53,0,0,1,203.56,199,15.63,15.63,0,0,0,205.44,187.14Z"/><path class="cls-41" d="M195.78,200.93c5.17-1.18,8.22-7.16,6.8-13.31s-6.77-10.2-11.93-9-8.22,7.16-6.8,13.32S190.62,202.12,195.78,200.93Z"/><path class="cls-30" d="M195.84,200.62c5.16-1.19,8.22-7.17,6.8-13.32s-6.77-10.19-11.93-9-8.22,7.16-6.81,13.32S190.67,201.8,195.84,200.62Z"/><path class="cls-11" d="M194.71,200.25c5.16-1.18,8.21-7.16,6.8-13.31a12,12,0,0,0-7-8.61c3.76.92,7.05,4.35,8.11,9,1.42,6.15-1.64,12.13-6.8,13.32a8.48,8.48,0,0,1-5-.4A8.26,8.26,0,0,0,194.71,200.25Z"/><path class="cls-11" d="M192.91,183.57a4.91,4.91,0,0,1,1.34.09,5.18,5.18,0,0,1,1.13.4,3.34,3.34,0,0,1,.84.6,2,2,0,0,1,.48.72.3.3,0,0,1,0,.26.28.28,0,0,1-.18.16l-1.93.59a.76.76,0,0,1-.35.05,1.11,1.11,0,0,1-.31-.1l-.18-.1a1.21,1.21,0,0,0-.34-.13,1.85,1.85,0,0,0-.5-.06,2.26,2.26,0,0,0-.67.12,4.15,4.15,0,0,0-.53.2,2.14,2.14,0,0,0-.42.26.81.81,0,0,0-.25.33.5.5,0,0,0,0,.4.49.49,0,0,0,.25.32,1.11,1.11,0,0,0,.55.13,6.31,6.31,0,0,0,.95,0l1.44-.14a8,8,0,0,1,1.54,0,3.58,3.58,0,0,1,1.2.31,2.51,2.51,0,0,1,.88.7,3.57,3.57,0,0,1,.56,1.14,2.77,2.77,0,0,1,.12,1.2,3.16,3.16,0,0,1-.38,1.12,4,4,0,0,1-.83,1,5.88,5.88,0,0,1-1.21.79l.32,1a.36.36,0,0,1,0,.32.37.37,0,0,1-.24.2l-1.93.59a.36.36,0,0,1-.32,0,.37.37,0,0,1-.2-.24l-.33-1.09a5.48,5.48,0,0,1-1.42-.07,5,5,0,0,1-1.18-.39,2.89,2.89,0,0,1-.88-.64,2.2,2.2,0,0,1-.51-.83.34.34,0,0,1,0-.26.37.37,0,0,1,.19-.16l1.92-.59a.93.93,0,0,1,.34-.05,1.28,1.28,0,0,1,.29.08l.23.14a2.16,2.16,0,0,0,.4.18,2.28,2.28,0,0,0,.58.09,2.63,2.63,0,0,0,.77-.13,4.43,4.43,0,0,0,1.25-.57.67.67,0,0,0,.34-.77.48.48,0,0,0-.31-.31,2.18,2.18,0,0,0-.66-.1q-.42,0-1.05.06c-.42,0-.92.09-1.49.14a4.27,4.27,0,0,1-2.55-.4,3,3,0,0,1-1.32-1.81,2.66,2.66,0,0,1-.12-1.05,3.05,3.05,0,0,1,.29-1.05,3.64,3.64,0,0,1,.67-1,4.9,4.9,0,0,1,1-.82l-.33-1.09a.34.34,0,0,1,0-.31.42.42,0,0,1,.24-.21l1.93-.59a.42.42,0,0,1,.31,0,.43.43,0,0,1,.21.25Z"/><path class="cls-40" d="M193.21,183.3a5.33,5.33,0,0,1,1.34.1,4.47,4.47,0,0,1,1.12.39,3.19,3.19,0,0,1,.85.61,1.82,1.82,0,0,1,.48.72.28.28,0,0,1,0,.25.3.3,0,0,1-.18.17l-1.93.59a.92.92,0,0,1-.35,0,.86.86,0,0,1-.31-.1L194,186a1.62,1.62,0,0,0-.34-.13,1.85,1.85,0,0,0-.5-.06,2.26,2.26,0,0,0-.67.12,5.36,5.36,0,0,0-.53.2,2.75,2.75,0,0,0-.42.26.88.88,0,0,0-.25.33.57.57,0,0,0,0,.41.55.55,0,0,0,.26.32,1.38,1.38,0,0,0,.55.13,6.54,6.54,0,0,0,1,0l1.44-.13a8.09,8.09,0,0,1,1.54,0,3.65,3.65,0,0,1,1.2.32,2.4,2.4,0,0,1,.88.7,3.41,3.41,0,0,1,.56,1.13,2.67,2.67,0,0,1,.11,1.21,2.82,2.82,0,0,1-.38,1.11,3.57,3.57,0,0,1-.82,1,5.5,5.5,0,0,1-1.21.79l.32,1.05a.38.38,0,0,1,0,.31.41.41,0,0,1-.24.21l-1.93.59a.45.45,0,0,1-.32,0,.41.41,0,0,1-.2-.25l-.34-1.09a5,5,0,0,1-1.41-.07,4.54,4.54,0,0,1-1.18-.38,3.27,3.27,0,0,1-.88-.64,2.4,2.4,0,0,1-.52-.84.37.37,0,0,1,0-.25.31.31,0,0,1,.18-.16l1.93-.6a.89.89,0,0,1,.34,0,.8.8,0,0,1,.28.08l.24.14a1.92,1.92,0,0,0,.4.17,2.27,2.27,0,0,0,.57.09,2.39,2.39,0,0,0,.78-.13,4.17,4.17,0,0,0,1.25-.57.65.65,0,0,0,.33-.77.46.46,0,0,0-.3-.31A2.23,2.23,0,0,0,195,190a7,7,0,0,0-1,.06c-.42,0-.92.09-1.5.13a4.18,4.18,0,0,1-2.54-.4,3,3,0,0,1-1.32-1.8,2.73,2.73,0,0,1-.12-1.06,3.06,3.06,0,0,1,.29-1,3.51,3.51,0,0,1,.66-1,4.61,4.61,0,0,1,1-.82l-.34-1.09a.4.4,0,0,1,0-.32.37.37,0,0,1,.24-.2l1.93-.59a.34.34,0,0,1,.31,0,.39.39,0,0,1,.21.24Z"/><path class="cls-42" d="M238.48,148.92c.24-.1,0-.39-.21-.42h-.2a6.92,6.92,0,0,0,.86-.21c.24-.09.06-.37-.16-.42l.35-.1c.3-.12.08-.41-.2-.42l-.46,0,.24-.07c.25-.1.1-.37-.14-.4L238,147c-.27,0-.57,0-.83.09s-1.43.07-1.71-.44c-.42-.79,1.2-.67,1.36-1.36,0-.22-1.14-.09-1.79.08a8.87,8.87,0,0,0-1.33.42,9.51,9.51,0,0,1-1.07.56,5.41,5.41,0,0,1-.92,0l-.22,2.17a7.08,7.08,0,0,1,1.66.24,5.11,5.11,0,0,0,2.64.72,9.89,9.89,0,0,0,1.79-.25S238.4,149,238.48,148.92Z"/><path class="cls-43" d="M204.52,195.07a25.09,25.09,0,0,0,1.92,2.42c.61.56,2.56-1.18,2.5-1.7a23.29,23.29,0,0,0-2.53-3.39"/><path class="cls-44" d="M209.94,195.85c.58.62,1.58,1.89,1.58,1.89l-1.64,2.1-.54-.15a4.43,4.43,0,0,1-.66,1.61,10.24,10.24,0,0,1-1.78,1.7c-1.77,1.2-3.36,1.57-3.62,1.36-1.08-.87,1.27-2.49,1.69-2.88A3.74,3.74,0,0,0,206,197.8c-.21-.64-.41-.67-.08-.82a.83.83,0,0,1,.68,0,1.53,1.53,0,0,0,1.74-.44,1.88,1.88,0,0,0,.41-1.06A1.1,1.1,0,0,1,209.94,195.85Z"/><path class="cls-43" d="M171.6,196.8a25.06,25.06,0,0,0-.64,3c-.05.82,2.54,1.23,2.9.85a24.08,24.08,0,0,0,1-4.11"/><path class="cls-44" d="M174.45,201.49c-.12.85-.46,2.42-.46,2.42l-2.67.07-.22-.52a4.43,4.43,0,0,1-1.67.51,10,10,0,0,1-2.43-.29c-2.06-.61-3.35-1.6-3.36-1.94,0-1.38,2.73-.6,3.3-.52a3.73,3.73,0,0,0,3.51-1.53c.36-.57.26-.74.59-.58a.89.89,0,0,1,.45.51,1.53,1.53,0,0,0,1.45,1.06,1.72,1.72,0,0,0,1.07-.35A1.12,1.12,0,0,1,174.45,201.49Z"/><path class="cls-45" d="M183.36,149.9s-7.51,19.14-8.44,23.26S170.47,198,170.47,198s3.3.94,4.51.52c.83-3.41,9.33-29.71,14.87-36.77S183.36,149.9,183.36,149.9Z"/><path class="cls-45" d="M188.63,160.47a29.21,29.21,0,0,0,4,18.73,151.07,151.07,0,0,0,11.6,16.52,11,11,0,0,0,3.4-2.54c-1.75-2.39-9.55-15.9-9.55-21.18s2-17.81,2-17.81l-8.69-2.07Z"/><path class="cls-43" d="M231.61,148.48s-9.9.46-15-.95-13.79-7.64-13.79-7.64L192.59,132c-2.63-3.29-6-12.61-6.48-14.3s-2.39-13.3-2.39-13.3l2.17-.22s2.53,8.23,3.81,12.88c1.22,4.35,7.9,10.31,9.52,11.8h0l.27.22c1,.86.21,2.52.21,2.52l1.74.65s1.88-1,3.06.08a4.86,4.86,0,0,1,.38.39c1.61,1.73,5.52,7.93,13.48,11.09a99.49,99.49,0,0,0,13.72,2.48C231.74,147.85,231.61,148.48,231.61,148.48Z"/><path class="cls-43" d="M204.87,132.77a4.12,4.12,0,0,1-4.26,1.26c-3.58-1.64-1.54-4.92-1.4-5.12l.27.22c1,.86,1.76-1.2,1.76-1.2l3.62,2s-1.55,1.41-.37,2.46A4.86,4.86,0,0,1,204.87,132.77Z"/><path class="cls-46" d="M205.24,144a102.27,102.27,0,0,0-4.45,12.44,17.92,17.92,0,0,1-17.41-4.61,13.74,13.74,0,0,1-1.68-1.92s2.41-4.36,3.84-7.59,3.63-7.46,5.22-10.32c.09-.46-1.37-2.69-2.84-5.88,2-.81,5.21-4.07,5.21-4.07l6.08,6.85s-1.84,3,.53,4.61,3.91.2,5.13-.75a61.44,61.44,0,0,0,9.16,8l-4,6.71A24.88,24.88,0,0,1,205.24,144Z"/><path class="cls-47" d="M203.62,118.64a1.6,1.6,0,0,0-1.43.5,1.57,1.57,0,0,0-.34,1.48.86.86,0,0,0-1.12.46,2.22,2.22,0,0,0,0,1.35,2,2,0,0,0,.71,1.35,1.53,1.53,0,0,0,1.09.17,1.84,1.84,0,0,0,.75-.31,3,3,0,0,0,.62-.67l2-2.59a.84.84,0,0,0,.23-.6"/><path class="cls-43" d="M208.47,128.58a15.91,15.91,0,0,1-1.64,1.42,2.42,2.42,0,0,1-2.74.28,16,16,0,0,1-3.22-1.94,2.24,2.24,0,0,1-.63-3c.35-.79.69-1.58,1.06-2.36a39.89,39.89,0,0,1,2.63-4.8c.24-.36.51-.88,1-.66a27.6,27.6,0,0,1,4.6,2.49,5.92,5.92,0,0,1,2.49,2.66,6.65,6.65,0,0,1-.1,3.67c0,.19-.13.43-.33.44"/><path class="cls-47" d="M208.31,126c.31-.3.87,0,.95.43a1.75,1.75,0,0,1-.35,1.21,2.84,2.84,0,0,1-1.25,1c-.47.23-1,.23-1.09-.29a1.39,1.39,0,0,0,.2,1.82,1.23,1.23,0,0,0,1.5-.07c1.53,2,3.95-.5,5-1.86a7,7,0,0,0,1.27-4,2.87,2.87,0,0,0-.76-2,2.72,2.72,0,0,0-.15-2.48,7,7,0,0,0-1.5-1.88,2.82,2.82,0,0,0-2.31-.49c-.53-1-1.58-1-2.29-1.36s-1.85-.18-1.95.6a1.9,1.9,0,0,0-3.08.76,2.07,2.07,0,0,0,2.2,2.43,2.39,2.39,0,0,0,1.17,2.23,4.65,4.65,0,0,0,2.55.59,1.89,1.89,0,0,0-.93,1.33c-.08.58-.12,1,.63,1.3,0,0-.71,1-.41,1S208.31,126,208.31,126Z"/><path class="cls-43" d="M182.39,98.05c.07-.26.39-.08.45.15,0,0,0,.1,0,.19,0-.44.06-.79.08-.88.06-.24.36-.11.44.1,0-.17,0-.3.05-.36.08-.31.4-.13.45.14,0,.07,0,.24,0,.46a1.85,1.85,0,0,1,0-.24c.07-.26.36-.15.42.08a4.14,4.14,0,0,1,0,.52c0,.27,0,.57,0,.84s.13,1.42.67,1.62c.85.3.5-1.28,1.16-1.53.21-.08.25,1.11.17,1.78a6.6,6.6,0,0,1-.23,1.37,8,8,0,0,0-.4,1.15,6.05,6.05,0,0,0,.17.9l-2.12.53a7,7,0,0,0-.47-1.62,5.13,5.13,0,0,1-1.09-2.5,10,10,0,0,1,0-1.81S182.37,98.13,182.39,98.05Z"/><path class="cls-48" d="M200.79,156.45a17.92,17.92,0,0,1-17.41-4.61c9.29,7.11,15.47,3.86,16.45,3.65.27-2.18,4.54-12.39,4.54-12.39a5.89,5.89,0,0,0,.87.91A102.27,102.27,0,0,0,200.79,156.45Z"/><path class="cls-4" d="M263.26,226.34c0,.77-10.46,1.47-23.39,1.56s-23.4-.46-23.4-1.24,10.46-1.47,23.38-1.56S263.26,225.56,263.26,226.34Z"/><path class="cls-43" d="M229.79,216.89a20.13,20.13,0,0,0,.15,3.89c.39,1.14.23,1.52.23,1.52l-4.52.29s1.83-1.26,1-5.84S229.79,216.89,229.79,216.89Z"/><path class="cls-47" d="M230.05,221.13a7.08,7.08,0,0,1-3.83.76,18.46,18.46,0,0,1-5.63,2.6c-2,.57-1.39,2.2,2.07,1.44a43.85,43.85,0,0,1,6.73-1c.79,0,2.05-.12,2-.67S230.66,220.85,230.05,221.13Z"/><path class="cls-43" d="M252.8,213.57a20,20,0,0,0,1.79,3.45c.85.87.86,1.28.86,1.28l-3.95,2.2s1.1-1.92-1.61-5.71S252.8,213.57,252.8,213.57Z"/><path class="cls-47" d="M254.84,217.29a7.07,7.07,0,0,1-3.13,2.33,18.22,18.22,0,0,1-4,4.76c-1.57,1.38-.31,2.59,2.49.41a43.92,43.92,0,0,1,5.65-3.79c.69-.38,1.8-1,1.53-1.48S255.27,216.78,254.84,217.29Z"/><path class="cls-43" d="M222.85,129s1.3-2.35,1.91-3.32,3.25,1.43,3.25,1.43a1.63,1.63,0,0,1-1,1.73c-1.29.68-2.06.66-2.33,1.54s-1.83-.34-1.83-.34Z"/><path class="cls-43" d="M240.91,129.55s-1.2-2.57-1.76-3.57-3.32,1.28-3.32,1.28a1.64,1.64,0,0,0,1,1.78c1.25.74,2,.76,2.25,1.64s1.85-.25,1.85-.25Z"/><path class="cls-9" d="M240.09,125.64l0,1.77c0,.62-3.31,1-7.36,1s-7.33-.66-7.32-1.28l0-1.77Z"/><g class="cls-49"><rect class="cls-11" x="237.69" y="126.75" width="4.07" height="0.35" transform="translate(107.46 363.75) rotate(-88.72)"/><rect class="cls-11" x="236.79" y="126.73" width="4.07" height="0.35" transform="matrix(0.02, -1, 1, 0.02, 106.6, 362.83)"/><rect class="cls-11" x="235.76" y="126.71" width="4.07" height="0.35" transform="translate(105.62 361.78) rotate(-88.72)"/><rect class="cls-11" x="234.48" y="126.68" width="4.07" height="0.35" transform="translate(104.44 360.49) rotate(-88.73)"/><rect class="cls-11" x="233.07" y="126.65" width="4.07" height="0.35" transform="translate(103.04 359.02) rotate(-88.72)"/><rect class="cls-11" x="231.53" y="126.61" width="4.07" height="0.35" transform="translate(101.57 357.45) rotate(-88.72)"/><rect class="cls-11" x="223.69" y="126.44" width="4.07" height="0.35" transform="translate(94.09 349.45) rotate(-88.72)"/><rect class="cls-11" x="224.59" y="126.46" width="4.07" height="0.35" transform="translate(94.94 350.36) rotate(-88.72)"/><rect class="cls-11" x="225.61" y="126.48" width="4.07" height="0.35" transform="translate(95.92 351.41) rotate(-88.72)"/><rect class="cls-11" x="226.9" y="126.51" width="4.07" height="0.35" transform="translate(97.15 352.72) rotate(-88.72)"/><rect class="cls-11" x="228.31" y="126.54" width="4.07" height="0.35" transform="translate(98.5 354.16) rotate(-88.72)"/><rect class="cls-11" x="229.85" y="126.58" width="4.07" height="0.35" transform="translate(100.02 355.76) rotate(-88.73)"/></g><path class="cls-12" d="M225.42,125.28c0,.61,3.26,1.18,7.31,1.27s7.34-.33,7.36-1-3.26-1.18-7.31-1.27S225.43,124.66,225.42,125.28Z"/><path class="cls-9" d="M226.92,125.19c0,.29,2.6.58,5.82.65s5.84-.1,5.85-.39-2.6-.57-5.82-.64S226.93,124.91,226.92,125.19Z"/><path class="cls-11" d="M238.33,125.6a28.21,28.21,0,0,0-5.57-.49,28.69,28.69,0,0,0-5.59.24c-.16,0-.25-.11-.25-.16,0-.28,2.62-.46,5.85-.38s5.82.36,5.82.64C238.59,125.5,238.5,125.55,238.33,125.6Z"/><path class="cls-9" d="M238.72,123.59l0,1.77c0,.62-3.31,1-7.36,1S224,125.65,224,125l0-1.77Z"/><g class="cls-50"><rect class="cls-11" x="236.32" y="124.7" width="4.07" height="0.35" transform="translate(108.17 360.37) rotate(-88.72)"/><rect class="cls-11" x="235.42" y="124.68" width="4.07" height="0.35" transform="translate(107.36 359.48) rotate(-88.73)"/><rect class="cls-11" x="234.39" y="124.66" width="4.07" height="0.35" transform="translate(106.38 358.43) rotate(-88.73)"/><rect class="cls-11" x="233.11" y="124.63" width="4.07" height="0.35" transform="translate(105.1 357.09) rotate(-88.72)"/><rect class="cls-11" x="231.7" y="124.6" width="4.07" height="0.35" transform="translate(103.8 355.68) rotate(-88.73)"/><rect class="cls-11" x="230.16" y="124.57" width="4.07" height="0.35" transform="translate(102.33 354.11) rotate(-88.73)"/><rect class="cls-11" x="222.31" y="124.39" width="4.07" height="0.35" transform="translate(94.8 346.07) rotate(-88.72)"/><rect class="cls-11" x="223.22" y="124.41" width="4.07" height="0.35" transform="translate(95.65 346.99) rotate(-88.72)"/><rect class="cls-11" x="224.24" y="124.43" width="4.07" height="0.35" transform="translate(96.68 348.07) rotate(-88.73)"/><rect class="cls-11" x="225.53" y="124.46" width="4.07" height="0.35" transform="translate(97.86 349.35) rotate(-88.72)"/><rect class="cls-11" x="226.94" y="124.49" width="4.07" height="0.35" transform="translate(99.2 350.79) rotate(-88.72)"/><rect class="cls-11" x="228.47" y="124.53" width="4.07" height="0.35" transform="translate(100.67 352.36) rotate(-88.72)"/></g><path class="cls-12" d="M224,123.23c0,.61,3.26,1.18,7.32,1.27s7.34-.33,7.36-1-3.26-1.18-7.31-1.27S224.06,122.61,224,123.23Z"/><path class="cls-9" d="M225.55,123.14c0,.29,2.6.58,5.82.65s5.84-.1,5.85-.39-2.6-.57-5.82-.64S225.56,122.86,225.55,123.14Z"/><path class="cls-11" d="M237,123.55a29,29,0,0,0-5.57-.49,28.69,28.69,0,0,0-5.59.24c-.16,0-.25-.11-.25-.16,0-.28,2.62-.46,5.85-.38s5.82.36,5.82.64C237.21,123.46,237.13,123.5,237,123.55Z"/><path class="cls-9" d="M240,121.6l0,1.77c0,.62-3.31,1-7.36.95s-7.32-.66-7.31-1.28l0-1.77Z"/><g class="cls-51"><rect class="cls-11" x="237.63" y="122.71" width="4.07" height="0.35" transform="translate(111.44 359.74) rotate(-88.72)"/><rect class="cls-11" x="236.73" y="122.69" width="4.07" height="0.35" transform="translate(110.58 358.82) rotate(-88.72)"/><rect class="cls-11" x="235.71" y="122.67" width="4.07" height="0.35" transform="translate(109.6 357.77) rotate(-88.72)"/><rect class="cls-11" x="234.42" y="122.64" width="4.07" height="0.35" transform="translate(108.43 356.49) rotate(-88.73)"/><rect class="cls-11" x="233.01" y="122.61" width="4.07" height="0.35" transform="matrix(0.02, -1, 1, 0.02, 107.03, 355.02)"/><rect class="cls-11" x="231.48" y="122.58" width="4.07" height="0.35" transform="translate(105.56 353.45) rotate(-88.72)"/><rect class="cls-11" x="223.63" y="122.4" width="4.07" height="0.35" transform="translate(98.08 345.44) rotate(-88.72)"/><rect class="cls-11" x="224.53" y="122.42" width="4.07" height="0.35" transform="translate(98.92 346.36) rotate(-88.72)"/><rect class="cls-11" x="225.56" y="122.44" width="4.07" height="0.35" transform="translate(99.91 347.41) rotate(-88.72)"/><rect class="cls-11" x="226.84" y="122.47" width="4.07" height="0.35" transform="translate(101.18 348.75) rotate(-88.73)"/><rect class="cls-11" x="228.25" y="122.5" width="4.07" height="0.35" transform="translate(102.48 350.16) rotate(-88.72)"/><rect class="cls-11" x="229.79" y="122.54" width="4.07" height="0.35" transform="translate(103.95 351.73) rotate(-88.72)"/></g><path class="cls-12" d="M225.36,121.24c0,.61,3.26,1.18,7.31,1.27s7.35-.33,7.36-1-3.26-1.18-7.31-1.27S225.37,120.62,225.36,121.24Z"/><path class="cls-9" d="M226.87,121.15c0,.29,2.6.58,5.82.65s5.84-.1,5.84-.39-2.6-.57-5.82-.64S226.87,120.87,226.87,121.15Z"/><path class="cls-11" d="M238.28,121.56a29.08,29.08,0,0,0-5.58-.49,28.57,28.57,0,0,0-5.58.24c-.17,0-.25-.1-.25-.16,0-.28,2.62-.46,5.84-.38s5.83.36,5.82.64C238.53,121.47,238.44,121.51,238.28,121.56Z"/><path class="cls-43" d="M226.12,128s.86-.21,1-.58.4-1,.8-.87.08,1.3-.17,1.6"/><path class="cls-43" d="M237.68,128.23s-.85-.25-1-.63-.35-1-.76-.91,0,1.45.2,1.76"/><path class="cls-45" d="M231.75,178.53s4,14.38,6.35,18.2S251,217.16,251,217.16s1.88-1,3-1.56c-5.23-13.4-6.77-17.17-10-22.38-1.91-7.58-.67-17.78-5.4-24.29-1.44-2-8,1.77-8,1.77Z"/><path class="cls-45" d="M225.09,170.19s-.58,20.58-.59,24.48,2,24.81,2,24.81,1.42.67,3.76-.58c.08-4.8.91-11.93.22-23.2,2.51-10.71,4-21.27,4-21.27l-.23-5.59Z"/><path class="cls-47" d="M227.1,141.71s-2.24,2-1.36,6.21c.3,1.24-1.37,3.09-2.5,4a4.19,4.19,0,0,0-1,5c1.06,1.92,1.32,2.06.82,3.93s-.52,5.77,4.77,5S233,152.18,233,152.18l-.7-5.62Z"/><path class="cls-43" d="M235,149.05s-.22.12-.6.29c0,.19,0,.38,0,.55,0,1.09,0,1.8,0,1.8a2.52,2.52,0,0,1-3.12,1.08,1,1,0,0,1-.2-.11.92.92,0,0,1-.34-.9,7.4,7.4,0,0,0,.09-1.52,5.17,5.17,0,0,1-2.18-.37c-2.8-1.18-1.2-8.8-1.2-8.8s4.76-2,6.25-.07S235,149.05,235,149.05Z"/><path class="cls-52" d="M230.26,141.84a2.44,2.44,0,0,0,1.06,2.25c1.24.83,3.32,1.17,3.43,2.33a2.19,2.19,0,0,1-.48,1.36,8.09,8.09,0,0,0,1.39-.21c.06-.09.55-2.76.55-2.76S233.32,142,233,141.9A18.37,18.37,0,0,0,230.26,141.84Z"/><path class="cls-52" d="M234.43,151.69a2.52,2.52,0,0,1-3.12,1.08h0c1.71.47,1.67-1.64,1.4-2s-1.09-.55-1.09-.55a15.17,15.17,0,0,0,1.68-.28,6.6,6.6,0,0,1,1.38-.25A8.73,8.73,0,0,1,234.43,151.69Z"/><path class="cls-47" d="M232.26,137.65a5.13,5.13,0,0,0-3.41,2.3c-.37.66,1.81,1.25,1.83,2.21,0,1.88,2.19,2.63,3.88,3.32.44.19,1,1,0,2a4.21,4.21,0,0,0-1.32,3.09c.15,1.44,2.8,1.19,2.8,1.19s-3.77,11.38-3.29,13c.25.85,7.58,5.29,12.61,1.08a5,5,0,0,0,.58-7c-1.34-1.55-1.33-2.61-1.22-3,1.35-4.89-1.13-8.23-3.92-9.59a3.4,3.4,0,0,1-2-2.88,5.91,5.91,0,0,0-1.58-4A5.7,5.7,0,0,0,232.26,137.65Z"/><path class="cls-47" d="M225.78,138.79a2,2,0,0,0,.12,3.29c1.14.77,3,1.23,5.8-.2,3.34-1.69,2.31-4.33.09-4.12C227.56,139.19,227.06,137.77,225.78,138.79Z"/><path class="cls-53" d="M230.73,151.86s.13,1.35,2,1a1.87,1.87,0,0,0,1.32-1.42,4.48,4.48,0,0,0,4.13-2.06c1.18-1.66,2.94-4.51,3.77-6a2.69,2.69,0,0,0,.25-2c-.82-3.15-3.89-10.93-3.89-10.93l3-1.1s3.1,7.67,4.67,11.57a4.73,4.73,0,0,1-.15,3.91c-1.66,3.3-4.85,9-6.35,11.86-.47,1.74,2,14.08,2,14.08s-6.72,4.14-16.4,1.09c0-3.7.42-10.5.32-14.32s-2.13-3.53-7.34-14.26a5.12,5.12,0,0,1-.4-3.29,36.34,36.34,0,0,1,5.2-11.06,10.77,10.77,0,0,1,2.39,1.26s-2.73,6.83-3.68,9.66a2.2,2.2,0,0,0,.15,1.76C223.26,144.56,228,151.83,230.73,151.86Z"/><path class="cls-47" d="M192,160.47s-.19,2.09-.24,3.44l-.84,1.49A22.3,22.3,0,0,1,192,160.47Z"/><polygon class="cls-47" points="231.97 178.79 233.07 183.01 232.59 185.45 231.97 178.79"/><path class="cls-54" d="M91.14,0A4.87,4.87,0,0,0,93.9,2c-.93.71-.92,1.18-1,2.22a5.64,5.64,0,0,1-2.53-2A1.79,1.79,0,0,1,91.14,0Z"/><path class="cls-54" d="M159.88,1.25a4.81,4.81,0,0,0,2.76,2c-.93.71-.92,1.18-1,2.22a5.62,5.62,0,0,1-2.54-2A1.79,1.79,0,0,1,159.88,1.25Z"/><path class="cls-3" d="M45.86,19.16a4.83,4.83,0,0,0,3.32.85,2.29,2.29,0,0,0-.06,2.43A5.64,5.64,0,0,1,46,21.5,1.82,1.82,0,0,1,45.86,19.16Z"/><path class="cls-54" d="M66.61,37.15a4.89,4.89,0,0,0,2.32-2.53c.6,1,1.07,1,2.1,1.21a5.66,5.66,0,0,1-2.3,2.3A1.81,1.81,0,0,1,66.61,37.15Z"/><path class="cls-3" d="M100.76,23.89a4.85,4.85,0,0,0,3.41-.42c-.19,1.15.15,1.49.83,2.28a5.68,5.68,0,0,1-3.25.27A1.83,1.83,0,0,1,100.76,23.89Z"/><path class="cls-3" d="M157.78,24.2a4.79,4.79,0,0,0,2.65,2.18c-1,.66-1,1.13-1.09,2.17a5.6,5.6,0,0,1-2.43-2.18A1.81,1.81,0,0,1,157.78,24.2Z"/><path class="cls-3" d="M224.48,64.89a4.84,4.84,0,0,0,2.64,2.18c-1,.66-1,1.13-1.08,2.17a5.55,5.55,0,0,1-2.43-2.18A1.81,1.81,0,0,1,224.48,64.89Z"/><path class="cls-54" d="M214.34,41.3A4.84,4.84,0,0,0,217,43.48c-1,.66-1,1.13-1.08,2.17a5.61,5.61,0,0,1-2.43-2.18A1.8,1.8,0,0,1,214.34,41.3Z"/><path class="cls-54" d="M189.22,42.83a4.83,4.83,0,0,0,3.35-.76c-.07,1.17.29,1.47,1.05,2.19a5.58,5.58,0,0,1-3.21.58A1.8,1.8,0,0,1,189.22,42.83Z"/><path class="cls-54" d="M174.38,91.06A4.79,4.79,0,0,0,177.11,89c.42,1.1.88,1.22,1.86,1.57a5.7,5.7,0,0,1-2.68,1.85A1.81,1.81,0,0,1,174.38,91.06Z"/><path class="cls-3" d="M193.9,10.08a4.82,4.82,0,0,0,3.42.14,2.28,2.28,0,0,0,.44,2.39,5.61,5.61,0,0,1-3.25-.28A1.8,1.8,0,0,1,193.9,10.08Z"/><path class="cls-54" d="M127.28,10.07a4.86,4.86,0,0,0,3.43.16c-.38,1.11-.11,1.49.43,2.39a5.61,5.61,0,0,1-3.25-.29A1.81,1.81,0,0,1,127.28,10.07Z"/><path class="cls-54" d="M21.05,71.21a4.79,4.79,0,0,0,3.42.15,2.28,2.28,0,0,0,.44,2.39,5.6,5.6,0,0,1-3.25-.29A1.8,1.8,0,0,1,21.05,71.21Z"/><path class="cls-54" d="M45.34,102.5a4.81,4.81,0,0,0,1.37,3.14c-1.16.15-1.39.56-2,1.44a5.6,5.6,0,0,1-1.17-3A1.79,1.79,0,0,1,45.34,102.5Z"/><path class="cls-3" d="M38.94,54.75a4.86,4.86,0,0,0,2.52-2.34c.52,1.05,1,1.13,2,1.37A5.66,5.66,0,0,1,41,55.9,1.82,1.82,0,0,1,38.94,54.75Z"/><path class="cls-3" d="M206.14,98a4.83,4.83,0,0,0,3-1.65c.25,1.14.68,1.32,1.61,1.81a5.62,5.62,0,0,1-2.92,1.45A1.81,1.81,0,0,1,206.14,98Z"/><path class="cls-4" d="M46.8,230c0,.78-10.47,1.48-23.39,1.57S0,231.07,0,230.3s10.47-1.48,23.39-1.57S46.79,229.2,46.8,230Z"/><path class="cls-55" d="M49.79,116.23c0-.28-.4-.14-.49.1a.79.79,0,0,0,0,.2c0-.47,0-.85,0-1,0-.26-.37-.16-.48,0a2.38,2.38,0,0,0,0-.39c0-.35-.4-.2-.49.09a3.7,3.7,0,0,0-.08.48v-.27c0-.28-.36-.21-.45,0a3.7,3.7,0,0,0-.1.55c0,.29-.12.59-.15.88s-.34,1.49-1,1.62c-.93.2-.34-1.43-1-1.79-.2-.11-.42,1.14-.44,1.86a7.16,7.16,0,0,0,0,1.48,10.25,10.25,0,0,1,.26,1.27,5.6,5.6,0,0,1-.53,1.25l2.35.54a9.79,9.79,0,0,1,.84-1.6,5.28,5.28,0,0,0,1.43-2.53,10.12,10.12,0,0,0,.27-1.9S49.8,116.33,49.79,116.23Z"/><path class="cls-55" d="M27.62,135.94s7.48-.07,11.53-4.62c3.24-4.53,6.37-9.55,6.6-10,.64.25,2,.87,2,.87s-4.28,9.57-5.94,11.76-5,5.76-11.88,7.54C26.63,137.66,27.62,135.94,27.62,135.94Z"/><path class="cls-42" d="M32.49,225.18a4.93,4.93,0,0,1,.41,1.64c0,.66-2.11.79-2.37.46a19.08,19.08,0,0,1-.5-3.34"/><path class="cls-44" d="M30,227.88a13.72,13.72,0,0,0,.27,1.79l2.41-.09.1-.41a3.74,3.74,0,0,0,1.41.34l2-.08c1.49-.06,2.32-.29,2.35-.55.11-1.1-1.66-1-2.13-1-1.33.06-2.79-.51-3.13-1.17-.25-.48-.16-.61-.43-.51a.74.74,0,0,0-.4.38,1.21,1.21,0,0,1-1.23.73,1.51,1.51,0,0,1-.83-.35A.88.88,0,0,0,30,227.88Z"/><path class="cls-42" d="M9,223.87a19,19,0,0,1-.64,2.39c-.26.6-2.25,0-2.37-.45a18.22,18.22,0,0,1,.77-3.29"/><path class="cls-44" d="M5.23,226.17c-.23.65-.56,1.9-.56,1.9l1.88,1,.34-.28a3.58,3.58,0,0,0,1,1,7.81,7.81,0,0,0,1.84.68c1.68.31,3,.07,3.08-.16.52-1-1.72-1.42-2.15-1.58a3,3,0,0,1-1.95-2.35c-.05-.54.09-.62-.2-.63a.69.69,0,0,0-.51.2,1.22,1.22,0,0,1-1.42.23,1.52,1.52,0,0,1-.64-.64A.87.87,0,0,0,5.23,226.17Z"/><path class="cls-45" d="M15.48,176.51s-3.6-7.71,1.88-13.63A31.62,31.62,0,0,0,26.24,165a19.48,19.48,0,0,0,4.63-.3,99.36,99.36,0,0,1,.92,14.64Z"/><path class="cls-45" d="M29.83,226.05h.29a16.32,16.32,0,0,0,3.18-.35l0-.59c-.49-9,0-23.69,0-28.33a4.87,4.87,0,0,0-.07-.89c-.49-3.38-4-2.79-5.33.39a12.54,12.54,0,0,0-.73,2.43,22.26,22.26,0,0,0-.41,3.41C26.4,209.89,29,220.28,29.83,226.05Z"/><path class="cls-45" d="M21.83,179.88c0,.09.05.18.07.28,1,4.06,3.92,15,5.27,18.54h0a2.16,2.16,0,0,0,1.59,1.07c1.79.41,4.39-.36,4.47-3.89a9.51,9.51,0,0,0-.06-1.27c-.36-2.85-1.63-18.62-1.82-20.14s-.55-3.73-1.37-4C25.91,169.27,20.55,174.2,21.83,179.88Z"/><path class="cls-56" d="M26.25,196a19.56,19.56,0,0,1,.51,6.13c-.3,3.06,1.35-2.73,1.35-2.73l-1.09-2Z"/><path class="cls-57" d="M30.12,226s-.88-9.15-2-15.47a25.18,25.18,0,0,1,.6-10.8c.14-.5.24-.78.24-.78l-1.1-2.72c-1.25-3.56-1.62-12-1.62-12a42.86,42.86,0,0,0,2.51-13.49l-2.29.41-3.9,5.1-.7,3.82c.77,3.29,2.87,11.1,4.35,15.82h0a19.56,19.56,0,0,1,.51,6.13,3,3,0,0,0,0,.81c-.17,7.68,2.27,17.56,3.08,23.13Z"/><path class="cls-45" d="M14.51,196.59C17.12,193.92,21,195,19.35,199c-1.71,4.32-7.07,16.34-9.89,24.87l-.2.56a17.4,17.4,0,0,1-3.36-.94c1.29-5.51,2-14.95,4.86-21.63A17.55,17.55,0,0,1,14.51,196.59Z"/><path class="cls-45" d="M28.79,170.83c.27-6.33-7.43-1.82-11.12.42a5.42,5.42,0,0,0-2.21,4.39c-.14,1.66-1.48,18.76-1.76,21.88-.64,7,5.32,3,5.82,1C20.77,193.56,28.64,174.28,28.79,170.83Z"/><path class="cls-45" d="M14.06,193.16a16.93,16.93,0,0,1-2.75,7.6s4.51-2.31,4.72-2.63a17.63,17.63,0,0,0,.78-3.94C16.71,193.85,14.06,193.16,14.06,193.16Z"/><path class="cls-55" d="M27.74,130.88c0,.48,0,2.34-1,2.79s-1.62.64-1.59.79.11.4.21.72a1.52,1.52,0,0,0,.57.9l.15,2.39-1.78,1.77-.58.58-.88-.8L20,137.43a2.91,2.91,0,0,0,.37-3c-.12-.22-1.42-1.66-2.45-3.11a7.78,7.78,0,0,1-1.26-2.3c-.37-1.66-.68-3.4.27-4.44s7.47-5.33,8.78-.3a25.13,25.13,0,0,0,2,3.19.76.76,0,0,1-.07,1.28C27.22,129,27.72,130.4,27.74,130.88Z"/><path class="cls-58" d="M26.12,138.47l-1.78,1.77-.55.26-.91-.48L20,137.43a2.91,2.91,0,0,0,.37-3c-.12-.22-1.42-1.66-2.45-3.11l-.12-1s2-.56,2.1-.57a6.84,6.84,0,0,1,1,1.09c0,.06-.15,1.23-.15,1.23s.27,1.54.59,2.7a1.63,1.63,0,0,0,1.46,1.12,5.16,5.16,0,0,0,1.24,0,2.31,2.31,0,0,0,1.33-.69,1.52,1.52,0,0,0,.57.9Z"/><path class="cls-47" d="M20,129.43s-.15,3.4,2.25,4.8,5.71-.15,6.12-.62,1.47-3.47-.33-4.46-3.53.72-3.53.72-1,1.12-1.41,1.13-1.53-1-1.69-3.13a.25.25,0,0,1,.2-.26c.46-.13,1.47-.67.95-2.72a.31.31,0,0,1,.28-.37,22,22,0,0,1,2.34-.24,3,3,0,0,1,.45,0,.23.23,0,0,1,.17.11l.41.73.64,1.1a.69.69,0,0,0,.24-.63,9.64,9.64,0,0,1-.38-1.34c0-.2.6-.43.6-.87,0-1-.38-4.82-3.41-2.47a5,5,0,0,1-1.1.8c-.46.17-1-.15-2-.08-1.39.1-7.38,1.5-5.46,6.82s5.07,6.08,5.07,6.08S19.42,130.11,20,129.43Z"/><path class="cls-58" d="M20,129.43s-.29-.92-1.06-.65c-1,.35-.93,2.93,1.3,2.59A7.15,7.15,0,0,1,20,129.43Z"/><path class="cls-46" d="M32.78,166.15a47.76,47.76,0,0,1-18.27.1,117.22,117.22,0,0,0,.86-11.71v-.36c.09-2.29.13-3.93.18-4s-.26-7.45.34-10.31a2,2,0,0,1,.44-1.06,21.52,21.52,0,0,1,4.15-2.8s3.64,3.92,5.5-.42c2.05-.18,3.09.23,3.68,2.28C32.94,149.24,32.78,166.15,32.78,166.15Z"/><path class="cls-46" d="M27.52,135.63a18.07,18.07,0,0,0,6.84-1.47,20.65,20.65,0,0,1,3.09,6.39s-4.66,3-8.07,3.25A47.88,47.88,0,0,0,27.52,135.63Z"/><path class="cls-59" d="M28.17,136.34A16.41,16.41,0,0,1,31,143.51a21,21,0,0,0,6.49-3c-1,.34-5.45,2-6.05.62A21.21,21.21,0,0,0,28.17,136.34Z"/><path class="cls-30" d="M27.3,138.88l14.87,1.55-2.71,6-12.85-6a.62.62,0,0,1-.37-.86l.17-.3A.89.89,0,0,1,27.3,138.88Z"/><path class="cls-60" d="M27.3,138.88l14.87,1.55-2.71,6-12.85-6a.62.62,0,0,1-.37-.86l.17-.3A.89.89,0,0,1,27.3,138.88Z"/><path class="cls-30" d="M41.94,143.78c-.79,1.63-1.95,2.8-2.58,2.6s-.51-1.69.28-3.33,2-2.8,2.59-2.6S42.74,142.14,41.94,143.78Z"/><path class="cls-60" d="M41.94,143.78c-.79,1.63-1.95,2.8-2.58,2.6s-.51-1.69.28-3.33,2-2.8,2.59-2.6S42.74,142.14,41.94,143.78Z"/><path class="cls-60" d="M41.94,143.78c-.79,1.63-1.95,2.8-2.58,2.6s-.51-1.69.28-3.33,2-2.8,2.59-2.6S42.74,142.14,41.94,143.78Z"/><path class="cls-55" d="M14.1,150.16s1.57,5.41,5.64,8a2.85,2.85,0,0,0,3.61-.71c2.79-3.12,5.58-10.15,6.48-12.81-1.64-.86-2.16-.73-2.16-.73s-4,5.49-6.23,9.17l-1.69-3"/><path class="cls-55" d="M27.55,144.07a5.4,5.4,0,0,0,.76-2.07c0-.89-.39-2.43.48-3.23a3.68,3.68,0,0,1,2.72-.55c1.88.32,2.4.87,2.29,1.27s-1.4.54-1.75,1.22-.15,1.1-.23,1.84c-.13,1.12-1.69,1.59-2,2.15C29.55,145.09,27.55,144.07,27.55,144.07Z"/><path class="cls-59" d="M16.13,163.73c.47-1.63.7-7.35.75-8.78a7.47,7.47,0,0,0,5.17-3.37,30.62,30.62,0,0,0-4.32-6.75l-1.42-5.32s-.16.13-.41.37c-.6,2.86-.24,10.16-.34,10.31s-.09,1.7-.18,4v.36h0a117.22,117.22,0,0,1-.86,11.71,47.76,47.76,0,0,0,18.27-.1C22.63,167,15.6,165.58,16.13,163.73Z"/><path class="cls-46" d="M17.27,138.07s-4.2,2.76-4.38,7.44c-.14,3.62,2.26,8.9,2.26,8.9s4.15.46,6.33-2.93A25.75,25.75,0,0,0,19,146.41"/><path class="cls-30" d="M129.93,145.69l.28-47.62L119.57,98l-.24,43.25h0s0,.09,0,.21l0,3.52c-.25,6.16-1.78,17.81-10,17.76l30.44.17C131.77,162.88,130.19,152,129.93,145.69Z"/><path class="cls-30" d="M78.84,49.26a20.92,20.92,0,0,1,6.21,5,16.22,16.22,0,0,1,2.22,18.2,10.48,10.48,0,0,1-9.09,5.73A11.69,11.69,0,0,1,68,73a8.49,8.49,0,0,1,.08-8.8,4,4,0,0,1,6.84,4c-.28.48-.21.61-.12.79a3.82,3.82,0,0,0,3.09,1.33,2.46,2.46,0,0,0,2.3-1.44,1.43,1.43,0,0,0,.13-.28A8.14,8.14,0,0,0,79.45,60c-.18-.22-.33-.43-.5-.62-3.2-3.87-8.75-5.72-13.16-4.41-5.09,1.53-8.45,7.1-9.41,15.69-1.87,16.56,9.79,27.83,16.9,33.06a55.32,55.32,0,0,0,20.63,9.67c3,.64,5.13.66,6,.27a4,4,0,0,1,5,5.61,3.79,3.79,0,0,1-1.83,1.63,10.09,10.09,0,0,1-3.19.77c-7.77.85-20.79-3.81-31.33-11.6C53.94,99.27,46.82,85,48.51,69.76c1.83-16.12,10.18-21,15-22.38A20.36,20.36,0,0,1,78.84,49.26Z"/><path class="cls-61" d="M105.12,115.67a3.89,3.89,0,0,1-.18,3.58,3.79,3.79,0,0,1-1.83,1.63,10.09,10.09,0,0,1-3.19.77,52.69,52.69,0,0,1-6-8.28c3,.64,5.13.66,6,.27A3.92,3.92,0,0,1,105.12,115.67Z"/><path class="cls-61" d="M78.84,49.26a20.92,20.92,0,0,1,6.21,5,16.22,16.22,0,0,1,2.22,18.2,10.19,10.19,0,0,1-5.57,5c-.51-3.07-1-6.07-1.34-8.94A8.14,8.14,0,0,0,79.45,60C79.09,55.72,78.92,52.06,78.84,49.26Z"/><path class="cls-30" d="M169.47,49.21a20.79,20.79,0,0,0-6.36,4.85,16.21,16.21,0,0,0-2.76,18.12,10.16,10.16,0,0,0,5.41,5.19,10.36,10.36,0,0,0,3.5.81,11.67,11.67,0,0,0,10.29-4.91,8.48,8.48,0,0,0,.19-8.79,4,4,0,1,0-7,3.76c.27.49.19.62.1.79a3.84,3.84,0,0,1-3.13,1.24,2.47,2.47,0,0,1-2.26-1.5,1.19,1.19,0,0,1-.12-.29,8.13,8.13,0,0,1,1.17-8.58c.18-.22.34-.42.51-.61,3.33-3.77,8.92-5.45,13.3-4,5,1.68,8.23,7.36,8.93,16,1.37,16.61-10.62,27.52-17.89,32.53a55.36,55.36,0,0,1-20.9,9c-3,.55-5.15.51-6,.09a4,4,0,0,0-5.17,5.46,3.77,3.77,0,0,0,1.78,1.68,9.65,9.65,0,0,0,3.16.86c7.75,1.09,20.91-3.18,31.67-10.64,15-10.34,22.51-24.43,21.28-39.67-1.34-16.18-9.55-21.27-14.32-22.83A20.29,20.29,0,0,0,169.47,49.21Z"/><path class="cls-61" d="M141.2,114.8a3.92,3.92,0,0,0,.08,3.58,3.77,3.77,0,0,0,1.78,1.68,9.65,9.65,0,0,0,3.16.86,53.15,53.15,0,0,0,6.27-8.09c-3,.55-5.15.51-6,.09A3.94,3.94,0,0,0,141.2,114.8Z"/><path class="cls-61" d="M169.47,49.21a20.79,20.79,0,0,0-6.36,4.85,16.21,16.21,0,0,0-2.76,18.12,10.16,10.16,0,0,0,5.41,5.19c.6-3.05,1.14-6,1.61-8.89a8.13,8.13,0,0,1,1.17-8.58C169,55.65,169.3,52,169.47,49.21Z"/><path class="cls-40" d="M164.76,43.5s0,2.85-.22,7.52c-.95,18.49-6,65.78-33.16,79.22l-1.32,1.12a8.84,8.84,0,0,1-6,2.06l-1.34,0a8.82,8.82,0,0,1-5.21-2L116,130.15C89.34,116.57,84.57,70.26,83.74,51.26c-.21-5.09-.16-8.23-.16-8.23,0-4.56,5.36-5.73,5.36-5.73l70.48.42S164.78,38.94,164.76,43.5Z"/><path class="cls-62" d="M160.6,49.52l-72.95-.41A8.15,8.15,0,0,1,79.58,41h0a8.15,8.15,0,0,1,8.17-8.08l72.94.42a8.15,8.15,0,0,1,8.08,8.16h0A8.12,8.12,0,0,1,160.6,49.52Z"/><path class="cls-63" d="M164.76,43.5s0,2.85-.22,7.52A7.86,7.86,0,0,1,160,52.41L87.06,52a8.35,8.35,0,0,1-3.32-.74c-.21-5.09-.16-8.23-.16-8.23,0-4.56,5.36-5.73,5.36-5.73l70.48.42S164.78,38.94,164.76,43.5Z"/><path class="cls-30" d="M160.6,49.52l-72.95-.41A8.15,8.15,0,0,1,79.58,41h0a8.15,8.15,0,0,1,8.17-8.08l72.94.42a8.15,8.15,0,0,1,8.08,8.16h0A8.12,8.12,0,0,1,160.6,49.52Z"/><path class="cls-30" d="M160.6,49.52l-72.95-.41A8.15,8.15,0,0,1,79.58,41h0a8.15,8.15,0,0,1,8.17-8.08l72.94.42a8.15,8.15,0,0,1,8.08,8.16h0A8.12,8.12,0,0,1,160.6,49.52Z"/><path class="cls-30" d="M97,167h54.76a6.65,6.65,0,0,1,6.65,6.65v29.56a0,0,0,0,1,0,0H90.37a0,0,0,0,1,0,0V173.65A6.65,6.65,0,0,1,97,167Z" transform="translate(1.06 -0.71) rotate(0.33)"/><rect class="cls-30" x="85.7" y="197.39" width="77.22" height="5.82" rx="1.06" transform="translate(1.14 -0.71) rotate(0.33)"/><rect class="cls-60" x="85.7" y="197.39" width="77.22" height="5.82" rx="1.06" transform="translate(1.14 -0.71) rotate(0.33)"/><rect class="cls-40" x="103.14" y="174.84" width="42.53" height="17.39" rx="3.16" transform="translate(1.05 -0.71) rotate(0.33)"/><rect class="cls-30" x="107.46" y="162.84" width="34.05" height="4.16" rx="0.76" transform="translate(0.94 -0.71) rotate(0.33)"/><rect class="cls-60" x="107.46" y="162.84" width="34.05" height="4.16" rx="0.76" transform="translate(0.94 -0.71) rotate(0.33)"/><path class="cls-64" d="M101.23,60C100,74.14,99.65,105.66,117,125.88a1.13,1.13,0,0,1-1.57,1.61C105.85,119.85,93,105,89.26,78.68a114.19,114.19,0,0,1-.55-19.75,6.28,6.28,0,0,1,5.85-5.73h0A6.27,6.27,0,0,1,101.23,60Z"/><path class="cls-63" d="M144.63,59.45c.46,14.18-.83,45.67-19.19,64.94a1.13,1.13,0,0,0,1.48,1.7c9.93-7.13,23.59-21.32,28.68-47.36A113.9,113.9,0,0,0,157.19,59a6.26,6.26,0,0,0-5.54-6h0A6.28,6.28,0,0,0,144.63,59.45Z"/><polygon class="cls-30" points="113.52 181.95 116.83 182.55 114.34 184.81 114.79 188.15 111.87 186.48 108.84 187.94 109.53 184.65 107.2 182.22 110.54 181.85 112.14 178.89 113.52 181.95"/><polygon class="cls-30" points="125.9 181.95 129.21 182.55 126.72 184.81 127.17 188.15 124.25 186.48 121.22 187.94 121.91 184.65 119.58 182.22 122.92 181.85 124.52 178.89 125.9 181.95"/><polygon class="cls-30" points="138.28 181.95 141.59 182.55 139.1 184.81 139.55 188.15 136.63 186.48 133.6 187.94 134.29 184.65 131.96 182.22 135.3 181.85 136.9 178.89 138.28 181.95"/><path class="cls-4" d="M91.76,210.18c0,.77-10.48,1.37-23.41,1.33S45,210.8,45,210s10.48-1.37,23.4-1.33S91.76,209.4,91.76,210.18Z"/><path class="cls-47" d="M65.56,125.42s.5-3.9,2.12-5.32c2.12-1.85,6.66-1.36,8.43.41a7.94,7.94,0,0,1,1.31,8.84c3.19,1.87,3,6,.34,6.38l.94,5a5.89,5.89,0,0,1-4.89,6.71l-5.94,1.2s-10.15-1-10.93-6,3.85-7.34,3.85-7.34-2.22-4.22.11-7.19S65.56,125.42,65.56,125.42Z"/><path class="cls-43" d="M80.07,140.18s9.15,1.45,11.63,1.34c2,.11,5.15-10.53,5.43-11.19a3.62,3.62,0,0,0,1.91-3c0-.73-2-1.35-2.19-1,.33-1,.4-1.29.49-1.62.18-.69-.34-1.22-1.1,1.39a29.53,29.53,0,0,0-.86,3.06c-1.23,2.36-4.39,7.85-4.6,8.68a73.4,73.4,0,0,1-11-1.7Z"/><path class="cls-43" d="M66.07,140.25s-7.15,5.84-9.21,7.11c-1.5,1.16-10.84-5.87-11.49-6.24-1.87.06-2.66-.6-3.11-1.21s.74-2.18,1.13-2c-.89-.61-1.15-.81-1.43-1-.6-.46-.51-1.17,1.78.51s1.93,1.37,2.66,2c2.5,1.22,8.58,3.91,9.29,4.46a65.46,65.46,0,0,0,7.79-7.41Z"/><path class="cls-43" d="M77,203.81a14.83,14.83,0,0,1,.37,3.07c-.18.94,0,1.22,0,1.22l3.88-.31s-1.71-.77-1.59-4.46S77,203.81,77,203.81Z"/><path class="cls-47" d="M77.29,207.16a6.53,6.53,0,0,0,3.36.14,16.32,16.32,0,0,0,5.11,1.37c1.79.21,1.47,1.56-1.57,1.38a41.47,41.47,0,0,0-5.85,0c-.67.06-1.76.15-1.8-.29S76.74,207,77.29,207.16Z"/><path class="cls-65" d="M78.47,156.33s2.49,22.44,2.64,25.36a35.47,35.47,0,0,1,0,5.71c-.15,1.78,1.13,16.76,1.13,16.76s-5.81,1.3-7.28.14c0,0,.24-16.33-.5-19.12s-3.63-17-3.63-17l3.33-14.48Z"/><path class="cls-66" d="M66.05,177.84s-.45,4.76-1.4,5.65c-.6,1.43-.6,1.43.33,2,1.42.87,4.27,2.53,5,1.83,2.66-2.64,2.76-3.57,3.39-7,.21-.78,3.92-23.39,3.92-23.39s-11.8-1.64-11.84,1.59S66.64,174.08,66.05,177.84Z"/><path class="cls-43" d="M51.52,198a16.32,16.32,0,0,1-2.41,2.13c-.93.44-1,.74-1,.74l2.61,2.66s-.37-1.73,2.88-3.88S51.52,198,51.52,198Z"/><path class="cls-47" d="M48.83,200.28a5.57,5.57,0,0,0,1.91,2.54,13.9,13.9,0,0,0,1.93,4.59c.9,1.43-.46,2-2.14-.33A37,37,0,0,0,47,202.8c-.47-.46-1.2-1.2-.85-1.5S48.62,199.79,48.83,200.28Z"/><path class="cls-66" d="M65.09,182.75c-5.15,6.42-13.86,11.25-16.32,15C48.33,199,54,202,54,202s11.86-10.74,14.29-13.1A22.4,22.4,0,0,0,71,186.28C68.65,185.52,66.53,181,65.09,182.75Z"/><path class="cls-53" d="M76.11,143.23c-.34.81,2.31,12.07,2.75,14.67l-.16,0c-1.15-.17-8.2-1.11-13.89,1.27l-.52-15.91,0-.59s0-.6,0-1.52h0c.13-1.9.53-5.09,1.74-7.14A3.5,3.5,0,0,1,68.67,132c3.54-.35,3.51,1.11,6.8,1.92l5.33,1.32s-.59,4.13,0,5.36H77.1S76.46,142.41,76.11,143.23Z"/><path class="cls-43" d="M75.18,122s2.24,5.2.54,7.58a4.78,4.78,0,0,1-3.5,1.83V134a1.29,1.29,0,0,1-.7.25A9.15,9.15,0,0,1,68.67,133V122.9Z"/><path class="cls-67" d="M66.9,140.55c-1.22,1.22-2.05,2.09-2.61,2.68l0-.59s0-5.61,1.79-8.67a2.49,2.49,0,0,1,.84-.09C69.73,134.09,69.57,137.9,66.9,140.55Z"/><path class="cls-67" d="M80.8,140.63s-2.49-.1-2.79-.57-1.27-2.59-2.8-3.31c0,0,2.15,2.08,1.89,3.88Z"/><path class="cls-67" d="M78.7,157.87c-1.15-.17-8.2-1.11-13.89,1.27l-.52-15.91,0-.59s0-.6,0-1.52l1.36.41s0,13.93.73,14.8,6.78.21,8.36.46A29.45,29.45,0,0,1,78.7,157.87Z"/><path class="cls-53" d="M59.51,139s4.56-5.94,7.39-5.73,2.66,4,0,6.69-3.55,3.68-3.55,3.68S60.1,142.13,59.51,139Z"/><path class="cls-47" d="M75.38,121.37s-1,4.66-3.49,5.89-.6,4.25-2.93,6.5a2.48,2.48,0,0,1-2.5.32,3.24,3.24,0,0,0-3.21.73l-.2.24c-3-2,4.63-13.08,4.63-13.08Z"/></g></g></g></svg>