<svg xmlns="http://www.w3.org/2000/svg" viewBox="0 0 251.4 216.69"><defs><style>.cls-1{fill:#a9d0ff;}.cls-2{fill:#7fd6cb;opacity:0.73;isolation:isolate;}.cls-3{fill:#ffe100;}.cls-4{fill:#dbbb00;}.cls-5{fill:#b79800;}.cls-6{fill:#4885ed;}.cls-7{fill:#7a4c08;}.cls-8{fill:#fff;}.cls-9{fill:#e6e8e8;}.cls-10{fill:#d9dbdb;}.cls-11{fill:#1e60c1;}</style></defs><title>ico-02</title><g id="Layer_2" data-name="Layer 2"><g id="ICON"><g id="Group_1368" data-name="Group 1368"><g id="Group_1366" data-name="Group 1366"><g id="Group_1355" data-name="Group 1355"><circle id="Ellipse_344" data-name="Ellipse 344" class="cls-1" cx="124.55" cy="114.69" r="84.93"/><path id="Path_1433" data-name="Path 1433" class="cls-2" d="M193.92,135.1v28.56a85.48,85.48,0,0,1-10.54,12.25V135.1h0V135c-.05-.21-5.17-4.45-9.11-7.68v-1.79L179,124.3a9.05,9.05,0,0,1,5.85.46c.83.35,1.68.69,2.54,1v3.73A83.65,83.65,0,0,1,193.9,135v.1Z"/></g><g id="Group_1365" data-name="Group 1365"><g id="Group_1356" data-name="Group 1356"><path id="Path_1434" data-name="Path 1434" class="cls-3" d="M3.68,5.72,28.6,64.2,46.82,51.74,57.37,67.08,59.28,41.2l22-13.43Z"/><path id="Path_1435" data-name="Path 1435" class="cls-4" d="M50.86,49,28.6,64.2,46.82,51.74,57.37,67.08,59.28,41.2,24.15,20.28Z"/><path id="Path_1436" data-name="Path 1436" class="cls-5" d="M58.81,47.54,24.15,20.28,59.28,41.2Z"/></g><g id="Group_1357" data-name="Group 1357"><path id="Path_1437" data-name="Path 1437" class="cls-6" d="M57.82,74.37c-.2-1.14-.45-2.28-.74-3.38l1.71-.46c.31,1.16.57,2.35.77,3.54Z"/><path id="Path_1438" data-name="Path 1438" class="cls-6" d="M37.18,114.09a14.65,14.65,0,0,1-7.1-2.37l1-1.48a12.74,12.74,0,0,0,6.24,2.08Zm7.35-1.44-.78-1.59A17.86,17.86,0,0,0,49,106.89l1.32,1.18a19.38,19.38,0,0,1-5.83,4.58Zm-19.38-6.58a14.64,14.64,0,0,1-1.52-6.43c0-.18,0-.36,0-.54l0-.38,1.77.13,0,.32c0,.16,0,.32,0,.47a12.82,12.82,0,0,0,1.34,5.64Zm68.45-.4V103.9c2.31,0,4.68-.11,7-.28l.13,1.76c-2.41.18-4.82.27-7.17.29Zm-7.17-.24-1.13-.08c-2.18-.19-4.15-.43-6-.76l.3-1.74c1.83.32,3.75.56,5.87.73l1.11.09Zm21.47-.8-.24-1.75c2.27-.31,4.62-.7,7-1.15l.33,1.73C112.58,103.92,110.21,104.31,107.9,104.63Zm-35.66-1.79a33.6,33.6,0,0,1-5.79-2.57c-.28-.15-.56-.32-.83-.48l.92-1.52c.25.16.51.31.78.46a32.45,32.45,0,0,0,5.49,2.44Zm-17.65-.7-1.54-.88A40.06,40.06,0,0,0,56,95l1.67.6a43.24,43.24,0,0,1-3,6.59Zm67.37-.2-.42-1.72c2.21-.54,4.52-1.15,6.84-1.81l.49,1.7c-2.35.67-4.67,1.29-6.91,1.83ZM135.7,98l-.54-1.68c2.25-.73,4.48-1.49,6.71-2.28l.59,1.67c-2.24.79-4.49,1.56-6.76,2.29Zm-76-2.33a47.23,47.23,0,0,0-5.26-3.46l-.59-.32.81-1.57.63.33a52.94,52.94,0,0,1,5.46,3.59ZM27.91,93l-1.24-1.26a15.09,15.09,0,0,1,6.51-3.5l.59,1.67A13.68,13.68,0,0,0,27.91,93Zm19.48-3.45a28,28,0,0,0-6.13-.68h-.71l0-1.77a30.18,30.18,0,0,1,7.28.71Zm12.11-1-1.74-.31a40.32,40.32,0,0,0,.63-6.93h1.77a41.61,41.61,0,0,1-.66,7.22Z"/><path id="Path_1439" data-name="Path 1439" class="cls-6" d="M149.23,93.23l-.62-1.65,3.29-1.28.64,1.65Z"/></g><path id="Path_1440" data-name="Path 1440" class="cls-6" d="M204.93,136.35a1.77,1.77,0,0,1-.17-3.53,42.06,42.06,0,0,0,27.7-14.38,1.77,1.77,0,0,1,2.66,2.33,45.54,45.54,0,0,1-30,15.57Z"/><g id="Group_1361" data-name="Group 1361"><g id="Group_1360" data-name="Group 1360"><path id="Path_1441" data-name="Path 1441" class="cls-7" d="M183.37,135.1l-61.64,36.35L60.1,135.1a.38.38,0,0,1,0-.1c0-.23,3.45-3.07,8.64-7.28l.14-.12c17-13.82,52.84-42.12,52.84-42.12s35.83,28.3,52.85,42.12c5.26,4.27,8.73,7.16,8.78,7.4C183.36,135,183.37,135.07,183.37,135.1Z"/><g id="Group_1358" data-name="Group 1358"><path id="Path_1442" data-name="Path 1442" class="cls-8" d="M147.08,55.38H80.58A10.34,10.34,0,0,0,70.25,65.71h0V166.25a10.34,10.34,0,0,0,10.33,10.33h83.33a10.33,10.33,0,0,0,10.33-10.33V82.54Z"/><path id="Path_1442-2" data-name="Path 1442" class="cls-8" d="M147.39,64.88H80.89A10.33,10.33,0,0,0,70.56,75.21h0V175.75a10.33,10.33,0,0,0,10.33,10.33h83.33a10.32,10.32,0,0,0,10.32-10.33V92Z"/><path id="Path_1443" data-name="Path 1443" class="cls-9" d="M147.08,72.21a10.34,10.34,0,0,0,10.33,10.33h16.83L147.08,55.38Z"/><rect id="Rectangle_2173" data-name="Rectangle 2173" class="cls-6" x="85.99" y="72.38" width="30.3" height="30.3" rx="1.08"/><path id="Path_1444" data-name="Path 1444" class="cls-10" d="M144,111.1H89a3,3,0,0,0-3,3h0a3,3,0,0,0,3,3h55a3,3,0,0,0,3-3h0A3,3,0,0,0,144,111.1Z"/><path id="Path_1445" data-name="Path 1445" class="cls-10" d="M144,125.86H89a3,3,0,0,0-3,3h0a3,3,0,0,0,3,3h55a3,3,0,0,0,3-3h0A3,3,0,0,0,144,125.86Z"/><path id="Path_1446" data-name="Path 1446" class="cls-10" d="M119,140.19H89a3,3,0,0,0-3,3h0a3,3,0,0,0,3,3h30a3,3,0,0,0,3-3h0A3,3,0,0,0,119,140.19Z"/></g><g id="Group_1359" data-name="Group 1359"><path id="Path_1447" data-name="Path 1447" class="cls-3" d="M183.37,135.1v59.13a7.53,7.53,0,0,1-7.51,7.51H67.6a7.51,7.51,0,0,1-7.49-7.51V135.1l61.63,36.34Z"/><path id="Path_1448" data-name="Path 1448" class="cls-4" d="M181.29,199.39l-39.67-39.67-19.88,11.72-19.89-11.73L62.18,199.39a7.48,7.48,0,0,0,5.42,2.35H175.86A7.48,7.48,0,0,0,181.29,199.39Z"/></g></g></g><g id="Group_1364" data-name="Group 1364"><g id="Group_1363" data-name="Group 1363"><path id="Path_1449" data-name="Path 1449" class="cls-6" d="M195.82,53.93a37.18,37.18,0,0,0-33.18,34.15,36.8,36.8,0,0,0,6.49,23.72,9,9,0,0,1,.86,8.56l-2.93,7,12-3.11a9.08,9.08,0,0,1,5.86.46,37,37,0,1,0,10.94-70.83Z"/><g id="Group_1362" data-name="Group 1362"><path id="Path_1450" data-name="Path 1450" class="cls-8" d="M200.48,109.48l2-2s-1.62-3.81,5.16-10.23c4-3.83,4.93-7.53,4.61-10.55A10.58,10.58,0,0,0,203,77.39c-3-.33-6.73.57-10.55,4.61-6.42,6.77-10.23,5.16-10.23,5.16l-2,2Z"/><path id="Path_1451" data-name="Path 1451" class="cls-8" d="M184.78,97.06a5.61,5.61,0,0,0,7.84,7.84Z"/><path id="Path_1452" data-name="Path 1452" class="cls-8" d="M213.71,79.86l-1.27,1.27a12.15,12.15,0,0,0-3.9-3.88L209.81,76a2.75,2.75,0,0,1,3.9,3.89Z"/></g></g><path id="Path_1453" data-name="Path 1453" class="cls-11" d="M198.57,53.77a32,32,0,1,1-32.69,52.29,37.31,37.31,0,0,0,3.25,5.74,9,9,0,0,1,.86,8.56l-2.93,7,12-3.11a9.08,9.08,0,0,1,5.86.46,37,37,0,1,0,18.37-70.82A38.54,38.54,0,0,0,198.57,53.77Z"/></g><path id="Path_1454" data-name="Path 1454" class="cls-3" d="M5.79,23.06l8.09,18.55a1.88,1.88,0,0,1-1,2.46h0l-.28.12a1.86,1.86,0,0,1-2.45-1h0L2.36,24.53a1.87,1.87,0,0,1,1-2.44l.08,0h0A1.87,1.87,0,0,1,5.79,23.06Z"/></g></g><g id="Group_1367" data-name="Group 1367"><path id="Path_1455" data-name="Path 1455" class="cls-1" d="M37.46,153.61a5.95,5.95,0,1,0,5.94,5.94,5.94,5.94,0,0,0-5.94-5.94Zm0,8.35a2.41,2.41,0,1,1,2.41-2.41h0A2.41,2.41,0,0,1,37.46,162Z"/><path id="Path_1456" data-name="Path 1456" class="cls-1" d="M196.72,177.66a5.95,5.95,0,1,0,5.95,5.94h0a5.94,5.94,0,0,0-5.95-5.94Zm0,8.35a2.41,2.41,0,1,1,2.41-2.41h0a2.41,2.41,0,0,1-2.41,2.41Z"/><path id="Path_1457" data-name="Path 1457" class="cls-1" d="M245.35,85.35a4.55,4.55,0,1,0,4.55,4.55,4.55,4.55,0,0,0-4.55-4.55Zm0,6.39a1.84,1.84,0,1,1,1.84-1.84,1.84,1.84,0,0,1-1.84,1.84Z"/><path id="Path_1458" data-name="Path 1458" class="cls-1" d="M165.22,12.56A4.81,4.81,0,1,0,170,17.37a4.81,4.81,0,0,0-4.81-4.81Zm0,6.76a1.95,1.95,0,1,1,1.95-1.95h0A2,2,0,0,1,165.22,19.32Z"/><path id="Path_1459" data-name="Path 1459" class="cls-1" d="M11.32,124.66a5.06,5.06,0,1,0,5.06,5.06,5.06,5.06,0,0,0-5.06-5.06Z"/><path id="Path_1460" data-name="Path 1460" class="cls-1" d="M214.27,141.41a3.68,3.68,0,1,0,3.68,3.68,3.68,3.68,0,0,0-3.68-3.68Z"/><path id="Path_1461" data-name="Path 1461" class="cls-1" d="M92.43,14.07a5.38,5.38,0,1,0,5.38,5.38,5.38,5.38,0,0,0-5.38-5.38Z"/><path id="Path_1462" data-name="Path 1462" class="cls-1" d="M121.22,208.86a3.92,3.92,0,1,0,3.92,3.91,3.91,3.91,0,0,0-3.92-3.91Z"/><path id="Path_1463" data-name="Path 1463" class="cls-1" d="M197.07,34.81a4.6,4.6,0,1,0,4.6,4.6,4.6,4.6,0,0,0-4.6-4.6Z"/><circle id="Ellipse_345" data-name="Ellipse 345" class="cls-1" cx="34.16" cy="73.18" r="2.62"/><path id="Path_1464" data-name="Path 1464" class="cls-1" d="M246.94,62.41a4.47,4.47,0,1,0,4.46,4.47,4.47,4.47,0,0,0-4.46-4.47Z"/><circle id="Ellipse_346" data-name="Ellipse 346" class="cls-1" cx="8.81" cy="88.9" r="2.85"/><path id="Path_1465" data-name="Path 1465" class="cls-1" d="M128.61,4.51l1.79-1.79A1.59,1.59,0,0,0,128.14.47l-1.79,1.79L124.56.47a1.58,1.58,0,0,0-2.25,0,1.58,1.58,0,0,0,0,2.25l1.79,1.79L122.31,6.3a1.59,1.59,0,0,0,2.25,2.26l1.79-1.79,1.79,1.79A1.6,1.6,0,0,0,130.4,6.3Z"/><path id="Path_1466" data-name="Path 1466" class="cls-1" d="M6.77,58.6l1.79-1.79A1.59,1.59,0,0,0,6.3,54.56L4.51,56.35,2.72,54.56a1.58,1.58,0,0,0-2.25,0,1.58,1.58,0,0,0,0,2.25L2.26,58.6.47,60.39a1.59,1.59,0,0,0,2.25,2.26l1.79-1.79L6.3,62.65a1.6,1.6,0,0,0,2.26-2.26Z"/><path id="Path_1467" data-name="Path 1467" class="cls-1" d="M217.87,167.9l1.52-1.52a1.35,1.35,0,0,0-1.91-1.91L216,166l-1.51-1.52a1.35,1.35,0,0,0-1.92,1.91l1.52,1.52-1.52,1.51a1.35,1.35,0,0,0,1.92,1.91l1.51-1.51,1.52,1.51a1.35,1.35,0,0,0,1.91-1.91Z"/></g></g></g></g></svg>