<svg xmlns="http://www.w3.org/2000/svg" viewBox="0 0 29.17 29.17"><defs><style>.cls-1{fill:#fff;}.cls-2{fill:#4485ed;}</style></defs><title>landlords</title><g id="Layer_2" data-name="Layer 2"><g id="ICON"><path class="cls-1" d="M11.55,0A5.47,5.47,0,0,0,6.08,5.47a5.3,5.3,0,0,0,.07.88l-6,6a.6.6,0,0,0-.18.43v3.65A.61.61,0,0,0,.61,17H4.25a.6.6,0,0,0,.43-.18L5.9,15.62a.62.62,0,0,0,.18-.43v-.6h.6a.65.65,0,0,0,.44-.18l1.21-1.22a.62.62,0,0,0,.18-.43v-.61h.61A.63.63,0,0,0,9.55,12l1.11-1.12a5.55,5.55,0,0,0,.89.08A5.47,5.47,0,0,0,11.55,0Zm1.21,6.08a1.83,1.83,0,1,1,1.83-1.83,1.83,1.83,0,0,1-1.83,1.83Z"/><path class="cls-1" d="M21.88,10.08,19.27,7.47a.6.6,0,0,0-.86,0L8.69,17.2a.58.58,0,0,0-.13.66.6.6,0,0,0,.56.37h1.82V28.56a.61.61,0,0,0,.61.61h4.86a.61.61,0,0,0,.61-.61v-7.9h3.64v7.9a.61.61,0,0,0,.61.61h4.86a.61.61,0,0,0,.61-.61V18.23h1.82a.61.61,0,0,0,.43-1h0l-2.25-2.25Z"/><path class="cls-1" d="M20.66,12.76a1.82,1.82,0,1,1-1.82-1.82,1.82,1.82,0,0,1,1.82,1.82Z"/><path class="cls-2" d="M4.25,17H.61A.61.61,0,0,1,0,16.41V12.76a.6.6,0,0,1,.18-.43l6-6a5.3,5.3,0,0,1-.07-.88,5.47,5.47,0,1,1,5.47,5.47,5.55,5.55,0,0,1-.89-.08L9.55,12a.63.63,0,0,1-.43.17H8.51v.61a.62.62,0,0,1-.18.43L7.12,14.41a.65.65,0,0,1-.44.18h-.6v.6a.62.62,0,0,1-.18.43L4.68,16.84a.6.6,0,0,1-.43.18Zm-3-1.22H4l.86-.86V14a.61.61,0,0,1,.61-.61h1l.86-.86v-1a.61.61,0,0,1,.61-.61h1L10,9.77a.6.6,0,0,1,.57-.16,4.08,4.08,0,0,0,1,.11A4.25,4.25,0,1,0,7.29,5.47a4.12,4.12,0,0,0,.12,1A.63.63,0,0,1,7.25,7l-6,6Z"/><path class="cls-2" d="M12.76,6.08a1.83,1.83,0,1,1,1.83-1.83,1.83,1.83,0,0,1-1.83,1.83Zm0-2.43a.61.61,0,1,0,.61.6.6.6,0,0,0-.61-.6Z"/><path class="cls-2" d="M3,14.59a.61.61,0,0,1-.43-1L7.47,8.69a.61.61,0,0,1,.86.86L3.47,14.41a.61.61,0,0,1-.43.18Z"/><path class="cls-2" d="M26.74,14.94,29,17.2a.58.58,0,0,1,.13.66.6.6,0,0,1-.56.37H26.74V28.56a.61.61,0,0,1-.61.61H21.27a.61.61,0,0,1-.61-.61v-7.9H17v7.9a.61.61,0,0,1-.61.61H11.55a.61.61,0,0,1-.61-.61V18.23H9.12a.63.63,0,0,1-.57-.37.62.62,0,0,1,.14-.67l9.72-9.72a.6.6,0,0,1,.86,0l2.61,2.61Zm-4.68-3L18.84,8.76,10.58,17h1a.6.6,0,0,1,.6.6V28H15.8V20.05a.6.6,0,0,1,.61-.6h4.86a.6.6,0,0,1,.61.6V28h3.64V17.62a.61.61,0,0,1,.61-.6h1l-1.4-1.4"/><path class="cls-2" d="M18.84,14.59a1.83,1.83,0,1,1,1.82-1.83,1.82,1.82,0,0,1-1.82,1.83Zm0-2.44a.62.62,0,0,0-.61.61.61.61,0,1,0,1.22,0,.62.62,0,0,0-.61-.61Z"/><path class="cls-2" d="M21,10.61a.83.83,0,0,1-.22,0,.61.61,0,0,1-.35-.78,4.57,4.57,0,0,0-6.33-5.67.61.61,0,0,1-.55-1.08,5.78,5.78,0,0,1,8,7.17.62.62,0,0,1-.57.39Z"/><path class="cls-2" d="M16.1,14a5.79,5.79,0,0,1-5.26-3.4.61.61,0,1,1,1.11-.5,4.55,4.55,0,0,0,4.15,2.68,4.76,4.76,0,0,0,1.36-.2.61.61,0,1,1,.36,1.16A5.83,5.83,0,0,1,16.1,14Z"/></g></g></svg>