<?xml version="1.0" encoding="utf-8"?>
<!-- Generator: Adobe Illustrator 23.0.0, SVG Export Plug-In . SVG Version: 6.00 Build 0)  -->
<svg version="1.1" id="Layer_1" xmlns="http://www.w3.org/2000/svg" xmlns:xlink="http://www.w3.org/1999/xlink" x="0px" y="0px"
	 viewBox="0 0 512 512" style="enable-background:new 0 0 512 512;" xml:space="preserve">
<style type="text/css">
	.st0{fill:none;}
	.st1{fill:#2C76EC;}
</style>
<g>
	<path class="st0" d="M0,0h512v512H0V0z"/>
	<path class="st1" d="M405.3,64h-89.2c-9-24.7-32.4-42.7-60.2-42.7S204.8,39.3,195.8,64h-89.2C83.2,64,64,83.2,64,106.7v298.7
		c0,23.5,19.2,42.7,42.7,42.7h298.7c23.5,0,42.7-19.2,42.7-42.7V106.7C448,83.2,428.8,64,405.3,64z M256,64
		c11.7,0,21.3,9.6,21.3,21.3s-9.6,21.3-21.3,21.3s-21.3-9.6-21.3-21.3S244.3,64,256,64z M213.3,362.7L128,277.3l30.1-30.1l55.3,55
		l140.6-140.6L384,192L213.3,362.7z"/>
</g>
</svg>
