<svg xmlns="http://www.w3.org/2000/svg" viewBox="0 0 35.11 29.32"><defs><style>.cls-1{fill:#4485ed;}</style></defs><title>listings</title><g id="Layer_2" data-name="Layer 2"><g id="ICON"><path class="cls-1" d="M16.38,5.94,14.17,7.68a.56.56,0,0,0-.22.44v3a.58.58,0,0,0,.32.51.57.57,0,0,0,.6-.07l.29-.23v5.54l-5.3-4.17a1.76,1.76,0,0,0-2.21,0L.22,18.6A.54.54,0,0,0,0,19v3a.57.57,0,0,0,.32.51.53.53,0,0,0,.25.05.57.57,0,0,0,.35-.12l.29-.23v5.89H.57a.56.56,0,0,0-.57.57.57.57,0,0,0,.57.57h34a.58.58,0,0,0,.57-.57.57.57,0,0,0-.57-.57h-.65V11.37l.29.23a.61.61,0,0,0,.36.13.5.5,0,0,0,.24-.06.57.57,0,0,0,.33-.51v-3a.56.56,0,0,0-.22-.44L25.63.38a1.77,1.77,0,0,0-2.2,0L19.94,3.13ZM15.09,8.4l9-7.12a.63.63,0,0,1,.8,0L34,8.4V10L24.88,2.83a.53.53,0,0,0-.35-.13.51.51,0,0,0-.35.13L15.09,10ZM1.14,19.32l7.22-5.69a.63.63,0,0,1,.8,0l6,4.73V20L9.11,15.18a.54.54,0,0,0-.7,0L1.14,20.9ZM2.35,21.4l6.41-5,6.4,5v6.78h-2.5V21.47a.56.56,0,0,0-.57-.57H5.42a.57.57,0,0,0-.57.57v6.71H2.35ZM6,24.46h5.54v1.29H6Zm5.54-1.13H6V22h5.54ZM6,26.89h5.54v1.29H6Zm16.45-3h0a.58.58,0,0,0-.4.17.59.59,0,0,0-.16.4.56.56,0,0,0,.56.57h0v3.11h-2.5V20.82h2.5Zm10.31,4.25H23.58V20.26a.56.56,0,0,0-.57-.57H19.37a.57.57,0,0,0-.57.57v7.92H16.3V10.48L24.53,4l8.22,6.48Z"/><path class="cls-1" d="M26,25.68h3.64a.57.57,0,0,0,.57-.57V20.26a.56.56,0,0,0-.57-.57H26a.56.56,0,0,0-.56.57v4.85a.57.57,0,0,0,.56.57Zm.57-1.14v-1.9h2.51v1.9Zm2.51-3.72v.69H26.61v-.69Z"/><path class="cls-1" d="M26,17.18h3.64a.56.56,0,0,0,.57-.56V11.76a.56.56,0,0,0-.57-.56H26a.56.56,0,0,0-.56.56v4.86a.56.56,0,0,0,.56.56Zm.57-1.13v-1.9h2.51v1.9Zm2.51-3.72V13H26.61v-.68Z"/><path class="cls-1" d="M23,11.2H19.37a.57.57,0,0,0-.57.56v4.86a.57.57,0,0,0,.57.56H23a.56.56,0,0,0,.57-.56V11.76A.56.56,0,0,0,23,11.2Zm-.57,1.13V13h-2.5v-.68Zm-2.5,3.72v-1.9h2.5v1.9Z"/></g></g></svg>