<svg xmlns="http://www.w3.org/2000/svg" viewBox="0 0 67 50.25"><defs><style>.cls-1{fill:#fff;}</style></defs><title>mail</title><g id="Layer_2" data-name="Layer 2"><g id="ICON"><path class="cls-1" d="M58.62,0H8.37A8.37,8.37,0,0,0,0,8.37v33.5a8.38,8.38,0,0,0,8.37,8.38H58.62A8.38,8.38,0,0,0,67,41.87V8.37A8.38,8.38,0,0,0,58.62,0ZM44.84,22.35,62.56,7.16a3.78,3.78,0,0,1,.25,1.21v33.5a4,4,0,0,1-.17.83ZM58.62,4.19a3.46,3.46,0,0,1,.79.16L33.5,26.56,7.59,4.35a3.49,3.49,0,0,1,.78-.16ZM4.35,42.69a4.41,4.41,0,0,1-.16-.82V8.37a4.07,4.07,0,0,1,.24-1.21L22.16,22.34Zm4,3.37a4,4,0,0,1-1.19-.24L25.34,25.07l6.8,5.83a2.07,2.07,0,0,0,2.72,0l6.8-5.83L59.82,45.82a4,4,0,0,1-1.2.24Z"/></g></g></svg>