<svg xmlns="http://www.w3.org/2000/svg" viewBox="0 0 48 44"><defs><style>.cls-1{fill:#4485ed;}</style></defs><title>man-woman</title><g id="Layer_2" data-name="Layer 2"><g id="ICON"><path class="cls-1" d="M32.81,34.31l-7.64-3.82A2.1,2.1,0,0,1,24,28.6V25.9c.18-.23.38-.49.57-.77a18,18,0,0,0,2.37-4.64A3.16,3.16,0,0,0,28.8,17.6V14.4a3.2,3.2,0,0,0-.8-2.1V8a7.22,7.22,0,0,0-1.67-5.22C24.68,1,22,0,18.4,0s-6.28,1-7.93,2.82A7.17,7.17,0,0,0,8.8,8V12.3A3.2,3.2,0,0,0,8,14.4v3.2a3.19,3.19,0,0,0,1.2,2.49A16.68,16.68,0,0,0,12,25.88v2.64a2.11,2.11,0,0,1-1.1,1.86L3.76,34.27A7.22,7.22,0,0,0,0,40.61V44H36.8V40.77a7.19,7.19,0,0,0-4-6.46Z"/><path class="cls-1" d="M44.38,35.22l-7.79-3.37a1.57,1.57,0,0,1-.56-.62h5.22s.3,0,.77,0a8.54,8.54,0,0,0,3.2-.56,2.37,2.37,0,0,0,1-3.55c-1.49-2.12-5-7.67-5.08-13.29,0-.1-.31-9.67-9.77-9.75a11.66,11.66,0,0,0-2.69.33A8.73,8.73,0,0,1,29.2,8.1v3.79A4.35,4.35,0,0,1,30,14.4v3.2a4.39,4.39,0,0,1-2.09,3.73,19.1,19.1,0,0,1-2.36,4.5c-.12.17-.23.33-.35.48V28.6a.89.89,0,0,0,.5.81l7.65,3.82A8.39,8.39,0,0,1,38,40.77V44H48V41a6.49,6.49,0,0,0-3.62-5.82Z"/></g></g></svg>