<svg xmlns="http://www.w3.org/2000/svg" xmlns:xlink="http://www.w3.org/1999/xlink" width="188.666" height="195" viewBox="0 0 188.666 195">
  <defs>
    <linearGradient id="linear-gradient" y1="0.5" x2="0.969" y2="0.5" gradientUnits="objectBoundingBox">
      <stop offset="0" stop-color="#b9b9b9" stop-opacity="0"/>
      <stop offset="0.485" stop-opacity="0.4"/>
      <stop offset="1" stop-color="#878787" stop-opacity="0"/>
    </linearGradient>
    <clipPath id="clip-path">
      <rect id="Rectangle_3" data-name="Rectangle 3" width="64.958" height="49.492" fill="#1ef39e"/>
    </clipPath>
  </defs>
  <g id="Group_6" data-name="Group 6" transform="translate(-265.333 -62)">
    <ellipse id="Ellipse_1" data-name="Ellipse 1" cx="81" cy="3.5" rx="81" ry="3.5" transform="translate(279 244)" fill="url(#linear-gradient)"/>
    <g id="Group_5" data-name="Group 5" transform="translate(265.333 30.52)">
      <path id="Path_12" data-name="Path 12" d="M195.4,158.178,83.748,161.126,42.478,196.869,41,162.968l-21-4.79V48H195.4Z" transform="translate(-12.63 -10.433)" fill="#fff"/>
      <path id="Path_13" data-name="Path 13" d="M173.277,31.48H15.389A15.407,15.407,0,0,0,0,46.869v92.317a15.407,15.407,0,0,0,15.389,15.39h9v37.983a4.387,4.387,0,0,0,7.49,3.1l41.085-41.086H173.276a15.407,15.407,0,0,0,15.389-15.39V46.869A15.406,15.406,0,0,0,173.277,31.48Zm6.614,107.706a6.622,6.622,0,0,1-6.614,6.615H71.141a4.364,4.364,0,0,0-2.945,1.142l-.022.02c-.054.049-.108.1-.159.149L33.16,181.967V150.188a3.186,3.186,0,0,0-.023-.407,4.386,4.386,0,0,0-4.367-3.98H15.389a6.622,6.622,0,0,1-6.614-6.615V46.869a6.622,6.622,0,0,1,6.614-6.614H173.277a6.621,6.621,0,0,1,6.614,6.614v92.317Z"/>
    </g>
    <g id="Group_4" data-name="Group 4" transform="translate(32.667 -293)">
      <g id="Group_3" data-name="Group 3" transform="translate(295 388)">
        <g id="Group_2" data-name="Group 2" clip-path="url(#clip-path)">
          <path id="Path_11" data-name="Path 11" d="M295.736,415.222A2.685,2.685,0,0,1,295,413.48a2.649,2.649,0,0,1,.736-1.726l3.468-3.468a2.391,2.391,0,0,1,3.468,0l.244.254,13.617,14.594a1.187,1.187,0,0,0,1.729,0l33.154-34.4h.254a2.417,2.417,0,0,1,3.468,0l3.458,3.468a2.4,2.4,0,0,1,0,3.468L319.01,436.754a2.41,2.41,0,0,1-3.468,0l-19.311-20.8Zm0,0" transform="translate(-295 -387.998)" fill="#1ef39e"/>
        </g>
      </g>
    </g>
  </g>
</svg>
