<svg xmlns="http://www.w3.org/2000/svg" viewBox="0 0 23.2 29"><defs><style>.cls-1{fill:#4485ed;}</style></defs><title>mobile</title><g id="Layer_2" data-name="Layer 2"><g id="ICON"><path class="cls-1" d="M18.83,11.24l-.65.72,3,2.72a3.37,3.37,0,0,1,1.1,2.49V29h1V17.17A4.36,4.36,0,0,0,21.79,14Z"/><path class="cls-1" d="M15,0H2.42A2.42,2.42,0,0,0,0,2.42V26.59A2.41,2.41,0,0,0,2.42,29H14.5v-.86A11,11,0,0,1,16.35,22a.47.47,0,0,0-.06-.61L12.91,18A1.57,1.57,0,0,1,13,15.71a1.64,1.64,0,0,1,2.17.16L20,20.65l.68-.69L17.4,16.72V2.42A2.41,2.41,0,0,0,15,0Zm1.45,15.75-.57-.56A2.59,2.59,0,0,0,12.41,15a2.54,2.54,0,0,0-.18,3.75l3.1,3.11A12,12,0,0,0,13.54,28H2.42A1.45,1.45,0,0,1,1,26.59V25.14H13.05v-1H1V3.87H16.44Zm0-12.85H1V2.42A1.45,1.45,0,0,1,2.42,1H15a1.45,1.45,0,0,1,1.45,1.45Z"/><path class="cls-1" d="M2.9,8.7H4.83a1,1,0,0,0,1-1V5.8a1,1,0,0,0-1-1H2.9a1,1,0,0,0-1,1V7.73a1,1,0,0,0,1,1Zm0-2.9H4.83V7.73H2.9Z"/><path class="cls-1" d="M7.73,8.7H9.67a1,1,0,0,0,1-1V5.8a1,1,0,0,0-1-1H7.73a1,1,0,0,0-1,1V7.73a1,1,0,0,0,1,1Zm0-2.9H9.67V7.73H7.73Z"/><path class="cls-1" d="M12.57,8.7H14.5a1,1,0,0,0,1-1V5.8a1,1,0,0,0-1-1H12.57a1,1,0,0,0-1,1V7.73a1,1,0,0,0,1,1Zm0-2.9H14.5V7.73H12.57Z"/><path class="cls-1" d="M2.9,13.53H4.83a1,1,0,0,0,1-1V10.63a1,1,0,0,0-1-1H2.9a1,1,0,0,0-1,1v1.94a1,1,0,0,0,1,1Zm0-2.9H4.83v1.94H2.9Z"/><path class="cls-1" d="M2.9,18.37H4.83a1,1,0,0,0,1-1V15.47a1,1,0,0,0-1-1H2.9a1,1,0,0,0-1,1V17.4a1,1,0,0,0,1,1Zm0-2.9H4.83V17.4H2.9Z"/><path class="cls-1" d="M7.73,13.53H9.67a1,1,0,0,0,1-1V10.63a1,1,0,0,0-1-1H7.73a1,1,0,0,0-1,1v1.94a1,1,0,0,0,1,1Zm0-2.9H9.67v1.94H7.73Z"/><path class="cls-1" d="M12.57,13.53H14.5a1,1,0,0,0,1-1V10.63a1,1,0,0,0-1-1H12.57a1,1,0,0,0-1,1v1.94a1,1,0,0,0,1,1Zm0-2.9H14.5v1.94H12.57Z"/><path class="cls-1" d="M7.73,18.37H9.67a1,1,0,0,0,1-1V15.47a1,1,0,0,0-1-1H7.73a1,1,0,0,0-1,1V17.4a1,1,0,0,0,1,1Zm0-2.9H9.67V17.4H7.73Z"/><path class="cls-1" d="M2.9,23.2H4.83a1,1,0,0,0,1-1V20.3a1,1,0,0,0-1-1H2.9a1,1,0,0,0-1,1v1.94a1,1,0,0,0,1,1Zm0-2.9H4.83v1.94H2.9Z"/><path class="cls-1" d="M7.73,23.2H9.67a1,1,0,0,0,1-1V20.3a1,1,0,0,0-1-1H7.73a1,1,0,0,0-1,1v1.94a1,1,0,0,0,1,1Zm0-2.9H9.67v1.94H7.73Z"/><rect class="cls-1" x="8.22" y="26.1" width="0.97" height="0.97"/></g></g></svg>