<svg xmlns="http://www.w3.org/2000/svg" viewBox="0 0 50.97 50.97"><defs><style>.cls-1{fill:#4485ed;}</style></defs><title>no-deposit_1</title><g id="Layer_2" data-name="Layer 2"><g id="ICON"><path class="cls-1" d="M25.49,0A25.49,25.49,0,1,0,51,25.49,25.49,25.49,0,0,0,25.49,0ZM6.37,25.49A19.06,19.06,0,0,1,36.53,9.94l-4.12,4.13,0-.05a8.61,8.61,0,0,0-2-1.32,8.38,8.38,0,0,0-2.67-.81V8.51H24.31v3.3a9.79,9.79,0,0,0-3,.83A7.62,7.62,0,0,0,19,14.23a6.62,6.62,0,0,0-1.44,2.19,6.74,6.74,0,0,0-.5,2.61,6.4,6.4,0,0,0,.55,2.71,7.53,7.53,0,0,0,1.5,2.17A10,10,0,0,0,21,25.43L9.94,36.52A18.91,18.91,0,0,1,6.37,25.49Zm23.7,5.91a2.64,2.64,0,0,1-.65,1.82,3.75,3.75,0,0,1-1.69,1.1V28.44a5.75,5.75,0,0,1,1.81,1.31A2.48,2.48,0,0,1,30.07,31.4ZM21.78,19a2.25,2.25,0,0,1,.69-1.65,4.09,4.09,0,0,1,1.84-1V22a6.79,6.79,0,0,1-1.94-1.36A2.36,2.36,0,0,1,21.78,19Zm2.53,12.13v3.16a5.44,5.44,0,0,1-2-1.16Zm3.42-12.42V16.61a4.33,4.33,0,0,1,1.3.83ZM25.49,44.6a18.93,18.93,0,0,1-11-3.57l4.42-4.42.33.28a10.38,10.38,0,0,0,5.12,2.23v3.34h3.42V39.08a11.13,11.13,0,0,0,2.75-.81,7.68,7.68,0,0,0,2.32-1.53,7.18,7.18,0,0,0,1.6-2.31A7.61,7.61,0,0,0,35,31.36a7,7,0,0,0-.5-2.71A6.33,6.33,0,0,0,33,26.56a11,11,0,0,0-2.3-1.65l-.11-.06L41,14.45A19.06,19.06,0,0,1,25.49,44.6Z"/></g></g></svg>