<svg xmlns="http://www.w3.org/2000/svg" viewBox="0 0 64.12 64.12"><defs><style>.cls-1{fill:#90278e;}.cls-2{fill:#fff;}</style></defs><title>no-deposit</title><g id="Layer_2" data-name="Layer 2"><g id="ICON"><path class="cls-1" d="M63.56,26.11c.19,1-1,2.22-.87,3.24s1.44,2,1.43,3-1.38,2-1.49,3,1,2.25.81,3.25-1.73,1.68-2,2.65.56,2.41.16,3.35-2,1.3-2.53,2.2.09,2.46-.49,3.31-2.25.88-2.91,1.67-.39,2.43-1.12,3.15-2.37.43-3.18,1.07-.86,2.31-1.72,2.87-2.4,0-3.32.43S45,61.41,44,61.8s-2.35-.52-3.34-.23-1.67,1.8-2.69,2-2.22-1-3.24-.87-2,1.44-3,1.43-2-1.38-3-1.49-2.25,1-3.25.81-1.68-1.73-2.65-2-2.41.56-3.35.16-1.3-2-2.2-2.53-2.46.09-3.31-.49-.88-2.25-1.67-2.91-2.43-.39-3.15-1.12-.43-2.37-1.07-3.18-2.31-.86-2.87-1.72,0-2.4-.43-3.32S2.71,45,2.32,44s.52-2.35.23-3.34S.75,39,.56,38s1-2.22.87-3.24-1.44-2-1.43-3,1.38-2,1.49-3S.47,26.5.68,25.5s1.73-1.68,2-2.65-.56-2.41-.16-3.35,2-1.3,2.53-2.2S5,14.84,5.58,14s2.25-.88,2.91-1.67.39-2.43,1.12-3.15S12,8.74,12.79,8.1s.86-2.31,1.72-2.87,2.4,0,3.32-.43,1.29-2.09,2.25-2.48,2.35.52,3.34.23,1.67-1.8,2.69-2,2.22,1,3.24.87,2-1.44,3-1.43,2,1.38,3,1.49,2.25-1,3.25-.81,1.68,1.73,2.65,2,2.41-.56,3.35-.16,1.3,2,2.2,2.53,2.46-.09,3.31.49S51,7.83,51.8,8.49s2.43.39,3.15,1.12S55.37,12,56,12.79s2.31.86,2.87,1.72,0,2.4.43,3.32,2.09,1.29,2.48,2.25-.52,2.35-.23,3.34S63.37,25.09,63.56,26.11Z"/><path class="cls-2" d="M19.41,20l2.32-.43,4.65,6.8.12,0-.14-2.18-.07-5.46,2.07-.39.13,11.43-2.07.39-4.91-7.19-.13,0,.16,2.18L21.6,31l-2.06.39Z"/><path class="cls-2" d="M36.14,28.54a5.66,5.66,0,0,1-2.13,0,5,5,0,0,1-1.85-.73,4.71,4.71,0,0,1-1.39-1.42,5.64,5.64,0,0,1-.8-2,6.68,6.68,0,0,1,0-2.56,6.2,6.2,0,0,1,1-2.29,6.53,6.53,0,0,1,1.81-1.78,7,7,0,0,1,2.59-1,5.77,5.77,0,0,1,2.19,0,4.94,4.94,0,0,1,1.84.76,5.2,5.2,0,0,1,1.37,1.43,5.61,5.61,0,0,1,.76,2,6.63,6.63,0,0,1,0,2.55,6.72,6.72,0,0,1-1,2.29,6.47,6.47,0,0,1-1.82,1.79A6.72,6.72,0,0,1,36.14,28.54Zm-.16-2a4,4,0,0,0,1.59-.66,4.45,4.45,0,0,0,1.18-1.19,4.56,4.56,0,0,0,.66-1.53,4.05,4.05,0,0,0,0-1.7,3.71,3.71,0,0,0-.51-1.32,3.12,3.12,0,0,0-.9-.91,3.29,3.29,0,0,0-1.18-.47,3.41,3.41,0,0,0-1.35,0,4.2,4.2,0,0,0-1.61.67,4.84,4.84,0,0,0-1.18,1.21,4.45,4.45,0,0,0-.64,1.54,4.08,4.08,0,0,0,0,1.67,3.5,3.5,0,0,0,.51,1.32,3.39,3.39,0,0,0,.9.91,3.21,3.21,0,0,0,1.18.47A3.56,3.56,0,0,0,36,26.52Z"/><path class="cls-2" d="M9.6,37.37l2.65-.5a4.72,4.72,0,0,1,1.67,0,3.16,3.16,0,0,1,2.26,1.54,4.22,4.22,0,0,1,.52,1.42,4.51,4.51,0,0,1,0,1.83A4.41,4.41,0,0,1,16,43.3a4.94,4.94,0,0,1-1.37,1.32,5.51,5.51,0,0,1-2,.78L9.7,46Zm2.82,6.53a3.79,3.79,0,0,0,1.31-.49,3.15,3.15,0,0,0,.93-.84,2.82,2.82,0,0,0,.49-1.07,3,3,0,0,0,0-1.23,2.45,2.45,0,0,0-.91-1.62,2.46,2.46,0,0,0-1.89-.26l-1.19.22.06,5.51Z"/><path class="cls-2" d="M19.52,37l0,2,3.33-.63v1.53l-3.32.63v2l3.71-.7v1.53l-5.26,1-.09-8.58,5.26-1v1.53Z"/><path class="cls-2" d="M24.73,43.11l-.09-8.58L27.42,34a2.87,2.87,0,0,1,1,0,2.51,2.51,0,0,1,.9.34,2.21,2.21,0,0,1,.68.65,2.54,2.54,0,0,1,.37.94,3,3,0,0,1,0,1.26,2.54,2.54,0,0,1-.49,1A2.9,2.9,0,0,1,29,39a4.36,4.36,0,0,1-1.26.44l-1.48.28.05,3.15Zm2.93-5.24a1.75,1.75,0,0,0,1-.51,1.13,1.13,0,0,0,.24-1,1.11,1.11,0,0,0-.41-.69,1.08,1.08,0,0,0-.85-.13l-1.4.26,0,2.36Z"/><path class="cls-2" d="M35.66,41.24a4.11,4.11,0,0,1-1.6,0,3.48,3.48,0,0,1-1.38-.55,3.66,3.66,0,0,1-1.05-1.06A4.27,4.27,0,0,1,31,38.12a5,5,0,0,1,0-1.92,4.77,4.77,0,0,1,.72-1.72,4.83,4.83,0,0,1,1.36-1.34,5.23,5.23,0,0,1,1.94-.77,4.31,4.31,0,0,1,1.64,0,3.71,3.71,0,0,1,1.38.58,3.63,3.63,0,0,1,1,1.07,4.06,4.06,0,0,1,.57,1.49,4.91,4.91,0,0,1,0,1.91,4.79,4.79,0,0,1-2.08,3.06A5.07,5.07,0,0,1,35.66,41.24Zm-.12-1.51a3.19,3.19,0,0,0,1.2-.5,3.54,3.54,0,0,0,.88-.89,3.36,3.36,0,0,0,.49-1.15,3.07,3.07,0,0,0,0-1.28,2.57,2.57,0,0,0-.39-1,2.29,2.29,0,0,0-.67-.68,2.49,2.49,0,0,0-.89-.36,2.59,2.59,0,0,0-1,0,3,3,0,0,0-1.22.5,3.46,3.46,0,0,0-.88.91,3.34,3.34,0,0,0-.48,1.15,3.1,3.1,0,0,0,0,1.25,2.74,2.74,0,0,0,.39,1,2.29,2.29,0,0,0,.67.68,2.32,2.32,0,0,0,.89.36A2.8,2.8,0,0,0,35.54,39.73Z"/><path class="cls-2" d="M43.69,39.72a3.45,3.45,0,0,1-1,.05,2.67,2.67,0,0,1-.92-.29,2.47,2.47,0,0,1-.76-.62,2.79,2.79,0,0,1-.54-1L41.84,37a1.76,1.76,0,0,0,.24.56,1.45,1.45,0,0,0,.37.41,1.48,1.48,0,0,0,.51.23,1.61,1.61,0,0,0,.62,0,1.77,1.77,0,0,0,1-.49,1,1,0,0,0-.17-1.54,3.23,3.23,0,0,0-1.15-.39l-.44-.08a4.29,4.29,0,0,1-.7-.2,2.45,2.45,0,0,1-.63-.36A2,2,0,0,1,41,34.6a2.31,2.31,0,0,1-.29-.78,2.16,2.16,0,0,1,0-1,2.35,2.35,0,0,1,.47-.88,3,3,0,0,1,.84-.68,3.7,3.7,0,0,1,1.13-.4,3.32,3.32,0,0,1,1.12,0,2.47,2.47,0,0,1,.83.3,2.3,2.3,0,0,1,.57.49,2.17,2.17,0,0,1,.33.55L44.67,33a1.09,1.09,0,0,0-.49-.55,1.27,1.27,0,0,0-.91-.1,1.63,1.63,0,0,0-.44.15,1.38,1.38,0,0,0-.36.26,1,1,0,0,0-.23.34.94.94,0,0,0,0,.41.83.83,0,0,0,.41.58,3.08,3.08,0,0,0,1,.31l.52.08a3.46,3.46,0,0,1,1.49.59,2.09,2.09,0,0,1,.76,1.34,2.62,2.62,0,0,1,0,1.15,2.7,2.7,0,0,1-.49,1,3.17,3.17,0,0,1-.89.76A3.77,3.77,0,0,1,43.69,39.72Z"/><path class="cls-2" d="M47.58,30.2l1.56-.29.09,8.58-1.56.29Z"/><path class="cls-2" d="M52.67,37.84l-.09-7-2.31.43,0-1.53,6.2-1.17,0,1.53-2.32.44.08,7Z"/></g></g></svg>