<svg xmlns="http://www.w3.org/2000/svg" viewBox="0 0 53.87 48.18"><defs><style>.cls-1{fill:#727272;}</style></defs><title>parking</title><g id="Layer_2" data-name="Layer 2"><g id="ICON"><path class="cls-1" d="M43.22,26.14a2.48,2.48,0,0,0-.65.09l-1.22.33-1.56-3.8a5.53,5.53,0,0,0-4.74-3.18H18.8a5.53,5.53,0,0,0-4.74,3.18l-1.56,3.8-1.2-.33a2.41,2.41,0,0,0-.64-.09,2,2,0,0,0-2,2.1v0a2.57,2.57,0,0,0,2.1,2.53,19.16,19.16,0,0,0-1.18,6v7.91a2.59,2.59,0,0,0,2.58,2.58h1.48a2.59,2.59,0,0,0,2.58-2.58V43.11H37.63v1.65a2.59,2.59,0,0,0,2.58,2.58h1.48a2.59,2.59,0,0,0,2.58-2.58V36.85a19.45,19.45,0,0,0-1.18-6,2.56,2.56,0,0,0,2.12-2.53v0a2,2,0,0,0-2-2.1ZM14.15,29.2l2.49-6.05a3.32,3.32,0,0,1,2.84-1.9H34.37a3.32,3.32,0,0,1,2.84,1.9l2.48,6.05a1.29,1.29,0,0,1-1.27,1.91h-23a1.29,1.29,0,0,1-1.28-1.91Zm6.23,9.09a1,1,0,0,1-1,1h-5a1,1,0,0,1-1-1V36.18a1,1,0,0,1,1-1h5a1,1,0,0,1,1,1Zm20,0a1,1,0,0,1-1,1H34.45a1,1,0,0,1-1-1V36.18a1,1,0,0,1,1-1h4.94a1,1,0,0,1,1,1Z"/><path class="cls-1" d="M49,0H4.83A4.84,4.84,0,0,0,0,4.83V45.49a2.69,2.69,0,1,0,5.37,0V17.08H48.51V45.49a2.68,2.68,0,1,0,5.36,0V4.83A4.83,4.83,0,0,0,49,0ZM5.37,10.91H48.51v.94H5.37Zm0-2.15V8H48.51v.75Zm0,6.17V14H48.51v.94Z"/></g></g></svg>