<svg xmlns="http://www.w3.org/2000/svg" width="37.268" height="44.547" viewBox="0 0 37.268 44.547">
  <path id="Path_4554" data-name="Path 4554" d="M334.381-79a1.216,1.216,0,0,1-.668-.189,1.215,1.215,0,0,1-.563-1.011l-.183-14.772a1.214,1.214,0,0,1,.714-1.121L340.128-99a1.22,1.22,0,0,1,1.154.082,1.215,1.215,0,0,1,.562,1.009l.128,10.251a1.215,1.215,0,0,1-1.2,1.23,1.214,1.214,0,0,1-1.23-1.2l-.1-8.4-4.03,1.821.149,12.117,15.271-6.945-.208-16.652L340.18-112.4l-9.6,13.206.232,18.82a1.212,1.212,0,0,1-.656,1.094,1.22,1.22,0,0,1-1.275-.1l-12.164-8.856a1.211,1.211,0,0,1-.5-.965L316-107.206a1.216,1.216,0,0,1,.283-.793l10.5-12.571a1.215,1.215,0,0,1,1.491-.3l6.75,3.482-.032-2.494a1.217,1.217,0,0,1,.631-1.077l4.426-2.435a1.216,1.216,0,0,1,1.151-.012l2.038,1.068a1.219,1.219,0,0,1,.652,1.061l.065,5.261a1.215,1.215,0,0,1-1.2,1.228,1.212,1.212,0,0,1-1.23-1.2l-.057-4.536-.818-.429-3.216,1.769.046,3.787a1.213,1.213,0,0,1-.578,1.048,1.217,1.217,0,0,1-1.2.046l-7.679-3.964-9.585,11.48.21,16.952,9.71,7.068-.207-16.8a1.219,1.219,0,0,1,.232-.729l10.508-14.46a1.217,1.217,0,0,1,1.641-.309l11.954,7.687a1.221,1.221,0,0,1,.559,1.007l.224,18.1a1.214,1.214,0,0,1-.712,1.119l-17.688,8.044a1.184,1.184,0,0,1-.487.109" transform="translate(-316 123.547)"/>
</svg>
