<svg xmlns="http://www.w3.org/2000/svg" viewBox="0 0 50.28 50.25"><defs><style>.cls-1{fill:#fff;}</style></defs><title>phone</title><g id="Layer_2" data-name="Layer 2"><g id="ICON"><path class="cls-1" d="M50.26,39.66a2.45,2.45,0,0,1-.75,2.12l-7.08,7a3.89,3.89,0,0,1-1.25.91,5.32,5.32,0,0,1-1.52.47l-.32,0a6.21,6.21,0,0,1-.69,0,23.81,23.81,0,0,1-8.81-2,47,47,0,0,1-7.42-4.07,55.19,55.19,0,0,1-8.84-7.46,58.16,58.16,0,0,1-6.17-7,50.13,50.13,0,0,1-3.94-6.2,34,34,0,0,1-2.24-5.17,28.41,28.41,0,0,1-1-4A12.59,12.59,0,0,1,0,11.66c0-.64,0-1,0-1.07A5.08,5.08,0,0,1,.54,9.08a3.93,3.93,0,0,1,.91-1.26L8.53.75A2.32,2.32,0,0,1,10.23,0a1.94,1.94,0,0,1,1.22.4,3.7,3.7,0,0,1,.91,1l5.69,10.81a2.6,2.6,0,0,1,.27,1.86,3.28,3.28,0,0,1-.91,1.71l-2.6,2.6a.87.87,0,0,0-.19.35,1.41,1.41,0,0,0-.08.4,9.39,9.39,0,0,0,1,2.55,22.45,22.45,0,0,0,2,3.12A34.73,34.73,0,0,0,21.25,29a34.85,34.85,0,0,0,4.26,3.81,24.45,24.45,0,0,0,3.11,2,8,8,0,0,0,1.92.77l.66.14a1.44,1.44,0,0,0,.35-.08,1,1,0,0,0,.34-.19l3-3.09a3.29,3.29,0,0,1,2.23-.85,2.82,2.82,0,0,1,1.44.32h0L48.93,37.9a2.72,2.72,0,0,1,1.33,1.76Z"/></g></g></svg>