<svg xmlns="http://www.w3.org/2000/svg" viewBox="0 0 99.67 62.57"><defs><style>.cls-1{fill:#727272;}</style></defs><title>photo-guidelines</title><g id="Layer_2" data-name="Layer 2"><g id="ICON"><path class="cls-1" d="M99.67,4.4V58.17a4.41,4.41,0,0,1-4.4,4.4H4.4A4.41,4.41,0,0,1,0,58.17V4.4A4.4,4.4,0,0,1,4.4,0H95.27A4.4,4.4,0,0,1,99.67,4.4Zm-4.4,53.77V4.4H4.4V58.17H95.27Z"/><path class="cls-1" d="M49.83,13.31a18,18,0,1,0,18,18,18,18,0,0,0-18-18Zm0,4.49a13.37,13.37,0,0,1,7.79,2.52L38.87,39.07a13.44,13.44,0,0,1,11-21.27Zm0,27a13.34,13.34,0,0,1-7.78-2.52L60.8,23.5a13.44,13.44,0,0,1-11,21.26Z"/></g></g></svg>