<svg enable-background="new 0 0 469.333 469.333" version="1.1" viewBox="0 0 469.33 469.33" xmlns="http://www.w3.org/2000/svg">
  <path d="m469.33 146.6c0-21.726-21.889-57.513-55.785-91.165-30.656-30.456-69.27-56.882-93.946-55.378-6.024 0.367-11.218 2.527-15.262 6.551-0.627 0.621-1.276 1.418-1.914 2.261l-0.034-0.029c-0.09 0.111-0.147 0.237-0.237 0.348-0.087 0.121-0.166 0.249-0.254 0.374-14.901 18.616-23.049 41.067-24.368 64.13l-78.724 57.205c-42.179-7.43-84.663 0.883-120.26 23.076-10.393 6.489-16.022 18.654-14.336 31.006 7.008 50.945 29.049 97.136 61.365 134.11l-122.73 132.31c-3.901 4.208-3.787 10.749 0.27 14.8 2.081 2.083 4.807 3.125 7.532 3.125 2.601 0 5.202-0.948 7.251-2.854l132.16-122.86c36.94 32.351 83.078 54.412 133.96 61.424 1.467 0.208 2.923 0.302 4.37 0.302 10.757 0 20.891-5.468 26.602-14.654 16.948-27.236 25.905-58.544 25.905-90.551 0-9.977-1.138-20.118-2.946-30.237l57.154-78.442c23.952-1.432 47.701-10.59 66.644-26.422l-0.172-0.176c0.338-0.296 0.792-0.384 1.116-0.706 3.029-2.999 6.628-8.478 6.628-17.549z" fill="#303C42"/>
  <path d="m322.46 21.156c9.698 0 39.031 12.104 76.583 49.375 42.156 41.823 52.396 73.51 49.26 78.396-4.979 3.385-36.917-6.677-79.344-48.792-42.156-41.823-52.396-73.51-49.26-78.396 0.573-0.385 1.5-0.583 2.761-0.583z" fill="#0288D1"/>
  <path d="m322.46 21.156c9.698 0 39.031 12.104 76.583 49.375 42.156 41.823 52.396 73.51 49.26 78.396-4.979 3.385-36.917-6.677-79.344-48.792-42.156-41.823-52.396-73.51-49.26-78.396 0.573-0.385 1.5-0.583 2.761-0.583z" enable-background="new" opacity=".1"/>
  <g fill="#0288D1">
    <path d="m389.33 170.67c-49.99 0-90.667-40.677-90.667-90.667 0-0.186 0.047-0.366 0.048-0.552h4e-3l-3e-3 -0.01c0.069-10.635 2.112-20.991 5.884-30.828 8.813 19.816 26.163 43.69 49.337 66.672 21.167 21.004 46.051 39.832 67.605 49.125-10.234 4.04-21.047 6.26-32.208 6.26z"/>
    <path d="m279.26 99.018c8.016 46.443 44.521 82.988 90.949 91.047l-47.122 64.602c-56.24-8.021-100.57-52.49-108.45-108.75l64.621-46.899z"/>
    <path d="m297.29 379.4c-1.99 3.198-6.167 5.042-9.99 4.51-104.47-14.385-187.49-97.396-201.87-201.86-0.542-3.896 1.313-8.01 4.5-10 30.939-19.285 67.708-26.656 104.56-20.348 10.184 63.354 59.747 112.97 123.12 123.16 1.449 8.465 2.392 16.935 2.392 25.255-1e-3 28.021-7.855 55.438-22.709 79.282z"/>
  </g>
  <g fill="#fff">
    <path d="m310 91.333c0-0.186 0.047-0.366 0.048-0.552h4e-3l-3e-3 -0.01c0.055-8.432 1.674-16.605 4.09-24.568-3.762-6.095-7.064-12.029-9.539-17.594-3.772 9.837-5.815 20.193-5.884 30.828l3e-3 0.01h-4e-3c-1e-3 0.186-0.048 0.366-0.048 0.552 0 27.884 12.926 52.559 32.796 69.204-13.197-15.75-21.463-35.764-21.463-57.87z" enable-background="new" opacity=".2"/>
    <path d="m225.97 157.25 57.49-41.723c-1.792-5.337-3.224-10.844-4.202-16.509l-64.621 46.898c4.335 30.967 19.973 58.073 42.305 77.784-16.151-18.321-27.417-41.058-30.972-66.45z" enable-background="new" opacity=".2"/>
    <path d="m96.761 193.38c-0.542-3.896 1.313-8.01 4.5-10 28.461-17.741 61.859-25.253 95.712-21.454-0.802-3.423-1.926-6.715-2.49-10.227-36.848-6.309-73.617 1.063-104.56 20.348-3.188 1.99-5.042 6.104-4.5 10 7.574 55.004 34.299 103.93 73.04 140.15-32.569-34.835-54.896-79.357-61.706-128.82z" enable-background="new" opacity=".2"/>
  </g>
  <path d="m469.33 146.6c0-21.726-21.889-57.513-55.785-91.165-30.656-30.456-69.27-56.882-93.946-55.378-6.024 0.367-11.218 2.527-15.262 6.551-0.627 0.621-1.276 1.418-1.914 2.261l-0.034-0.029c-0.09 0.111-0.147 0.237-0.237 0.348-0.087 0.121-0.166 0.249-0.254 0.374-14.901 18.616-23.049 41.067-24.368 64.13l-78.724 57.205c-42.179-7.43-84.663 0.883-120.26 23.076-10.393 6.489-16.022 18.654-14.336 31.006 7.008 50.945 29.049 97.136 61.365 134.11l-122.73 132.31c-3.901 4.208-3.787 10.749 0.27 14.8 4.412 3.9835 10.843 3.8305 14.783 0.271l132.16-122.86c36.94 32.351 83.078 54.412 133.96 61.424 1.467 0.208 2.923 0.302 4.37 0.302 10.757 0 20.891-5.468 26.602-14.654 16.948-27.236 25.905-58.544 25.905-90.551 0-9.977-1.138-20.118-2.946-30.237l57.154-78.442c23.952-1.432 47.701-10.59 66.644-26.422l-0.172-0.176c0.338-0.296 0.792-0.384 1.116-0.706 3.029-2.999 6.628-8.478 6.628-17.549z" fill="#aaa"/>
</svg>
