<svg xmlns="http://www.w3.org/2000/svg" viewBox="0 0 17.23 19.32"><defs><style>.cls-1{fill:#727272;}</style></defs><title>power</title><g id="Layer_2" data-name="Layer 2"><g id="ICON"><path class="cls-1" d="M8.61,19.32A8.62,8.62,0,0,1,2.52,4.61,1.33,1.33,0,1,1,4.4,6.48a6,6,0,1,0,8.43,0,1.33,1.33,0,0,1,0-1.87,1.32,1.32,0,0,1,1.87,0,8.59,8.59,0,0,1,0,12.18,8.52,8.52,0,0,1-6.09,2.53Z"/><path class="cls-1" d="M8.61,9.28A1.32,1.32,0,0,1,7.29,8V1.33a1.33,1.33,0,1,1,2.65,0V8A1.32,1.32,0,0,1,8.61,9.28Z"/></g></g></svg>