<svg xmlns="http://www.w3.org/2000/svg" viewBox="0 0 26.42 49.65"><defs><style>.cls-1{fill:#4485ed;}</style></defs><title>protected-02</title><g id="Layer_2" data-name="Layer 2"><g id="ICON"><path class="cls-1" d="M1.93,8.89l4.61-.08.22,2.4h7.16l3-7.21h6.35V0H10.08A3.54,3.54,0,0,0,7.67,1S3.08,5.48,1.77,6.66c-2.23,2,.16,2.23.16,2.23Z"/><path class="cls-1" d="M24,3.55l2.4-.65V1.35L24,.5Z"/><rect class="cls-1" x="5.61" y="12.01" width="9.61" height="3.2"/><path class="cls-1" d="M19.22,35.53c0-7.31-3.95-9-4.37-9.44a1.87,1.87,0,0,1-.71-1.57c0-.8,1.07-1.4,1.07-2.23,0-1.47-1-1.71-1-2.41,0-1.2.9-1.16.9-2.16a1.7,1.7,0,0,0-.9-1.71S7.54,16,6,16A41.23,41.23,0,0,0,0,36V47c0,2.4,1.17,2.61,1.17,2.61H18.23c1.2,0,1-1.61,1-1.61Z"/><path class="cls-1" d="M26,13.61a14,14,0,0,1-3.7-8.8H18a13.57,13.57,0,0,0,6.51,9.55c1.17.7,1.56.6,1.75.36A.79.79,0,0,0,26,13.61Z"/></g></g></svg>