<svg xmlns="http://www.w3.org/2000/svg" viewBox="0 0 52.65 50.97"><defs><style>.cls-1{fill:#4485ed;}</style></defs><title>protected-03</title><g id="Layer_2" data-name="Layer 2"><g id="ICON"><path class="cls-1" d="M34.62,23.35a5.43,5.43,0,0,1,3.64-.9L52.65,8.06,44.6,0,30.21,14.39a5.4,5.4,0,0,1-.94,3.69Z"/><path class="cls-1" d="M9.53,40.88,9,40.35,6.27,42.56,1.68,49.8,2.85,51l7.25-4.59,2.2-2.72-.52-.53L20.94,34l-2.28-2.25Z"/><path class="cls-1" d="M22,15.5A11.22,11.22,0,0,0,8.29,1.64L14.65,8,13,14.22,6.75,15.9.39,9.54A11.22,11.22,0,0,0,14.72,23.15l0,0L40.93,49.34a5.28,5.28,0,0,0,7.49,0,5.31,5.31,0,0,0,0-7.49Zm23.08,33a2,2,0,1,1,2-2,2,2,0,0,1-2,2Z"/></g></g></svg>