<svg xmlns="http://www.w3.org/2000/svg" viewBox="0 0 50.78 49.65"><defs><style>.cls-1{fill:#4485ed;}</style></defs><title>protected-01</title><g id="Layer_2" data-name="Layer 2"><g id="ICON"><path class="cls-1" d="M20.9,9.91h-.69a1.39,1.39,0,0,0-1.45,1.34v5.67h3.6V11.25A1.4,1.4,0,0,0,20.9,9.91Z"/><path class="cls-1" d="M30.57,9.91h-.69a1.4,1.4,0,0,0-1.46,1.34v5.67H32V11.25a1.4,1.4,0,0,0-1.45-1.34Z"/><path class="cls-1" d="M25.39,0a25.4,25.4,0,0,0-7.9,49.53,2.61,2.61,0,0,0,.76.12A2.44,2.44,0,0,0,19,44.88a20.64,20.64,0,0,1-8.15-5,20.5,20.5,0,1,1,35-14.46,20.35,20.35,0,0,1-6,14.49c-1.49,1.34-5.17,4-7.38,4a3.35,3.35,0,0,1-2.68-1.13c-1.75-2-2.13-5.9-2.12-8.65a8,8,0,0,0,7.62-8V18.5H15.45v7.61a8,8,0,0,0,7.36,8c0,3.28.44,8.65,3.37,11.92a8.27,8.27,0,0,0,6.33,2.76c4.73,0,10.11-4.78,10.71-5.33l.08-.07A25.39,25.39,0,0,0,25.39,0Z"/></g></g></svg>