<svg xmlns="http://www.w3.org/2000/svg" viewBox="0 0 49.01 49.65"><defs><style>.cls-1{fill:#4485ed;}</style></defs><title>protected-04</title><g id="Layer_2" data-name="Layer 2"><g id="ICON"><path class="cls-1" d="M28.17,31.1a6,6,0,0,0,.17-1.16c.34-7.53-3.77-13.7-9.94-17.66-3.67-2.36-7.14.21-8,3.49-2.27-1.81-6.21.9-4.44,3.87l.2.33c-1.77,0-7.44,0-5.85,0,1.87,0,6.37,5.08,6.37,5.08V20.79C8,22.9,9.8,24.88,12.43,25.18a3.89,3.89,0,0,0,3-.89,7.28,7.28,0,0,1,1.65,4.37,20.57,20.57,0,0,0-2.71.13c-3.14.37-5.08,1.06-5.72,4.35-1,5,1.62,8.58,4.41,12.37,2.26,3.08,7.47.09,5.17-3-1.87-2.56-3.76-4.65-3.68-7.62a22.16,22.16,0,0,1,5.52,0A6.29,6.29,0,0,0,23,35.3a33.06,33.06,0,0,0,8.12,13.44c2.7,2.78,6.93-1.47,4.25-4.24a26.54,26.54,0,0,1-7.22-13.4Z"/><path class="cls-1" d="M5.47,6.76a2.46,2.46,0,0,1,0,.26,5.07,5.07,0,0,0,10-1.38A4.82,4.82,0,0,0,15,4c.17-.08.25-.28.19-.69l-.17-1.21A2.47,2.47,0,0,0,12.27,0L6.87.76a2.48,2.48,0,0,0-2.11,2.8l.13,1c-.75.61-1.4,1.37-1.26,2.18s.92.54,1.84,0Z"/><path class="cls-1" d="M19.17,11.4s12.16,6.52,10.72,16.13c-3.15,8,10.6,16.26,18.07-2.22,0,0,9.52-25.31-28.79-13.91Z"/></g></g></svg>