<svg xmlns="http://www.w3.org/2000/svg" viewBox="0 0 50.25 50.25"><defs><style>.cls-1{fill:#fff;}</style></defs><title>rss</title><g id="Layer_2" data-name="Layer 2"><g id="ICON"><path class="cls-1" d="M7.46,50.25a7.46,7.46,0,0,0,0-14.92,7.46,7.46,0,1,0,0,14.92Z"/><path class="cls-1" d="M23.75,48.78c0,.49,0,1-.07,1.47h8.83c0-.49.07-1,.07-1.47A31.28,31.28,0,0,0,1.47,17.67c-.49,0-1,0-1.47.07v8.83c.49,0,1-.07,1.47-.07A22.44,22.44,0,0,1,23.75,48.78Z"/><path class="cls-1" d="M1.47,0C1,0,.49.06,0,.07V8.91c.49,0,1-.08,1.47-.08a40.14,40.14,0,0,1,40,40c0,.49-.06,1-.08,1.47h8.83c0-.5.08-1,.08-1.47A48.92,48.92,0,0,0,1.47,0Z"/></g></g></svg>