<svg xmlns="http://www.w3.org/2000/svg" viewBox="0 0 59.93 51.21"><defs><style>.cls-1{fill:#4485ed;}</style></defs><title>sound</title><g id="Layer_2" data-name="Layer 2"><g id="ICON"><path class="cls-1" d="M25.35,3.71a2.25,2.25,0,0,0-1.62.68l-12,12H2.31a2.25,2.25,0,0,0-1.63.68A2.25,2.25,0,0,0,0,18.69V32.52a2.23,2.23,0,0,0,.68,1.62,2.22,2.22,0,0,0,1.63.69h9.43l12,12a2.25,2.25,0,0,0,1.62.68,2.34,2.34,0,0,0,2.31-2.3V6A2.22,2.22,0,0,0,27,4.39a2.21,2.21,0,0,0-1.62-.68Z"/><path class="cls-1" d="M40,30.7a9.28,9.28,0,0,0,0-10.21,8.26,8.26,0,0,0-4.05-3.35A2.06,2.06,0,0,0,35,17a2.2,2.2,0,0,0-1.62.67,2.18,2.18,0,0,0-.69,1.64,1.9,1.9,0,0,0,.43,1.27,4.17,4.17,0,0,0,1,.9c.41.26.81.53,1.22.83a3.67,3.67,0,0,1,1.05,1.28,5.13,5.13,0,0,1,0,4.11,3.67,3.67,0,0,1-1.05,1.28c-.41.3-.81.57-1.22.82a4.62,4.62,0,0,0-1,.9,1.94,1.94,0,0,0-.43,1.28,2.18,2.18,0,0,0,.69,1.64,2.2,2.2,0,0,0,1.62.67,2.06,2.06,0,0,0,.9-.18A8.51,8.51,0,0,0,40,30.7Z"/><path class="cls-1" d="M47.65,35.78a18.45,18.45,0,0,0,0-20.35,17.8,17.8,0,0,0-8.11-6.79,2.56,2.56,0,0,0-.93-.18,2.36,2.36,0,0,0-2.31,2.31,2.28,2.28,0,0,0,1.41,2.12,22.83,22.83,0,0,1,2.73,1.59A13.78,13.78,0,0,1,46.1,25.6a13.78,13.78,0,0,1-5.66,11.13,22.83,22.83,0,0,1-2.73,1.59,2.28,2.28,0,0,0-1.41,2.12A2.19,2.19,0,0,0,37,42.06a2.22,2.22,0,0,0,1.65.69,2.49,2.49,0,0,0,.9-.18,17.8,17.8,0,0,0,8.11-6.79Z"/><path class="cls-1" d="M55.35,10.39A27.21,27.21,0,0,0,43.18.18,2.56,2.56,0,0,0,42.25,0a2.25,2.25,0,0,0-1.63.68,2.25,2.25,0,0,0-.68,1.63,2.44,2.44,0,0,0,1.4,2.12,8.46,8.46,0,0,0,.81.38,5.36,5.36,0,0,1,.81.38,26.59,26.59,0,0,1,3,1.83,22.93,22.93,0,0,1,6.91,8.18,23,23,0,0,1,0,20.81,22.93,22.93,0,0,1-6.91,8.18A28.16,28.16,0,0,1,43,46a5.36,5.36,0,0,1-.81.38,8.46,8.46,0,0,0-.81.38,2.44,2.44,0,0,0-1.4,2.12,2.34,2.34,0,0,0,2.31,2.31,2.56,2.56,0,0,0,.93-.18A27.15,27.15,0,0,0,55.35,40.82,27.05,27.05,0,0,0,59.93,25.6a27,27,0,0,0-4.58-15.21Z"/></g></g></svg>