<svg xmlns="http://www.w3.org/2000/svg" style="display: none;">
  <symbol id="social" viewBox="0 0 470.513 470.513">
    <title>facebook</title>
    <path
      d="M271.521,154.17v-40.541c0-6.086,0.28-10.8,0.849-14.13c0.567-3.335,1.857-6.615,3.859-9.853 c1.999-3.236,5.236-5.47,9.706-6.708c4.476-1.24,10.424-1.858,17.85-1.858h40.539V0h-64.809c-37.5,0-64.433,8.897-80.803,26.691 c-16.368,17.798-24.551,44.014-24.551,78.658v48.82h-48.542v81.086h48.539v235.256h97.362V235.256h64.805l8.566-81.086H271.521z"
    />
  </symbol>

  <symbol viewBox="0 0 512 512" id="instagram">
    <title>instagram</title>
    <g>
	<g>
		<path d="M352,0H160C71.648,0,0,71.648,0,160v192c0,88.352,71.648,160,160,160h192c88.352,0,160-71.648,160-160V160
			C512,71.648,440.352,0,352,0z M464,352c0,61.76-50.24,112-112,112H160c-61.76,0-112-50.24-112-112V160C48,98.24,98.24,48,160,48
			h192c61.76,0,112,50.24,112,112V352z"/>
	</g>
</g>
<g>
	<g>
		<path d="M256,128c-70.688,0-128,57.312-128,128s57.312,128,128,128s128-57.312,128-128S326.688,128,256,128z M256,336
			c-44.096,0-80-35.904-80-80c0-44.128,35.904-80,80-80s80,35.872,80,80C336,300.096,300.096,336,256,336z"/>
	</g>
</g>
<g>
	<g>
		<circle cx="393.6" cy="118.4" r="17.056"/>
	</g>
</g>
<g>
</g>
<g>
</g>
<g>
</g>
<g>
</g>
<g>
</g>
<g>
</g>
<g>
</g>
<g>
</g>
<g>
</g>
<g>
</g>
<g>
</g>
<g>
</g>
<g>
</g>
<g>
</g>
<g>
</g>
  </symbol>

  <symbol viewBox="0 0 24 24" id="linkedin">
    <title>linkedin</title>

    <path d="m23.994 24v-.001h.006v-8.802c0-4.306-.927-7.623-5.961-7.623-2.42 0-4.044 1.328-4.707 2.587h-.07v-2.185h-4.773v16.023h4.97v-7.934c0-2.089.396-4.109 2.983-4.109 2.549 0 2.587 2.384 2.587 4.243v7.801z"/>
<path d="m.396 7.977h4.976v16.023h-4.976z"/><path d="m2.882 0c-1.591 0-2.882 1.291-2.882 2.882s1.291 2.909 2.882 2.909 2.882-1.318 2.882-2.909c-.001-1.591-1.292-2.882-2.882-2.882z"/>

  </symbol>
  <symbol viewBox="0 0 448 512" id="userIcon">
    <title>userIcon</title>
    <path fill="currentColor" d="M224 256c70.7 0 128-57.3 128-128S294.7 0 224 0 96 57.3 96 128s57.3 128 128 128zm89.6 32h-16.7c-22.2 10.2-46.9 16-72.9 16s-50.6-5.8-72.9-16h-16.7C60.2 288 0 348.2 0 422.4V464c0 26.5 21.5 48 48 48h352c26.5 0 48-21.5 48-48v-41.6c0-74.2-60.2-134.4-134.4-134.4z"></path>

   
  </symbol>
  <symbol viewBox="0 0 576 512" id="addressCard">
    <title>addressCard</title>
<path fill="currentColor" d="M528 32H48C21.5 32 0 53.5 0 80v352c0 26.5 21.5 48 48 48h480c26.5 0 48-21.5 48-48V80c0-26.5-21.5-48-48-48zm-352 96c35.3 0 64 28.7 64 64s-28.7 64-64 64-64-28.7-64-64 28.7-64 64-64zm112 236.8c0 10.6-10 19.2-22.4 19.2H86.4C74 384 64 375.4 64 364.8v-19.2c0-31.8 30.1-57.6 67.2-57.6h5c12.3 5.1 25.7 8 39.8 8s27.6-2.9 39.8-8h5c37.1 0 67.2 25.8 67.2 57.6v19.2zM512 312c0 4.4-3.6 8-8 8H360c-4.4 0-8-3.6-8-8v-16c0-4.4 3.6-8 8-8h144c4.4 0 8 3.6 8 8v16zm0-64c0 4.4-3.6 8-8 8H360c-4.4 0-8-3.6-8-8v-16c0-4.4 3.6-8 8-8h144c4.4 0 8 3.6 8 8v16zm0-64c0 4.4-3.6 8-8 8H360c-4.4 0-8-3.6-8-8v-16c0-4.4 3.6-8 8-8h144c4.4 0 8 3.6 8 8v16z"></path>


   
  </symbol>
<symbol viewBox="0 0 512 512" id="envelop">
    <title>envelop</title>
<path fill="currentColor" d="M502.3 190.8c3.9-3.1 9.7-.2 9.7 4.7V400c0 26.5-21.5 48-48 48H48c-26.5 0-48-21.5-48-48V195.6c0-5 5.7-7.8 9.7-4.7 22.4 17.4 52.1 39.5 154.1 113.6 21.1 15.4 56.7 47.8 92.2 47.6 35.7.3 72-32.8 92.3-47.6 102-74.1 131.6-96.3 154-113.7zM256 320c23.2.4 56.6-29.2 73.4-41.4 132.7-96.3 142.8-104.7 173.4-128.7 5.8-4.5 9.2-11.5 9.2-18.9v-19c0-26.5-21.5-48-48-48H48C21.5 64 0 85.5 0 112v19c0 7.4 3.4 14.3 9.2 18.9 30.6 23.9 40.7 32.4 173.4 128.7 16.8 12.2 50.2 41.8 73.4 41.4z"></path>
   
   
  </symbol>
  <symbol viewBox="0 0 448 512" id="facebookSq">
    <title>facebookSq</title>
    <path fill="currentColor" d="M400 32H48A48 48 0 0 0 0 80v352a48 48 0 0 0 48 48h137.25V327.69h-63V256h63v-54.64c0-62.15 37-96.48 93.67-96.48 27.14 0 55.52 4.84 55.52 4.84v61h-31.27c-30.81 0-40.42 19.12-40.42 38.73V256h68.78l-11 71.69h-57.78V480H400a48 48 0 0 0 48-48V80a48 48 0 0 0-48-48z"></path>


   
  </symbol>
  <symbol viewBox="0 0 448 512" id="shareIcon">
    <title>shareIcon</title>

<path fill="currentColor" d="M352 320c-22.608 0-43.387 7.819-59.79 20.895l-102.486-64.054a96.551 96.551 0 0 0 0-41.683l102.486-64.054C308.613 184.181 329.392 192 352 192c53.019 0 96-42.981 96-96S405.019 0 352 0s-96 42.981-96 96c0 7.158.79 14.13 2.276 20.841L155.79 180.895C139.387 167.819 118.608 160 96 160c-53.019 0-96 42.981-96 96s42.981 96 96 96c22.608 0 43.387-7.819 59.79-20.895l102.486 64.054A96.301 96.301 0 0 0 256 416c0 53.019 42.981 96 96 96s96-42.981 96-96-42.981-96-96-96z"></path>

   
  </symbol>
  <symbol viewBox="0 0 448 512" id="whatsApp">
    <title>whatsApp</title>

<path fill="currentColor" d="M380.9 97.1C339 55.1 283.2 32 223.9 32c-122.4 0-222 99.6-222 222 0 39.1 10.2 77.3 29.6 111L0 480l117.7-30.9c32.4 17.7 68.9 27 106.1 27h.1c122.3 0 224.1-99.6 224.1-222 0-59.3-25.2-115-67.1-157zm-157 341.6c-33.2 0-65.7-8.9-94-25.7l-6.7-4-69.8 18.3L72 359.2l-4.4-7c-18.5-29.4-28.2-63.3-28.2-98.2 0-101.7 82.8-184.5 184.6-184.5 49.3 0 95.6 19.2 130.4 54.1 34.8 34.9 56.2 81.2 56.1 130.5 0 101.8-84.9 184.6-186.6 184.6zm101.2-138.2c-5.5-2.8-32.8-16.2-37.9-18-5.1-1.9-8.8-2.8-12.5 2.8-3.7 5.6-14.3 18-17.6 21.8-3.2 3.7-6.5 4.2-12 1.4-32.6-16.3-54-29.1-75.5-66-5.7-9.8 5.7-9.1 16.3-30.3 1.8-3.7.9-6.9-.5-9.7-1.4-2.8-12.5-30.1-17.1-41.2-4.5-10.8-9.1-9.3-12.5-9.5-3.2-.2-6.9-.2-10.6-.2-3.7 0-9.7 1.4-14.8 6.9-5.1 5.6-19.4 19-19.4 46.3 0 27.3 19.9 53.7 22.6 57.4 2.8 3.7 39.1 59.7 94.8 83.8 35.2 15.2 49 16.5 66.6 13.9 10.7-1.6 32.8-13.4 37.4-26.4 4.6-13 4.6-24.1 3.2-26.4-1.3-2.5-5-3.9-10.5-6.6z"></path>

   
  </symbol>
  <symbol viewBox="0 0 512 512" id="penNib">
    <title>penNib</title>

<path fill="currentColor" d="M136.6 138.79a64.003 64.003 0 0 0-43.31 41.35L0 460l14.69 14.69L164.8 324.58c-2.99-6.26-4.8-13.18-4.8-20.58 0-26.51 21.49-48 48-48s48 21.49 48 48-21.49 48-48 48c-7.4 0-14.32-1.81-20.58-4.8L37.31 497.31 52 512l279.86-93.29a64.003 64.003 0 0 0 41.35-43.31L416 224 288 96l-151.4 42.79zm361.34-64.62l-60.11-60.11c-18.75-18.75-49.16-18.75-67.91 0l-56.55 56.55 128.02 128.02 56.55-56.55c18.75-18.75 18.75-49.15 0-67.91z"></path>

   
  </symbol>
  <symbol viewBox="0 0 512 512" id="commentIcon">
    <title>commentIcon</title>

<path fill="currentColor" d="M448 0H64C28.7 0 0 28.7 0 64v288c0 35.3 28.7 64 64 64h96v84c0 7.1 5.8 12 12 12 2.4 0 4.9-.7 7.1-2.4L304 416h144c35.3 0 64-28.7 64-64V64c0-35.3-28.7-64-64-64zm16 352c0 8.8-7.2 16-16 16H288l-12.8 9.6L208 428v-60H64c-8.8 0-16-7.2-16-16V64c0-8.8 7.2-16 16-16h384c8.8 0 16 7.2 16 16v288z"></path>

   
  </symbol>
  <symbol viewBox="0 0 36 36" id="highrise">
    <title>highrise</title>
    <path id="prefix__Path_5211" fill="none" d="M0 0h36v36H0z" data-name="Path 5211"/>
    <path id="prefix__Path_5212" d="M17 9V3H2v27h30V9zM8 27H5v-3h3zm0-6H5v-3h3zm0-6H5v-3h3zm0-6H5V6h3zm6 18h-3v-3h3zm0-6h-3v-3h3zm0-6h-3v-3h3zm0-6h-3V6h3zm15 18H17v-3h3v-3h-3v-3h3v-3h-3v-3h12zm-3-12h-3v3h3zm0 6h-3v3h3z" data-name="Path 5212" transform="translate(1 1.5)"/>
  </symbol>

  <symbol viewBox="0 0 36 36" id="bathtub">
    <title>bathtub</title>
      <g id="prefix__Group_2634" data-name="Group 2634">
        <path id="prefix__Rectangle_3513" fill="none" d="M0 0H36V36H0z" data-name="Rectangle 3513"/>
    </g>
    <g id="prefix__Group_2638" data-name="Group 2638" transform="translate(3 3)">
        <g id="prefix__Group_2637" data-name="Group 2637">
            <g id="prefix__Group_2635" data-name="Group 2635" transform="translate(4.5 4.5)">
                <circle id="prefix__Ellipse_753" cx="3" cy="3" r="3" data-name="Ellipse 753"/>
            </g>
            <g id="prefix__Group_2636" data-name="Group 2636">
                <path id="prefix__Path_5210" d="M29 18.5V6.245a4.243 4.243 0 0 0-7.245-3L19.88 5.12a2.552 2.552 0 0 0-.765-.12 2.979 2.979 0 0 0-1.62.48l4.14 4.14a2.979 2.979 0 0 0 .48-1.62 3.244 3.244 0 0 0-.1-.765l1.87-1.875A1.241 1.241 0 0 1 26 6.245V18.5H15.725a7.648 7.648 0 0 1-1.23-1.08l-2.1-2.325a3.218 3.218 0 0 0-1.035-.75A3.437 3.437 0 0 0 9.86 14a3.377 3.377 0 0 0-3.36 3.375V18.5H2v9a3.009 3.009 0 0 0 3 3A1.5 1.5 0 0 0 6.5 32h21a1.5 1.5 0 0 0 1.5-1.5 3.009 3.009 0 0 0 3-3v-9z" data-name="Path 5210" transform="translate(-2 -2)"/>
            </g>
        </g>
    </g>
  </symbol>

  <symbol viewBox="0 0 36 36" id="weekend">
    <title>weekend</title>
      <path id="prefix__Rectangle_3514" fill="none" d="M0 0H36V36H0z" data-name="Rectangle 3514"/>
      <path id="prefix__Path_5219" fill="" d="M31 12.5a3.009 3.009 0 0 0-3 3V20H7v-4.5a3 3 0 0 0-6 0V23a3.009 3.009 0 0 0 3 3h27a3.009 3.009 0 0 0 3-3v-7.5a3.009 3.009 0 0 0-3-3zM26.5 5h-18a3.009 3.009 0 0 0-3 3v3.225a4.5 4.5 0 0 1 3 4.215v3.06h18v-3.045a4.481 4.481 0 0 1 3-4.215V8a3.009 3.009 0 0 0-3-3z" data-name="Path 5219" transform="translate(.5 2.5)"/>
  </symbol>

  <symbol viewBox="0 0 36 36" id="directionCar">
    <title>directionCar</title>
     <path id="prefix__Path_5213" d="M26.88 6.515A2.241 2.241 0 0 0 24.75 5H8.25a2.256 2.256 0 0 0-2.13 1.515L3 15.5v12A1.5 1.5 0 0 0 4.5 29H6a1.5 1.5 0 0 0 1.5-1.5V26h18v1.5A1.5 1.5 0 0 0 27 29h1.5a1.5 1.5 0 0 0 1.5-1.5v-12zM8.25 21.5a2.25 2.25 0 1 1 2.25-2.25 2.247 2.247 0 0 1-2.25 2.25zm16.5 0A2.25 2.25 0 1 1 27 19.25a2.247 2.247 0 0 1-2.25 2.25zM6 14l2.25-6.75h16.5L27 14z" data-name="Path 5213" transform="translate(1.5 2.5)"/>
    <path id="prefix__Path_5214" fill="none" d="M0 0h36v36H0z" data-name="Path 5214"/>
  </symbol>

  <symbol viewBox="0 0 36 36" id="detailsHotel">
    <title>detailsHotel</title>
    <path id="prefix__Path_5215" fill="none" d="M0 0h36v36H0z" data-name="Path 5215"/>
    <path id="prefix__Path_5216" d="M10 17a4.5 4.5 0 1 0-4.5-4.5A4.494 4.494 0 0 0 10 17zm18-9H16v10.5H4V5H1v22.5h3V23h27v4.5h3V14a6 6 0 0 0-6-6z" data-name="Path 5216" transform="translate(.5 2.5)"/>
  </symbol>

  <symbol viewBox="0 0 36 36" id="straighten">
    <title>straighten</title>
   <path id="prefix__Path_5208" fill="none" d="M0 0h36v36H0z" data-name="Path 5208"/>
    <path id="prefix__Path_5209" d="M31 6H4a3.009 3.009 0 0 0-3 3v12a3.009 3.009 0 0 0 3 3h27a3.009 3.009 0 0 0 3-3V9a3.009 3.009 0 0 0-3-3zm0 15H4V9h3v6h3V9h3v6h3V9h3v6h3V9h3v6h3V9h3z" data-name="Path 5209" transform="translate(.5 3)"/>
  </symbol>
  <symbol viewBox="0 0 36 36" id="chatIcon">
    <title>chatIcon</title>
  <path id="prefix__Path_5254" d="M29 2H5a3 3 0 0 0-2.985 3L2 32l6-6h21a3.009 3.009 0 0 0 3-3V5a3.009 3.009 0 0 0-3-3zM8 12.5h18v3H8zM20 20H8v-3h12zm6-9H8V8h18z" data-name="Path 5254" transform="translate(1 1)"/>
    <path id="prefix__Path_5255" fill="none" d="M0 0h36v36H0z" data-name="Path 5255"/>
  
  </symbol>
  <symbol viewBox="0 0 36 36" id="thumbUp">
    <title>thumbUp</title>
    <path id="prefix__Path_5328" fill="none" d="M0 0h36v36H0z" data-name="Path 5328"/>
    <path id="prefix__Path_5329" d="M1 31h6V13H1zm33-16.5a3.009 3.009 0 0 0-3-3h-9.465l1.425-6.855.045-.48a2.258 2.258 0 0 0-.66-1.59L20.755 1l-9.87 9.885A2.933 2.933 0 0 0 10 13v15a3.009 3.009 0 0 0 3 3h13.5a2.98 2.98 0 0 0 2.76-1.83l4.53-10.57a2.964 2.964 0 0 0 .21-1.1z" data-name="Path 5329" transform="translate(.5 .5)"/>
  </symbol>
  <symbol viewBox="0 0 36 36" id="todayIcon">
    <title>todayIcon</title>
  <path id="prefix__Path_5330" fill="none" d="M0 0h36v36H0z" data-name="Path 5330"/>
    <path id="prefix__Path_5331" d="M27 4h-1.5V1h-3v3h-12V1h-3v3H6a2.986 2.986 0 0 0-2.985 3L3 28a3 3 0 0 0 3 3h21a3.009 3.009 0 0 0 3-3V7a3.009 3.009 0 0 0-3-3zm0 24H6V11.5h21zM9 14.5h7.5V22H9z" data-name="Path 5331" transform="translate(1.5 .5)"/>
  </symbol>
  

</svg>

