<svg xmlns="http://www.w3.org/2000/svg" viewBox="0 0 35.79 28.57"><defs><style>.cls-1{fill:#fff;}.cls-2{fill:#ff4c4c;}.cls-3{fill:#4485ed;}</style></defs><title>support</title><g id="Layer_2" data-name="Layer 2"><g id="ICON"><path class="cls-1" d="M12.05,3,4.3,10.31l0,11.1a.53.53,0,0,0,.53.53l14.46,0a.53.53,0,0,0,.53-.53l0-11.1Z"/><path class="cls-1" d="M22.55,12.57a1.09,1.09,0,0,1-.73-.29L12.05,3.13,2.31,12.31A1.07,1.07,0,0,1,.84,10.76L11.32.89a1.06,1.06,0,0,1,1.46,0l10.5,9.83a1.07,1.07,0,0,1-.73,1.85Z"/><path class="cls-1" d="M14.06,12.16h-4a.33.33,0,0,0-.33.33v9.43h4.66V12.5A.35.35,0,0,0,14.06,12.16Z"/><path class="cls-1" d="M27.91,7.33V4.84A4.33,4.33,0,0,0,23.58.51h-3.5a4.33,4.33,0,0,0-4.33,4.33V7.33s-.17.17-.17.3V9a.68.68,0,0,0,.68.68H17v.27a5.23,5.23,0,0,0,2.48,4v1.38a.3.3,0,0,1-.21.29l-1.74.87.23.23a5.82,5.82,0,0,0,8.21,0l.23-.23-1.75-.87a.31.31,0,0,1-.21-.29V14a5.23,5.23,0,0,0,2.48-4V9.65h.72A.69.69,0,0,0,28.09,9V7.63C28.09,7.5,27.91,7.33,27.91,7.33Z"/><path class="cls-1" d="M17,9.92a5.13,5.13,0,0,0,3.49,4.47,4.17,4.17,0,0,0,2.68,0h.05a5.14,5.14,0,0,0,3.5-4.48V2.66H17Z"/><path class="cls-1" d="M32.36,17.94l-5.7-2a.32.32,0,0,0-.33.08l-.39.39a5.81,5.81,0,0,1-8.22,0L17.33,16a.31.31,0,0,0-.33-.08l-5.7,2a4,4,0,0,0-2.67,3.53l-.25,5.66a.88.88,0,0,0,.88.93H34.41a.88.88,0,0,0,.87-.93L35,21.47A4,4,0,0,0,32.36,17.94Z"/><path class="cls-2" d="M23.66,17.81h0a5.88,5.88,0,0,1-3.57,0H20l.82,2.9h2Z"/><path class="cls-3" d="M21.83.51H20.08a4.33,4.33,0,0,0-4.33,4.33V7.33H16a1,1,0,0,0,1-1V5.68l.57.17a15.27,15.27,0,0,0,8.58,0l.57-.17v.63a1,1,0,0,0,1,1h.19V4.84A4.33,4.33,0,0,0,23.58.51Z"/><path class="cls-1" d="M22.84,20.71h0l.82-2.9h0a5.88,5.88,0,0,1-3.57,0H20l.82,2.9h0L20,28.06h3.66Z"/><path class="cls-1" d="M23.66,17.81h0a5.88,5.88,0,0,1-3.57,0H20l.82,2.9h2Z"/><path class="cls-1" d="M17.62,16.29,17.33,16a.31.31,0,0,0-.33-.08l-.7.25-.75.27,2.91,3.65a.38.38,0,0,0,.53.07l2.84-2.07h0a5.8,5.8,0,0,1-4.11-1.7Z"/><path class="cls-1" d="M21.83,18.09h0l2.84,2.07a.38.38,0,0,0,.54-.07l2.91-3.65-1.46-.52a.32.32,0,0,0-.33.08l-.39.39a5.76,5.76,0,0,1-3,1.59l-.27.05A5.93,5.93,0,0,1,21.83,18.09Z"/><path class="cls-3" d="M3.87,7.21.49,10.39a1.57,1.57,0,0,0-.06,2.22,1.59,1.59,0,0,0,1.1.5h.05a1.53,1.53,0,0,0,1.07-.43L3.8,11.6v3.57a.51.51,0,0,0,.51.51h0a.51.51,0,0,0,.51-.51V10.64l7.24-6.82,3.19,3v.33a.87.87,0,0,0-.17.49V9a1.19,1.19,0,0,0,1.19,1.19h.21c0,.05,0,.1,0,.15v0s0,.08,0,.13l0,.07s0,.07,0,.1,0,.12,0,.17v0l0,.12v0A5.93,5.93,0,0,0,17,12v0c.06.12.13.24.2.36l0,.05a.31.31,0,0,0,.05.1l.05.07.05.08.1.14.05.06a.76.76,0,0,0,.08.11l0,0,.11.14h0l.12.14,0,0a.94.94,0,0,1,.1.1l0,0,.12.11a.46.46,0,0,0,.07.07l.07.07.08.07,0,0a5.45,5.45,0,0,0,.47.37v1l-1.12.56-.13-.13a.85.85,0,0,0-.86-.2l-1.92.68V12.5a.85.85,0,0,0-.84-.85h-4a.86.86,0,0,0-.6.25.83.83,0,0,0-.24.6v6.23l0,.05-.06.08,0,0L9,19,9,19l-.06.08,0,.06-.06.08,0,0a.41.41,0,0,0-.05.09.1.1,0,0,1,0,.05l0,.09,0,.06s0,0,0,.08l0,.06,0,.09,0,.06a.36.36,0,0,1,0,.09s0,0,0,.06l0,.09s0,.05,0,.07l0,.09a.14.14,0,0,0,0,.07l0,.08s0,0,0,.08l0,.08s0,0,0,.08a.29.29,0,0,0,0,.09s0,.05,0,.07a.29.29,0,0,1,0,.09.22.22,0,0,1,0,.08s0,.06,0,.08a.28.28,0,0,0,0,.09s0,.05,0,.08,0,.06,0,.08a.19.19,0,0,1,0,.08H4.85a0,0,0,0,1,0,0V18.34a.5.5,0,0,0-.51-.51h0a.5.5,0,0,0-.5.51v3.07a1,1,0,0,0,1,1H8.08l-.2,4.66a1.36,1.36,0,0,0,.37,1,1.39,1.39,0,0,0,1,.44H34.4a1.37,1.37,0,0,0,1-.44,1.41,1.41,0,0,0,.38-1l0-.55a.51.51,0,0,0-.53-.49.5.5,0,0,0-.48.53l0,.56h0a.38.38,0,0,1-.36.39h-3V22.69a.51.51,0,0,0-1,0v4.86H24.12l-.76-6.8.21-.76.8.58a.89.89,0,0,0,.53.18.91.91,0,0,0,.71-.34L28.29,17l3.9,1.38a3.5,3.5,0,0,1,2.33,3.08l.09,1.92a.51.51,0,0,0,1-.05l-.08-1.92h0a4.53,4.53,0,0,0-3-4l-5.7-2-.11,0h-.06a.85.85,0,0,0-.69.24l-.13.13-1.12-.56v-1a6.21,6.21,0,0,0,1-.83h0a5.74,5.74,0,0,0,1.45-2.76l0-.08a.22.22,0,0,1,0-.08s0-.09,0-.13v0a.71.71,0,0,0,0-.14h.21A1.2,1.2,0,0,0,28.6,9V7.63a.88.88,0,0,0-.18-.49V4.84a4.43,4.43,0,0,0-.1-1A4.84,4.84,0,0,0,23.58,0h-3.5a4.85,4.85,0,0,0-4.42,2.88L13.13.51A1.59,1.59,0,0,0,11,.52l-3.2,3ZM15.31,4.05s0,.06,0,.09,0,.09,0,.14,0,.06,0,.09a.76.76,0,0,1,0,.15v.09a1.69,1.69,0,0,0,0,.23v.58L12.4,2.75a.52.52,0,0,0-.7,0L2,11.94a.59.59,0,0,1-.4.15.57.57,0,0,1-.39-.18.54.54,0,0,1-.15-.4.56.56,0,0,1,.17-.38L11.67,1.26a.56.56,0,0,1,.76,0L15.32,4S15.31,4,15.31,4.05ZM27.58,9a.18.18,0,0,1-.18.17h-.2V7.75a1.24,1.24,0,0,0,.38.09Zm-11.12.17h-.2A.17.17,0,0,1,16.09,9V7.84a1.54,1.54,0,0,0,.37-.09V9.14Zm.82-3.9-.17,0h0a.51.51,0,0,0-.4.09.5.5,0,0,0-.19.29.5.5,0,0,0,0,.12v.63a.48.48,0,0,1-.15.36s0,0,0,0V4.84a1.7,1.7,0,0,1,0-.22V4.55s0-.09,0-.14a.28.28,0,0,1,0-.09.5.5,0,0,1,0-.12s0-.07,0-.1l0-.11a3.83,3.83,0,0,1,3.72-3h3.5a3.84,3.84,0,0,1,3.75,3.05,3.94,3.94,0,0,1,.07.77V6.72l0,0a.56.56,0,0,1-.15-.37V5.68a.49.49,0,0,0,0-.12A.61.61,0,0,0,27,5.27h0l-.07,0h0l-.06,0h0l-.07,0h-.23l-.11,0L26,5.36a14.62,14.62,0,0,1-8.29,0Zm.22,5v0a.62.62,0,0,1,0-.13V6.36a15.69,15.69,0,0,0,8.7,0v3.72a.53.53,0,0,0,0,.13v0a.68.68,0,0,1,0,.14h0a4.9,4.9,0,0,1-1.91,2.94l0,0-.09.06-.05,0h0l-.09.06h0a3.12,3.12,0,0,1-.87.37l-.06,0a3.65,3.65,0,0,1-2.42,0,3,3,0,0,1-.87-.37h0l0,0-.09-.06,0,0A4.88,4.88,0,0,1,17.5,10.24Zm-3.61,2.43v3.81l-2.76,1-.16.06-.05,0,0,0-.06,0-.08,0-.08,0-.07,0-.07,0-.07,0-.08,0-.06,0-.06,0V12.67Zm5.66,14.88H13.26V22.69a.51.51,0,1,0-1,0v4.86h-3A.36.36,0,0,1,9,27.43a.38.38,0,0,1-.1-.27h0l.25-5.65a3.48,3.48,0,0,1,.95-2.18h0a3.31,3.31,0,0,1,1.16-.8h0l.18-.07L15.37,17l2.69,3.37a.9.9,0,0,0,.7.34.87.87,0,0,0,.53-.18l.8-.58.22.76Zm-.77-7.86-2.39-3,.67-.24.3.31.21.2.06.05.16.14.06.05.21.17.05,0,.18.13.07.05.19.12.05,0,.23.14.07,0,.19.1.07,0,.25.11h0l.24.09.08,0,.2.06.07,0,.26.08h.06l.14,0Zm1.72-2.28-.19-.05-.09,0-.14,0-.09,0-.13-.05-.09,0-.14-.06-.08,0-.2-.1-.08,0-.13-.07-.09-.06-.11-.06-.1-.07-.1-.07-.09-.07h0l.81-.41a.8.8,0,0,0,.52-.76v-.57a2.78,2.78,0,0,0,.38.12,5.69,5.69,0,0,0,1.47.23,5.69,5.69,0,0,0,1.45-.23h0a2.91,2.91,0,0,0,.39-.12v.58a.81.81,0,0,0,.52.76l.82.41h0l0,0-.05,0,0,0-.11.08h0l-.1.07-.07.05-.13.07,0,0a4.3,4.3,0,0,1-.48.24h0a4.49,4.49,0,0,1-.73.25h0l-.19,0h0l-.18,0-.24,0H21.25l-.15,0H21l-.17,0h-.07l-.23-.06Zm2.2,1.94-.24.85H21.21L21,19.35l.86-.63Zm-2.13,8.2.71-6.34h1.11l.7,6.34Zm2.63-9.1a5.94,5.94,0,0,0,1.45-.51l0,0a4.91,4.91,0,0,0,.5-.28l.09-.06.12-.08.12-.08.09-.07a1.56,1.56,0,0,0,.2-.16l.07-.06L26,17,26.1,17a1.8,1.8,0,0,1,.2-.19h0l.15-.15.16-.16.66.24-2.39,3-1.69-1.24Z"/></g></g></svg>