<?xml version="1.0" encoding="utf-8"?>
<!-- Generator: Adobe Illustrator 23.0.0, SVG Export Plug-In . SVG Version: 6.00 Build 0)  -->
<svg version="1.1" id="Layer_1" xmlns="http://www.w3.org/2000/svg" xmlns:xlink="http://www.w3.org/1999/xlink" x="0px" y="0px"
	 viewBox="0 0 512 512" style="enable-background:new 0 0 512 512;" xml:space="preserve">
<style type="text/css">
	.st0{fill:none;}
	.st1{fill:#2C76EC;}
</style>
<g>
	<path class="st0" d="M0,0h512v512H0V0z"/>
	<path class="st1" d="M234.7,362.7h42.7v-21.3h21.3c11.7,0,21.3-9.6,21.3-21.3v-64c0-11.7-9.6-21.3-21.3-21.3h-64v-21.3H320v-42.7
		h-42.7v-21.3h-42.7v21.3h-21.3c-11.7,0-21.3,9.6-21.3,21.3v64c0,11.7,9.6,21.3,21.3,21.3h64v21.3H192v42.7h42.7V362.7z M426.7,85.3
		H85.3c-23.7,0-42.5,19-42.5,42.7l-0.2,256c0,23.7,19,42.7,42.7,42.7h341.3c23.7,0,42.7-19,42.7-42.7V128
		C469.3,104.3,450.3,85.3,426.7,85.3z M426.7,384H85.3V128h341.3V384z"/>
</g>
</svg>
