<svg xmlns="http://www.w3.org/2000/svg" viewBox="0 0 32.54 36.58"><defs><style>.cls-1{fill:#fff;}</style></defs><title>trash</title><g id="Layer_2" data-name="Layer 2"><g id="ICON"><path class="cls-1" d="M31.52,5.27H23.91V4a4,4,0,0,0-4-4H12.65a4,4,0,0,0-4,4V5.27H1a1,1,0,1,0,0,2H2.85V31.15a5.44,5.44,0,0,0,5.43,5.43h16a5.44,5.44,0,0,0,5.43-5.43V7.3h1.83a1,1,0,1,0,0-2ZM10.66,4a2,2,0,0,1,2-2h7.24a2,2,0,0,1,2,2V5.27H10.66Zm17,27.13a3.4,3.4,0,0,1-3.4,3.4h-16a3.4,3.4,0,0,1-3.4-3.4V7.3H27.66V31.15Z"/><path class="cls-1" d="M16.27,30.91a1,1,0,0,0,1-1V12a1,1,0,0,0-2,0V29.89a1,1,0,0,0,1,1Z"/><path class="cls-1" d="M9.64,29.79a1,1,0,0,0,1-1V13.06a1,1,0,0,0-2,0V28.78a1,1,0,0,0,1,1Z"/><path class="cls-1" d="M22.9,29.79a1,1,0,0,0,1-1V13.06a1,1,0,0,0-2,0V28.78a1,1,0,0,0,1,1Z"/></g></g></svg>