<svg xmlns="http://www.w3.org/2000/svg" width="40" height="47.825" viewBox="0 0 40 47.825">
  <g id="Group_1466" data-name="Group 1466" transform="translate(324.628 -206.741)">
    <path id="Path_1592" data-name="Path 1592" d="M-288.964,244.036l-8.308-4.152a2.294,2.294,0,0,1-1.27-2.059v-2.938q.3-.37.624-.828a19.863,19.863,0,0,0,2.569-5.044,3.448,3.448,0,0,0,2.025-3.141v-3.483a3.461,3.461,0,0,0-.871-2.279v-4.628a7.8,7.8,0,0,0-1.817-5.673c-1.787-2.038-4.687-3.069-8.619-3.069s-6.827,1.032-8.614,3.069a7.775,7.775,0,0,0-1.817,5.673v4.628a3.461,3.461,0,0,0-.871,2.279v3.478a3.448,3.448,0,0,0,1.3,2.7,18.2,18.2,0,0,0,3.044,6.292v2.878a2.3,2.3,0,0,1-1.2,2.017l-7.756,4.233a7.838,7.838,0,0,0-4.089,6.887v3.686h40v-3.515a7.807,7.807,0,0,0-4.336-7.015Zm0,0" fill="#4485ed"/>
  </g>
</svg>
