<svg xmlns="http://www.w3.org/2000/svg" viewBox="0 0 37 44.24"><defs><style>.cls-1{fill:#727272;}</style></defs><title>user</title><g id="Layer_2" data-name="Layer 2"><g id="ICON"><path class="cls-1" d="M33,34.5l-7.68-3.84a2.12,2.12,0,0,1-1.18-1.91V26c.19-.23.38-.49.58-.77a18.17,18.17,0,0,0,2.37-4.67A3.17,3.17,0,0,0,29,17.7V14.48a3.16,3.16,0,0,0-.81-2.11V8.09a7.16,7.16,0,0,0-1.68-5.25C24.82,1,22.14,0,18.5,0s-6.32,1-8,2.84A7.16,7.16,0,0,0,8.85,8.09v4.28A3.16,3.16,0,0,0,8,14.48v3.21A3.21,3.21,0,0,0,9.25,20.2,16.84,16.84,0,0,0,12.07,26v2.66A2.12,2.12,0,0,1,11,30.54L3.78,34.46A7.25,7.25,0,0,0,0,40.83v3.41H37V41a7.22,7.22,0,0,0-4-6.49Z"/></g></g></svg>