<?xml version="1.0" encoding="utf-8"?>
<!-- Generator: Adobe Illustrator 23.0.0, SVG Export Plug-In . SVG Version: 6.00 Build 0)  -->
<svg version="1.1" id="Layer_1" xmlns="http://www.w3.org/2000/svg" xmlns:xlink="http://www.w3.org/1999/xlink" x="0px" y="0px"
	 viewBox="0 0 24 24" style="enable-background:new 0 0 24 24;" xml:space="preserve">
<style type="text/css">
	.st0{fill:#FFFFFF;}
	.st1{fill:none;}
	.st2{fill:#00D954;}
	.st3{fill-rule:evenodd;clip-rule:evenodd;fill:#00D954;}
</style>
<path class="st0" d="M3,21l1.3-4.8c-0.7-1.3-1.1-2.8-1.1-4.3C3.2,7,7.2,3,12.1,3C17,3,21,7,21,11.9c0,4.9-4,8.9-8.9,8.9
	c-1.5,0-2.9-0.4-4.2-1.1L3,21z"/>
<path class="st1" d="M0,0h24v24H0V0z"/>
<g>
	<path class="st2" d="M3,21l1.3-4.8c-0.7-1.3-1.1-2.8-1.1-4.3C3.2,7,7.2,3,12.1,3C17,3,21,7,21,11.9c0,4.9-4,8.9-8.9,8.9
		c-1.5,0-2.9-0.4-4.2-1.1L3,21z M8.1,17.9l0.3,0.2c1.1,0.7,2.4,1,3.7,1c4,0,7.2-3.2,7.2-7.2c0-4-3.2-7.2-7.2-7.2
		c-4,0-7.2,3.2-7.2,7.2c0,1.3,0.4,2.6,1.1,3.7l0.2,0.3l-0.7,2.7L8.1,17.9z"/>
	<path class="st3" d="M15.4,13.1c-0.4-0.2-0.8-0.5-1.3-0.3c-0.3,0.1-0.5,0.7-0.8,0.9c-0.1,0.1-0.2,0.2-0.4,0.1
		c-1.2-0.5-2.2-1.3-2.9-2.5c-0.1-0.2-0.1-0.3,0-0.5c0.2-0.2,0.5-0.5,0.5-0.8c0.1-0.3-0.1-0.7-0.2-1C10.2,8.7,10,8.1,9.7,7.9
		C9.3,7.7,8.9,7.8,8.6,8.1C8,8.5,7.8,9.2,7.8,9.9c0,0.2,0,0.4,0.1,0.6c0.1,0.4,0.3,0.9,0.5,1.2C8.6,12,8.8,12.3,9,12.5
		c0.7,0.9,1.5,1.7,2.4,2.3c0.5,0.3,1,0.5,1.5,0.7c0.6,0.2,1.1,0.4,1.8,0.3c0.7-0.1,1.3-0.5,1.6-1.2c0.1-0.2,0.1-0.4,0.1-0.6
		C16.3,13.6,15.7,13.3,15.4,13.1z"/>
</g>
</svg>
