<svg xmlns="http://www.w3.org/2000/svg" viewBox="0 0 31.44 31.44"><defs><style>.cls-1{fill:#727272;fill-rule:evenodd;}</style></defs><title>whatsapp</title><g id="Layer_2" data-name="Layer 2"><g id="ICON"><path class="cls-1" d="M31.44,15.31A15.38,15.38,0,0,1,16,30.63a15.55,15.55,0,0,1-7.46-1.91L0,31.44l2.79-8.22A15.11,15.11,0,0,1,.57,15.31a15.44,15.44,0,0,1,30.87,0ZM16,2.44A12.93,12.93,0,0,0,3,15.31,12.75,12.75,0,0,0,5.5,22.86L3.88,27.64l5-1.58A13,13,0,0,0,29,15.31,12.94,12.94,0,0,0,16,2.44Zm7.8,16.4c-.1-.16-.35-.25-.73-.44s-2.24-1.09-2.58-1.22-.6-.19-.85.19-1,1.22-1.2,1.47-.44.28-.82.09a10,10,0,0,1-3-1.86,11,11,0,0,1-2.11-2.6c-.22-.37,0-.58.17-.76s.37-.44.56-.66a2.41,2.41,0,0,0,.38-.63.65.65,0,0,0,0-.65c-.09-.19-.85-2-1.17-2.79s-.63-.63-.85-.63-.47,0-.72,0a1.43,1.43,0,0,0-1,.47,4.21,4.21,0,0,0-1.32,3.13A7.25,7.25,0,0,0,10,15.8c.19.25,2.62,4.17,6.46,5.67s3.85,1,4.54.94a3.84,3.84,0,0,0,2.56-1.79,3.19,3.19,0,0,0,.22-1.78Z"/></g></g></svg>