<?xml version="1.0" encoding="UTF-8"?>
<svg width="14px" height="15px" viewBox="0 0 14 15" version="1.1" xmlns="http://www.w3.org/2000/svg" xmlns:xlink="http://www.w3.org/1999/xlink">
    <!-- Generator: Sketch 51.3 (57544) - http://www.bohemiancoding.com/sketch -->
    <title>Fill 265</title>
    <desc>Created with Sketch.</desc>
    <defs></defs>
    <g id="Page-1" stroke="none" stroke-width="1" fill="none" fill-rule="evenodd">
        <g id="WEB---OVERVIEW-I-POST" transform="translate(-556.000000, -2612.000000)" fill="#EC1C24">
            <g id="Group-269" transform="translate(-8.000000, 17.000000)">
                <path d="M577.513057,2596.1112 C576.865417,2595.46357 575.813657,2595.46357 575.165347,2596.1112 L571.014467,2600.26196 L566.863707,2596.1112 C566.215337,2595.46357 565.163577,2595.46357 564.515197,2596.1112 C563.867617,2596.76031 563.867617,2597.81207 564.515197,2598.45965 L568.666017,2602.61047 L564.515197,2606.76123 C563.867617,2607.40954 563.867617,2608.46136 564.515197,2609.10968 C564.839727,2609.4342 565.264957,2609.59656 565.689457,2609.59656 C566.114687,2609.59656 566.539917,2609.4342 566.863707,2609.10968 L571.014467,2604.95892 L575.165347,2609.10968 C575.489077,2609.4342 575.914307,2609.59656 576.339537,2609.59656 C576.764037,2609.59656 577.189207,2609.4342 577.513057,2609.10968 C578.162167,2608.46058 578.162167,2607.40954 577.513057,2606.76123 L573.363767,2602.61047 L577.513057,2598.45965 C578.162167,2597.81207 578.162167,2596.76031 577.513057,2596.1112 Z" id="Fill-265"></path>
            </g>
        </g>
    </g>
</svg>