<svg xmlns="http://www.w3.org/2000/svg" viewBox="0 0 71.74 62.92"><defs><style>.cls-1{fill:#ffe100;}</style></defs><title>colored-bubble</title><g id="Layer_2" data-name="Layer 2"><g id="ICON"><path d="M71.74,5.85V41a5.86,5.86,0,0,1-5.85,5.85H27.74L12.12,62.43a1.67,1.67,0,0,1-1.18.49,1.63,1.63,0,0,1-.64-.13,1.67,1.67,0,0,1-1-1.54V46.81H5.85A5.86,5.86,0,0,1,0,41V5.85A5.85,5.85,0,0,1,5.85,0h60A5.85,5.85,0,0,1,71.74,5.85ZM68.4,41V5.85a2.51,2.51,0,0,0-2.51-2.51h-60A2.51,2.51,0,0,0,3.34,5.85V41a2.51,2.51,0,0,0,2.51,2.51h5.09A1.66,1.66,0,0,1,12.6,45a.81.81,0,0,1,0,.16V57.22L25.86,44l.06-.06h0a1.71,1.71,0,0,1,1.12-.43H65.89A2.51,2.51,0,0,0,68.4,41Z"/><path class="cls-1" d="M68.4,5.85V41a2.51,2.51,0,0,1-2.51,2.51H27.05a1.71,1.71,0,0,0-1.12.43h0l-.06.06L12.61,57.22V45.14a.81.81,0,0,0,0-.16,1.66,1.66,0,0,0-1.66-1.51H5.85A2.51,2.51,0,0,1,3.34,41V5.85A2.51,2.51,0,0,1,5.85,3.34h60A2.51,2.51,0,0,1,68.4,5.85Zm-9.65,8a1.66,1.66,0,0,0-1.66-1.67h-23a1.67,1.67,0,1,0,0,3.34h23A1.66,1.66,0,0,0,58.75,13.85Zm0,9.55a1.66,1.66,0,0,0-1.66-1.67h-6a1.67,1.67,0,1,0,0,3.34h6A1.66,1.66,0,0,0,58.75,23.4Zm0,9.55a1.66,1.66,0,0,0-1.66-1.66H38.63a1.67,1.67,0,1,0,0,3.33H57.09A1.66,1.66,0,0,0,58.75,33ZM43.39,23.4a1.67,1.67,0,0,0-1.67-1.67H14.65a1.67,1.67,0,0,0,0,3.34H41.72A1.67,1.67,0,0,0,43.39,23.4ZM31.43,33a1.66,1.66,0,0,0-1.67-1.66H14.65a1.67,1.67,0,0,0,0,3.33H29.76A1.67,1.67,0,0,0,31.43,33Zm-5.38-19.1a1.67,1.67,0,0,0-1.67-1.67H14.65a1.67,1.67,0,0,0,0,3.34h9.73A1.67,1.67,0,0,0,26.05,13.85Z"/><path d="M57.09,12.18a1.67,1.67,0,0,1,0,3.34h-23a1.67,1.67,0,1,1,0-3.34Z"/><path d="M57.09,21.73a1.67,1.67,0,0,1,0,3.34h-6a1.67,1.67,0,1,1,0-3.34Z"/><path d="M57.09,31.29a1.67,1.67,0,0,1,0,3.33H38.63a1.67,1.67,0,1,1,0-3.33Z"/><path d="M41.72,21.73a1.67,1.67,0,1,1,0,3.34H14.65a1.67,1.67,0,0,1,0-3.34Z"/><path d="M29.76,31.29a1.67,1.67,0,1,1,0,3.33H14.65a1.67,1.67,0,0,1,0-3.33Z"/><path d="M24.38,12.18a1.67,1.67,0,1,1,0,3.34H14.65a1.67,1.67,0,0,1,0-3.34Z"/></g></g></svg>