<?xml version="1.0" encoding="utf-8"?>
<!-- Generator: Adobe Illustrator 23.0.0, SVG Export Plug-In . SVG Version: 6.00 Build 0)  -->
<svg version="1.1" id="Layer_1" xmlns="http://www.w3.org/2000/svg" xmlns:xlink="http://www.w3.org/1999/xlink" x="0px" y="0px"
	 viewBox="0 0 24 24" style="enable-background:new 0 0 24 24;" xml:space="preserve">
<style type="text/css">
	.st0{fill:none;}
	.st1{fill:#FFE100;}
</style>
<path class="st0" d="M0,0h24v24H0V0z"/>
<path class="st1" d="M19,1H5C3.9,1,3,1.9,3,3l0,12.9c0,0.7,0.3,1.3,0.9,1.7L12,23l8.1-5.4c0.5-0.4,0.9-1,0.9-1.7L21,3
	C21,1.9,20.1,1,19,1z M12,20.6l-7-4.7V3h14v12.9L12,20.6z M10,13.2l-2.6-2.6L6,12l4,4l8-8l-1.4-1.4L10,13.2z"/>
</svg>
