<?xml version="1.0" encoding="utf-8"?>
<!-- Generator: Adobe Illustrator 23.0.0, SVG Export Plug-In . SVG Version: 6.00 Build 0)  -->
<svg version="1.1" id="Layer_1" xmlns="http://www.w3.org/2000/svg" xmlns:xlink="http://www.w3.org/1999/xlink" x="0px" y="0px"
	 viewBox="0 0 24 24" style="enable-background:new 0 0 24 24;" xml:space="preserve">
<style type="text/css">
	.st0{fill:none;}
	.st1{fill:#FFE100;}
</style>
<path class="st0" d="M0,0h24v24H0V0z"/>
<path class="st1" d="M20.5,6c-2.6,0.7-5.7,1-8.5,1S6.1,6.7,3.5,6L3,8c1.9,0.5,4,0.8,6,1v13h2v-6h2v6h2V9c2-0.2,4.1-0.5,6-1L20.5,6z
	 M12,6c1.1,0,2-0.9,2-2s-0.9-2-2-2s-2,0.9-2,2S10.9,6,12,6z"/>
</svg>
