<?xml version="1.0" encoding="utf-8"?>
<!-- Generator: Adobe Illustrator 23.0.0, SVG Export Plug-In . SVG Version: 6.00 Build 0)  -->
<svg version="1.1" id="Layer_1" xmlns="http://www.w3.org/2000/svg" xmlns:xlink="http://www.w3.org/1999/xlink" x="0px" y="0px"
	 viewBox="0 0 24 24" style="enable-background:new 0 0 24 24;" xml:space="preserve">
<style type="text/css">
	.st0{fill:none;}
	.st1{fill:#FFE100;}
</style>
<g>
	<rect y="0" class="st0" width="24" height="24"/>
</g>
<g>
	<g>
		<path class="st1" d="M21.6,16.1l-1.1-7.7c-0.3-2-2-3.4-4-3.4H7.5c-2,0-3.7,1.5-4,3.4l-1.1,7.7c-0.2,1.5,1,2.9,2.5,2.9l0,0
			c0.7,0,1.3-0.3,1.8-0.8L9,16h6l2.3,2.2c0.5,0.5,1.1,0.8,1.8,0.8l0,0C20.6,19,21.8,17.6,21.6,16.1z M19.5,16.8
			c-0.1,0.1-0.2,0.2-0.4,0.2c-0.1,0-0.3-0.1-0.4-0.2L15.8,14H8.2l-2.8,2.8C5.2,16.9,5.1,17,4.9,17c-0.2,0-0.3-0.1-0.4-0.2
			s-0.2-0.2-0.1-0.4l1.1-7.7c0.2-1,1-1.7,2-1.7h9.1c1,0,1.8,0.7,2,1.7l1.1,7.7C19.6,16.6,19.5,16.7,19.5,16.8z"/>
		<polygon class="st1" points="9,8 8,8 8,10 6,10 6,11 8,11 8,13 9,13 9,11 11,11 11,10 9,10 		"/>
		<circle class="st1" cx="17" cy="12" r="1"/>
		<circle class="st1" cx="15" cy="9" r="1"/>
	</g>
</g>
</svg>
