<?xml version="1.0" encoding="utf-8"?>
<!-- Generator: Adobe Illustrator 23.0.0, SVG Export Plug-In . SVG Version: 6.00 Build 0)  -->
<svg version="1.1" id="Capa_1" xmlns="http://www.w3.org/2000/svg" xmlns:xlink="http://www.w3.org/1999/xlink" x="0px" y="0px"
	 viewBox="0 0 512 512" style="enable-background:new 0 0 512 512;" xml:space="preserve">
<style type="text/css">
	.st0{fill:#FFE100;}
	.st1{fill:#FFFFFF;}
	.st2{fill:#4485ED;}
</style>
<g>
	<g>
		<g>
			<path class="st0" d="M256,137.5l-33.3,14.1c-5,2.1-10.5-1.9-10.1-7.3l3.1-36.1L192,81c-3.6-4.1-1.5-10.6,3.8-11.8l35.3-8.2
				l18.7-31c2.8-4.7,9.6-4.7,12.4,0l18.7,31l35.3,8.2c5.3,1.2,7.4,7.7,3.8,11.8l-23.7,27.3l3.1,36.1c0.5,5.5-5,9.5-10.1,7.3
				L256,137.5z"/>
		</g>
		<g>
			<g>
				<path class="st1" d="M397.3,191.2l-27,11.4c-4.1,1.7-8.5-1.5-8.1-5.9l2.5-29.2l-19.2-22.1c-2.9-3.3-1.2-8.6,3.1-9.6l28.5-6.6
					l15.1-25.1c2.3-3.8,7.8-3.8,10.1,0l15.1,25.1l28.5,6.6c4.3,1,6,6.2,3.1,9.6l-19.2,22.1l2.5,29.2c0.4,4.4-4.1,7.6-8.1,5.9
					L397.3,191.2z"/>
			</g>
			<g>
				<path class="st1" d="M114.7,191.2l-26.9,11.4c-4.1,1.7-8.5-1.5-8.1-5.9l2.5-29.2L63,145.5c-2.9-3.3-1.2-8.6,3.1-9.6l28.5-6.6
					l15.1-25.1c2.3-3.8,7.8-3.8,10.1,0l15.1,25.1l28.5,6.6c4.3,1,6,6.2,3.1,9.6l-19.2,22.1l2.5,29.2c0.4,4.4-4.1,7.6-8.1,5.9
					L114.7,191.2z"/>
			</g>
		</g>
		<g>
			<g>
				<circle class="st1" cx="392.1" cy="332.7" r="60.7"/>
			</g>
			<g>
				<circle class="st1" cx="119.9" cy="332.7" r="60.7"/>
			</g>
		</g>
		<g>
			<path class="st2" d="M166.1,399c-7.4-3.6-14-5.6-22.8-5.6H96.4c-31,0-56.1,25.1-56.1,56.1v36.1H155"/>
			<path class="st2" d="M357,485.6h114.7v-36.1c0-31-25.1-56.1-56.1-56.1h-46.9c-8.8,0-15.4,2-22.8,5.6"/>
			<g>
				<circle class="st0" cx="256" cy="291.5" r="77"/>
			</g>
			<path class="st0" d="M155,485.6v-45.8c0-39.3,31.9-71.2,71.2-71.2h59.6c39.3,0,71.2,31.9,71.2,71.2v45.8"/>
		</g>
	</g>
	<g>
		<path d="M502,475.6h-20.3v-26.1c0-28.8-18.6-53.4-44.4-62.4c15.6-13,25.5-32.5,25.5-54.3c0-39-31.7-70.7-70.7-70.7
			c-19.3,0-36.8,7.8-49.6,20.4c-4.6-43.7-41.6-77.9-86.5-77.9s-82,34.2-86.5,77.9c-12.8-12.6-30.3-20.4-49.6-20.4
			c-39,0-70.7,31.7-70.7,70.7c0,21.8,9.9,41.4,25.5,54.3c-25.8,9-44.4,33.6-44.4,62.4v26.1H10c-5.5,0-10,4.5-10,10s4.5,10,10,10
			h200.8c5.5,0,10-4.5,10-10s-4.5-10-10-10H165v-35.8c0-33.7,27.4-61.2,61.2-61.2h59.6c33.7,0,61.2,27.5,61.2,61.2v35.8h-45.8
			c-5.5,0-10,4.5-10,10s4.5,10,10,10H502c5.5,0,10-4.5,10-10S507.5,475.6,502,475.6z M392.1,282c27.9,0,50.7,22.7,50.7,50.7
			s-22.7,50.7-50.7,50.7s-50.7-22.7-50.7-50.7S364.2,282,392.1,282z M256,224.5c36.9,0,67,30.1,67,67s-30.1,67-67,67s-67-30.1-67-67
			S219.1,224.5,256,224.5L256,224.5z M69.2,332.7c0-27.9,22.7-50.7,50.7-50.7s50.7,22.7,50.7,50.7s-22.7,50.7-50.7,50.7
			S69.2,360.6,69.2,332.7z M50.3,449.5c0-25.4,20.7-46.1,46.1-46.1h46.9c3.5,0,6.6,0.4,9.7,1.2c-5.1,10.6-8,22.6-8,35.1v35.8H50.3
			V449.5z M175.1,376.7c6.8-8.5,11.6-18.6,13.9-29.6c4.5,5.4,9.6,10.3,15.3,14.5C193.5,364.6,183.6,369.8,175.1,376.7z M307.6,361.5
			c5.7-4.2,10.8-9.1,15.3-14.5c2.3,11,7.2,21.1,13.9,29.6C328.4,369.8,318.5,364.6,307.6,361.5z M367,475.6v-35.8
			c0-12.6-2.9-24.5-8-35.1c3.2-0.9,6.2-1.2,9.7-1.2h46.9c25.4,0,46.1,20.7,46.1,46.1v26.1H367z"/>
		<path d="M261.4,477.3c-3.5-2.3-8.1-2.2-11.5,0.2c-3.4,2.4-4.9,6.9-3.7,10.9c1.2,3.9,4.7,6.8,8.8,7.2c4.2,0.3,8.3-2.1,10-6
			C266.9,485.2,265.4,479.9,261.4,477.3z"/>
		<path d="M144,213.1c-2.1,0-4.2-0.4-6.2-1.3l-23-9.8l-23,9.8c-5.2,2.2-11,1.5-15.5-1.8c-4.5-3.3-7-8.6-6.5-14.2l2.2-24.9L55.4,152
			c-3.7-4.2-4.8-10-3.1-15.3s6-9.3,11.5-10.6l24.4-5.6l12.9-21.4c2.9-4.8,8-7.7,13.6-7.7c5.6,0,10.7,2.9,13.6,7.7l12.9,21.4
			l24.4,5.6c5.5,1.3,9.8,5.2,11.5,10.6s0.6,11.1-3.1,15.3l-16.4,18.9l2.2,24.9c0.5,5.6-1.9,10.9-6.5,14.2
			C150.5,212.1,147.3,213.1,144,213.1L144,213.1z M75,144.1L89.7,161c1.8,2,2.6,4.7,2.4,7.4l-1.9,22.3l20.6-8.7
			c2.5-1.1,5.3-1.1,7.8,0l20.6,8.7l-1.9-22.3c-0.2-2.7,0.6-5.4,2.4-7.4l14.7-16.9l-21.8-5.1c-2.6-0.6-4.9-2.3-6.3-4.6l-11.6-19.2
			l-11.6,19.2c-1.4,2.3-3.7,4-6.3,4.6L75,144.1z"/>
		<path d="M426.6,213.1c-2.1,0-4.2-0.4-6.2-1.3l-23-9.8l-23,9.8c-5.2,2.2-11,1.5-15.5-1.8c-4.5-3.3-7-8.6-6.5-14.2l2.2-24.9L338,152
			c-3.7-4.2-4.8-10-3.1-15.3c1.7-5.3,6-9.3,11.5-10.6l24.4-5.6l12.9-21.4c2.9-4.8,8-7.7,13.6-7.7s10.7,2.9,13.6,7.7l12.9,21.4
			l24.4,5.6c5.5,1.3,9.8,5.2,11.5,10.6s0.6,11.1-3.1,15.3l-16.4,18.9l2.2,24.9c0.5,5.6-1.9,10.9-6.5,14.2
			C433.1,212.1,429.8,213.1,426.6,213.1L426.6,213.1z M357.6,144.1l14.7,16.9c1.8,2,2.6,4.7,2.4,7.4l-1.9,22.3l20.6-8.7
			c2.5-1.1,5.3-1.1,7.8,0l20.6,8.7l-1.9-22.3c-0.2-2.7,0.6-5.4,2.4-7.4l14.7-16.9l-21.8-5.1c-2.6-0.6-4.9-2.3-6.3-4.6l-11.6-19.2
			l-11.6,19.2c-1.4,2.3-3.7,4-6.3,4.6L357.6,144.1z"/>
		<path d="M219.8,162.3c-3.6,0-7.1-1.1-10.1-3.3c-4.9-3.6-7.6-9.4-7.1-15.5l2.8-31.8l-20.9-24.1c-4-4.6-5.3-10.8-3.4-16.7
			c1.9-5.8,6.6-10.1,12.5-11.5l31.1-7.2l16.5-27.4c3.2-5.2,8.7-8.4,14.8-8.4h0c6.1,0,11.6,3.1,14.8,8.4l16.5,27.4l31.1,7.2
			c6,1.4,10.6,5.7,12.5,11.5c1.9,5.8,0.6,12-3.4,16.7l-20.9,24.1l2.8,31.8c0.5,6.1-2.1,11.9-7.1,15.5c-4.9,3.6-11.3,4.3-16.9,1.9
			L256,148.4l-29.4,12.5C224.4,161.8,222.1,162.3,219.8,162.3L219.8,162.3z M256,127.5c1.3,0,2.7,0.3,3.9,0.8l29.1,12.3l-2.7-31.5
			c-0.2-2.7,0.6-5.4,2.4-7.4l20.7-23.9l-30.8-7.1c-2.6-0.6-4.9-2.3-6.3-4.6L256,39l-16.3,27.1c-1.4,2.3-3.7,4-6.3,4.6l-30.8,7.1
			l20.7,23.9c1.8,2,2.6,4.7,2.4,7.4l-2.7,31.5l29.1-12.3C253.3,127.8,254.7,127.5,256,127.5L256,127.5z"/>
	</g>
</g>
</svg>
