<svg xmlns="http://www.w3.org/2000/svg" width="44.722" height="40" viewBox="0 0 44.722 40">
  <g id="Group_478" data-name="Group 478" transform="translate(0)">
    <path id="Path_173" data-name="Path 173" d="M60.986,78.434a2.2,2.2,0,0,0-.535.067l-1.024.29-1.292-3.163A4.608,4.608,0,0,0,54.193,73H40.719a4.608,4.608,0,0,0-3.942,2.628l-1.292,3.163-1-.267a2.2,2.2,0,0,0-.535-.067A1.64,1.64,0,0,0,32.3,80.194v.045a2.13,2.13,0,0,0,1.737,2.094,16.272,16.272,0,0,0-.98,5.011v6.57A2.139,2.139,0,0,0,35.2,96.051H36.42a2.139,2.139,0,0,0,2.138-2.138V92.532H56.331v1.381a2.139,2.139,0,0,0,2.138,2.138h1.225a2.139,2.139,0,0,0,2.138-2.138v-6.57a15.644,15.644,0,0,0-.98-5.011,2.128,2.128,0,0,0,1.759-2.094v-.045a1.617,1.617,0,0,0-1.626-1.759Zm-24.12,2.539,2.049-5.011a2.774,2.774,0,0,1,2.361-1.581H53.636A2.774,2.774,0,0,1,56,75.962L58.068,81A1.066,1.066,0,0,1,57,82.577H37.912a1.081,1.081,0,0,1-1.047-1.6Zm5.167,7.55a.846.846,0,0,1-.846.846h-4.12a.846.846,0,0,1-.846-.846V86.786a.846.846,0,0,1,.846-.846h4.1a.846.846,0,0,1,.846.846v1.737Zm16.637,0a.846.846,0,0,1-.846.846h-4.1a.846.846,0,0,1-.846-.846V86.786a.846.846,0,0,1,.846-.846h4.1a.846.846,0,0,1,.846.846Zm0,0" transform="translate(-25.106 -56.742)" fill="#727272"/>
    <path id="Path_174" data-name="Path 174" d="M40.713,0H4.009A4.021,4.021,0,0,0,0,4.009V37.773a2.227,2.227,0,0,0,4.454,0V14.165H40.267V37.751a2.227,2.227,0,0,0,4.454,0V4.009A4.021,4.021,0,0,0,40.713,0ZM4.454,9.065H40.267v.78H4.454Zm0-1.782V6.659H40.267v.624Zm0,5.1V11.6H40.267v.78Zm0,0" fill="#727272"/>
  </g>
</svg>
