<?xml version="1.0" encoding="UTF-8"?>
<svg width="58px" height="62px" viewBox="0 0 58 62" version="1.1" xmlns="http://www.w3.org/2000/svg" xmlns:xlink="http://www.w3.org/1999/xlink">
    <!-- Generator: Sketch 51.3 (57544) - http://www.bohemiancoding.com/sketch -->
    <title>Group 3</title>
    <desc>Created with Sketch.</desc>
    <defs></defs>
    <g id="Page-1" stroke="none" stroke-width="1" fill="none" fill-rule="evenodd">
        <g id="WEB---OVERVIEW-I-POST" transform="translate(-499.000000, -3615.000000)" fill="#888888">
            <g id="Group-701" transform="translate(0.000000, -66.000000)">
                <g id="Group-3" transform="translate(499.000000, 3681.000000)">
                    <path d="M25.9373935,5.054013 C26.4671325,5.054013 26.8969115,4.624745 26.8969115,4.094487 C26.8969115,3.564229 26.4671325,3.134954 25.9373935,3.134954 L25.9281775,3.134954 C25.3984075,3.134954 24.9740145,3.564229 24.9740145,4.094487 C24.9740145,4.624745 25.4076535,5.054013 25.9373935,5.054013 Z" id="Fill-507"></path>
                    <path d="M28.7873275,5.054013 L31.6658775,5.054013 C32.1961375,5.054013 32.6254075,4.624745 32.6254075,4.094487 C32.6254075,3.564229 32.1961375,3.134954 31.6658775,3.134954 L28.7873275,3.134954 C28.2570675,3.134954 27.8277875,3.564229 27.8277875,4.094487 C27.8277875,4.624745 28.2570675,5.054013 28.7873275,5.054013 Z" id="Fill-509"></path>
                    <path d="M56.61488,11.514422 L46.058797,11.514422 L46.058797,5.759058 C46.058797,2.588309 43.48264,0.009585 40.314191,0.00318 C40.310353,0.00318 40.306493,0.000101 40.301625,0.000101 L17.272984,0.000101 C14.097615,0.000101 11.515828,2.581908 11.515828,5.757265 L11.515828,22.069224 L0.959737,22.069224 C0.429486,22.069224 0.000203,22.498499 0.000203,23.028757 L0.000203,40.300234 C0.000203,40.8305 0.429486,41.259775 0.959737,41.259775 L11.515828,41.259775 L11.515828,54.693156 C11.515828,58.395685 14.529981,61.409846 18.23251,61.409846 L39.342114,61.409846 C43.044637,61.409846 46.058797,58.395685 46.058797,54.693156 L46.058797,32.625803 L56.61488,32.625803 C57.145139,32.625803 57.574399,32.196787 57.574399,31.666285 L57.574399,12.473948 C57.574399,11.94369 57.145139,11.514422 56.61488,11.514422 Z M44.139745,7.67811 L44.139745,11.514422 L33.586232,11.514422 C33.055219,11.514422 32.626698,11.94369 32.626698,12.473948 L32.626698,34.544863 C32.626698,34.890337 32.811475,35.20891 33.112615,35.379595 C33.259465,35.463129 33.42246,35.504404 33.586232,35.504404 C33.75665,35.504404 33.927342,35.458262 34.08035,35.367037 L38.651174,32.625803 L44.139745,32.625803 L44.139745,47.976465 L44.043385,55.643191 C43.600522,57.834681 41.662259,59.490786 39.342114,59.490786 L18.23251,59.490786 C15.912373,59.490786 13.974103,57.834681 13.531232,55.643191 L13.434873,47.976465 L13.434873,41.259775 L18.925244,41.259775 L23.495564,44.000986 C23.647275,44.092211 23.81796,44.138354 23.988393,44.138354 C24.152158,44.138354 24.315152,44.097094 24.462003,44.013552 C24.761853,43.84286 24.947911,43.524302 24.947911,43.178812 L24.947911,23.028757 C24.947911,22.498499 24.519406,22.069224 23.988393,22.069224 L13.434873,22.069224 L13.434873,7.67811 L13.434873,5.759058 L13.434873,5.757265 C13.434873,3.640875 15.15659,1.91915 17.272984,1.91915 L40.292149,1.91915 C40.296002,1.91915 40.298039,1.920943 40.301625,1.920943 C42.418027,1.920943 44.139745,3.642668 44.139745,5.759058 L44.139745,7.67811 Z M1.91927,23.988268 L23.028859,23.988268 L23.028859,41.483248 L19.685635,39.477061 C19.535451,39.387621 19.365788,39.340723 19.190755,39.340723 L1.91927,39.340723 L1.91927,23.988268 Z M55.655354,30.706766 L38.384374,30.706766 C38.210095,30.706766 38.040189,30.753672 37.890263,30.844134 L34.545766,32.851343 L34.545766,13.433481 L55.655354,13.433481 L55.655354,30.706766 Z" id="Fill-511"></path>
                    <path d="M5.757348,28.78586 L19.190735,28.78586 C19.721757,28.78586 20.150254,28.356569 20.150254,27.826311 C20.150254,27.296053 19.721757,26.866777 19.190735,26.866777 L5.757348,26.866777 C5.227105,26.866777 4.797822,27.296053 4.797822,27.826311 C4.797822,28.356569 5.227105,28.78586 5.757348,28.78586 Z" id="Fill-513"></path>
                    <path d="M5.757348,32.624115 L19.190735,32.624115 C19.721757,32.624115 20.150254,32.194825 20.150254,31.664605 C20.150254,31.134335 19.721757,30.705055 19.190735,30.705055 L5.757348,30.705055 C5.227105,30.705055 4.797822,31.134335 4.797822,31.664605 C4.797822,32.194825 5.227105,32.624115 5.757348,32.624115 Z" id="Fill-515"></path>
                    <path d="M13.433579,35.5027 C13.433579,34.97244 13.005067,34.54316 12.474038,34.54316 L5.757348,34.54316 C5.227105,34.54316 4.797822,34.97244 4.797822,35.5027 C4.797822,36.03294 5.227105,36.46222 5.757348,36.46222 L12.474038,36.46222 C13.005067,36.46222 13.433579,36.03294 13.433579,35.5027 Z" id="Fill-517"></path>
                    <path d="M39.3423425,19.247514 L37.8256725,20.330552 C37.3945925,20.637315 37.2938725,21.237046 37.6026725,21.66861 C37.7900425,21.931062 38.0842325,22.070985 38.3840825,22.070985 C38.5765525,22.070985 38.7713325,22.012284 38.9399525,21.891831 L39.3423425,21.605058 L39.3423425,26.868119 C38.8120925,26.868623 38.3840825,27.296616 38.3840825,27.827622 C38.3840825,28.357896 38.8125925,28.787156 39.3436325,28.787156 L50.8553925,28.787156 C51.3864025,28.787156 51.8149425,28.357896 51.8149425,27.827622 C51.8149425,27.296616 51.3869125,26.868623 50.8566725,26.868119 L50.8566725,21.605058 L51.2590325,21.891831 C51.4276725,22.012284 51.6224625,22.070985 51.8149425,22.070985 C52.1152625,22.070985 52.4089925,21.931062 52.5963425,21.66861 C52.9043725,21.238297 52.8044425,20.638596 52.3733525,20.330552 L45.6566725,15.532914 C45.6474425,15.526254 45.6366725,15.524979 45.6261725,15.518563 C45.5666925,15.479882 45.5023825,15.458596 45.4375425,15.434243 C45.3855425,15.41375 45.3363225,15.386323 45.2819625,15.375558 C45.2194525,15.363 45.1564025,15.37069 45.0926025,15.37069 C45.0333825,15.37069 44.9764825,15.36377 44.9183025,15.375558 C44.8614325,15.386323 44.8109325,15.415025 44.7553225,15.436044 C44.6927625,15.459878 44.6292225,15.479882 44.5728325,15.517281 C44.5628625,15.524201 44.5515925,15.524979 44.5423425,15.531899 L41.2614025,17.876115 L39.3423425,19.247514 Z M48.9376025,26.868119 L46.0590325,26.868119 L46.0590325,24.949067 C46.0590325,24.418031 45.6297625,23.989533 45.0995225,23.989533 C44.5692625,23.989533 44.1399725,24.418031 44.1399725,24.949067 L44.1399725,26.868119 L41.2614025,26.868119 L41.2614025,20.233689 L45.0995225,17.491959 L48.9376025,20.233689 L48.9376025,26.868119 Z" id="Fill-519"></path>
                    <path d="M31.665805,54.824535 C31.665805,53.237095 30.374665,51.945925 28.787235,51.945925 C27.199815,51.945925 25.908645,53.237095 25.908645,54.824535 C25.908645,56.411965 27.199815,57.703075 28.787235,57.703075 C30.374665,57.703075 31.665805,56.411965 31.665805,54.824535 Z M28.787235,55.784035 C28.257475,55.784035 27.827695,55.354285 27.827695,54.824535 C27.827695,54.294805 28.257475,53.865025 28.787235,53.865025 C29.316975,53.865025 29.746785,54.294805 29.746785,54.824535 C29.746785,55.354285 29.316975,55.784035 28.787235,55.784035 Z" id="Fill-521"></path>
                </g>
            </g>
        </g>
    </g>
</svg>