<?xml version="1.0" encoding="UTF-8"?>
<svg width="57px" height="57px" viewBox="0 0 57 57" version="1.1" xmlns="http://www.w3.org/2000/svg" xmlns:xlink="http://www.w3.org/1999/xlink">
    <!-- Generator: Sketch 51.3 (57544) - http://www.bohemiancoding.com/sketch -->
    <title>Group</title>
    <desc>Created with Sketch.</desc>
    <defs></defs>
    <g id="Page-1" stroke="none" stroke-width="1" fill="none" fill-rule="evenodd">
        <g id="WEB---OVERVIEW-I-POST" transform="translate(-514.000000, -394.000000)" fill="#000000">
            <g id="Group-269" transform="translate(32.000000, 50.000000)">
                <g id="Group" transform="translate(482.000000, 344.000000)">
                    <path d="M28.237274,30.1991425 C35.229843,30.1991425 40.899216,23.5635525 40.899216,15.3787305 C40.899216,4.0282745 35.229843,0.5580595 28.237274,0.5580595 C21.243942,0.5580595 15.5746,4.0282745 15.5746,15.3787305 C15.5746,23.5635525 21.243942,30.1991425 28.237274,30.1991425 Z" id="Fill-71"></path>
                    <path d="M56.1971895,52.01288 L49.8090745,37.62231 C49.5174485,36.96321 49.0037845,36.41733 48.3648685,36.08504 L38.4506765,30.92412 C38.2323915,30.81035 37.9674385,30.83257 37.7708435,30.98148 C34.9672325,33.10231 31.6701585,34.22296 28.2373665,34.22296 C24.8038025,34.22296 21.5067295,33.10231 18.7031175,30.98148 C18.5057915,30.83257 18.2410815,30.81035 18.0225605,30.92412 L8.1091165,36.08504 C7.4694525,36.41733 6.9572755,36.96321 6.6648865,37.62231 L0.2767795,52.01288 C-0.1640315,53.00507 -0.0739745,54.13992 0.5177765,55.04953 C1.1095435,55.95963 2.1101915,56.50272 3.1954045,56.50272 L53.2778095,56.50272 C54.3635255,56.50272 55.3641665,55.95963 55.9559485,55.04953 C56.5471955,54.13992 56.6380165,53.00432 56.1971895,52.01288 Z" id="Fill-73"></path>
                </g>
            </g>
        </g>
    </g>
</svg>