<?xml version="1.0" encoding="UTF-8"?>
<svg width="58px" height="50px" viewBox="0 0 58 50" version="1.1" xmlns="http://www.w3.org/2000/svg" xmlns:xlink="http://www.w3.org/1999/xlink">
    <!-- Generator: Sketch 51.3 (57544) - http://www.bohemiancoding.com/sketch -->
    <title>Group 7</title>
    <desc>Created with Sketch.</desc>
    <defs></defs>
    <g id="Page-1" stroke="none" stroke-width="1" fill="none" fill-rule="evenodd">
        <g id="WEB---OVERVIEW-I-POST" transform="translate(-515.000000, -6643.000000)" fill="#888888">
            <g id="Group-701" transform="translate(12.000000, -103.000000)">
                <g id="Group-7" transform="translate(503.000000, 6746.000000)">
                    <path d="M56.203807,28.624888 L54.546314,29.93954 L41.148593,12.349101 L48.807666,7.433268 C49.200443,7.181102 49.314365,6.658473 49.062419,6.265681 C48.810474,5.872905 48.287609,5.758983 47.895053,6.010936 L39.465267,11.421412 C39.056323,11.683909 38.954471,12.257579 39.2495,12.644542 L40.783596,14.658854 L39.692676,15.493953 L35.361698,14.062999 C35.276859,14.035441 35.185771,14.020579 35.096607,14.020579 L25.181613,14.020579 C24.794002,14.020579 24.455905,14.284388 24.361812,14.660579 L23.804065,16.892161 L22.395519,16.299128 C22.26115,16.242488 22.114063,16.221812 21.96957,16.238826 L18.052066,16.697505 L16.721034,15.924632 L17.987041,13.732036 C18.217014,13.333217 18.075969,12.807567 17.677799,12.577586 L1.267658,3.103175 C0.863025,2.869731 0.346416,3.008418 0.113422,3.41241 C-0.120015,3.8166 0.018451,4.333415 0.422649,4.566859 L13.283321,11.991847 L2.183933,31.216731 L1.267658,30.687861 C0.863025,30.454219 0.346416,30.592891 0.113422,30.997081 C-0.120015,31.401286 0.018451,31.918101 0.422649,32.151332 L4.888195,34.729609 C5.287227,34.959803 5.812664,34.818553 6.042438,34.42039 L6.688457,33.301249 L8.511333,34.273311 C7.916774,35.426036 7.975345,36.86494 8.786327,37.985804 C9.479511,38.943644 10.565486,39.452937 11.666309,39.452937 C12.033901,39.452937 12.402774,39.395656 12.759387,39.279811 C12.761539,40.034358 13.00143,40.759639 13.45753,41.365382 C14.150073,42.285319 15.220317,42.772868 16.302196,42.772868 C16.663539,42.772868 17.02618,42.718379 17.376537,42.607264 C17.386013,43.31251 17.603725,44.021632 18.047756,44.635142 C18.603343,45.40327 19.42509,45.9089 20.360965,46.058986 C20.551326,46.089564 20.741474,46.10464 20.930545,46.10464 C21.297489,46.10464 21.659267,46.047358 22.005313,45.936229 C22.015445,46.659785 22.245639,47.361812 22.678478,47.960032 C23.234279,48.727931 24.055805,49.233775 24.99168,49.383876 C25.182048,49.414454 25.372409,49.429515 25.561481,49.429301 C26.302265,49.429301 27.022579,49.197596 27.634365,48.754863 L29.605823,47.328425 C30.032421,47.019832 30.376537,46.629847 30.624828,46.184749 L34.09312,48.075038 C34.62157,48.363154 35.201274,48.509578 35.786785,48.509578 C36.123363,48.509578 36.462322,48.461131 36.794162,48.363353 C37.703548,48.095698 38.454235,47.489711 38.907749,46.65742 C39.261554,46.008586 39.400661,45.282679 39.318408,44.563426 C39.530727,44.602412 39.744342,44.621791 39.956882,44.621791 C41.214908,44.621592 42.435909,43.952067 43.079135,42.771785 C43.441127,42.107463 43.567325,41.377452 43.487636,40.677363 C43.700183,40.716563 43.914661,40.735942 44.127849,40.735942 C45.386089,40.735942 46.606876,40.066218 47.250095,38.885936 C47.603687,38.237544 47.742801,37.51205 47.660968,36.793239 C47.871784,36.832438 48.085414,36.852458 48.300327,36.852458 C48.636898,36.852458 48.975635,36.804011 49.307468,36.706462 C50.216876,36.438563 50.96754,35.832805 51.421276,35.0003 C51.874996,34.16801 51.977497,33.208873 51.709621,32.299266 C51.645435,32.080699 51.561023,31.871592 51.459171,31.673259 L52.941371,30.621318 L53.72414,31.64915 C54.006679,32.020182 54.555805,32.089305 54.921443,31.799235 L57.254245,29.949443 C57.619907,29.659388 57.681278,29.127925 57.391201,28.762263 C57.100925,28.396174 56.569675,28.335032 56.203807,28.624888 Z M5.001255,32.843425 L3.647396,32.061747 L14.746784,12.836848 L16.100856,13.618541 L5.001255,32.843425 Z M10.155467,36.995021 C9.554447,36.164653 9.741367,35.000087 10.57172,34.399058 L16.549411,30.073924 C16.881465,29.833583 17.263484,29.71754 17.641628,29.71754 C18.19807,29.71754 18.746112,29.969264 19.113483,30.447535 C19.743579,31.267985 19.566135,32.47993 18.72932,33.085704 L12.751201,37.411265 C11.920848,38.012294 10.756275,37.825587 10.155467,36.995021 Z M14.80772,40.348964 C14.181293,39.5171 14.422687,38.288142 15.251537,37.688197 L19.719676,34.455485 C19.882259,34.347178 20.032787,34.233027 20.214748,34.155742 C20.474018,34.045695 20.757839,33.995738 21.039081,34.011454 C21.577213,34.041163 22.081119,34.311854 22.409084,34.738658 C23.038967,35.559108 22.861522,36.770854 22.024921,37.376811 L17.381916,40.736155 C16.567066,41.325755 15.412189,41.151973 14.80772,40.348964 Z M20.628421,44.3903 C20.138088,44.311686 19.707836,44.04684 19.41669,43.644343 C18.816104,42.814204 19.002376,41.650706 19.831874,41.049479 L23.015918,38.745524 L23.140171,38.655742 C23.960842,38.062037 25.087078,38.22613 25.704479,39.029567 C26.334346,39.850245 26.156688,41.062388 25.319652,41.668162 L22.012638,44.060832 C21.610385,44.352183 21.118968,44.469111 20.628421,44.3903 Z M29.364849,44.721263 C29.291637,45.22259 29.025478,45.66212 28.615039,45.959269 L26.643352,47.385722 C25.82204,47.980052 24.641109,47.789912 24.047618,46.969447 C23.451335,46.145549 23.64558,44.97021 24.463878,44.3735 L26.310237,43.037516 L26.43555,42.947078 C27.244373,42.361781 28.391941,42.529521 28.999629,43.320903 C29.308216,43.722529 29.437862,44.219737 29.364849,44.721263 Z M49.937145,34.191264 C49.452617,35.080409 48.305706,35.419368 47.41505,34.93397 L37.645404,29.608775 C37.235393,29.385478 36.72224,29.536418 36.498928,29.946223 C36.275608,30.356013 36.42657,30.869182 36.836368,31.092708 L45.023464,35.555034 C45.923381,36.045573 46.256496,37.176982 45.766178,38.076899 C45.275409,38.976802 44.144008,39.310374 43.243869,38.819621 L34.937053,34.291835 C34.527256,34.068522 34.014087,34.219676 33.790775,34.629481 C33.567478,35.039271 33.718425,35.55244 34.128437,35.775752 L40.853572,39.441508 C41.752628,39.93249 42.085117,41.063258 41.594997,41.962748 C41.110469,42.85168 39.963558,43.190837 39.072902,42.705241 L32.031871,38.86764 C31.621852,38.644313 31.108913,38.795283 30.885593,39.205073 C30.662288,39.614863 30.813236,40.128032 31.223033,40.351558 L36.681095,43.326503 C37.570255,43.81103 37.909191,44.957942 37.423603,45.848597 C36.93909,46.737742 35.792171,47.076487 34.901737,46.591105 L31.073162,44.504222 C31.086734,43.707026 30.83414,42.934794 30.339717,42.291148 C29.676029,41.426539 28.703319,40.949778 27.700252,40.901103 C27.716197,40.826182 27.730625,40.750575 27.741825,40.67393 C27.881153,39.716945 27.633716,38.767268 27.044536,38.000224 C26.380634,37.135844 25.407939,36.65887 24.404872,36.610194 C24.42081,36.535243 24.435237,36.459681 24.446437,36.382808 C24.585979,35.425822 24.338336,34.476375 23.749164,33.709102 C23.085262,32.844722 22.11256,32.367961 21.109714,32.319301 C21.125431,32.244136 21.139858,32.168559 21.15105,32.092112 C21.290599,31.134913 21.042949,30.185252 20.453777,29.418208 C19.275859,27.884318 17.12524,27.570994 15.55862,28.704768 L9.661693,32.971568 L7.533893,31.836711 L15.87582,17.388102 L17.446521,18.30009 C17.604373,18.391826 17.788059,18.429713 17.969165,18.40861 L21.944805,17.943049 L23.389102,18.550959 L22.558963,21.871119 C22.542385,21.938289 22.533771,22.006984 22.533771,22.076106 L22.533771,29.286845 C22.533771,31.74087 24.530208,33.73733 26.984241,33.73733 C29.43806,33.73733 31.434513,31.74087 31.434513,29.286845 L31.434513,22.31837 L31.588047,22.072673 L49.194416,31.668956 C50.083347,32.153697 50.422733,33.300609 49.937145,34.191264 Z M50.340267,30.394557 C50.232585,30.319407 50.120388,30.249202 50.003459,30.185252 L32.485805,20.637202 L33.135707,19.597316 C33.383129,19.201503 33.262752,18.680156 32.86697,18.432734 C32.471599,18.18574 31.949817,18.30569 31.70261,18.701472 L29.873287,21.628428 C29.789516,21.762782 29.744716,21.917842 29.744716,22.076335 L29.744716,29.287059 C29.744716,30.809108 28.506496,32.047526 26.984462,32.047526 C25.4622,32.047526 24.223987,30.809108 24.223987,29.287059 L24.223987,22.180339 L25.841419,15.710597 L34.960521,15.710597 L39.586505,17.238871 C39.849437,17.325663 40.145313,17.275706 40.365177,17.107295 L41.807537,16.003459 L51.916339,29.275859 L50.340267,30.394557 Z" id="Fill-682"></path>
                    <path d="M51.995145,5.228938 C52.151485,5.228938 52.309545,5.185664 52.450805,5.095011 L57.185125,2.056529 C57.577885,1.804362 57.692015,1.281504 57.439855,0.888941 C57.187895,0.496165 56.665285,0.382014 56.272465,0.634196 L51.538175,3.672663 C51.145385,3.92483 51.031285,4.447474 51.283445,4.84025 C51.444735,5.091761 51.716915,5.228938 51.995145,5.228938 Z" id="Fill-684"></path>
                </g>
            </g>
        </g>
    </g>
</svg>