<?xml version="1.0" encoding="UTF-8"?>
<svg width="57px" height="67px" viewBox="0 0 57 67" version="1.1" xmlns="http://www.w3.org/2000/svg" xmlns:xlink="http://www.w3.org/1999/xlink">
    <!-- Generator: Sketch 51.3 (57544) - http://www.bohemiancoding.com/sketch -->
    <title>Fill 67</title>
    <desc>Created with Sketch.</desc>
    <defs></defs>
    <g id="Page-1" stroke="none" stroke-width="1" fill="none" fill-rule="evenodd">
        <g id="WEB---OVERVIEW-I-POST" transform="translate(-804.000000, -384.000000)" fill="#000000">
            <g id="Group-269" transform="translate(32.000000, 50.000000)">
                <path d="M828.472774,352.030366 L828.470698,351.978791 C828.442012,351.34105 828.422679,350.666093 828.41093,349.915498 C828.356731,346.25467 825.446742,343.226563 821.785304,343.021714 C814.151782,342.595857 808.246539,340.106736 803.200603,335.188584 L803.157504,335.147553 C801.511905,333.638505 799.029208,333.638505 797.382976,335.147553 L797.3399,335.188584 C792.294269,340.106736 786.388736,342.595857 778.755199,343.022294 C775.094348,343.226563 772.183795,346.25467 772.129573,349.916108 C772.118442,350.661698 772.098483,351.336335 772.069766,351.978791 L772.066844,352.098649 C771.918254,359.882859 771.733905,369.570573 774.974788,378.363832 C776.756991,383.199342 779.455638,387.40268 782.996051,390.857789 C787.028209,394.792665 792.309192,397.916612 798.692752,400.142243 C798.900561,400.214631 799.116267,400.273561 799.33607,400.317491 C799.646144,400.37935 799.958263,400.410401 800.270412,400.410401 C800.582225,400.410401 800.894664,400.37935 801.204455,400.317491 C801.424266,400.273561 801.641421,400.214341 801.850391,400.141343 C808.226031,397.911317 813.501742,394.78592 817.530391,390.851655 C821.069041,387.395661 823.76797,383.191133 825.551662,378.354722 C828.80453,369.535111 828.620769,359.829209 828.472774,352.030366 Z M814.976214,364.919999 L814.595508,365.341157 C814.048343,365.942536 813.325595,366.183442 812.982394,365.882478 C812.635394,365.578843 812.357562,365.335282 812.357562,365.335282 L812.357562,378.405152 C812.357562,379.218736 811.698703,379.87436 810.884524,379.87436 L805.297,379.87436 C804.483417,379.87436 803.901652,379.218736 803.912761,378.405152 L803.912761,369.129182 L797.187503,369.129182 L797.187503,378.405152 C797.187503,379.218736 796.528659,379.877275 795.71448,379.877275 L790.442302,379.877275 C789.628703,379.877275 788.969295,379.218736 788.969295,378.405152 L788.969295,365.148881 L787.957873,366.054795 C787.399539,366.553025 786.490718,366.484757 785.926547,365.897126 L785.588328,365.544251 C785.023563,364.959855 785.055209,364.037553 785.654292,363.490357 L799.181911,351.085176 C799.783618,350.538026 800.763347,350.526872 801.376773,351.062318 L814.858996,362.859635 C815.47211,363.395692 815.523379,364.317719 814.976214,364.919999 Z" id="Fill-67"></path>
            </g>
        </g>
    </g>
</svg>