<svg xmlns="http://www.w3.org/2000/svg" xmlns:xlink="http://www.w3.org/1999/xlink" width="45.419" height="40" viewBox="0 0 45.419 40">
  <defs>
    <clipPath id="clip-path">
      <rect id="Rectangle_397" data-name="Rectangle 397" width="45.419" height="40"/>
    </clipPath>
  </defs>
  <g id="Group_574" data-name="Group 574" transform="translate(0)">
    <g id="Group_43" data-name="Group 43">
      <g id="Group_42" data-name="Group 42" clip-path="url(#clip-path)">
        <path id="Path_163" data-name="Path 163" d="M41.682,3.813a12.561,12.561,0,0,0-17.759,0L22.685,5.05,21.423,3.789A12.532,12.532,0,0,0,3.676,3.777a12.532,12.532,0,0,0,.012,17.747L21.748,39.583a1.3,1.3,0,0,0,.913.384,1.291,1.291,0,0,0,.913-.372l18.1-18.023a12.575,12.575,0,0,0,.012-17.759Zm-1.85,15.921L22.649,36.844,5.515,19.709a9.949,9.949,0,1,1,14.07-14.07L21.76,7.814a1.305,1.305,0,0,0,1.838,0l2.151-2.151a9.953,9.953,0,1,1,14.082,14.07Zm0,0" transform="translate(0.001 -0.088)"/>
      </g>
    </g>
  </g>
</svg>
