<?xml version="1.0" encoding="UTF-8"?>
<svg width="63px" height="48px" viewBox="0 0 63 48" version="1.1" xmlns="http://www.w3.org/2000/svg" xmlns:xlink="http://www.w3.org/1999/xlink">
    <!-- Generator: Sketch 51.3 (57544) - http://www.bohemiancoding.com/sketch -->
    <title>Group 5</title>
    <desc>Created with Sketch.</desc>
    <defs></defs>
    <g id="Page-1" stroke="none" stroke-width="1" fill="none" fill-rule="evenodd">
        <g id="WEB---OVERVIEW-I-POST" transform="translate(-496.000000, -3951.000000)" fill="#888888">
            <g id="Group-701" transform="translate(0.000000, -66.000000)">
                <g id="Group-5" transform="translate(496.000000, 4017.000000)">
                    <path d="M47.603617,40.92358 L38.692545,44.64008 C36.897379,45.3891 34.891313,45.4671 33.043001,44.85761 L12.142015,37.97089 C10.826776,37.53577 9.401941,37.60394 8.134859,38.16193 L7.304537,38.52387 C6.789732,38.74976 6.553922,39.35095 6.779764,39.86743 C7.005613,40.3822 7.606771,40.61804 8.123236,40.39209 L8.953565,40.0285 C9.760641,39.6731 10.665697,39.63153 11.504324,39.90723 L32.405313,46.79401 C33.436579,47.1344 34.5077,47.30377 35.57715,47.30377 C36.90568,47.30377 38.232546,47.04132 39.476374,46.52161 L48.387445,42.80505 C48.907221,42.58753 49.153009,41.99133 48.935449,41.47156 C48.719576,40.95178 48.121729,40.70599 47.603617,40.92358 Z" id="Fill-523"></path>
                    <path d="M41.982448,2.117325 L39.039775,0.169335 C38.697673,-0.056435 38.254283,-0.056435 37.913859,0.169335 L21.259162,11.196185 C20.789199,11.508325 20.66133,12.139425 20.971862,12.609335 C21.282409,13.079305 21.915114,13.207175 22.385085,12.896685 L25.183284,11.043415 L25.183284,16.521875 L21.745734,15.203325 C21.612876,15.150225 21.468406,15.097065 21.289046,15.035605 C17.673804,13.793355 13.550399,14.361405 10.260654,16.551775 L0.454494,23.084795 C-0.01381,23.396995 -0.141679,24.029685 0.17052,24.499595 C0.482722,24.967915 1.117095,25.094195 1.585399,24.781945 L11.391559,18.248985 C14.154891,16.407305 17.607383,15.927385 20.628112,16.965235 C20.775916,17.015095 20.89215,17.058305 21.003425,17.101465 L39.449962,24.177515 C39.997981,24.386675 40.428065,24.800255 40.660579,25.339925 C40.901363,25.897965 40.901363,26.510705 40.6589,27.063685 C40.210536,28.089985 39.031474,28.609765 37.97198,28.246115 L26.271007,24.245625 C25.336055,23.925065 24.319743,23.964865 23.413035,24.355185 C22.28379,24.841755 21.456771,25.801655 21.142921,26.987325 C20.616485,28.976765 21.727462,31.070825 23.67541,31.753435 L37.085185,36.439715 C38.488444,36.929645 40.034495,36.929645 41.441066,36.439715 L56.817073,31.059225 C58.187099,30.579305 59.713252,31.246905 60.291164,32.588705 L60.297801,32.602015 C60.586742,33.287865 60.591731,34.045065 60.311092,34.734275 C60.028773,35.425135 59.494044,35.963155 58.804881,36.250445 L50.5946,39.674645 C50.074824,39.892235 49.829036,40.488425 50.04658,41.008195 C50.209331,41.400105 50.587962,41.635885 50.98817,41.635885 C51.117702,41.635885 51.252223,41.611045 51.380092,41.556295 L59.590358,38.131915 C60.78271,37.633805 61.709361,36.702165 62.197581,35.504845 C62.685817,34.310815 62.677516,32.997155 62.174342,31.806595 L62.161052,31.773275 C61.242717,29.645955 58.93275,28.496845 56.717433,28.975115 C56.998088,28.065085 56.951579,27.096885 56.577937,26.208455 C56.157786,25.208695 55.370631,24.433185 54.362636,24.023035 L54.327754,24.009785 C53.49908,23.682635 52.600673,23.647725 51.768687,23.873555 L51.768687,17.265885 C51.768687,16.702905 51.313655,16.246175 50.750697,16.246175 C50.187739,16.246175 49.731059,16.702905 49.731059,17.265885 L49.731059,31.378135 L40.768504,34.515035 C39.797038,34.853845 38.72758,34.853845 37.757747,34.515035 L27.22256,30.833395 L27.22256,26.724935 L37.31103,30.175745 C39.348659,30.873255 41.615443,29.890095 42.500575,27.935505 L43.777629,27.935505 C44.340587,27.935505 44.797267,27.478845 44.797267,26.915855 L44.797267,15.090415 C44.797267,14.527425 44.340587,14.070695 43.777629,14.070695 L33.174342,14.070695 C32.611384,14.070695 32.154704,14.527425 32.154704,15.090415 L32.154704,19.195515 L27.22256,17.304035 L27.22256,9.694905 L38.475154,2.241905 L49.731059,9.694905 L49.731059,13.868125 C49.731059,14.431115 50.187739,14.886125 50.750697,14.886125 C51.313655,14.886125 51.768687,14.431115 51.768687,13.868125 L51.768687,11.043415 L54.568553,12.896685 C54.741252,13.011185 54.937221,13.066065 55.129848,13.066065 C55.460307,13.066065 55.784144,12.904925 55.980098,12.609335 C56.292293,12.139425 56.162776,11.508325 55.692805,11.196185 L50.13792,7.517785 L41.982448,2.117325 Z M40.178996,22.272725 L34.19398,19.977685 L34.19398,16.110005 L42.757976,16.110005 L42.757976,25.207115 C42.701518,24.977925 42.628444,24.752095 42.533794,24.532915 C42.080424,23.481705 41.243465,22.679645 40.178996,22.272725 Z M23.114116,27.508745 C23.266887,26.932515 23.670436,26.465905 24.220103,26.228415 C24.525661,26.095545 24.857799,26.047385 25.183284,26.082235 L25.183284,30.120935 L24.347972,29.828695 C23.39973,29.496545 22.858367,28.476885 23.114116,27.508745 Z M51.768687,26.073935 C52.306727,25.738485 52.980952,25.670365 53.580455,25.907915 L53.610347,25.919515 C54.10522,26.123795 54.492152,26.505755 54.699733,27.000635 C54.908977,27.498735 54.912288,28.050135 54.706386,28.551655 L54.183269,29.820335 L51.768687,30.665665 L51.768687,26.073935 Z" id="Fill-525"></path>
                </g>
            </g>
        </g>
    </g>
</svg>