<?xml version="1.0" encoding="UTF-8"?>
<svg width="60px" height="61px" viewBox="0 0 60 61" version="1.1" xmlns="http://www.w3.org/2000/svg" xmlns:xlink="http://www.w3.org/1999/xlink">
    <!-- Generator: Sketch 51.3 (57544) - http://www.bohemiancoding.com/sketch -->
    <title>Group 4</title>
    <desc>Created with Sketch.</desc>
    <defs></defs>
    <g id="Page-1" stroke="none" stroke-width="1" fill="none" fill-rule="evenodd">
        <g id="WEB---OVERVIEW-I-SEARCH" transform="translate(-500.000000, -3190.000000)" fill="#888888">
            <g id="Group-674" transform="translate(0.000000, -38.000000)">
                <g id="Group-4" transform="translate(500.000000, 3228.500000)">
                    <path d="M53.215008,47.541305 C53.853665,46.659025 54.231534,45.576115 54.231534,44.406205 L54.231534,37.414305 C54.231534,36.771665 53.710461,36.250605 53.067837,36.250605 L47.867604,36.250605 C45.463894,36.250605 43.508153,38.206345 43.508153,40.610325 L43.508153,44.406205 C43.508153,45.575375 43.885525,46.657535 44.52319,47.539565 C43.727665,47.668575 42.962468,47.923405 42.248738,48.296535 C40.632092,45.884385 37.983502,44.220485 34.939885,43.940075 C34.927952,43.936595 34.915776,43.934115 34.903836,43.931125 C35.992962,42.715225 36.656727,41.111005 36.656727,39.353895 L36.656727,29.851135 C36.656727,29.208495 36.135655,28.687685 35.493016,28.687685 L28.425557,28.687685 C25.388653,28.687685 22.918057,31.158275 22.918057,34.194935 L22.918057,39.353895 C22.918057,41.110765 23.581822,42.714985 24.670949,43.931125 C24.659009,43.934115 24.646832,43.936595 24.6349,43.939815 C21.591031,44.220485 18.942189,45.884385 17.325795,48.297055 C16.611805,47.924165 15.846371,47.669085 15.051343,47.540055 C15.689259,46.657775 16.066632,45.575375 16.066632,44.406205 L16.066632,37.414305 C16.066632,36.771665 15.545559,36.250605 14.90318,36.250605 L9.702954,36.250605 C7.298985,36.250605 5.343251,38.206345 5.343251,40.610325 L5.343251,44.406205 C5.343251,45.576115 5.721119,46.659025 6.359776,47.541305 C2.758046,48.129985 0.000325,51.262355 0.000325,55.027665 L0.000325,58.474765 C0.000325,59.117385 0.52139,59.638215 1.163777,59.638215 L58.411015,59.638215 C59.053387,59.638215 59.57446,59.117385 59.57446,58.474765 L59.57446,55.027665 C59.57446,51.262355 56.816739,48.129985 53.215008,47.541305 Z M51.904377,44.406205 C51.904377,46.079285 50.543042,47.440615 48.869717,47.440615 C47.196393,47.440615 45.835301,46.079285 45.835301,44.406205 L45.835301,43.582095 L50.64423,43.582095 C51.087483,43.582095 51.512089,43.500805 51.904377,43.352875 L51.904377,44.406205 Z M49.619992,49.767765 L48.869717,50.517795 L48.119694,49.767765 L49.619992,49.767765 Z M45.835301,40.610325 C45.835301,39.489625 46.746914,38.577775 47.867604,38.577775 L51.904377,38.577775 L51.904377,39.995045 C51.904377,40.689875 51.339062,41.254945 50.64423,41.254945 L45.835301,41.254945 L45.835301,40.610325 Z M25.245213,37.816055 L32.199315,37.816055 C32.970227,37.816055 33.696393,37.619155 34.329571,37.273105 L34.329571,39.353895 C34.329571,41.858555 32.292042,43.896075 29.787388,43.896075 C27.282986,43.896075 25.245213,41.858555 25.245213,39.353895 L25.245213,37.816055 Z M31.815716,46.223235 L29.787388,48.251295 L27.759068,46.223235 L31.815716,46.223235 Z M25.245213,34.194935 C25.245213,32.441295 26.671933,31.014585 28.425557,31.014585 L34.329571,31.014585 L34.329571,33.358645 C34.329571,34.533275 33.3737,35.489155 32.199063,35.489155 L25.245213,35.489155 L25.245213,34.194935 Z M13.739476,44.406205 C13.739476,46.079285 12.378392,47.440615 10.70506,47.440615 C9.031727,47.440615 7.670399,46.079285 7.670399,44.406205 L7.670399,43.582095 L12.479573,43.582095 C12.922833,43.582095 13.347439,43.500805 13.739476,43.352875 L13.739476,44.406205 Z M11.45509,49.767765 L10.70506,50.517795 L9.954793,49.767765 L11.45509,49.767765 Z M7.670399,40.610325 C7.670399,39.489625 8.582264,38.577775 9.702954,38.577775 L13.739476,38.577775 L13.739476,39.995045 C13.739476,40.689875 13.174412,41.254945 12.479573,41.254945 L7.670399,41.254945 L7.670399,40.610325 Z M2.327473,55.027665 C2.327473,52.417845 4.238217,50.246815 6.734166,49.838115 L9.882191,52.986155 C10.100468,53.204425 10.39655,53.326975 10.70506,53.326975 C11.013569,53.326975 11.309407,53.204425 11.527684,52.986155 L14.67696,49.836885 C15.233075,49.927615 15.767811,50.106875 16.266255,50.369135 C15.872227,51.435625 15.656186,52.587885 15.656186,53.789645 L15.656186,57.311045 L2.327473,57.311045 L2.327473,55.027665 Z M39.328686,57.311045 L20.246098,57.311045 L17.983342,57.311045 L17.983342,54.983905 L25.559941,54.983905 C26.202321,54.983905 26.723393,54.463085 26.723393,53.820445 C26.723393,53.177825 26.202321,52.656755 25.559941,52.656755 L18.068608,52.656755 C18.567303,49.349865 21.214398,46.739565 24.537694,46.292835 L28.964528,50.719665 C29.19199,50.946885 29.489567,51.060505 29.787388,51.060505 C30.085217,51.060505 30.382794,50.946885 30.610257,50.719665 L35.037091,46.292835 C38.732037,46.789295 41.591443,49.960925 41.591443,53.789645 L41.591443,57.311045 L39.328686,57.311045 Z M57.247304,57.311045 L43.918339,57.311045 L43.918339,53.789645 C43.918339,52.587645 43.702557,51.435375 43.30827,50.368885 C43.806469,50.106355 44.341214,49.927125 44.89758,49.836885 L48.046856,52.986155 C48.265126,53.204425 48.560956,53.326975 48.869717,53.326975 C49.178235,53.326975 49.474064,53.204425 49.692334,52.986155 L52.840619,49.838115 C55.336316,50.247065 57.247304,52.417845 57.247304,55.027665 L57.247304,57.311045 Z" id="Fill-606"></path>
                    <path d="M24.053222,10.907658 C23.598785,11.362103 23.598785,12.09895 24.053222,12.553395 L27.344192,15.844365 C27.562469,16.06239 27.858291,16.185193 28.167053,16.185193 C28.47557,16.185193 28.771423,16.06239 28.989669,15.844365 L35.522155,9.311887 C35.97659,8.857449 35.97659,8.120847 35.522155,7.666402 C35.067718,7.211965 34.331115,7.211965 33.876678,7.666402 L28.167053,13.376004 L25.698699,10.90791 C25.244262,10.453221 24.507659,10.453221 24.053222,10.907658 Z" id="Fill-608"></path>
                    <path d="M29.7871995,23.446782 C36.2336725,23.446782 41.4786365,18.202062 41.4786365,11.755597 C41.4786365,7.144811 38.7569575,2.951665 34.5446765,1.073232 C33.9579765,0.811456 33.2698665,1.074975 33.0080865,1.661916 C32.7462915,2.248861 33.0100545,2.936742 33.5970145,3.198522 C36.9710075,4.703298 39.1514885,8.062139 39.1514885,11.755597 C39.1514885,16.919034 34.9506525,21.119878 29.7871995,21.119878 C24.6237785,21.119878 20.4229265,16.919034 20.4229265,11.755597 C20.4229265,8.081289 22.5874925,4.729398 25.9373765,3.216421 C26.5230855,2.951909 26.7833705,2.262792 26.5188585,1.677083 C26.2543475,1.091382 25.5647265,0.831098 24.9795215,1.095609 C20.7980645,2.984228 18.0960225,7.168424 18.0960225,11.755346 C18.0957635,18.202062 23.3407585,23.446782 29.7871995,23.446782 Z" id="Fill-610"></path>
                    <path d="M29.78717,2.391198 L29.81799,2.391198 L29.82347,2.391198 C30.46361,2.391198 30.98395,1.873857 30.98692,1.232972 C30.98991,0.590341 30.47157,0.067033 29.82893,0.06405 L29.78717,0.06405 C29.14453,0.06405 28.62372,0.58487 28.62372,1.227502 C28.62372,1.870133 29.14453,2.391198 29.78717,2.391198 Z" id="Fill-612"></path>
                    <path d="M29.78717,52.65689 C29.48114,52.65689 29.18083,52.78143 28.96455,52.99799 C28.74802,53.21427 28.62372,53.51456 28.62372,53.82059 C28.62372,54.12662 28.74802,54.42667 28.96455,54.64322 C29.18108,54.85974 29.48114,54.98404 29.78717,54.98404 C30.0932,54.98404 30.39351,54.85974 30.60979,54.64322 C30.82606,54.42667 30.95062,54.12662 30.95062,53.82059 C30.95062,53.51456 30.82632,53.21427 30.60979,52.99799 C30.39351,52.78143 30.0932,52.65689 29.78717,52.65689 Z" id="Fill-614"></path>
                </g>
            </g>
        </g>
    </g>
</svg>