<?xml version="1.0" encoding="UTF-8"?>
<svg width="70px" height="69px" viewBox="0 0 70 69" version="1.1" xmlns="http://www.w3.org/2000/svg" xmlns:xlink="http://www.w3.org/1999/xlink">
    <!-- Generator: Sketch 51.3 (57544) - http://www.bohemiancoding.com/sketch -->
    <title>Fill 341</title>
    <desc>Created with Sketch.</desc>
    <defs></defs>
    <g id="Page-1" stroke="none" stroke-width="1" fill="none" fill-rule="evenodd">
        <g id="WEB---OVERVIEW-I-SEARCH" transform="translate(-475.000000, -498.000000)" fill="#000000">
            <g id="Group-674">
                <path d="M509.95752,498.015782 C490.98144,498.015782 475.59601,513.401349 475.59601,532.377324 C475.59601,551.353284 490.98144,566.738606 509.95752,566.738606 C528.93347,566.738606 544.31897,551.353284 544.31897,532.377324 C544.31897,513.401349 528.93347,498.015782 509.95752,498.015782 Z M484.1864,532.377324 C484.1864,518.1666 495.74701,506.606175 509.95752,506.606175 C515.51971,506.606175 520.63769,508.418912 524.84906,511.421254 L519.28656,516.980664 C519.2655,516.961293 519.24695,516.940976 519.22564,516.921582 C518.48297,516.248311 517.60235,515.653195 516.58484,515.135007 C515.56591,514.617764 514.36615,514.255254 512.9859,514.047871 L512.9859,509.491894 L508.37866,509.491894 L508.37866,513.944478 C506.85827,514.117413 505.49542,514.488209 504.2879,515.058087 C503.07885,515.627064 502.05249,516.344304 501.20666,517.205929 C500.36071,518.069661 499.71307,519.0537 499.26538,520.157796 C498.8164,521.262776 498.5921,522.436085 498.5921,523.678021 C498.5921,525.024564 498.84198,526.242184 499.34332,527.329327 C499.84271,528.416478 500.51568,529.391896 501.36291,530.254735 C502.11413,531.022153 502.98224,531.703122 503.95343,532.306554 L488.99267,547.260098 C485.99017,543.048451 484.1864,537.930913 484.1864,532.377324 Z M516.14441,540.350453 C516.14441,541.317593 515.85144,542.137013 515.26458,542.810292 C514.677,543.483556 513.91845,543.975293 512.9859,544.286053 L512.9859,536.364361 C514.12579,536.951146 514.93603,537.537968 515.41943,538.124776 C515.9032,538.711575 516.14441,539.454076 516.14441,540.350453 Z M504.96112,523.678021 C504.96112,522.816434 505.27185,522.07391 505.89233,521.452321 C506.51379,520.830746 507.34289,520.383031 508.37866,520.106076 L508.37866,527.665333 C507.16906,527.043767 506.29779,526.431721 505.76263,525.827084 C505.2276,525.223637 504.96112,524.507291 504.96112,523.678021 Z M508.37866,540.027341 L508.37866,544.286053 C507.36529,543.966656 506.46704,543.443867 505.68109,542.723202 L508.37866,540.027341 Z M512.9859,523.278294 L512.9859,520.41689 C513.6867,520.713521 514.26764,521.085232 514.73663,521.528638 L512.9859,523.278294 Z M509.95752,558.148183 C504.3952,558.148183 499.27771,556.335736 495.06585,553.333417 L501.03015,547.372113 C501.17431,547.50105 501.3153,547.633969 501.46576,547.75491 C503.48529,549.378384 505.78918,550.378155 508.37866,550.758176 L508.37866,555.262768 L512.9859,555.262768 L512.9859,550.706799 C514.263,550.499066 515.49762,550.136914 516.68902,549.619626 C517.87927,549.101163 518.92346,548.411267 519.82055,547.548428 C520.7182,546.685925 521.43481,545.650159 521.96966,544.440861 C522.50494,543.233708 522.77258,541.852704 522.77258,540.299046 C522.77258,538.918965 522.54693,537.702283 522.0993,536.648984 C521.65057,535.596593 520.99432,534.655926 520.13147,533.826672 C519.26861,532.998906 518.23327,532.257321 517.0252,531.600972 C516.97912,531.576039 516.92962,531.551411 516.88354,531.526822 L530.92242,517.494549 C533.92468,521.705899 535.72882,526.82375 535.72882,532.377324 C535.72882,546.58775 524.16815,558.148183 509.95752,558.148183 Z" id="Fill-341"></path>
            </g>
        </g>
    </g>
</svg>