<?xml version="1.0" encoding="UTF-8"?>
<svg width="60px" height="51px" viewBox="0 0 60 51" version="1.1" xmlns="http://www.w3.org/2000/svg" xmlns:xlink="http://www.w3.org/1999/xlink">
    <!-- Generator: Sketch 51.3 (57544) - http://www.bohemiancoding.com/sketch -->
    <title>Group 2</title>
    <desc>Created with Sketch.</desc>
    <defs></defs>
    <g id="Page-1" stroke="none" stroke-width="1" fill="none" fill-rule="evenodd">
        <g id="WEB---OVERVIEW-I-POST" transform="translate(-503.000000, -3456.000000)" fill="#888888">
            <g id="Group-701" transform="translate(0.000000, -66.000000)">
                <g id="Group-2" transform="translate(503.000000, 3522.000000)">
                    <path d="M47.8720275,44.833525 L41.3108575,44.833525 C40.8779875,44.833525 40.5269775,45.184285 40.5269775,45.617395 C40.5269775,46.050255 40.8779875,46.401265 41.3108575,46.401265 L47.8720275,46.401265 C48.3048875,46.401265 48.6558975,46.050255 48.6558975,45.617395 C48.6558975,45.184285 48.3048875,44.833525 47.8720275,44.833525 Z" id="Fill-499"></path>
                    <path d="M41.3108575,43.48535 L45.6850475,43.48535 C46.1179175,43.48535 46.4689375,43.13434 46.4689375,42.70148 C46.4689375,42.26862 46.1179175,41.9176 45.6850475,41.9176 L41.3108575,41.9176 C40.8779875,41.9176 40.5269775,42.26862 40.5269775,42.70148 C40.5269775,43.13434 40.8779875,43.48535 41.3108575,43.48535 Z" id="Fill-501"></path>
                    <path d="M47.8720275,39.000895 L41.3108575,39.000895 C40.8779875,39.000895 40.5269775,39.351895 40.5269775,39.784765 C40.5269775,40.217875 40.8779875,40.568645 41.3108575,40.568645 L47.8720275,40.568645 C48.3048875,40.568645 48.6558975,40.217875 48.6558975,39.784765 C48.6558975,39.351895 48.3048875,39.000895 47.8720275,39.000895 Z" id="Fill-503"></path>
                    <path d="M44.939359,-3.5e-05 C39.605069,-0.016079 34.690206,2.889911 32.133344,7.571712 C28.370114,7.163143 24.572209,7.926029 21.258588,9.756336 C18.742307,11.267009 17.356893,13.269519 17.336606,15.402004 C17.336606,15.408138 17.333066,15.413326 17.333066,15.41946 L17.333066,15.44942 C17.333066,15.461688 17.330472,15.473484 17.330472,15.485744 C17.330709,15.496364 17.333066,15.506511 17.333066,15.517124 L17.333066,18.565822 L15.255307,19.812526 C15.103627,19.90382 14.987096,20.043468 14.924817,20.209072 L14.414815,21.565937 L11.208768,21.642604 C10.795484,21.652271 10.460744,21.981578 10.444471,22.394634 L10.380544,23.989986 L6.758145,24.076091 C6.344854,24.085765 6.010121,24.415073 5.993844,24.828121 L5.920011,26.668102 L2.038594,26.766704 C1.903192,26.770481 1.771093,26.808933 1.65503,26.87852 L0.380727,27.643291 C0.139173,27.788372 -0.006141,28.052097 0.000699,28.333751 L0.096475,32.346569 L0.096475,35.590816 L0.094586,35.599079 C0.09435,35.603084 0.096475,35.606395 0.096475,35.610408 L0.096475,35.624317 C0.100247,35.650035 0.105439,35.675746 0.111806,35.700748 C0.116056,35.775997 0.13115,35.850307 0.156392,35.921306 C0.173375,35.953159 0.19272,35.983821 0.214421,36.013072 C0.242963,36.069217 0.278348,36.121822 0.319631,36.169475 C0.355252,36.200145 0.393468,36.227504 0.433805,36.251323 C0.473905,36.284824 0.517308,36.314083 0.563546,36.338848 C0.62016,36.359127 0.679135,36.372814 0.739053,36.379657 C0.776795,36.391918 0.81548,36.40089 0.854642,36.40678 L0.875871,36.407253 L0.880353,36.408199 L0.883657,36.407489 L7.692758,36.611064 L7.701722,36.611064 L7.713044,36.61343 C7.723188,36.61343 7.731443,36.607997 7.741353,36.607769 C7.822736,36.604228 7.902703,36.588184 7.978898,36.559879 C8.004846,36.550441 8.030088,36.539592 8.054856,36.527095 C8.076085,36.516948 8.099202,36.511516 8.119489,36.499248 L26.190686,25.656589 C27.060422,25.778072 27.937482,25.840114 28.815717,25.841999 C30.776471,25.842937 32.726148,25.549724 34.599858,24.972255 C35.460637,25.839405 36.429227,26.592617 37.482022,27.213253 C36.972959,28.155185 36.70593,29.208919 36.704984,30.279651 L36.704984,47.4108 C36.641049,48.969593 37.848127,50.287303 39.406446,50.360195 L54.351087,50.360195 C55.909177,50.28683 57.115781,48.969356 57.051847,47.4108 L57.051847,30.279651 C57.057752,28.917827 56.628186,27.589748 55.826383,26.488826 L54.934934,25.283634 C59.324231,21.186145 60.758695,14.820285 58.55119,9.236423 C56.343686,3.652324 50.94383,-0.011593 44.939359,-3.5e-05 Z M6.929402,35.019008 L1.664231,34.861675 L1.664231,33.152385 L6.929402,33.310428 L6.929402,35.019008 Z M7.506871,31.758708 L1.646302,31.583202 L1.578836,28.752468 L2.284635,28.32928 L6.693978,28.216747 C7.106794,28.206142 7.440587,27.876827 7.457097,27.464244 L7.530934,25.625919 L11.153333,25.539821 C11.566625,25.529911 11.901357,25.200832 11.91763,24.787548 L11.981565,23.192432 L14.981198,23.120723 C15.30084,23.11317 15.583905,22.912181 15.696195,22.612834 L16.296308,21.0163 L19.112897,19.326114 C19.644605,19.843669 20.23882,20.292812 20.881635,20.663166 C20.938718,20.696422 21.00147,20.724498 21.059499,20.756816 L6.153073,29.701 C5.781774,29.923686 5.661466,30.405384 5.884389,30.776447 C6.107072,31.147747 6.588769,31.268047 6.959832,31.045131 L22.787427,21.548473 C23.152356,21.683879 23.530255,21.803722 23.916654,21.9127 L7.506871,31.758708 Z M25.230359,24.404216 L8.496923,34.444133 L8.496923,32.993144 L25.230359,22.952754 L25.230359,24.404216 Z M21.669294,19.30772 C19.905027,18.283931 18.924649,16.93391 18.900823,15.502971 L18.900823,15.442104 C18.904836,13.888271 20.054822,12.30801 22.065122,11.100933 C24.917325,9.543086 28.15875,8.842479 31.399709,9.083797 C31.075589,9.876873 30.823423,10.697795 30.646024,11.53593 C30.377576,11.623912 30.118802,11.738796 29.873471,11.878917 C29.175695,12.23582 28.720883,12.937374 28.679845,13.720073 C28.717816,14.450641 29.143613,15.105251 29.796338,15.43597 C30.149228,15.63766 30.534207,15.776607 30.934522,15.846904 C31.268315,15.915782 31.607999,15.949985 31.948873,15.94952 C32.784177,15.959423 33.606977,15.748065 34.334241,15.336666 L34.41303,15.284999 C35.054669,14.939891 35.476682,14.291881 35.532819,13.565326 C35.543439,13.101085 35.374295,12.650768 35.060559,12.308246 C35.246686,11.509502 35.530934,10.736713 35.907193,10.007801 C36.441487,10.202175 36.95857,10.44067 37.453473,10.720439 C39.269864,11.772289 40.24883,13.16431 40.217694,14.692905 L40.216985,14.696445 L40.216985,14.74055 C40.151166,16.257831 39.033261,17.743968 37.067792,18.92509 C36.533963,19.241664 35.977956,19.519542 35.404264,19.756389 C34.531682,20.110935 33.630094,20.38953 32.709867,20.589336 C32.695249,20.591213 32.680616,20.593807 32.666936,20.596874 C28.705083,21.44421 24.4913,20.950954 21.669294,19.30772 Z M30.355641,13.48843 C30.345731,13.61935 30.344556,13.754047 30.337949,13.886379 C30.288175,13.839672 30.25633,13.777156 30.247602,13.709697 C30.257978,13.625957 30.296201,13.548107 30.355641,13.48843 Z M38.241132,9.364986 C37.76415,9.093471 37.2683,8.856159 36.757588,8.654468 C38.986081,5.594203 42.734922,4.031406 46.477399,4.602268 C50.219861,5.173137 53.332257,7.782604 54.547116,11.368206 C55.761975,14.953807 54.876905,18.917781 52.252103,21.6459 L50.067479,18.688014 C49.332433,17.654094 48.147061,17.033924 46.878415,17.020008 L46.877477,17.020008 C45.609067,17.034397 44.423932,17.65504 43.689359,18.689197 L40.095502,23.556888 C39.694005,23.337268 39.30808,23.09029 38.940557,22.817829 C40.57507,21.722568 41.621739,19.942508 41.783795,17.981746 L41.784742,17.977031 L41.784742,14.729701 L41.786389,14.716258 C41.848195,12.625759 40.588986,10.724918 38.241132,9.364986 Z M34.564473,23.3493 C32.064939,24.17847 29.414655,24.453289 26.798108,24.154407 L26.798108,22.460216 C27.47041,22.531688 28.146009,22.567775 28.822087,22.568721 C30.210569,22.568958 31.595265,22.424831 32.954023,22.138683 C32.971479,22.136333 32.988462,22.132793 33.005208,22.129482 C34.028516,21.909397 35.030835,21.600376 36.0006,21.206195 C36.645772,20.940105 37.270658,20.627544 37.870778,20.271114 C38.722119,19.772899 39.495381,19.152019 40.165799,18.428539 C39.938626,19.762287 38.908948,21.056407 37.164975,22.143642 C37.139737,22.162273 37.11662,22.175251 37.067075,22.206386 C36.274945,22.673702 35.436338,23.05656 34.564473,23.3493 Z M36.228711,24.373317 C36.677617,24.178935 37.11662,23.958614 37.547361,23.718242 C38.051709,24.132946 38.590024,24.504238 39.1564,24.82883 L38.358136,25.909938 C37.596906,25.473064 36.883321,24.958103 36.228711,24.373317 Z M55.484098,30.279651 L55.484098,47.4108 C55.54495,48.10268 55.041562,48.71648 54.351087,48.79243 L39.406446,48.79243 C38.715512,48.716953 38.211881,48.102916 38.27274,47.4108 L38.27274,30.279651 C38.268018,29.244548 38.594739,28.235149 39.204999,27.399135 L44.949979,19.621219 C45.3793,18.97581 46.103032,18.587993 46.878179,18.587764 C47.653333,18.587764 48.377057,18.975337 48.806623,19.62051 L51.077344,22.695163 C50.223172,23.35284 49.267789,23.867321 48.248494,24.218334 C47.098035,23.625057 45.696584,23.839015 44.775647,24.74863 C44.66808,24.856433 44.570188,24.97343 44.483136,25.098461 C43.61057,26.275569 43.736539,27.915279 44.778714,28.94543 C44.818349,28.986476 44.860334,29.025402 44.904218,29.061733 C45.444181,29.547672 46.145261,29.81612 46.871579,29.814937 C47.667958,29.814464 48.431073,29.496242 48.992032,28.930805 C49.09158,28.826305 49.184049,28.715435 49.268972,28.598667 C50.881085,28.098804 52.392697,27.319881 53.73541,26.297275 L54.567182,27.422023 C55.169171,28.252849 55.49046,29.253749 55.484098,30.279651 Z M53.382032,24.595531 C51.972806,25.800243 50.320356,26.686977 48.537229,27.194622 C47.628324,27.456699 46.693006,27.616634 45.748716,27.671596 C45.461866,27.281665 45.401013,26.769771 45.588544,26.323696 C51.921842,25.971271 56.823972,20.641231 56.646115,14.300609 C56.468488,7.959758 51.275739,2.912792 44.932523,2.915622 C40.809552,2.930484 36.993955,5.098598 34.870664,8.63277 C34.168882,9.799503 33.679631,11.081592 33.425572,12.419116 C33.319425,12.980785 33.256436,13.549762 33.237332,14.121097 C32.80824,14.297542 32.347531,14.383884 31.883771,14.375156 C31.892026,13.675258 31.959722,12.977245 32.085927,12.288661 C32.306256,11.056118 32.707044,9.862956 33.27554,8.747417 C35.658795,4.015361 40.664243,1.191463 45.946866,1.598621 C51.229497,2.005779 55.742871,5.563304 57.372907,10.604846 C59.002942,15.64616 57.42645,21.172695 53.382032,24.595531 Z" id="Fill-505"></path>
                </g>
            </g>
        </g>
    </g>
</svg>