<?xml version="1.0" encoding="UTF-8"?>
<svg width="71px" height="72px" viewBox="0 0 71 72" version="1.1" xmlns="http://www.w3.org/2000/svg" xmlns:xlink="http://www.w3.org/1999/xlink">
    <!-- Generator: Sketch 51.3 (57544) - http://www.bohemiancoding.com/sketch -->
    <title>Fill 69</title>
    <desc>Created with Sketch.</desc>
    <defs></defs>
    <g id="Page-1" stroke="none" stroke-width="1" fill="none" fill-rule="evenodd">
        <g id="WEB---OVERVIEW-I-POST" transform="translate(-1097.000000, -386.000000)" fill="#000000">
            <g id="Group-269" transform="translate(32.000000, 50.000000)">
                <path d="M1073.8339,347.730308 L1073.8339,338.89659 C1073.8339,337.675758 1074.82216,336.687835 1076.04265,336.687835 C1077.26314,336.687835 1078.25141,337.675758 1078.25141,338.89659 L1078.25141,347.730308 C1078.25141,348.950805 1077.26314,349.939071 1076.04265,349.939071 C1074.82216,349.939071 1073.8339,348.950805 1073.8339,347.730308 Z M1111.37909,349.939071 C1112.59988,349.939071 1113.58783,348.950805 1113.58783,347.730308 L1113.58783,338.89659 C1113.58783,337.675758 1112.59988,336.687835 1111.37909,336.687835 C1110.15858,336.687835 1109.17066,337.675758 1109.17066,338.89659 L1109.17066,347.730308 C1109.17066,348.950805 1110.15858,349.939071 1111.37909,349.939071 Z M1135.67304,389.692077 C1135.67304,399.449477 1127.76177,407.360747 1118.00437,407.360747 C1108.24791,407.360747 1100.33663,399.449477 1100.33663,389.692077 C1100.33663,379.935615 1108.24791,372.024306 1118.00437,372.024306 C1127.76177,372.024306 1135.67304,379.935615 1135.67304,389.692077 Z M1131.25586,389.692077 C1131.25586,382.384749 1125.31199,376.440856 1118.00437,376.440856 C1110.69799,376.440856 1104.75318,382.38568 1104.75318,389.692077 C1104.75318,396.999701 1110.69799,402.943572 1118.00437,402.943572 C1125.31199,402.943572 1131.25586,396.999701 1131.25586,389.692077 Z M1082.66794,363.190268 L1073.8339,363.190268 L1073.8339,372.024306 L1082.66794,372.024306 L1082.66794,363.190268 Z M1073.8339,385.275542 L1082.66794,385.275542 L1082.66794,376.440856 L1073.8339,376.440856 L1073.8339,385.275542 Z M1087.08544,372.024306 L1095.91915,372.024306 L1095.91915,363.190268 L1087.08544,363.190268 L1087.08544,372.024306 Z M1087.08544,385.275542 L1095.91915,385.275542 L1095.91915,376.440856 L1087.08544,376.440856 L1087.08544,385.275542 Z M1069.41736,389.252631 L1069.41736,358.773086 L1118.00437,358.773086 L1118.00437,367.606818 L1122.42185,367.606818 L1122.42185,350.379104 C1122.42185,347.696135 1120.28174,345.521567 1117.63765,345.521567 L1115.79563,345.521567 L1115.79563,347.730308 C1115.79563,350.163459 1113.81632,352.147811 1111.37909,352.147811 C1108.94214,352.147811 1106.96192,350.163459 1106.96192,347.730308 L1106.96192,345.521567 L1080.46016,345.521567 L1080.46016,347.730308 C1080.46016,350.163459 1078.47989,352.147811 1076.04265,352.147811 C1073.60543,352.147811 1071.62517,350.163459 1071.62517,347.730308 L1071.62517,345.521567 L1069.78595,345.521567 C1067.14188,345.521567 1065.0002,347.696135 1065.0002,350.379104 L1065.0002,389.252631 C1065.0002,391.927131 1067.14188,394.109565 1069.78595,394.109565 L1095.91915,394.109565 L1095.91915,389.692077 L1069.78595,389.692077 C1069.58505,389.692077 1069.41736,389.485206 1069.41736,389.252631 Z M1109.17066,372.024306 L1109.17066,363.190268 L1100.33663,363.190268 L1100.33663,372.024306 L1109.17066,372.024306 Z M1124.63059,389.692077 L1118.00437,389.692077 L1118.00437,383.066779 C1118.00437,381.846268 1117.01706,380.858344 1115.79563,380.858344 C1114.57512,380.858344 1113.58783,381.846268 1113.58783,383.066779 L1113.58783,391.900824 C1113.58783,393.121315 1114.57512,394.109565 1115.79563,394.109565 L1124.63059,394.109565 C1125.85108,394.109565 1126.83838,393.121315 1126.83838,391.900824 C1126.83838,390.680304 1125.85108,389.692077 1124.63059,389.692077 Z" id="Fill-69"></path>
            </g>
        </g>
    </g>
</svg>