<svg xmlns="http://www.w3.org/2000/svg" width="43.524" height="40" viewBox="0 0 43.524 40">
  <g id="Group_477" data-name="Group 477" transform="translate(0)">
    <path id="Path_166" data-name="Path 166" d="M43.524,20.381a3.567,3.567,0,0,0-3.571-3.571H6V5.19A2.439,2.439,0,0,1,8.429,2.762h.619a2.448,2.448,0,0,1,1.738.714l-.119.119a4.627,4.627,0,0,0,0,6.548l.619.619a1.38,1.38,0,0,0,1.952,0l6.048-6.048a1.365,1.365,0,0,0,0-1.952l-.6-.619a4.65,4.65,0,0,0-5.9-.548A5.183,5.183,0,0,0,9.048,0H8.4a5.2,5.2,0,0,0-5.19,5.19V16.833a3.569,3.569,0,0,0-.929,6.881v4.571a8.329,8.329,0,0,0,6.667,8.167l-1.19,1.19a1.365,1.365,0,0,0,0,1.952,1.38,1.38,0,0,0,1.952,0l2.976-2.976H30.833L33.81,39.6a1.38,1.38,0,0,0,1.952,0,1.365,1.365,0,0,0,0-1.952l-1.19-1.19a8.372,8.372,0,0,0,6.667-8.167V23.714a3.582,3.582,0,0,0,2.286-3.333ZM15.4,3.548a1.776,1.776,0,0,1,.9.238l-4,4a1.879,1.879,0,0,1,.31-2.214l1.452-1.452A1.84,1.84,0,0,1,15.4,3.548ZM3.571,19.571H39.952a.81.81,0,1,1,0,1.619H3.571a.81.81,0,1,1,0-1.619Zm34.9,8.714A5.579,5.579,0,0,1,32.9,33.857H10.619a5.579,5.579,0,0,1-5.571-5.571V24H38.476v4.286Zm0,0" fill="#727272"/>
    <path id="Path_167" data-name="Path 167" d="M70.838,52.89a.645.645,0,0,0,.476.19.756.756,0,0,0,.476-.19.675.675,0,0,0,0-.952l-.667-.667a.673.673,0,0,0-.952.952Zm0,0" transform="translate(-53.314 -38.914)" fill="#727272"/>
    <path id="Path_168" data-name="Path 168" d="M81.571,52.224l.667.667a.645.645,0,0,0,.476.19.756.756,0,0,0,.476-.19.675.675,0,0,0,0-.952l-.667-.667a.673.673,0,0,0-.952.952Zm0,0" transform="translate(-62 -38.914)" fill="#727272"/>
    <path id="Path_169" data-name="Path 169" d="M66.19,40.638l-.667-.667a.673.673,0,0,0-.952.952l.667.667a.645.645,0,0,0,.476.19.756.756,0,0,0,.476-.19.675.675,0,0,0,0-.952Zm0,0" transform="translate(-49.048 -30.305)" fill="#727272"/>
    <path id="Path_170" data-name="Path 170" d="M76.824,39.971a.673.673,0,0,0-.952.952l.667.667a.645.645,0,0,0,.476.19.756.756,0,0,0,.476-.19.675.675,0,0,0,0-.952Zm0,0" transform="translate(-57.657 -30.305)" fill="#727272"/>
    <path id="Path_171" data-name="Path 171" d="M75.671,28.371a.675.675,0,0,0,0,.952l.667.667a.645.645,0,0,0,.476.19.756.756,0,0,0,.476-.19.675.675,0,0,0,0-.952l-.667-.667a.675.675,0,0,0-.952,0Zm0,0" transform="translate(-57.505 -21.467)" fill="#727272"/>
    <path id="Path_172" data-name="Path 172" d="M87.338,38.19a.645.645,0,0,0,.476.19.756.756,0,0,0,.476-.19.675.675,0,0,0,0-.952l-.667-.667a.673.673,0,1,0-.952.952Zm0,0" transform="translate(-65.886 -27.714)" fill="#727272"/>
  </g>
</svg>
