<?xml version="1.0" encoding="UTF-8"?>
<svg width="40px" height="56px" viewBox="0 0 40 56" version="1.1" xmlns="http://www.w3.org/2000/svg" xmlns:xlink="http://www.w3.org/1999/xlink">
    <!-- Generator: Sketch 51.3 (57544) - http://www.bohemiancoding.com/sketch -->
    <title>Group 4</title>
    <desc>Created with Sketch.</desc>
    <defs></defs>
    <g id="Page-1" stroke="none" stroke-width="1" fill="none" fill-rule="evenodd">
        <g id="WEB---OVERVIEW-I-POST" transform="translate(-511.000000, -3774.000000)" fill="#888888">
            <g id="Group-701" transform="translate(0.000000, -66.000000)">
                <g id="Group-4" transform="translate(511.000000, 3840.000000)">
                    <path d="M38.698258,-0.000316 L1.09063,0.129903 C0.486581,0.132085 -0.00167,0.62357 0.00023,1.22791 L0.183198,53.966527 C0.185097,54.570592 0.676873,55.058812 1.28093,55.056645 L29.877503,54.957707 C30.167832,54.956609 30.445664,54.84026 30.650117,54.634465 L39.629914,45.592137 C39.834336,45.386357 39.948777,45.107701 39.947693,44.817372 L39.796281,1.089803 C39.794083,0.485753 39.302598,-0.002482 38.698258,-0.000316 Z M2.192452,2.314504 L37.611954,2.191625 L37.755768,43.730229 L29.831834,43.750356 L29.831025,43.750356 C29.540681,43.751439 29.262849,43.867803 29.058411,44.073583 C28.85373,44.279912 28.739258,44.558827 28.740632,44.849446 L28.775147,52.773106 L2.367516,52.86472 L2.192452,2.314504 Z M30.93364,45.93604 L36.217881,45.92246 L30.956757,51.220296 L30.93364,45.93604 Z" id="Fill-533"></path>
                    <path d="M11.344452,39.570905 C8.593048,39.580415 6.362259,41.826725 6.371765,44.578145 C6.381272,47.329825 8.627594,49.560355 11.378983,49.550855 C14.130402,49.541335 16.361206,47.295305 16.351685,44.543595 C16.342179,41.792195 14.095871,39.561385 11.344452,39.570905 Z M11.371384,47.362715 C9.826447,47.367875 8.565338,46.115465 8.560181,44.570515 C8.554718,43.025865 9.807144,41.764755 11.352097,41.759295 C12.896744,41.753865 14.158127,43.006275 14.1633,44.551225 C14.168747,46.096145 12.916306,47.357255 11.371384,47.362715 Z" id="Fill-535"></path>
                    <path d="M25.6259475,43.593035 L19.6079675,43.613965 C19.0036475,43.616135 18.5153975,44.107655 18.5175575,44.711995 C18.5197575,45.316275 19.0112475,45.804275 19.6155875,45.802355 L25.6332975,45.781445 C26.2376075,45.779285 26.7258575,45.287735 26.7236675,44.683425 C26.7217675,44.079115 26.2299775,43.590865 25.6259475,43.593035 Z" id="Fill-537"></path>
                    <path d="M7.6701975,8.860437 L10.8432315,8.849573 C11.4475565,8.847398 11.9358065,8.35589 11.9336395,7.75155 C11.9314575,7.147218 11.4399575,6.65899 10.8356325,6.661157 L7.6625825,6.672304 C7.0585335,6.674219 6.5700235,7.165712 6.5721745,7.770029 C6.5743715,8.374368 7.0658725,8.862611 7.6701975,8.860437 Z" id="Fill-539"></path>
                    <path d="M23.097705,8.807112 L32.617115,8.77394 C33.221165,8.772048 33.709415,8.280265 33.707225,7.67594 C33.705335,7.071891 33.213545,6.58364 32.609515,6.585814 L23.090085,6.618705 C22.486035,6.620887 21.997805,7.112403 21.999955,7.716719 C22.001865,8.321044 22.493635,8.809027 23.097705,8.807112 Z" id="Fill-541"></path>
                    <path d="M16.43994,13.535179 L32.63359,13.478905 C33.23764,13.476723 33.72589,12.985222 33.72373,12.380897 C33.7218,11.776588 33.23001,11.288612 32.62598,11.290504 L16.43233,11.346779 C15.828,11.348961 15.33977,11.840446 15.34193,12.444786 C15.34412,13.04911 15.83562,13.537086 16.43994,13.535179 Z" id="Fill-543"></path>
                    <path d="M7.2240305,22.210903 L32.7179735,22.122554 C33.3223125,22.120388 33.8105635,21.628902 33.8083665,21.024547 C33.8061995,20.420238 33.3146985,19.931987 32.7103745,19.934169 L7.2164165,20.022502 C6.6123825,20.024684 6.1238565,20.516185 6.1260235,21.12051 C6.1282055,21.724849 6.6197065,22.21281 7.2240305,22.210903 Z" id="Fill-545"></path>
                    <path d="M7.2370905,25.931045 L32.7310325,25.842725 C33.3353875,25.840785 33.8235925,25.349025 33.8214255,24.7447 C33.8195335,24.140666 33.3277585,23.652415 32.7236775,23.654582 L7.2294765,23.742915 C6.6254265,23.744807 6.1371755,24.236339 6.1393575,24.840648 C6.1412495,25.445003 6.6330555,25.933255 7.2370905,25.931045 Z" id="Fill-547"></path>
                    <path d="M7.251252,29.97954 L32.74521,29.89118 C33.349534,29.88929 33.837785,29.3975 33.835618,28.79317 C33.833421,28.18885 33.341935,27.70087 32.737596,27.70306 L7.243653,27.79113 C6.639604,27.79331 6.151078,28.28483 6.153245,28.88915 C6.155427,29.49348 6.646928,29.98171 7.251252,29.97954 Z" id="Fill-549"></path>
                    <path d="M32.750535,31.42295 L32.148635,31.42514 C31.544315,31.42704 31.056095,31.91883 31.058245,32.52286 C31.060405,33.1272 31.551935,33.61545 32.156265,33.61325 L32.757885,33.61136 C33.362195,33.60919 33.850445,33.11768 33.848255,32.51335 C33.846325,31.90901 33.354565,31.42076 32.750535,31.42295 Z" id="Fill-551"></path>
                    <path d="M29.4169615,32.528545 C29.4148105,31.924235 28.9230195,31.436265 28.3189695,31.438155 L7.2564695,31.511275 C6.6521605,31.513455 6.1639095,32.004975 6.1660765,32.609285 C6.1679685,33.213635 6.6597595,33.701595 7.2638095,33.699695 L28.3265685,33.626575 C28.9306335,33.624375 29.4188685,33.132885 29.4169615,32.528545 Z" id="Fill-553"></path>
                </g>
            </g>
        </g>
    </g>
</svg>