<?xml version="1.0" encoding="UTF-8"?>
<svg width="50px" height="66px" viewBox="0 0 50 66" version="1.1" xmlns="http://www.w3.org/2000/svg" xmlns:xlink="http://www.w3.org/1999/xlink">
    <!-- Generator: Sketch 51.3 (57544) - http://www.bohemiancoding.com/sketch -->
    <title>Group</title>
    <desc>Created with Sketch.</desc>
    <defs></defs>
    <g id="Page-1" stroke="none" stroke-width="1" fill="none" fill-rule="evenodd">
        <g id="WEB---OVERVIEW-I-POST" transform="translate(-510.000000, -3316.000000)" fill="#888888">
            <g id="Group-701" transform="translate(0.000000, -66.000000)">
                <g id="Group" transform="translate(510.000000, 3382.000000)">
                    <path d="M42.034898,0.000101 L17.42885,0.000101 C15.732698,0.000101 14.35309,1.379698 14.35309,3.075857 L14.35309,20.61796 C13.050165,19.284914 11.233796,18.454638 9.226831,18.454638 C8.660257,18.454638 8.201577,18.913317 8.201577,19.479891 L8.201577,51.559 L7.512597,51.320208 C7.466592,51.303507 7.419221,51.310076 7.37185,51.300761 C7.307771,51.287348 7.243684,51.273928 7.178239,51.273928 C7.109514,51.273928 7.04461,51.287348 6.978616,51.299395 C6.914537,51.312807 6.855111,51.324045 6.795694,51.347307 C6.734346,51.37224 6.68287,51.407557 6.627557,51.442889 C6.57142,51.479029 6.518022,51.513811 6.470094,51.560915 C6.421899,51.607188 6.386033,51.661951 6.347963,51.71644 C6.319757,51.755884 6.282518,51.784632 6.25979,51.828715 L0.108278,64.131747 C-0.145301,64.638354 0.060083,65.254488 0.566133,65.507242 C0.713189,65.581454 0.869821,65.616236 1.023446,65.616236 C1.399972,65.616236 1.76172,65.409197 1.942445,65.049662 L7.690873,53.551996 L28.343507,60.735049 C28.344873,60.73614 28.346795,60.73614 28.34871,60.736971 L29.318643,61.074602 L27.790078,64.131747 C27.5365,64.638354 27.741891,65.254488 28.247934,65.507242 C28.39499,65.581454 28.551629,65.616236 28.705247,65.616236 C29.081773,65.616236 29.443521,65.409197 29.624246,65.049662 L31.67476,60.948641 C31.684343,60.929743 31.681604,60.911127 31.690088,60.893603 C31.700219,60.870608 31.716928,60.850886 31.726236,60.82651 C31.741571,60.782435 31.735002,60.736971 31.744317,60.692339 C31.759652,60.623331 31.773065,60.555414 31.772241,60.486681 C31.772241,60.421236 31.759652,60.359614 31.748414,60.294993 C31.735002,60.230379 31.723504,60.1682 31.698304,60.106867 C31.672838,60.04471 31.638887,59.994044 31.602739,59.938448 C31.566591,59.88315 31.533456,59.830569 31.486078,59.782374 C31.43844,59.734453 31.383119,59.697756 31.328348,59.658312 C31.288919,59.632845 31.261529,59.594233 31.217721,59.572054 C31.195543,59.562197 31.173631,59.562746 31.151727,59.553988 C31.131463,59.545496 31.118036,59.527972 31.095315,59.520846 L30.504648,59.315745 L41.464769,47.161692 L42.034898,47.161692 C43.731065,47.161692 45.110643,45.782091 45.110643,44.085932 C47.372011,44.085932 49.211656,42.246287 49.211656,39.984926 C49.211656,38.753474 48.654939,37.660586 47.793718,36.909174 C48.654939,36.156939 49.211656,35.063494 49.211656,33.832049 C49.211656,32.601961 48.655488,31.507975 47.794557,30.756289 C48.655488,30.005427 49.211656,28.911433 49.211656,27.680537 C49.211656,26.450449 48.655488,25.357554 47.794557,24.60615 C48.655488,23.853915 49.211656,22.76047 49.211656,21.530382 C49.211656,19.26903 47.372011,17.429377 45.110643,17.429377 L45.110643,3.075857 C45.110643,1.379698 43.731065,0.000101 42.034898,0.000101 Z M28.400743,58.586237 L10.252076,52.272608 L10.252076,20.610018 C12.589021,21.085123 14.35309,23.156451 14.35309,25.631403 L14.35309,44.085932 C14.35309,45.782091 15.732698,47.161692 17.42885,47.161692 L38.704744,47.161692 L28.400743,58.586237 Z M42.034898,45.111178 L17.42885,45.111178 C16.862817,45.111178 16.403596,44.651957 16.403596,44.085932 L16.403596,3.075857 C16.403596,2.509833 16.862817,2.0506 17.42885,2.0506 L42.034898,2.0506 C42.600923,2.0506 43.060151,2.509833 43.060151,3.075857 L43.060151,17.575068 C41.296083,18.033465 39.984392,19.625567 39.984392,21.530382 C39.984392,22.761843 40.541108,23.854731 41.402055,24.60615 C40.541108,25.358385 39.984392,26.451823 39.984392,27.683275 C39.984392,28.913355 40.540284,30.007349 41.401506,30.75902 C40.540284,31.50989 39.984392,32.603876 39.984392,33.83478 C39.984392,35.064867 40.540284,36.157755 41.401506,36.909174 C40.540284,37.66141 39.984392,38.754839 39.984392,39.984926 C39.984392,41.88975 41.296083,43.481844 43.060151,43.940249 L43.060151,44.085932 C43.060151,44.651957 42.600923,45.111178 42.034898,45.111178 Z M45.110643,42.035433 L44.085389,42.035433 C42.954713,42.035433 42.034898,41.115603 42.034898,39.984926 C42.034898,38.856165 42.952531,37.937701 44.079927,37.93442 C44.081849,37.93442 44.083207,37.935793 44.085389,37.935793 C44.087312,37.935793 44.088685,37.93442 44.090593,37.93442 L45.110643,37.93442 C46.241334,37.93442 47.161165,38.854243 47.161165,39.984926 C47.161165,41.115603 46.241334,42.035433 45.110643,42.035433 Z M47.161165,33.832049 C47.161165,34.963549 46.241334,35.882548 45.110643,35.882548 C45.108461,35.882548 45.107103,35.883913 45.10518,35.883913 L44.085389,35.883913 L44.079927,35.883913 C42.952531,35.882006 42.034898,34.963549 42.034898,33.83478 C42.034898,32.70328 42.954713,31.784289 44.085389,31.784289 C44.089235,31.784289 44.091432,31.781534 44.095537,31.781534 L45.110643,31.781534 C46.241334,31.781534 47.161165,32.701365 47.161165,33.832049 Z M44.085389,29.731043 C44.083207,29.731043 44.0813,29.732409 44.078004,29.732409 C42.952531,29.729128 42.034898,28.812037 42.034898,27.683275 C42.034898,26.551775 42.954713,25.632769 44.085389,25.632769 L45.110643,25.632769 C45.112565,25.632769 45.114473,25.631403 45.118059,25.631403 C46.243242,25.634691 47.161165,26.551775 47.161165,27.680537 C47.161165,28.812037 46.241334,29.731043 45.110643,29.731043 L44.085389,29.731043 Z M47.161165,21.530382 C47.161165,22.659159 46.243242,23.577608 45.115846,23.580897 C45.113923,23.580897 45.112565,23.579531 45.110643,23.579531 C45.106538,23.579531 45.104631,23.582262 45.100526,23.582262 L44.090593,23.582262 C44.088685,23.582262 44.087312,23.580897 44.085389,23.580897 C42.954713,23.580897 42.034898,22.661074 42.034898,21.530382 C42.034898,20.399706 42.954713,19.479891 44.085389,19.479891 L45.110643,19.479891 C46.241334,19.479891 47.161165,20.399706 47.161165,21.530382 Z" id="Fill-487"></path>
                    <path d="M9.2473845,58.43936 C8.6816265,58.43936 8.2281505,58.898 8.2281505,59.46459 C8.2281505,60.03115 8.6914915,60.48983 9.2588745,60.48983 C9.8240825,60.48983 10.2841355,60.03115 10.2841355,59.46459 C10.2841355,58.898 9.8240825,58.43936 9.2588745,58.43936 L9.2473845,58.43936 Z" id="Fill-489"></path>
                    <path d="M29.73172,37.93435 C28.03558,37.93435 26.65598,39.31393 26.65598,41.0101 C26.65598,42.70625 28.03558,44.08587 29.73172,44.08587 C31.42789,44.08587 32.80748,42.70625 32.80748,41.0101 C32.80748,39.31393 31.42789,37.93435 29.73172,37.93435 Z M29.73172,42.03535 C29.1657,42.03535 28.70648,41.57614 28.70648,41.0101 C28.70648,40.44407 29.1657,39.98484 29.73172,39.98484 C30.29776,39.98484 30.75699,40.44407 30.75699,41.0101 C30.75699,41.57614 30.29776,42.03535 29.73172,42.03535 Z" id="Fill-491"></path>
                    <path d="M26.6867675,6.151598 C27.2527775,6.151598 27.7120075,5.692919 27.7120075,5.126345 C27.7120075,4.559778 27.2527775,4.101099 26.6867675,4.101099 L26.6766375,4.101099 C26.1108675,4.101099 25.6573975,4.559778 25.6573975,5.126345 C25.6573975,5.692919 26.1207475,6.151598 26.6867675,6.151598 Z" id="Fill-493"></path>
                    <path d="M29.73174,6.151598 L32.80748,6.151598 C33.37404,6.151598 33.83273,5.692919 33.83273,5.126345 C33.83273,4.559778 33.37404,4.101099 32.80748,4.101099 L29.73174,4.101099 C29.16515,4.101099 28.70647,4.559778 28.70647,5.126345 C28.70647,5.692919 29.16515,6.151598 29.73174,6.151598 Z" id="Fill-495"></path>
                    <path d="M22.552674,19.469524 L20.91211,20.699886 C20.458908,21.038898 20.366898,21.681598 20.707276,22.13425 C20.908005,22.40398 21.215805,22.544185 21.528244,22.544185 C21.742386,22.544185 21.958176,22.477367 22.143021,22.339084 L22.552674,22.031566 L22.552674,28.696788 C21.986115,28.69762 21.528244,29.154651 21.528244,29.722057 C21.528244,30.288883 21.986924,30.747302 22.553498,30.747302 L36.907025,30.747302 C37.474425,30.747302 37.932285,30.288883 37.932285,29.722057 C37.932285,29.154651 37.474965,28.69762 36.908405,28.696788 L36.908405,22.032657 L37.318055,22.3399 C37.502895,22.47874 37.717865,22.545276 37.932285,22.545276 C38.245285,22.545276 38.551695,22.40398 38.754075,22.134799 C39.094435,21.682964 39.002185,21.040263 38.548965,20.700427 L30.345585,14.547 C30.328875,14.534953 30.311085,14.533038 30.293545,14.522357 C30.230855,14.480182 30.164015,14.45499 30.094745,14.428157 C30.038055,14.406795 29.986575,14.380779 29.928515,14.370097 C29.861165,14.355319 29.792965,14.3586 29.724245,14.3586 C29.660725,14.359424 29.601285,14.356685 29.538575,14.368732 C29.475325,14.380779 29.419995,14.406795 29.359205,14.431445 C29.293765,14.456905 29.229145,14.482921 29.168885,14.522357 C29.151365,14.533588 29.131375,14.535503 29.115495,14.547 L24.603185,17.931651 L22.552674,19.469524 Z M34.857895,28.69762 L30.755525,28.69762 L30.755525,26.647113 C30.755525,26.080264 30.297655,25.62186 29.730255,25.62186 C29.163685,25.62186 28.705015,26.080264 28.705015,26.647113 L28.705015,28.69762 L24.603185,28.69762 L24.603185,20.493686 L29.730255,16.648166 L34.857895,20.493686 L34.857895,28.69762 Z" id="Fill-497"></path>
                </g>
            </g>
        </g>
    </g>
</svg>