<?xml version="1.0" encoding="utf-8"?>
<!-- Generator: Adobe Illustrator 23.0.0, SVG Export Plug-In . SVG Version: 6.00 Build 0)  -->
<svg version="1.1" id="Layer_1" xmlns="http://www.w3.org/2000/svg" xmlns:xlink="http://www.w3.org/1999/xlink" x="0px" y="0px"
	 viewBox="0 0 512 512" style="enable-background:new 0 0 512 512;" xml:space="preserve">
<style type="text/css">
	.st0{fill:#FF1D25;}
	.st1{fill:#FFFFFF;}
</style>
<title>ICON - CONTACTLESS VIEWING_001</title>
<path class="st0" d="M417.3,52h-163C139.8,52,50.6,146.9,50.6,261.4c0,106.3,91.5,198,198,198c115.5,0,209.4-89.2,209.4-203.7v-163
	C457.9,70.2,439.7,52.1,417.3,52z"/>
<g>
	<path class="st1" d="M114.8,314.7h9.9l11,36h0.1l11-36h9l-16.2,49.1h-8.9L114.8,314.7z"/>
	<path class="st1" d="M162.2,314.7h9.1v48.9h-9.1V314.7z"/>
	<path class="st1" d="M182.6,314.7h33.9v8h-24.8v11.9h22v8h-22v12.9h25.1v8h-34.2V314.7z"/>
	<path class="st1" d="M222.7,314.7h9.3l7.7,34.2h0.1l9-34.2h7.7l8.9,34.4h0.1l7.8-34.4h9.2l-12.7,49.1h-8.4l-8.8-34.5h-0.1
		l-8.8,34.5h-8.5L222.7,314.7z"/>
	<path class="st1" d="M289.7,314.7h9.1v48.9h-9.1V314.7z"/>
	<path class="st1" d="M310,314.7h8.8l21.2,33.3h0.1v-33.3h8.8v48.9h-8.9l-21.2-33.4h-0.1v33.4H310V314.7z"/>
	<path class="st1" d="M359,347.5v-15.6c0-11.6,8.8-18,19.5-18c9.3,0,18.6,4.6,18.6,15.5v1.5h-8.6v-0.7c0-6.4-5.6-8.2-10-8.2
		c-4.7,0-10.5,2.5-10.5,9.5v15.6c0,5.9,5.1,9.3,10.8,9.3c5.1,0,9.7-2.5,9.7-8.8v-1.2H376v-8.2h21.2v10.2c0,10.9-9,16.1-18.3,16.1
		C368.3,364.4,359,358.4,359,347.5z"/>
</g>
<g>
	<g>
		<path class="st1" d="M114.6,249.8h9.9l11,36h0.1l11-36h9l-16.2,49.1h-8.9L114.6,249.8z"/>
		<path class="st1" d="M162,249.8h9.1v48.9H162V249.8z"/>
		<path class="st1" d="M182.4,249.8h19.3c9.2,0,16.6,5.3,16.6,15.4c0,5.8-3.1,11.9-9.7,14.2l12.1,19.3h-9.9l-11.4-18.3h-7.9v18.3
			h-9.1V249.8z M200.6,272.7c5.3,0,8.8-2.5,8.8-7.6c0-5.8-3.8-7.6-8.9-7.6h-9v15.2H200.6z"/>
		<path class="st1" d="M238.4,257.6h-14v-7.8h37.1v7.8h-14v41.1h-9V257.6z"/>
		<path class="st1" d="M269.3,281.8v-32h9.1v30.9c0,6,2.9,10.5,10,10.5c6.6,0,10-3.5,10-10.5v-30.9h9.1v31.3
			c0,11.7-7.7,18.3-19.1,18.3C277.1,299.4,269.3,293.5,269.3,281.8z"/>
		<path class="st1" d="M331.1,249.7h8.4l18,48.9h-9.7l-3.6-10.4h-18.6l-3.7,10.4h-9L331.1,249.7z M341.6,280.5l-6.6-19.6h-0.1
			l-6.7,19.6H341.6z"/>
		<path class="st1" d="M364.5,249.8h9.1v40.8h23.8v8h-32.9V249.8z"/>
	</g>
</g>
<path class="st1" d="M255.8,182.3c-15.9,0-47.6,8-47.6,23.8V218h95.1v-11.9C303.3,190.3,271.6,182.3,255.8,182.3z M301.9,125
	l-10,10.1c5,6.9,5,16.2,0,23.1l10,10C313.9,156.2,313.9,138.1,301.9,125z M321.6,105l-9.7,9.7c16.5,18,16.5,45,0,63.9l9.7,9.7
	C344.8,165.1,344.8,129.1,321.6,105z M255.8,122.8c13.1,0,23.8,10.6,23.8,23.8s-10.6,23.8-23.8,23.8c-13.1,0-23.8-10.6-23.8-23.8
	c0,0,0,0,0,0C232,133.5,242.6,122.9,255.8,122.8L255.8,122.8z"/>
</svg>
