<svg id="Group_2891" data-name="Group 2891" xmlns="http://www.w3.org/2000/svg" width="917.817" height="128" viewBox="0 0 917.817 128">
  <g id="Group_2" data-name="Group 2" transform="translate(0 0)">
    <path id="Path_1" data-name="Path 1" d="M368.815,4.453a3.485,3.485,0,0,1-3.537-3.445l-.526-42.444a3.488,3.488,0,0,1,2.053-3.22l18.525-8.371a3.506,3.506,0,0,1,3.316.237,3.491,3.491,0,0,1,1.614,2.9l.366,29.456a3.491,3.491,0,0,1-3.449,3.533,3.488,3.488,0,0,1-3.533-3.445l-.3-24.126-11.58,5.231.427,34.817,43.879-19.955-.6-47.847L385.478-91.516,357.906-53.57,358.574.508a3.483,3.483,0,0,1-1.885,3.144,3.507,3.507,0,0,1-3.663-.279L318.076-22.073a3.481,3.481,0,0,1-1.435-2.774L316-76.593a3.494,3.494,0,0,1,.813-2.278l30.158-36.122a3.49,3.49,0,0,1,4.285-.866l19.395,10-.092-7.166a3.5,3.5,0,0,1,1.812-3.094l12.717-7a3.494,3.494,0,0,1,3.308-.034l5.857,3.068a3.5,3.5,0,0,1,1.873,3.049l.187,15.117a3.491,3.491,0,0,1-3.453,3.529,3.483,3.483,0,0,1-3.533-3.445l-.164-13.034-2.35-1.232-9.241,5.082.133,10.882a3.485,3.485,0,0,1-1.66,3.01,3.5,3.5,0,0,1-3.438.134l-22.065-11.389L323-75.392l.6,48.71,27.9,20.31-.6-48.267a3.5,3.5,0,0,1,.668-2.095l30.193-41.548a3.5,3.5,0,0,1,4.716-.889l34.348,22.088a3.509,3.509,0,0,1,1.606,2.892l.645,52a3.487,3.487,0,0,1-2.045,3.217L370.216,4.14a3.4,3.4,0,0,1-1.4.313" transform="translate(-316 123.547)"/>
    <g id="Group_1" data-name="Group 1" transform="translate(145.076 18.233)">
      <path id="Path_2" data-name="Path 2" d="M408.829-101.491a4.612,4.612,0,0,1-1.576,1.923,4,4,0,0,1-2.136.557,5.419,5.419,0,0,1-2.785-.962q-1.551-.962-3.655-2.137a30.368,30.368,0,0,0-4.926-2.137,20.631,20.631,0,0,0-6.654-.961,19.593,19.593,0,0,0-6.044.839,12.775,12.775,0,0,0-4.335,2.32,9.274,9.274,0,0,0-2.629,3.564,11.645,11.645,0,0,0-.87,4.552,7.911,7.911,0,0,0,1.767,5.262,14.752,14.752,0,0,0,4.674,3.594,43.617,43.617,0,0,0,6.632,2.659c2.48.786,5,1.622,7.585,2.511a72.831,72.831,0,0,1,7.585,3.094,26.278,26.278,0,0,1,6.628,4.46,20.231,20.231,0,0,1,4.678,6.6,22.928,22.928,0,0,1,1.763,9.474,30.906,30.906,0,0,1-2.072,11.367,26.194,26.194,0,0,1-6.074,9.226,28.516,28.516,0,0,1-9.756,6.2,35.868,35.868,0,0,1-13.187,2.259,42.252,42.252,0,0,1-8.421-.839,43.816,43.816,0,0,1-7.959-2.381,41.734,41.734,0,0,1-7.128-3.716A35.18,35.18,0,0,1,354.022-39l4.834-7.99a6,6,0,0,1,1.641-1.454,3.967,3.967,0,0,1,2.129-.591,5.918,5.918,0,0,1,3.35,1.271q1.792,1.271,4.243,2.816a32.3,32.3,0,0,0,5.761,2.82,22.2,22.2,0,0,0,7.956,1.271q7.12,0,11.023-3.377t3.9-9.692a9.036,9.036,0,0,0-1.759-5.761,14.353,14.353,0,0,0-4.682-3.747A34.992,34.992,0,0,0,385.794-66q-3.72-1.053-7.559-2.293a64.977,64.977,0,0,1-7.551-2.972,24.481,24.481,0,0,1-6.632-4.521,20.544,20.544,0,0,1-4.674-6.967,26.5,26.5,0,0,1-1.766-10.31,24.408,24.408,0,0,1,1.95-9.539,24.459,24.459,0,0,1,5.7-8.238,28.172,28.172,0,0,1,9.2-5.758,33.421,33.421,0,0,1,12.443-2.167,41.765,41.765,0,0,1,14.621,2.476,33.03,33.03,0,0,1,11.4,6.937Z" transform="translate(-354.022 118.768)"/>
      <path id="Path_3" data-name="Path 3" d="M390.841-60.474v31.52H374.182v-89.555h29.17A51.216,51.216,0,0,1,418.9-116.4a29.866,29.866,0,0,1,10.84,5.887,22.963,22.963,0,0,1,6.315,9.039A31.494,31.494,0,0,1,438.1-89.957a31.892,31.892,0,0,1-2.171,11.924,24.753,24.753,0,0,1-6.506,9.318,30.191,30.191,0,0,1-10.836,6.071,48.218,48.218,0,0,1-15.236,2.171Zm0-13.011h12.511a25.025,25.025,0,0,0,7.99-1.145,14.835,14.835,0,0,0,5.636-3.281,13.486,13.486,0,0,0,3.346-5.2,19.96,19.96,0,0,0,1.114-6.841,18.13,18.13,0,0,0-1.114-6.5,12.915,12.915,0,0,0-3.346-4.956,14.851,14.851,0,0,0-5.636-3.125,26.368,26.368,0,0,0-7.99-1.084H390.841Z" transform="translate(-297.26 119.497)"/>
      <path id="Path_4" data-name="Path 4" d="M451.623-118.509v13.255h-39.7v24.836H443.2V-67.6H411.922V-42.27h39.7v13.316H395.137v-89.555Z" transform="translate(-238.26 119.497)"/>
      <path id="Path_5" data-name="Path 5" d="M471.02-118.509v13.255h-39.7v24.836H462.6V-67.6H431.319V-42.27h39.7v13.316H414.534v-89.555Z" transform="translate(-183.646 119.497)"/>
      <path id="Path_6" data-name="Path 6" d="M513.455-73.733a48.361,48.361,0,0,1-3.285,18.086,41.493,41.493,0,0,1-9.226,14.182,41.26,41.26,0,0,1-14.308,9.23,50.24,50.24,0,0,1-18.517,3.281H433.931v-89.555h34.188a49.855,49.855,0,0,1,18.517,3.316,41.918,41.918,0,0,1,14.308,9.226,41.254,41.254,0,0,1,9.226,14.152A48.382,48.382,0,0,1,513.455-73.733Zm-17.033,0a41.083,41.083,0,0,0-1.984-13.217,28.032,28.032,0,0,0-5.635-9.913,24.337,24.337,0,0,0-8.886-6.223,30.581,30.581,0,0,0-11.8-2.167h-17.4v63.049h17.4a30.581,30.581,0,0,0,11.8-2.171A24.246,24.246,0,0,0,488.8-50.6a28.013,28.013,0,0,0,5.635-9.909A41.1,41.1,0,0,0,496.422-73.733Z" transform="translate(-129.033 119.497)"/>
      <path id="Path_7" data-name="Path 7" d="M531.428-29.548H519.352v-40.38H471.539v40.38H459.463V-118.3h12.076v39.575h47.813V-118.3h12.076Z" transform="translate(-57.145 120.091)"/>
      <path id="Path_8" data-name="Path 8" d="M571-73.163a51.21,51.21,0,0,1-3.159,18.3,42.034,42.034,0,0,1-8.921,14.339A39.934,39.934,0,0,1,545.081-31.2a46.762,46.762,0,0,1-17.872,3.308A46.529,46.529,0,0,1,509.371-31.2a40.024,40.024,0,0,1-13.809-9.322,41.853,41.853,0,0,1-8.917-14.339,51.21,51.21,0,0,1-3.16-18.3,51.218,51.218,0,0,1,3.16-18.3,42.168,42.168,0,0,1,8.917-14.369,40.066,40.066,0,0,1,13.809-9.382,46.108,46.108,0,0,1,17.838-3.342,46.338,46.338,0,0,1,17.872,3.342,39.976,39.976,0,0,1,13.839,9.382,42.351,42.351,0,0,1,8.921,14.369A51.218,51.218,0,0,1,571-73.163Zm-12.328,0a45.045,45.045,0,0,0-2.229-14.675,31.123,31.123,0,0,0-6.315-10.993,27.406,27.406,0,0,0-9.913-6.906,33.65,33.65,0,0,0-13.007-2.419,33.47,33.47,0,0,0-12.943,2.419,27.674,27.674,0,0,0-9.94,6.906,30.739,30.739,0,0,0-6.349,10.993,45.053,45.053,0,0,0-2.228,14.675,44.79,44.79,0,0,0,2.228,14.648,30.767,30.767,0,0,0,6.349,10.962,27.367,27.367,0,0,0,9.94,6.876,33.821,33.821,0,0,0,12.943,2.385,34,34,0,0,0,13.007-2.385,27.1,27.1,0,0,0,9.913-6.876,31.152,31.152,0,0,0,6.315-10.962A44.782,44.782,0,0,0,558.672-73.163Z" transform="translate(10.493 119.362)"/>
      <path id="Path_9" data-name="Path 9" d="M556.718-58.5c.436,1.091.855,2.2,1.267,3.312q.618-1.728,1.3-3.312t1.549-3.19l30.04-54.563a3.533,3.533,0,0,1,1.671-1.732,7.671,7.671,0,0,1,2.476-.313h8.856v88.75H593.348V-94.76c0-.87.023-1.8.064-2.789s.1-2,.187-3.033l-30.41,55.49a4.78,4.78,0,0,1-4.338,2.789h-1.732a4.775,4.775,0,0,1-4.335-2.789l-31.093-55.677c.126,1.076.217,2.125.278,3.159s.1,1.98.1,2.85v65.212H511.534V-118.3h8.856a7.715,7.715,0,0,1,2.48.313,3.553,3.553,0,0,1,1.671,1.732L555.2-61.629A23.358,23.358,0,0,1,556.718-58.5Z" transform="translate(89.464 120.091)"/>
      <path id="Path_10" data-name="Path 10" d="M596.9-118.3v9.787H554.288v29.479h34.5v9.413h-34.5v30.288H596.9v9.783H542.212V-118.3Z" transform="translate(175.84 120.091)"/>
    </g>
  </g>
</svg>
