<?xml version="1.0" encoding="utf-8"?>
<!-- Generator: Adobe Illustrator 23.0.0, SVG Export Plug-In . SVG Version: 6.00 Build 0)  -->
<svg version="1.1" id="Layer_1" xmlns="http://www.w3.org/2000/svg" xmlns:xlink="http://www.w3.org/1999/xlink" x="0px" y="0px"
	 viewBox="0 0 24 24" style="enable-background:new 0 0 24 24;" xml:space="preserve">
<style type="text/css">
	.st0{fill:none;}
	.st1{fill:#FFE100;}
</style>
<g>
	<rect y="0" class="st0" width="24" height="24"/>
</g>
<g>
	<g>
		<path class="st1" d="M12,3c-0.5,0-0.9,0-1.4,0.1c-2.8,0.5-5,2.8-5.5,5.5c-0.5,2.6,0.5,5,2.2,6.6C7.8,15.6,8,16.1,8,16.7V19
			c0,1.1,0.9,2,2,2h0.3c0.4,0.6,1,1,1.7,1s1.4-0.4,1.7-1H14c1.1,0,2-0.9,2-2v-2.3c0-0.5,0.2-1.1,0.6-1.5c1.5-1.3,2.4-3.2,2.4-5.2
			C19,6.1,15.9,3,12,3z M14,17h-4v-1h4V17z M10,19v-1h4v1H10z M15.3,13.7c-0.1,0.1-0.2,0.2-0.2,0.3H8.9c-0.1-0.1-0.1-0.2-0.2-0.3
			C7.4,12.5,6.8,10.8,7.1,9c0.4-1.9,2-3.6,3.9-3.9C11.3,5,11.7,5,12,5c2.8,0,5,2.2,5,5C17,11.4,16.4,12.8,15.3,13.7z"/>
	</g>
	<g>
		<rect x="11.5" y="11" class="st1" width="1" height="3"/>
		<rect x="10.6" y="8.8" transform="matrix(0.7071 -0.7071 0.7071 0.7071 -4.0275 10.8527)" class="st1" width="1" height="3"/>
		<rect x="11.4" y="9.8" transform="matrix(0.7071 -0.7071 0.7071 0.7071 -3.4991 12.1487)" class="st1" width="3" height="1"/>
	</g>
</g>
</svg>
