<svg xmlns="http://www.w3.org/2000/svg" viewBox="0 0 99.67 62.57"><defs><style>.cls-1{fill:#727272;}</style></defs><title>photo-guidelines-hd</title><g id="Layer_2" data-name="Layer 2"><g id="ICON"><path class="cls-1" d="M99.67,4.4V58.17a4.41,4.41,0,0,1-4.4,4.4H4.4A4.41,4.41,0,0,1,0,58.17V4.4A4.4,4.4,0,0,1,4.4,0H95.27A4.4,4.4,0,0,1,99.67,4.4Zm-4.4,53.77V4.4H4.4V58.17H95.27Z"/><path class="cls-1" d="M31.64,21.45h3.71v7.86h8.26V21.45h3.71V41.12H43.61v-8.3H35.35v8.3H31.64Z"/><path class="cls-1" d="M51.28,21.45h6.64a11.88,11.88,0,0,1,4.21.71,9.15,9.15,0,0,1,3.18,2,8.8,8.8,0,0,1,2,3.12,11.75,11.75,0,0,1,0,8,8.68,8.68,0,0,1-2,3.11,9.11,9.11,0,0,1-3.18,2,11.65,11.65,0,0,1-4.21.72H51.28ZM57.76,37.6a8.38,8.38,0,0,0,2.86-.45,5.59,5.59,0,0,0,2.06-1.28,5.27,5.27,0,0,0,1.23-2,8.42,8.42,0,0,0,0-5.19,5.27,5.27,0,0,0-1.23-2,5.59,5.59,0,0,0-2.06-1.28A8.38,8.38,0,0,0,57.76,25H55V37.6Z"/></g></g></svg>