<svg xmlns="http://www.w3.org/2000/svg" viewBox="0 0 99.67 62.57"><defs><style>.cls-1,.cls-2{fill:#727272;}.cls-2{fill-rule:evenodd;}</style></defs><title>photo-guidelines-sun</title><g id="Layer_2" data-name="Layer 2"><g id="ICON"><path class="cls-1" d="M99.67,4.4V58.17a4.41,4.41,0,0,1-4.4,4.4H4.4A4.41,4.41,0,0,1,0,58.17V4.4A4.4,4.4,0,0,1,4.4,0H95.27A4.4,4.4,0,0,1,99.67,4.4Zm-4.4,53.77V4.4H4.4V58.17H95.27Z"/><path class="cls-2" d="M37.35,31.28a1.62,1.62,0,0,0-1.62-1.62H32.47a1.63,1.63,0,1,0,0,3.25h3.26a1.63,1.63,0,0,0,1.62-1.63ZM39,40.51a1.59,1.59,0,0,0-1.15.48l-2.17,2.16a1.68,1.68,0,0,0-.48,1.16A1.63,1.63,0,0,0,38,45.46l2.17-2.17a1.59,1.59,0,0,0,.48-1.15A1.63,1.63,0,0,0,39,40.51ZM49.83,18.8a1.62,1.62,0,0,0,1.63-1.62V13.92a1.63,1.63,0,1,0-3.25,0v3.26a1.62,1.62,0,0,0,1.62,1.62Zm10.86,3.26a1.59,1.59,0,0,0,1.15-.48L64,19.41a1.63,1.63,0,1,0-2.3-2.3l-2.17,2.17a1.59,1.59,0,0,0-.48,1.15,1.63,1.63,0,0,0,1.63,1.63Zm-22.86-.48a1.59,1.59,0,0,0,1.15.48,1.63,1.63,0,0,0,1.63-1.63,1.59,1.59,0,0,0-.48-1.15L38,17.11a1.63,1.63,0,1,0-2.3,2.3ZM67.2,29.66H63.94a1.63,1.63,0,1,0,0,3.25H67.2a1.63,1.63,0,1,0,0-3.25ZM61.84,41a1.59,1.59,0,0,0-1.15-.48,1.63,1.63,0,0,0-1.63,1.63,1.59,1.59,0,0,0,.48,1.15l2.17,2.17a1.63,1.63,0,0,0,2.78-1.15A1.68,1.68,0,0,0,64,43.15Zm-12,2.77a1.63,1.63,0,0,0-1.62,1.63v3.26a1.63,1.63,0,1,0,3.25,0V45.39a1.63,1.63,0,0,0-1.63-1.63Zm0-23.87a11.4,11.4,0,1,0,11.4,11.39,11.4,11.4,0,0,0-11.4-11.39Zm0,19.53A8.14,8.14,0,1,1,58,31.28a8.15,8.15,0,0,1-8.14,8.14Z"/></g></g></svg>