<?xml version="1.0" encoding="UTF-8"?>
<svg width="102px" height="88px" viewBox="0 0 102 88" version="1.1" xmlns="http://www.w3.org/2000/svg" xmlns:xlink="http://www.w3.org/1999/xlink">
    <!-- Generator: Sketch 51.3 (57544) - http://www.bohemiancoding.com/sketch -->
    <title>Group 5</title>
    <desc>Created with Sketch.</desc>
    <defs></defs>
    <g id="Page-1" stroke="none" stroke-width="1" fill="none" fill-rule="evenodd">
        <g id="WEB---HOMEPAGE_002" transform="translate(-1060.000000, -2257.000000)">
            <g id="Group-517" transform="translate(31.000000, 2257.000000)">
                <g id="Group-5" transform="translate(1029.000000, 0.000000)">
                    <path d="M58.179002,0.91065 C59.605146,0.91065 61.027856,0.980543241 62.447134,1.12032975 C63.866407,1.26011626 65.275411,1.46912287 66.67415,1.7473496 C68.072897,2.02557634 69.454633,2.37168358 70.819364,2.7856712 C72.184099,3.1996589 73.525259,3.6795332 74.84284,4.2252946 C76.160429,4.7710562 77.448095,5.3800766 78.705839,6.0523565 C79.963583,6.7246358 81.185354,7.4569366 82.371152,8.2492592 C83.556951,9.0415819 84.701055,9.8901117 85.80348,10.7948472 C86.905904,11.6995828 87.96134,12.6561687 88.96977,13.6646049 C89.9782,14.6730401 90.934789,15.7284696 91.839529,16.8308933 C92.74426,17.933317 93.592794,19.077427 94.385114,20.263221 C95.177434,21.449018 95.909742,22.670788 96.582021,23.928533 C97.254301,25.186279 97.863317,26.473945 98.409078,27.791528 C98.954839,29.109113 99.434713,30.450273 99.848707,31.815008 C100.262693,33.179743 100.6088,34.561479 100.887022,35.960218 C101.165258,37.358961 101.374273,38.767969 101.514059,40.187246 C101.653844,41.606523 101.723737,43.029234 101.72373,44.455377 C101.723737,45.881521 101.653844,47.304231 101.514059,48.723509 C101.374273,50.142782 101.165258,51.551786 100.887022,52.950525 C100.6088,54.349272 100.262693,55.731008 99.848707,57.095739 C99.434713,58.460474 98.954839,59.801634 98.409071,61.119215 C97.863309,62.436804 97.254293,63.72447 96.582014,64.982214 C95.909734,66.239958 95.177434,67.461729 94.385099,68.647527 C93.592779,69.833326 92.744253,70.97743 91.839521,72.079855 C90.934789,73.182279 89.9782,74.237715 88.969762,75.246145 C87.961332,76.254575 86.905904,77.211164 85.80348,78.115904 C84.701055,79.020635 83.556943,79.869169 82.371145,80.661489 C81.185346,81.453809 79.963575,82.186117 78.705831,82.858396 C77.448087,83.530676 76.160421,84.139692 74.842836,84.685453 C73.525259,85.231214 72.184099,85.711088 70.819364,86.125082 C69.454633,86.539068 68.072897,86.885175 66.67415,87.163397 C65.275411,87.441633 63.866407,87.650648 62.447134,87.790434 C61.027856,87.930212 59.605146,88.000105 58.179002,88.000105 C56.752859,88.000105 55.330148,87.930212 53.910871,87.790434 C52.491594,87.650648 51.082586,87.441633 49.683843,87.163397 C48.285104,86.885175 46.903368,86.539068 45.538631,86.125082 C44.173898,85.711088 42.832738,85.231214 41.515153,84.685446 C40.19757,84.139684 38.909904,83.530668 37.652158,82.858389 C36.394413,82.186109 35.172641,81.453809 33.986845,80.661474 C32.801052,79.869154 31.656942,79.020628 30.5545192,78.115896 C29.4520955,77.211164 28.3966651,76.254575 27.3882299,75.246137 C26.3797937,74.237707 25.4232078,73.182279 24.5184722,72.079855 C23.6137367,70.97743 22.7652069,69.833318 21.9728842,68.64752 C21.1805616,67.461721 20.4482608,66.23995 19.775981,64.982206 C19.1037016,63.724462 18.4946812,62.436796 17.9489196,61.119211 C17.4031582,59.801634 16.9232839,58.460474 16.5092962,57.095739 C16.0953086,55.731008 15.7492013,54.349272 15.4709746,52.950525 C15.1927479,51.551786 14.9837413,50.142782 14.8439548,48.723509 C14.7041682,47.304231 14.634275,45.881521 14.634275,44.455377 C14.634275,43.029234 14.7041682,41.606523 14.8439548,40.187246 C14.9837413,38.767969 15.1927479,37.358961 15.4709746,35.960218 C15.7492013,34.561479 16.0953086,33.179743 16.5092962,31.815006 C16.9232839,30.450273 17.4031582,29.109113 17.9489196,27.791528 C18.4946812,26.473945 19.1037016,25.186279 19.7759815,23.928533 C20.4482608,22.670788 21.1805616,21.449016 21.9728842,20.26322 C22.7652069,19.077427 23.6137367,17.933317 24.5184722,16.8308942 C25.4232078,15.7284705 26.3797937,14.6730401 27.3882299,13.6646049 C28.3966651,12.6561687 29.4520946,11.6995828 30.5545183,10.7948472 C31.656942,9.8901117 32.801052,9.0415819 33.986846,8.2492592 C35.172643,7.4569366 36.394413,6.7246358 37.652158,6.052356 C38.909904,5.3800766 40.19757,4.7710562 41.515153,4.2252946 C42.832738,3.6795332 44.173898,3.1996589 45.538633,2.7856712 C46.903368,2.37168358 48.285104,2.02557634 49.683843,1.7473496 C51.082586,1.46912287 52.491594,1.26011626 53.910871,1.12032975 C55.330148,0.980543241 56.752859,0.91065 58.179002,0.91065 Z" id="Fill-441" fill="#FFE100"></path>
                    <path d="M93.368284,56.585606 L93.347135,56.536793 C91.982778,53.372532 88.546346,51.66219 85.251005,52.373402 C85.668493,51.020969 85.600446,49.580113 85.04495,48.259983 C84.418707,46.771084 83.249265,45.617008 81.748823,45.009609 C81.732679,45.003063 81.715383,44.996151 81.696554,44.989254 C80.463674,44.502949 79.127393,44.449116 77.891828,44.785877 L77.891828,38.270908 L77.891828,34.95673 L77.891828,29.902996 L77.891828,28.749317 L77.891828,25.703083 L82.054456,28.459072 C82.312025,28.629749 82.60227,28.711247 82.890218,28.711247 C83.381506,28.711247 83.863981,28.472508 84.15576,28.031963 C84.618223,27.333843 84.426771,26.393124 83.728651,25.930653 L75.465681,20.459423 L63.335317,12.42712 L58.957418,9.528103 C58.449964,9.192135 57.790678,9.192135 57.283224,9.528103 L32.511598,25.930653 C31.813474,26.393124 31.622408,27.333843 32.084493,28.032337 C32.546961,28.730862 33.488054,28.921925 34.185796,28.459438 L38.348425,25.703083 L38.348425,33.850712 L33.234709,31.888958 C33.037882,31.810917 32.822222,31.732113 32.556959,31.641392 C27.17761,29.793041 21.045156,30.636479 16.152883,33.896847 L1.56678,43.613361 C0.869806,44.077755 0.681431,45.019222 1.145824,45.716198 C1.609836,46.412792 2.551309,46.601544 3.248281,46.137165 L11.756136,66.576984 C10.989195,66.912968 10.63936,67.807163 10.975355,68.574116 C11.310964,69.341053 12.205534,69.690876 12.972479,69.354878 L14.207273,68.814381 C15.408621,68.28693 16.75567,68.223118 18.001993,68.634068 L49.090597,78.877644 C50.624479,79.383152 52.217184,79.634968 53.807188,79.634968 C55.783941,79.634968 57.757223,79.246296 59.60864,78.472813 L71.521406,73.5033 L77.312109,71.087895 L77.312483,71.087895 L78.800245,70.467426 L80.246084,69.864262 L89.523977,65.99419 C91.298498,65.253758 92.675901,63.866367 93.402494,62.086826 C94.128683,60.309223 94.116773,58.356297 93.368284,56.585606 Z M38.348043,48.070835 L38.348043,54.077976 L37.105551,53.643955 C35.695463,53.149555 34.889692,51.633732 35.271047,50.192127 C35.497869,49.334843 36.096807,48.640568 36.914488,48.288052 C37.370435,48.091602 37.863279,48.020474 38.348043,48.070835 Z" id="Fill-443" fill="#FFFFFF"></path>
                    <path d="M71.694688,70.14519 L58.440637,75.67369 C55.771921,76.78853 52.788728,76.90387 50.039667,75.99736 L18.95183,65.75418 C16.993917,65.10796 14.876474,65.20868 12.989679,66.03714 L11.756044,66.57686 C10.989099,66.91288 10.639269,67.80706 10.975259,68.57399 C11.310869,69.34095 12.205438,69.69075 12.972383,69.35477 L14.207178,68.81427 C15.408529,68.28684 16.755579,68.223 18.001894,68.63398 L49.090494,78.87754 C50.624391,79.38308 52.217081,79.63488 53.807092,79.63488 C55.783846,79.63488 57.757127,79.24622 59.608545,78.47271 L72.861826,72.9442 C73.634905,72.62168 74.000108,71.73401 73.677583,70.96094 C73.355432,70.18785 72.467401,69.82299 71.694688,70.14519 Z" id="Fill-445" fill="#000000"></path>
                    <path d="M63.335317,12.42712 L58.957418,9.528103 C58.449964,9.192135 57.790678,9.192135 57.283224,9.528103 L32.511598,25.930653 C31.813474,26.393124 31.622408,27.333843 32.084493,28.032337 C32.546961,28.730862 33.488054,28.921925 34.185796,28.459438 L38.348425,25.703083 L38.348425,33.850712 L33.234709,31.888958 C33.037882,31.810917 32.822222,31.732113 32.556959,31.641392 C27.17761,29.793041 21.045156,30.636479 16.152883,33.896847 L1.56678,43.613361 C0.869806,44.077755 0.681431,45.019222 1.145824,45.716198 C1.609836,46.412792 2.551309,46.601544 3.248281,46.137165 L17.834764,36.420261 C21.945497,33.680798 27.080351,32.966137 31.573583,34.510014 C31.793096,34.584988 31.965315,34.64764 32.131777,34.713757 L59.568281,45.23798 C60.382894,45.548977 61.02297,46.163288 61.369726,46.968289 C61.728018,47.797901 61.726476,48.707844 61.365492,49.531666 C60.699667,51.057865 58.944738,51.830189 57.369329,51.289677 L39.964582,45.338299 C38.574468,44.862377 37.064817,44.920811 35.713918,45.503224 C34.035482,46.2271 32.805689,47.653347 32.339372,49.41634 C31.555513,52.377613 33.208948,55.491535 36.104498,56.506016 L56.051115,63.476536 C58.1378,64.206181 60.438253,64.206181 62.529173,63.476536 L85.398618,55.474598 C87.438032,54.759937 89.707342,55.753315 90.567678,57.748127 L90.576147,57.768894 C91.007093,58.788395 91.014402,59.914784 90.595358,60.940067 C90.175939,61.967259 89.380949,62.768055 88.356817,63.195149 L76.144979,68.289234 C75.371877,68.611408 75.007047,69.499424 75.329206,70.27216 C75.572164,70.85416 76.135755,71.205143 76.729307,71.205143 C76.923818,71.205143 77.121809,71.167484 77.312483,71.087895 L89.523977,65.99419 C91.298498,65.253758 92.675901,63.866367 93.402494,62.086826 C94.128683,60.309223 94.116773,58.356297 93.368284,56.585606 L93.347135,56.536793 C91.982778,53.372532 88.546346,51.66219 85.251005,52.373402 C85.668493,51.020969 85.600446,49.580113 85.04495,48.259983 C84.418707,46.771084 83.249265,45.617008 81.748823,45.009609 C81.732679,45.003063 81.715383,44.996151 81.696554,44.989613 C80.463674,44.502949 79.127393,44.449116 77.891828,44.785877 L77.891828,34.95673 C77.891828,34.119442 77.212919,33.440533 76.375631,33.440533 C75.538343,33.440533 74.859426,34.119442 74.859426,34.95673 L74.859426,55.948994 L61.528883,60.613682 C60.083425,61.118046 58.493803,61.118046 57.051786,60.613682 L41.381201,55.137455 L41.381201,49.027302 L56.387106,54.158695 C59.416425,55.197422 62.787893,53.734287 64.106497,50.827595 L66.004041,50.827595 C66.841345,50.827595 67.520246,50.148686 67.520246,49.311375 L67.520246,31.722118 C67.520246,30.884831 66.841345,30.205921 66.004041,30.205921 L50.234281,30.205921 C49.396993,30.205921 48.718084,30.884831 48.718084,31.722118 L48.718084,37.828053 L41.381201,35.013615 L41.381201,23.695568 L58.11936,12.612026 L74.859426,23.69595 L74.859426,29.902996 C74.859426,30.740276 75.538343,31.419186 76.375631,31.419186 C77.212919,31.419186 77.891828,30.740276 77.891828,29.902996 L77.891828,25.703083 L82.054456,28.459072 C82.312025,28.629749 82.60227,28.711247 82.890218,28.711247 C83.381506,28.711247 83.863981,28.472508 84.15576,28.031963 C84.618223,27.333843 84.426771,26.393124 83.728651,25.930653 L75.465681,20.459423 L63.335317,12.42712 Z M60.651609,42.405865 L51.750478,38.991345 L51.750478,33.238712 L64.487478,33.238712 L64.487478,46.770695 C64.405195,46.42931 64.295255,46.093327 64.154554,45.76733 C63.480642,44.20422 62.235464,43.0098 60.651609,42.405865 Z M35.271047,50.192127 C35.497869,49.334843 36.096807,48.640568 36.914488,48.288052 C37.370435,48.091602 37.863279,48.020474 38.348043,48.070835 L38.348043,54.077976 L37.105551,53.643955 C35.695463,53.149555 34.889692,51.633732 35.271047,50.192127 Z M77.891828,48.059696 C78.69029,47.561092 79.694814,47.457295 80.585157,47.811344 C80.599378,47.817127 80.614752,47.82288 80.630903,47.828655 C81.366316,48.13197 81.940664,48.702076 82.249746,49.435963 C82.561903,50.178288 82.565359,50.998676 82.26013,51.742924 L81.482038,53.632404 L77.891828,54.88834 L77.891828,48.059696 Z" id="Fill-447" fill="#000000"></path>
                </g>
            </g>
        </g>
    </g>
</svg>