<svg xmlns="http://www.w3.org/2000/svg" xmlns:xlink="http://www.w3.org/1999/xlink" width="64.999" height="64.593" viewBox="0 0 64.999 64.593">
  <defs>
    <clipPath id="clip-path">
      <path id="Path_1124" data-name="Path 1124" d="M57.905,18.688A31.291,31.291,0,1,1,17.064,35.724,31.3,31.3,0,0,1,57.905,18.688Z" transform="translate(-14.687 -16.342)"/>
    </clipPath>
  </defs>
  <g id="Group_1132" data-name="Group 1132" transform="translate(-12.796 -16.342)">
    <path id="XMLID_3_" d="M57.905,18.688A31.291,31.291,0,1,1,17.064,35.724,31.3,31.3,0,0,1,57.905,18.688Z" transform="translate(-0.824 0)" fill="#ffe100"/>
    <g id="Group_994" data-name="Group 994" transform="translate(13.862 16.342)">
      <g id="Group_993" data-name="Group 993" transform="translate(0)" clip-path="url(#clip-path)">
        <path id="Path_1122" data-name="Path 1122" d="M91.831,37.358c-1.805-2.087-5.923-2.2-7.728,0a11.721,11.721,0,0,0-2.877,6.149c-.338,2.087-.508,5.077-.677,6.318a51.938,51.938,0,0,1-1.128,5.133c-.282.959-.564,1.862-.9,2.764-.056.226-.79,1.974-.733,1.862a41.665,41.665,0,0,1-2.144,4.174c-.451.79-.959,1.58-1.467,2.313-.113.169-1.185,1.58-1.128,1.58a44.709,44.709,0,0,1-3.5,3.836c-.621.621-1.3,1.241-1.974,1.805l-1.015.846c.451-.338.395-.282-.282.169-11.564,8.575-25.385,10.154-39.826,11-2.031.113-3.046,2.877-1.072,3.949,14.611,8.123,34.016,5.754,47.555-3.61A49.575,49.575,0,0,0,89.292,66.861a52.887,52.887,0,0,0,4.4-12.693A64.536,64.536,0,0,0,94.82,46.1,11.209,11.209,0,0,0,91.831,37.358Z" transform="translate(-18.883 -24.802)" opacity="0.1"/>
        <path id="Path_1123" data-name="Path 1123" d="M89.694,12.125c-1.467-2.2-2.877-4.569-5.133-5.923A51.024,51.024,0,0,0,77.227,2.76,51.729,51.729,0,0,0,62.278.109,71.946,71.946,0,0,0,32.211,5.017c-9.477,3.667-19.067,9.872-25.1,18.221C1.579,30.91-1.862,41.007,1.072,50.315a38.517,38.517,0,0,0,4.174,8.349c.282.451,1.128.282,1.072-.282-.169-4.569,1.015-8.913,2.031-13.313A30.264,30.264,0,0,1,13.426,33.73c0-.056.508-.677.621-.846.282-.338.508-.677.79-.959.677-.79,1.467-1.58,2.144-2.369A36.371,36.371,0,0,1,21.831,25.1c.056-.056.113-.056.113-.113a3.847,3.847,0,0,1,.395-.282c.451-.338.9-.677,1.354-.959.959-.621,1.918-1.241,2.877-1.805a54.663,54.663,0,0,1,6.262-3.215c.169-.056.959-.395,1.072-.451.564-.226,1.072-.395,1.636-.621,1.128-.395,2.2-.846,3.328-1.185,2.256-.733,4.569-1.354,6.882-1.862,1.185-.282,2.313-.451,3.5-.677l1.185-.169c-.056,0,1.072-.113,1.185-.113a57.349,57.349,0,0,1,7.616-.338c1.128,0,2.313.056,3.441.169l1.692.169c.113,0,.733.113,1.015.113a55.39,55.39,0,0,1,6.6,1.467c1.862.564,3.78,1.128,5.585,1.862.113.056.846.395.959.451a10.087,10.087,0,0,0,3.61.959,5.006,5.006,0,0,1,.846.113,11.132,11.132,0,0,1,1.467.395C88.227,19.627,91.951,15.509,89.694,12.125Z" transform="translate(-8.285 -9.215)" fill="#fff" opacity="0.3"/>
      </g>
    </g>
    <path id="XMLID_1_" d="M57.905,18.688A31.291,31.291,0,1,1,17.064,35.724,31.3,31.3,0,0,1,57.905,18.688Z" transform="translate(-0.824 0)" fill="none" fill-rule="evenodd"/>
    <path id="Path_1125" data-name="Path 1125" d="M33.163,19.481A34.972,34.972,0,0,1,45.122,16.66,33.491,33.491,0,0,1,57.532,18.3,29.156,29.156,0,0,1,68.42,24.84a29.954,29.954,0,0,1,7.164,10.549,31.46,31.46,0,0,1,2.2,12.467c-.056,1.072-.169,2.087-.226,3.159-.169,1.015-.338,2.087-.508,3.1l-.79,3.046L75.189,60.1A34.015,34.015,0,0,1,58.435,77.923a31.287,31.287,0,0,1-24.821,1.072A32.4,32.4,0,0,1,15.337,61.62,31.348,31.348,0,0,1,12.8,49.04,30.192,30.192,0,0,1,15.562,36.63,33.654,33.654,0,0,1,22.9,26.476,32.251,32.251,0,0,1,33.163,19.481Zm.113.338a27.767,27.767,0,0,0-9.759,7.108A29.007,29.007,0,0,0,17.649,37.25l-.79,2.821L16.3,43c-.056.959-.226,1.918-.282,2.933,0,.959-.056,1.918,0,2.933A30.784,30.784,0,0,0,18.608,60.1,31.469,31.469,0,0,0,25.1,69.574a29.71,29.71,0,0,0,9.59,6.375,31.319,31.319,0,0,0,22.959.226A28.549,28.549,0,0,0,74.117,59.646c.338-.959.621-1.918.9-2.877.226-.959.451-1.974.621-2.933.113-1.015.226-1.974.282-2.99v-2.99a31.205,31.205,0,0,0-2.933-11.339,33.456,33.456,0,0,0-16.3-16.19,30.25,30.25,0,0,0-11.564-2.764A26.889,26.889,0,0,0,33.275,19.819Z" transform="translate(0 -0.116)"/>
    <g id="Group_995" data-name="Group 995" transform="translate(33.84 36.062)">
      <path id="Path_1126" data-name="Path 1126" d="M56.757,54.628A3.328,3.328,0,1,1,53.428,51.3,3.334,3.334,0,0,1,56.757,54.628Z" transform="translate(-50.1 -51.3)"/>
      <path id="Path_1127" data-name="Path 1127" d="M88.857,54.628A3.328,3.328,0,1,1,85.528,51.3,3.3,3.3,0,0,1,88.857,54.628Z" transform="translate(-64.092 -51.3)"/>
    </g>
    <g id="Group_996" data-name="Group 996" transform="translate(23.855 47.57)">
      <path id="Path_1128" data-name="Path 1128" d="M32.4,74.6a21.949,21.949,0,0,0,43.775,0Z" transform="translate(-32.4 -72.964)" fill="#fff"/>
      <path id="Path_1129" data-name="Path 1129" d="M32.4,73.336A22.712,22.712,0,0,0,40.016,87.1a22.237,22.237,0,0,0,6.713,3.892,21.69,21.69,0,0,0,7.559,1.241,20.945,20.945,0,0,0,13.821-5.641A21.468,21.468,0,0,0,72.565,80.5a19.15,19.15,0,0,0,1.974-7.277l1.636,1.749c-3.554-.056-7.108-.113-10.662-.226-3.554-.056-7.164-.226-10.775-.338l-11-.508Zm0,0c3.441-.169,6.939-.395,10.549-.564,3.554-.169,7.221-.338,10.887-.508,3.667-.113,7.39-.282,11.113-.338s7.5-.169,11.226-.226h1.749l-.113,1.749a23.293,23.293,0,0,1-14.893,20.2,23.75,23.75,0,0,1-8.631,1.467,22.477,22.477,0,0,1-15.57-6.657,22.082,22.082,0,0,1-4.682-7A21.314,21.314,0,0,1,32.4,73.336Z" transform="translate(-32.4 -71.7)"/>
    </g>
  </g>
</svg>
