<svg xmlns="http://www.w3.org/2000/svg" xmlns:xlink="http://www.w3.org/1999/xlink" width="65" height="64.593" viewBox="0 0 65 64.593">
  <defs>
    <clipPath id="clip-path">
      <path id="Path_1117" data-name="Path 1117" d="M57.906,18.688A31.291,31.291,0,1,1,17.064,35.724,31.3,31.3,0,0,1,57.906,18.688Z" transform="translate(-14.687 -16.342)"/>
    </clipPath>
  </defs>
  <g id="Group_991" data-name="Group 991" transform="translate(-12.796 -16.342)">
    <g id="Group_989" data-name="Group 989" transform="translate(13.862 16.342)">
      <path id="XMLID_3_" d="M57.906,18.688A31.291,31.291,0,1,1,17.064,35.724,31.3,31.3,0,0,1,57.906,18.688Z" transform="translate(-14.687 -16.342)" fill="#ffe100"/>
      <g id="Group_988" data-name="Group 988">
        <g id="Group_987" data-name="Group 987" clip-path="url(#clip-path)">
          <path id="Path_1115" data-name="Path 1115" d="M89.695,12.125c-1.467-2.2-2.877-4.569-5.133-5.923A51.025,51.025,0,0,0,77.228,2.76,51.729,51.729,0,0,0,62.278.109,71.946,71.946,0,0,0,32.211,5.017c-9.477,3.667-19.067,9.872-25.1,18.221C1.58,30.91-1.862,41.008,1.072,50.315a38.517,38.517,0,0,0,4.174,8.349c.282.451,1.128.282,1.072-.282-.169-4.569,1.015-8.913,2.031-13.313A30.264,30.264,0,0,1,13.426,33.73c0-.056.508-.677.621-.846.282-.338.508-.677.79-.959.677-.79,1.467-1.58,2.144-2.369A36.372,36.372,0,0,1,21.831,25.1c.056-.056.113-.056.113-.113a3.846,3.846,0,0,1,.395-.282c.451-.338.9-.677,1.354-.959.959-.621,1.918-1.241,2.877-1.805a54.664,54.664,0,0,1,6.262-3.215c.169-.056.959-.395,1.072-.451.564-.226,1.072-.395,1.636-.621,1.128-.395,2.2-.846,3.328-1.185,2.256-.733,4.569-1.354,6.882-1.862,1.185-.282,2.313-.451,3.5-.677l1.185-.169c-.056,0,1.072-.113,1.185-.113a57.35,57.35,0,0,1,7.616-.338c1.128,0,2.313.056,3.441.169l1.692.169c.113,0,.733.113,1.015.113a55.391,55.391,0,0,1,6.6,1.467c1.862.564,3.78,1.128,5.585,1.862.113.056.846.395.959.451a10.087,10.087,0,0,0,3.61.959,5.006,5.006,0,0,1,.846.113,11.133,11.133,0,0,1,1.467.395C88.228,19.627,91.951,15.509,89.695,12.125Z" transform="translate(-8.285 -9.215)" fill="#fff" opacity="0.3"/>
          <path id="Path_1116" data-name="Path 1116" d="M91.831,37.358c-1.805-2.087-5.923-2.2-7.728,0a11.721,11.721,0,0,0-2.877,6.149c-.338,2.087-.508,5.077-.677,6.318a51.941,51.941,0,0,1-1.128,5.133c-.282.959-.564,1.862-.9,2.764-.056.226-.79,1.974-.733,1.862a41.662,41.662,0,0,1-2.144,4.174c-.451.79-.959,1.58-1.467,2.313-.113.169-1.185,1.58-1.128,1.58a44.712,44.712,0,0,1-3.5,3.836c-.621.621-1.3,1.241-1.974,1.805l-1.015.846c.451-.338.395-.282-.282.169-11.564,8.575-25.385,10.154-39.827,11-2.031.113-3.046,2.877-1.072,3.949,14.611,8.123,34.016,5.754,47.555-3.61A49.575,49.575,0,0,0,89.292,66.861a52.887,52.887,0,0,0,4.4-12.693A64.536,64.536,0,0,0,94.821,46.1,11.209,11.209,0,0,0,91.831,37.358Z" transform="translate(-18.883 -24.802)" opacity="0.1"/>
        </g>
      </g>
      <path id="XMLID_1_" d="M57.906,18.688A31.291,31.291,0,1,1,17.064,35.724,31.3,31.3,0,0,1,57.906,18.688Z" transform="translate(-14.687 -16.342)" fill="none" fill-rule="evenodd"/>
    </g>
    <path id="Path_1118" data-name="Path 1118" d="M33.163,19.481A34.972,34.972,0,0,1,45.122,16.66,33.491,33.491,0,0,1,57.533,18.3,29.156,29.156,0,0,1,68.42,24.84a29.954,29.954,0,0,1,7.164,10.549,31.46,31.46,0,0,1,2.2,12.467c-.056,1.072-.169,2.087-.226,3.159-.169,1.015-.338,2.087-.508,3.1l-.79,3.046L75.189,60.1A34.016,34.016,0,0,1,58.435,77.923a31.287,31.287,0,0,1-24.821,1.072A32.4,32.4,0,0,1,15.337,61.62,31.347,31.347,0,0,1,12.8,49.04,30.192,30.192,0,0,1,15.562,36.63,33.654,33.654,0,0,1,22.9,26.476,32.251,32.251,0,0,1,33.163,19.481Zm.113.338a27.767,27.767,0,0,0-9.759,7.108A29.006,29.006,0,0,0,17.649,37.25l-.79,2.821L16.3,43c-.056.959-.226,1.918-.282,2.933,0,.959-.056,1.918,0,2.933A30.784,30.784,0,0,0,18.608,60.1,31.469,31.469,0,0,0,25.1,69.574a29.71,29.71,0,0,0,9.59,6.375,31.32,31.32,0,0,0,22.96.226A28.549,28.549,0,0,0,74.118,59.646c.338-.959.621-1.918.9-2.877.226-.959.451-1.974.621-2.933.113-1.015.226-1.974.282-2.99v-2.99a31.205,31.205,0,0,0-2.933-11.339,33.456,33.456,0,0,0-16.3-16.19,30.25,30.25,0,0,0-11.564-2.764A26.889,26.889,0,0,0,33.276,19.819Z" transform="translate(0 -0.116)"/>
    <g id="Group_990" data-name="Group 990" transform="translate(33.558 38.319)">
      <path id="Path_1119" data-name="Path 1119" d="M56.257,58.628A3.328,3.328,0,1,1,52.928,55.3,3.334,3.334,0,0,1,56.257,58.628Z" transform="translate(-49.6 -55.3)"/>
      <path id="Path_1120" data-name="Path 1120" d="M88.357,58.628A3.328,3.328,0,1,1,85.028,55.3,3.3,3.3,0,0,1,88.357,58.628Z" transform="translate(-63.592 -55.3)"/>
    </g>
    <path id="Path_1121" data-name="Path 1121" d="M74.591,82.7A14.639,14.639,0,0,1,68.5,90.316a18.1,18.1,0,0,1-19.406,0A15.149,15.149,0,0,1,43,82.7,23.368,23.368,0,0,0,50.334,88a21.074,21.074,0,0,0,16.811,0A23.173,23.173,0,0,0,74.591,82.7Z" transform="translate(-13.166 -28.924)"/>
  </g>
</svg>
