<?xml version="1.0" encoding="UTF-8"?>
<svg width="89px" height="88px" viewBox="0 0 89 88" version="1.1" xmlns="http://www.w3.org/2000/svg" xmlns:xlink="http://www.w3.org/1999/xlink">
    <!-- Generator: Sketch 51.3 (57544) - http://www.bohemiancoding.com/sketch -->
    <title>Speed</title>
    <desc>Created with Sketch.</desc>
    <defs>
        <polygon id="path-1" points="0.82373 0.718105052 84.5956389 0.718105052 84.5956389 84.4881672 0.82373 84.4881672"></polygon>
    </defs>
    <g id="Page-1" stroke="none" stroke-width="1" fill="none" fill-rule="evenodd">
        <g id="Speed">
            <g id="Group-380" transform="translate(1.000000, 0.000000)" fill-rule="nonzero">
                <path d="M44.149134,0.91065 C45.565267,0.91065 46.977987,0.98005 48.387293,1.11886 C49.796605,1.25766 51.195718,1.4652 52.584634,1.74147 C53.973554,2.01775 55.34559,2.36142 56.700743,2.77251 C58.055895,3.18359 59.387636,3.66009 60.695967,4.20202 C62.0043,4.74395 63.282926,5.34869 64.531847,6.01625 C65.780763,6.68381 66.993952,7.41097 68.171419,8.19773 C69.348886,8.98449 70.484964,9.82706 71.579653,10.72545 C72.674332,11.62383 73.722353,12.5737 74.723703,13.57505 C75.725061,14.57641 76.674929,15.62443 77.573313,16.71911 C78.471689,17.8138 79.314257,18.94987 80.101007,20.12734 C80.887773,21.30481 81.614938,22.518 82.282503,23.76691 C82.950067,25.01583 83.554804,26.29445 84.096727,27.60279 C84.638666,28.91112 85.115166,30.24286 85.526247,31.59802 C85.937326,32.95317 86.281008,34.3252 86.557276,35.71412 C86.833551,37.10304 87.041093,38.50216 87.179911,39.91147 C87.318712,41.32078 87.388117,42.7335 87.388109,44.14963 C87.388117,45.56576 87.318712,46.97848 87.179903,48.38779 C87.041093,49.7971 86.833551,51.19621 86.557276,52.58513 C86.281008,53.97405 85.937326,55.34608 85.526239,56.70124 C85.115166,58.05639 84.638666,59.38813 84.096727,60.69646 C83.554804,62.00479 82.950067,63.28342 82.282503,64.53234 C81.614938,65.78126 80.887781,66.99444 80.101015,68.17191 C79.314264,69.34938 78.471697,70.48546 77.573313,71.58015 C76.674929,72.67483 75.725061,73.72285 74.723703,74.7242 C73.722353,75.72555 72.674332,76.67542 71.579653,77.57381 C70.484964,78.47218 69.348886,79.31475 68.171411,80.1015 C66.993944,80.88827 65.780756,81.61543 64.531843,82.283 C63.282926,82.95056 62.0043,83.5553 60.695967,84.09722 C59.387636,84.63916 58.055891,85.11566 56.700738,85.52674 C55.345587,85.93782 53.973546,86.2815 52.584627,86.55777 C51.195711,86.83404 49.796598,87.04159 48.387293,87.1804 C46.977987,87.3192 45.565267,87.3886 44.149134,87.3886 C42.733007,87.3886 41.320288,87.3192 39.910974,87.1804 C38.501665,87.04159 37.102548,86.83404 35.713629,86.55777 C34.324709,86.2815 32.952677,85.93782 31.597524,85.52673 C30.242369,85.11566 28.910627,84.63916 27.602293,84.09722 C26.29396,83.5553 25.015337,82.95056 23.766422,82.283 C22.517507,81.61543 21.304315,80.88827 20.126846,80.10151 C18.949377,79.31476 17.813301,78.47219 16.718618,77.57381 C15.623934,76.67542 14.575915,75.72555 13.57456,74.7242 C12.573204,73.72285 11.623336,72.67483 10.724953,71.58015 C9.82657,70.48546 8.983998,69.34938 8.197238,68.1719 C7.410478,66.99444 6.683319,65.78125 6.015761,64.53234 C5.348202,63.28342 4.743458,62.00479 4.201528,60.69646 C3.659599,59.38813 3.183094,58.05638 2.772013,56.70123 C2.360932,55.34608 2.017255,53.97404 1.740982,52.58512 C1.464709,51.1962 1.25717,49.79709 1.118365,48.38779 C0.97956,46.97848 0.910158,45.56576 0.910158,44.14963 C0.910158,42.7335 0.97956,41.32078 1.118365,39.91147 C1.25717,38.50216 1.464709,37.10304 1.740982,35.71412 C2.017255,34.3252 2.360932,32.95317 2.772013,31.59802 C3.183094,30.24286 3.659599,28.91112 4.201528,27.60279 C4.743458,26.29445 5.348202,25.01583 6.015761,23.76691 C6.683319,22.518 7.410478,21.30481 8.197238,20.12734 C8.983998,18.94987 9.82657,17.81379 10.724953,16.71911 C11.623336,15.62443 12.573204,14.57641 13.57456,13.57505 C14.575915,12.5737 15.623934,11.62383 16.718619,10.72545 C17.813303,9.82706 18.949377,8.98449 20.126846,8.19773 C21.304315,7.41097 22.517505,6.68381 23.76642,6.01625 C25.015334,5.34869 26.29396,4.74395 27.602293,4.20202 C28.910627,3.66009 30.242369,3.18359 31.597524,2.77251 C32.952677,2.36142 34.324709,2.01775 35.713629,1.74147 C37.102548,1.4652 38.501665,1.25766 39.910974,1.11886 C41.320288,0.98005 42.733007,0.91065 44.149134,0.91065 Z" id="Fill-360" fill="#FFDF00"></path>
                <path d="M66.444585,8.34723 L78.968445,20.87109 C76.631505,28.65651 72.505725,37.94559 65.261215,45.19008 C62.278005,48.17218 59.103501,50.95732 55.902665,53.43092 C51.616593,56.74702 47.287354,59.50657 43.330338,61.43775 C41.903398,57.55554 39.631349,53.91497 36.516435,50.79852 C33.398805,47.68357 29.759004,45.41073 25.877168,43.98459 C27.807221,40.02641 30.567506,35.69795 33.883988,31.4111 C36.358018,28.21143 39.141587,25.0358 42.124848,22.05332 C49.368577,14.8088 58.658387,10.68343 66.444585,8.34723 Z" id="Fill-362" fill="#FFFFFF"></path>
                <path d="M25.363586,53.52901 L34.065552,62.23098 C33.504776,63.15057 32.804703,64.04763 31.971756,64.88018 C28.138397,68.71319 18.088928,69.50678 18.088928,69.50678 C18.088928,69.50678 18.883682,59.45846 22.716278,55.62473 C23.549209,54.79217 24.444,54.09168 25.363586,53.52901 Z" id="Fill-364" fill="#FFFFFF"></path>
                <path d="M65.26137,22.05354 C67.81628,24.6096 67.81628,28.75178 65.26137,31.30747 C62.70644,33.86472 58.56349,33.86472 56.00856,31.30747 C53.45094,28.75178 53.45094,24.6096 56.00856,22.05354 C58.56349,19.49783 62.70644,19.49783 65.26137,22.05354 Z" id="Fill-366" fill="#FFFFFF"></path>
                <path d="M81.960495,5.35465 C81.960495,5.35465 81.580675,12.17583 78.968495,20.87128 L66.444625,8.34744 C75.140065,5.7341 81.960495,5.35465 81.960495,5.35465 Z" id="Fill-368" fill="#FFFFFF"></path>
                <path d="M55.983063,53.53581 C58.136782,63.06611 55.503632,73.45762 48.085033,80.87697 C46.077103,82.88487 43.852003,84.54005 41.486423,85.84791 C45.636993,78.32927 46.252322,69.38072 43.330553,61.43803 C47.287602,59.50686 51.616803,56.74733 55.902923,53.43121 L55.983063,53.53581 Z" id="Fill-370" fill="#FFFFFF"></path>
                <path d="M33.779167,31.33149 L33.884132,31.41127 C30.567657,35.69812 27.807358,40.02658 25.877313,43.98475 C17.934617,41.06299 8.984909,41.67834 1.467842,45.82852 C2.775269,43.46293 4.430466,41.23706 6.437996,39.23027 C13.857719,31.81056 24.249992,29.17813 33.779167,31.33149 Z" id="Fill-372" fill="#FFFFFF"></path>
                <path d="M24.51574,52.68137 C23.688546,51.85379 23.324761,50.64215 23.662194,49.521 C24.177147,47.79788 24.926491,45.93657 25.877396,43.98474 C29.759232,45.41089 33.399063,47.68372 36.516648,50.79866 C39.631577,53.91512 41.903672,57.5557 43.330567,61.43791 C41.378769,62.38846 39.516327,63.13701 37.793915,63.65312 C36.673935,63.99018 35.461182,63.62677 34.633576,62.79917 L24.51574,52.68137 Z" id="Fill-374" fill="#FFFFFF"></path>
                <path d="M45.596883,25.52414 C44.957113,26.16162 44.957113,27.19843 45.596883,27.83707 C46.234773,28.47684 47.270033,28.47684 47.909803,27.83707 C48.547293,27.19843 48.547293,26.16162 47.909803,25.52414 C47.270033,24.884 46.234773,24.884 45.596883,25.52414 Z" id="Fill-376" fill="#000000"></path>
                <path d="M43.368684,30.2377 C42.68271,29.64869 41.650499,29.72696 41.061463,30.41331 C39.247102,32.5262 35.915742,36.51452 33.977311,39.48021 C33.482194,40.23683 33.69481,41.25068 34.451417,41.74542 C35.211045,42.24052 36.22342,42.02406 36.716203,41.27054 C38.620698,38.35525 42.125764,34.19705 43.544648,32.5449 C44.133287,31.85855 44.053498,30.82557 43.368684,30.2377 Z" id="Fill-378" fill="#000000"></path>
            </g>
            <g id="Group-392" transform="translate(0.000000, 3.000000)">
                <path d="M55.8512225,17.8968045 C52.6530625,21.0922925 52.6515625,26.2662805 55.8504825,29.4632945 C59.0470725,32.6622165 64.2207225,32.6629945 67.4180725,29.4632945 C70.6143525,26.2670515 70.6151125,21.0938105 67.4180725,17.8968045 C64.2214625,14.7009505 59.0478525,14.6994245 55.8512225,17.8968045 Z M65.1044025,27.1503755 L65.1036525,27.1503755 C63.1862225,29.0685955 60.0838625,29.0712505 58.1641725,27.1496125 C56.2451625,25.2321775 56.2444125,22.1294475 58.1648825,20.2104945 C60.0823525,18.2930525 63.1854425,18.2930525 65.1044025,20.2104945 C67.0218325,22.1279295 67.0226025,25.2314075 65.1044025,27.1503755 Z" id="Fill-381" fill="#000000" fill-rule="nonzero"></path>
                <path d="M3.624701,84.004825 L13.850913,73.777035 C14.489928,73.138795 14.489928,72.102385 13.850913,71.463375 C13.211516,70.824765 12.176253,70.824765 11.537238,71.463375 L1.311019,81.690005 C0.672004,82.329375 0.672004,83.365755 1.311019,84.004825 C1.950042,84.643065 2.985297,84.643065 3.624701,84.004825 Z" id="Fill-383" fill="#000000" fill-rule="nonzero"></path>
                <path d="M19.984855,84.004825 L30.211463,73.777035 C30.850097,73.138795 30.850097,72.102385 30.211463,71.463375 C29.572433,70.824765 28.537177,70.824765 27.897399,71.463375 L17.670417,81.690005 C17.031776,82.329375 17.031776,83.365755 17.670417,84.004825 C18.310195,84.643065 19.345443,84.643065 19.984855,84.004825 Z" id="Fill-385" fill="#000000" fill-rule="nonzero"></path>
                <path d="M1.311019,67.643855 C1.950042,68.282895 2.985297,68.282895 3.624701,67.643855 L13.850913,57.417665 C14.489928,56.778625 14.489928,55.742245 13.850913,55.103975 C13.211516,54.464965 12.176253,54.464965 11.537238,55.103975 L1.311019,65.330165 C0.672004,65.969235 0.672004,67.004855 1.311019,67.643855 Z" id="Fill-387" fill="#000000" fill-rule="nonzero"></path>
                <g id="Group-391">
                    <g id="Fill-389-Clipped">
                        <mask id="mask-2" fill="white">
                            <use xlink:href="#path-1"></use>
                        </mask>
                        <g id="path-1"></g>
                        <path d="M84.593018,2.4455185 C84.61937,1.9809345 84.44603,1.5270615 84.116989,1.1980055 C83.787918,0.8685765 83.333283,0.6937415 82.86911,0.7208485 C74.553849,1.1850355 54.69426,5.1691745 41.966927,17.8968735 C39.234101,20.6296995 36.648636,23.5388795 34.26471,26.5522615 C24.059876,24.5462645 13.658829,27.6955725 6.281098,35.0736695 C4.208664,37.1464695 2.443924,39.4891745 1.035324,42.0368505 C0.242077,43.4725415 1.830094,45.0502395 3.257782,44.2608115 C9.798745,40.6500015 17.490654,39.8415075 24.623314,41.9608765 C23.993073,43.3950505 23.479264,44.7658465 23.09562,46.0500035 C22.661209,47.4925535 22.964691,49.0576635 23.880074,50.2841565 C23.422379,50.6517715 22.980721,51.0461045 22.558907,51.4679185 C18.348015,55.6791685 17.491417,65.9427945 17.457054,66.3783575 C17.381852,67.3311465 18.136162,68.1431125 19.087815,68.1431125 C19.129807,68.1431125 19.17408,68.1412045 19.216469,68.1381375 C19.650872,68.1037905 29.916031,67.2483215 34.128067,63.0370635 C34.567429,62.5976865 34.977021,62.1376955 35.357613,61.6597595 C36.54786,62.4098665 37.965988,62.6106725 39.262734,62.2205355 C40.548027,61.8365025 41.919213,61.3226935 43.35376,60.6920625 C45.474282,67.8232115 44.665772,75.5162505 41.054596,82.0568395 C40.25486,83.5043795 41.863854,85.0599365 43.277794,84.2793125 C45.826607,82.8710935 48.16893,81.1071015 50.241341,79.0339055 C57.618317,71.6565405 60.768753,61.2547455 58.762749,51.0510635 C61.776146,48.6660005 64.684937,46.0801465 67.418122,43.3469395 C73.683106,37.0819625 78.430344,28.6758425 81.528458,18.3633505 C83.139389,13.2496725 84.384583,6.1937415 84.593018,2.4455185 Z M7.051049,39.0600965 C7.541573,38.4832995 8.0569,37.9248275 8.594765,37.3869705 C14.807831,31.1738965 23.419342,28.3147205 32.023568,29.4961775 C29.667519,32.7237395 27.639,35.9474565 26.058998,38.9784165 C19.826462,37.0098195 13.182038,37.0609745 7.051049,39.0600965 Z M31.814377,60.7233735 C29.564438,62.9733125 24.285477,64.1593175 20.949913,64.6437375 C21.433182,61.3108675 22.61808,56.0372465 24.872582,53.7815935 C25.284088,53.3708425 25.71698,52.9925615 26.167801,52.6470795 L32.94812,59.4277805 C32.603806,59.8782195 32.225884,60.3118595 31.814377,60.7233735 Z M38.323296,59.0865325 C37.814072,59.2392125 37.212838,59.0647585 36.789864,58.6421965 L26.672463,48.5247655 C26.249878,48.1021885 26.075806,47.5005795 26.229271,46.9902045 C26.59343,45.7717215 27.088913,44.4589315 27.706177,43.0755385 C30.931443,44.4616015 33.836426,46.4340215 36.358513,48.9553455 C38.87986,51.4778365 40.853417,54.3824235 42.239487,57.6084445 C40.854943,58.2260895 39.542168,58.7215735 38.323296,59.0865325 Z M47.927666,76.7202305 C47.389435,77.2584845 46.831711,77.7730405 46.254921,78.2628175 C48.254433,72.1329655 48.304825,65.4881745 46.336991,59.2552335 C49.367554,57.6756445 52.590905,55.6471105 55.81884,53.2910535 C57.001061,61.8952945 54.140732,70.5071565 47.927666,76.7202305 Z M65.104477,41.0332795 C59.459015,46.6779325 52.25689,52.4123155 45.180344,56.1681525 C43.634331,52.6207425 41.451592,49.4222265 38.672203,46.6416705 C35.892044,43.8630445 32.693886,41.6803055 29.146836,40.1354295 C32.902703,33.0577475 38.636307,25.8548505 44.280617,20.2105635 C49.976036,14.5158695 57.609536,10.1408465 66.982605,7.1999895 L78.114624,18.3312835 C75.173798,27.7043305 70.799149,35.3385925 65.104477,41.0332795 Z M79.147614,14.7368925 L70.576981,6.1662525 C75.148209,4.9718095 78.982331,4.4133535 81.14827,4.1663595 C80.901291,6.3315435 80.342804,10.1664275 79.147614,14.7368925 Z" id="Fill-389" fill="#000000" fill-rule="nonzero" mask="url(#mask-2)"></path>
                    </g>
                </g>
            </g>
        </g>
    </g>
</svg>