<svg xmlns="http://www.w3.org/2000/svg" width="72" height="72" viewBox="0 0 72 72">
  <g id="Group_3765" data-name="Group 3765" transform="translate(-924 -763)">
    <rect id="Rectangle_4248" data-name="Rectangle 4248" width="72" height="72" rx="10" transform="translate(924 763)" fill="#ffe100"/>
    <path id="Path_5546" data-name="Path 5546" d="M269.545,272.4a1.266,1.266,0,0,1-1.283-1.251l-.191-15.42a1.266,1.266,0,0,1,.746-1.17l6.73-3.041a1.269,1.269,0,0,1,1.791,1.138l.132,10.7a1.268,1.268,0,1,1-2.537.031l-.107-8.764-4.207,1.9.156,12.647,15.939-7.249-.218-17.383-10.9-7.006-10.017,13.784.243,19.648a1.268,1.268,0,0,1-2.016,1.04l-12.7-9.245a1.27,1.27,0,0,1-.521-1.008l-.232-18.8a1.271,1.271,0,0,1,.294-.827l10.957-13.123a1.268,1.268,0,0,1,1.557-.314l7.044,3.635-.032-2.6a1.268,1.268,0,0,1,.657-1.125l4.621-2.542a1.27,1.27,0,0,1,1.2-.012l2.129,1.115a1.264,1.264,0,0,1,.682,1.106l.068,5.492A1.269,1.269,0,1,1,277,233.8l-.058-4.735-.854-.448-3.358,1.847.048,3.954a1.27,1.27,0,0,1-1.851,1.143l-8.019-4.142-10,11.982.218,17.7,10.136,7.378-.217-17.535a1.269,1.269,0,0,1,.245-.761l10.965-15.094a1.269,1.269,0,0,1,1.714-.322l12.475,8.024a1.273,1.273,0,0,1,.583,1.05l.235,18.89a1.267,1.267,0,0,1-.744,1.169l-18.46,8.4a1.247,1.247,0,0,1-.509.114" transform="translate(690.641 550.093)"/>
  </g>
</svg>
