<?xml version="1.0" encoding="UTF-8"?>
<svg width="98px" height="87px" viewBox="0 0 98 87" version="1.1" xmlns="http://www.w3.org/2000/svg" xmlns:xlink="http://www.w3.org/1999/xlink">
    <!-- Generator: Sketch 51.3 (57544) - http://www.bohemiancoding.com/sketch -->
    <title>Group 4</title>
    <desc>Created with Sketch.</desc>
    <defs></defs>
    <g id="Page-1" stroke="none" stroke-width="1" fill="none" fill-rule="evenodd">
        <g id="WEB---HOMEPAGE_002" transform="translate(-792.000000, -2549.000000)">
            <g id="Group-517" transform="translate(31.000000, 2491.000000)">
                <g id="Group-4" transform="translate(761.000000, 58.000000)">
                    <path d="M43.149361,0.388175 C44.562553,0.388175 45.972347,0.457433645 47.378738,0.59595094 C48.785126,0.73446821 50.181339,0.94157713 51.567379,1.21727769 C52.953419,1.49297832 54.322609,1.83594297 55.674953,2.2461717 C57.02729,2.6564004 58.35627,3.1319179 59.661892,3.672724 C60.967514,4.2135303 62.243488,4.8170209 63.489815,5.4831962 C64.736137,6.1493716 65.946815,6.8750238 67.121841,7.6601524 C68.296875,8.445282 69.430603,9.2861071 70.523018,10.1826286 C71.615433,11.0791502 72.661285,12.02705 73.660561,13.026329 C74.659836,14.0256081 75.607735,15.071455 76.504257,16.1638689 C77.40078,17.256284 78.241608,18.390004 79.026733,19.565032 C79.811867,20.74006 80.537514,21.950738 81.20369,23.197064 C81.869865,24.443391 82.473358,25.719365 83.01416,27.024987 C83.55497,28.330609 84.030495,29.659591 84.44072,31.011933 C84.850952,32.364278 85.193916,33.73347 85.46962,35.11951 C85.745323,36.505553 85.952431,37.901771 86.09095,39.308162 C86.229462,40.714549 86.298721,42.124339 86.298721,43.537536 C86.298721,44.950728 86.229462,46.360522 86.09095,47.766913 C85.952431,49.173301 85.745323,50.569514 85.46962,51.955554 C85.193916,53.341594 84.850952,54.710784 84.44072,56.063128 C84.030495,57.415465 83.55497,58.744445 83.01416,60.050067 C82.473358,61.355689 81.869865,62.631663 81.20369,63.87799 C80.537514,65.124312 79.811867,66.33499 79.026733,67.510016 C78.241608,68.68505 77.40078,69.818778 76.504257,70.911193 C75.607735,72.003608 74.659836,73.04946 73.660561,74.048736 C72.661285,75.048011 71.61544,75.99591 70.523026,76.892432 C69.430603,77.788955 68.296875,78.629783 67.121841,79.414908 C65.946815,80.200042 64.736137,80.925689 63.489815,81.591865 C62.243488,82.25804 60.967514,82.861533 59.661892,83.402335 C58.35627,83.943145 57.02729,84.41867 55.674953,84.828895 C54.322609,85.239127 52.953419,85.582091 51.567379,85.857795 C50.181339,86.133498 48.785126,86.340606 47.378738,86.479125 C45.972347,86.617637 44.562553,86.686896 43.149361,86.686896 C41.736164,86.686896 40.326374,86.617637 38.919983,86.479125 C37.513592,86.340606 36.117378,86.133498 34.731335,85.857795 C33.345295,85.582091 31.976103,85.239127 30.623758,84.828895 C29.271416,84.41867 27.942434,83.943145 26.636812,83.402335 C25.33119,82.861533 24.055216,82.25804 22.808889,81.591865 C21.562563,80.925689 20.351885,80.200042 19.176857,79.414908 C18.001829,78.629783 16.868109,77.788955 15.7756939,76.892432 C14.68328,75.99591 13.6374331,75.048011 12.638154,74.048736 C11.638875,73.04946 10.6909752,72.003615 9.7944536,70.911201 C8.8979321,69.818778 8.057107,68.68505 7.2719774,67.510016 C6.4868488,66.33499 5.7611966,65.124312 5.0950212,63.87799 C4.4288459,62.631663 3.8253553,61.355689 3.284549,60.050067 C2.7437429,58.744445 2.2682254,57.415465 1.8579967,56.063128 C1.44776797,54.710784 1.10480332,53.341594 0.82910269,51.955554 C0.55340213,50.569514 0.34629321,49.173301 0.20777594,47.766913 C0.069258645,46.360522 0,44.950728 0,43.537536 C0,42.124339 0.069258645,40.714549 0.20777594,39.308158 C0.34629321,37.901767 0.55340213,36.505553 0.82910269,35.11951 C1.10480332,33.73347 1.44776797,32.364278 1.8579967,31.011933 C2.2682254,29.659591 2.7437429,28.330609 3.284549,27.024987 C3.8253553,25.719365 4.4288459,24.443391 5.0950212,23.197064 C5.7611966,21.950738 6.4868488,20.74006 7.2719774,19.565032 C8.057107,18.390004 8.8979321,17.256284 9.7944536,16.1638689 C10.6909752,15.071455 11.638875,14.0256081 12.638154,13.026329 C13.6374331,12.02705 14.68328,11.0791502 15.7756939,10.1826286 C16.868109,9.2861071 18.001829,8.445282 19.176857,7.6601524 C20.351885,6.8750238 21.562563,6.1493716 22.808889,5.4831962 C24.055216,4.8170209 25.33119,4.2135303 26.636812,3.672724 C27.942434,3.1319179 29.271416,2.6564004 30.623758,2.2461717 C31.976103,1.83594297 33.345295,1.49297832 34.731335,1.21727769 C36.117378,0.94157713 37.513596,0.73446821 38.919987,0.59595094 C40.326374,0.457433645 41.736164,0.388175 43.149361,0.388175 Z" id="Fill-401" fill="#FFE100"></path>
                    <path d="M45.250497,3.134304 L7.657694,15.454326 C6.096597,15.96593 5.24595,17.64587 5.757562,19.206974 L26.692949,83.08929 C27.204546,84.650386 28.8845,85.501033 30.445985,84.989421 L79.06093,69.057308 C80.62166,68.546077 81.472658,66.865749 80.961076,65.304668 L63.637758,12.444507 L45.250497,3.134304 Z" id="Fill-403" fill="#FFFFFF"></path>
                    <path d="M75.469965,56.13346 L91.061525,64.02848 C92.814205,64.91569 94.953585,64.21475 95.840455,62.46243 C96.727965,60.71009 96.027095,58.57073 94.274355,57.68351 L78.682435,49.78889 L75.469965,56.13346 Z" id="Fill-405" fill="#FFFFFF"></path>
                    <path d="M78.08693,39.326733 C81.15617,48.69331 76.05156,58.774925 66.68498,61.844555 C57.3184,64.914185 47.2368,59.809205 44.16717,50.442959 C41.09753,41.076397 46.20216,30.994412 55.56871,27.924786 C64.93531,24.85516 75.0173,29.960141 78.08693,39.326733 Z" id="Fill-407" fill="#FFFFFF"></path>
                    <path d="M72.150585,41.272103 C74.145965,47.36033 70.827955,53.913265 64.739345,55.908625 C58.651175,57.904015 52.098215,54.585625 50.102855,48.497425 C48.107475,42.409219 51.425865,35.855889 57.514065,33.860909 C63.602255,31.865533 70.155205,35.183511 72.150585,41.272103 Z" id="Fill-409" fill="#FFFFFF"></path>
                    <path d="M52.616005,16.056983 L63.637785,12.4449 L45.250885,3.135077 L48.862975,14.15647 C49.374585,15.717948 51.054535,16.568595 52.616005,16.056983 Z" id="Fill-411" fill="#FFFFFF"></path>
                    <path d="M57.0507,32.447534 C50.19262,34.694696 46.44189,42.102487 48.68943,48.960581 C50.93699,55.81828 58.3444,59.56941 65.20248,57.32185 C72.06056,55.07427 75.81131,47.666513 73.56376,40.808801 C71.31657,33.950723 63.90841,30.199976 57.0507,32.447534 Z M64.27603,54.49525 C58.97674,56.23197 53.25274,53.33338 51.51602,48.034128 C49.77931,42.734842 52.67749,37.010828 57.97717,35.274118 C63.27644,33.537409 69.00045,36.435602 70.73718,41.734888 C72.47387,47.034525 69.57568,52.75854 64.27603,54.49525 Z" id="Fill-413" fill="#000000"></path>
                    <path d="M94.945905,56.356525 L80.053403,48.81541 C80.724607,45.610172 80.590894,42.193126 79.499876,38.863323 C77.889265,33.949177 74.485166,30.115772 70.250639,27.848789 L65.050794,11.981449 L65.04733,11.982593 C64.926984,11.614986 64.668302,11.299946 64.309858,11.117855 L45.922201,1.80727 C45.563352,1.62556 45.155752,1.604229 44.788137,1.724994 C44.787382,1.723087 44.787382,1.722706 44.787382,1.720791 L7.19457,14.040432 C4.856733,14.806888 3.577917,17.332142 4.344373,19.669986 L25.279768,83.552295 C26.045827,85.890125 28.571088,87.168949 30.908926,86.402469 L79.523878,70.470752 C81.861707,69.704685 83.140531,67.17905 82.374464,64.841221 L80.981733,60.591449 L90.38986,65.355503 C91.630186,65.983677 93.010358,66.048435 94.238493,65.645755 C95.465515,65.243885 96.539765,64.374561 97.167935,63.134235 C98.423495,60.653141 97.427365,57.612865 94.945905,56.356525 Z M66.221418,60.431064 C57.649488,63.240513 48.389181,58.551494 45.580106,49.979572 C42.770666,41.407245 47.459676,32.147335 56.031614,29.337894 C64.603559,26.528835 73.863859,31.217449 76.67291,39.789783 C79.482358,48.361713 74.793348,57.622013 66.221418,60.431064 Z M47.782331,6.083332 L59.76254,12.14983 L52.152486,14.643848 C51.373098,14.899456 50.531599,14.472805 50.276357,13.693775 L47.782331,6.083332 Z M79.54788,65.767292 C79.80348,66.547077 79.376447,67.388569 78.597822,67.643818 L29.982854,83.575916 C29.203069,83.831501 28.36157,83.405246 28.106336,82.625843 L7.170949,18.743915 C6.915342,17.96413 7.341627,17.122623 8.121015,16.867397 L44.300535,5.010608 L47.449392,14.619465 C48.215459,16.957683 50.74072,18.236126 53.078947,17.470043 L62.687421,14.321193 L66.632062,26.358562 C62.987211,25.269069 58.986967,25.239338 55.105161,26.511303 C44.974035,29.831592 39.43324,40.774502 42.75353,50.905636 C43.401517,52.883869 44.342054,54.686863 45.50926,56.283382 L28.238531,61.943409 C27.458356,62.199009 27.032468,63.03899 27.288465,63.819919 C27.544073,64.599689 28.384817,65.025593 29.164602,64.769977 L47.212446,58.855503 C47.345403,58.811695 47.468061,58.749592 47.578527,58.674915 C52.573057,63.565082 60.059309,65.580631 67.147855,63.257648 C70.476896,62.16663 73.310331,60.252018 75.496564,57.813999 L77.228712,58.690937 L79.54788,65.767292 Z M94.513535,61.790241 C93.998502,62.808506 92.751676,63.216892 91.733808,62.701481 L77.334241,55.410259 C78.08621,54.249546 78.712492,53.012241 79.202726,51.719326 L93.602323,59.010158 C94.620575,59.52557 95.029325,60.77277 94.513535,61.790241 Z" id="Fill-415" fill="#000000"></path>
                    <path d="M59.042555,38.52525 C58.261625,38.781246 57.836485,39.621212 58.092095,40.40176 C58.348095,41.18232 59.188055,41.60785 59.968635,41.3522 C61.916375,40.71374 64.021065,41.77925 64.659145,43.727 C64.915135,44.50753 65.755105,44.93306 66.535665,44.67707 C67.316205,44.42144 67.741705,43.5811 67.485745,42.80056 C66.336815,39.293988 62.549115,37.376309 59.042555,38.52525 Z" id="Fill-417" fill="#000000"></path>
                    <path d="M37.746721,47.97555 L25.027101,52.14381 C24.247301,52.39943 23.821397,53.23977 24.077028,54.02034 C24.333009,54.80087 25.173753,55.22638 25.953554,54.97076 L38.672792,50.80213 C39.453706,50.54652 39.878862,49.70617 39.623247,48.92561 C39.367235,48.14506 38.527254,47.71994 37.746721,47.97555 Z" id="Fill-419" fill="#000000"></path>
                    <path d="M35.372274,37.902429 L21.815732,42.34533 C21.035558,42.60096 20.609678,43.44131 20.865278,44.22187 C21.121274,45.00166 21.962011,45.42756 22.741804,45.17193 L36.298726,40.72901 C37.079656,40.473031 37.50443,39.632669 37.248784,38.852487 C36.993169,38.071939 36.153203,37.646432 35.372274,37.902429 Z" id="Fill-421" fill="#000000"></path>
                    <path d="M49.23613,65.913365 C48.86395,66.035255 48.54891,66.305355 48.37254,66.655065 C48.19576,67.003625 48.16416,67.417705 48.28607,67.789875 C48.40798,68.161295 48.67842,68.476695 49.02738,68.652715 C49.3763,68.830235 49.79039,68.861855 50.16258,68.739955 C50.53398,68.618035 50.84943,68.347575 51.02692,67.997505 C51.20407,67.649315 51.23454,67.234855 51.11263,66.863425 C50.99074,66.491245 50.72104,66.176195 50.3721,65.999445 C50.02202,65.822715 49.60793,65.791485 49.23613,65.913365 Z" id="Fill-423" fill="#000000"></path>
                    <path d="M43.431718,67.815385 L31.449968,71.742125 C30.669817,71.997755 30.243913,72.838085 30.499529,73.618645 C30.755144,74.398805 31.596254,74.824325 32.376039,74.568725 L44.358171,70.642335 C45.137956,70.386735 45.56386,69.545625 45.308244,68.765835 C45.052232,67.985285 44.212251,67.559785 43.431718,67.815385 Z" id="Fill-425" fill="#000000"></path>
                    <path d="M19.530074,35.37325 C19.903396,35.250981 20.216918,34.980504 20.393676,34.631566 C20.571578,34.280339 20.60205,33.868932 20.480147,33.496739 C20.358626,33.124944 20.089683,32.809895 19.738448,32.632008 C19.38951,32.455251 18.975432,32.424764 18.603621,32.546285 C18.232215,32.668202 17.918326,32.937505 17.740035,33.286839 C17.563285,33.635793 17.53128,34.049855 17.653556,34.42281 C17.775466,34.794988 18.046302,35.110036 18.395255,35.286382 C18.744575,35.463155 19.158652,35.494771 19.530074,35.37325 Z" id="Fill-427" fill="#000000"></path>
                    <path d="M45.719016,23.660477 L24.59545,30.582932 C23.815299,30.838548 23.389396,31.678895 23.645392,32.459443 C23.900992,33.239625 24.741736,33.665513 25.521522,33.409913 L46.645453,26.487046 C47.426017,26.231461 47.851142,25.390717 47.595542,24.610535 C47.339545,23.830003 46.499579,23.404488 45.719016,23.660477 Z" id="Fill-429" fill="#000000"></path>
                    <path d="M16.319303,25.573696 L43.433553,16.687855 C44.214101,16.431866 44.639608,15.591892 44.383993,14.811336 C44.127996,14.030796 43.28803,13.605282 42.507467,13.861278 L15.393224,22.747112 C14.613065,23.00272 14.187177,23.843082 14.442785,24.62363 C14.698781,25.404171 15.539525,25.829311 16.319303,25.573696 Z" id="Fill-431" fill="#000000"></path>
                </g>
            </g>
        </g>
    </g>
</svg>